<svg id="Layer_1" data-name="Layer 1" xmlns="http://www.w3.org/2000/svg" xmlns:xlink="http://www.w3.org/1999/xlink" viewBox="0 0 1920 1080"><defs><style>.cls-1{fill:#4ba4bb;}.cls-2{fill:#17798a;}.cls-3{fill:#131311;}.cls-4{clip-path:url(#clip-path);}.cls-5{fill:#151413;}.cls-6{clip-path:url(#clip-path-2);}.cls-7{clip-path:url(#clip-path-3);}.cls-8{clip-path:url(#clip-path-4);}.cls-9{clip-path:url(#clip-path-5);}.cls-10{clip-path:url(#clip-path-6);}.cls-11{clip-path:url(#clip-path-7);}.cls-12{clip-path:url(#clip-path-8);}.cls-13{fill:#fff;}.cls-14{fill:url(#linear-gradient);}</style><clipPath id="clip-path"><path class="cls-1" d="M79.2,610.92c5.61-2.59,9.27-7.17,6.53-14.35-9.65-25.33-14.62-45.16-21.94-67.74-1.45-4.48-3.63-9.67-7.38-9.94-4.18-.3-6.77,5.62-8.32,10.64C41.72,550,35.12,570.15,28,590.17c-1.85,5.18-5.19,14-2.52,19.52,3.78,7.89,14.92,5.25,20.8,5C51.48,614.44,69.08,615.58,79.2,610.92Z"/></clipPath><clipPath id="clip-path-2"><path class="cls-1" d="M284.38,643.47c5.62-2.59,9.27-7.16,6.53-14.35C281.26,603.79,276.29,584,269,561.38c-1.46-4.48-3.64-9.66-7.39-9.93-4.18-.3-6.76,5.61-8.32,10.63-6.37,20.49-13,40.62-20.12,60.64-1.85,5.18-5.19,14-2.52,19.53,3.78,7.89,14.92,5.24,20.8,5C256.66,647,274.27,648.14,284.38,643.47Z"/></clipPath><clipPath id="clip-path-3"><path class="cls-1" d="M486.56,770.86c5.61-2.59,9.27-7.17,6.53-14.35-9.65-25.33-14.63-45.16-21.94-67.74-1.45-4.48-3.63-9.67-7.38-9.94-4.18-.3-6.77,5.62-8.33,10.64-6.36,20.49-13,40.62-20.12,60.64-1.85,5.18-5.18,14-2.51,19.53,3.78,7.89,14.91,5.24,20.79,5C458.84,774.39,476.44,775.52,486.56,770.86Z"/></clipPath><clipPath id="clip-path-4"><path class="cls-1" d="M694.75,950.63c5.61-2.59,9.26-7.16,6.52-14.35-9.65-25.33-14.62-45.16-21.93-67.74-1.45-4.48-3.63-9.66-7.39-9.93-4.17-.3-6.76,5.61-8.32,10.63-6.37,20.49-13,40.62-20.12,60.65-1.85,5.17-5.18,14-2.52,19.52,3.79,7.89,14.92,5.24,20.8,5C667,954.16,684.63,955.3,694.75,950.63Z"/></clipPath><clipPath id="clip-path-5"><path class="cls-1" d="M1830.21,620.33c-5.61-2.59-9.26-7.16-6.53-14.35,9.65-25.33,14.63-45.16,21.94-67.74,1.45-4.48,3.63-9.67,7.39-9.93,4.17-.31,6.76,5.61,8.32,10.63,6.36,20.49,13,40.62,20.12,60.64,1.85,5.18,5.18,14,2.52,19.53-3.79,7.89-14.92,5.24-20.8,5C1857.94,623.86,1840.33,625,1830.21,620.33Z"/></clipPath><clipPath id="clip-path-6"><path class="cls-1" d="M1625,652.89c-5.61-2.59-9.26-7.17-6.53-14.35,9.65-25.33,14.63-45.16,21.94-67.74,1.45-4.48,3.63-9.67,7.38-9.94,4.18-.3,6.77,5.62,8.33,10.63,6.36,20.5,13,40.62,20.12,60.65,1.85,5.18,5.18,14,2.51,19.52-3.78,7.89-14.91,5.24-20.79,5C1652.76,656.41,1635.15,657.55,1625,652.89Z"/></clipPath><clipPath id="clip-path-7"><path class="cls-1" d="M1422.85,780.27c-5.61-2.58-9.26-7.16-6.52-14.35,9.65-25.32,14.62-45.16,21.93-67.74,1.45-4.48,3.63-9.66,7.39-9.93,4.17-.3,6.76,5.62,8.32,10.63,6.37,20.5,13,40.62,20.12,60.65,1.85,5.17,5.18,14,2.52,19.52-3.79,7.89-14.92,5.24-20.8,5C1450.58,783.8,1433,784.94,1422.85,780.27Z"/></clipPath><clipPath id="clip-path-8"><path class="cls-1" d="M1214.67,960.05c-5.61-2.59-9.27-7.17-6.53-14.35,9.65-25.33,14.62-45.16,21.94-67.74,1.45-4.48,3.63-9.67,7.38-9.94,4.18-.3,6.77,5.62,8.32,10.63,6.37,20.5,13,40.63,20.12,60.65,1.85,5.18,5.19,14,2.52,19.52-3.78,7.89-14.92,5.24-20.8,5C1242.39,963.57,1224.78,964.71,1214.67,960.05Z"/></clipPath><linearGradient id="linear-gradient" x1="961.53" y1="1079.63" x2="961.53" y2="2033.79" gradientUnits="userSpaceOnUse"><stop offset="0" stop-color="#fff"/><stop offset="0.28" stop-color="#f7fcfc"/><stop offset="0.71" stop-color="#e1f2f4"/><stop offset="1" stop-color="#ceeaee"/></linearGradient></defs><path class="cls-2" d="M161.36,604.74l0,50.58a113.2,113.2,0,0,1-.67,15.42c-1.29,8.76-5,8.75-6.29,0a112.46,112.46,0,0,1-.68-15.37l0-50.6"/><path class="cls-1" d="M150,605.39c-4.17,2.28-8.39,4.59-13,5.82a9.74,9.74,0,0,1-4.87.32,4.26,4.26,0,0,1-3.3-3.28,6,6,0,0,1,.76-3.21,29.81,29.81,0,0,1,5-7.4,29.14,29.14,0,0,1,3.15-2.93c.87-.71,2.6-2.41,3.74-2.56-2.56.32-5,1.47-7.52,1.7a6.47,6.47,0,0,1-5.39-1.81c-1.87-2.13.65-4.24,2.18-5.8l10.95-11.15a9.29,9.29,0,0,1-9.57-3.22,2.46,2.46,0,0,1-.65-1.78,2.74,2.74,0,0,1,1.39-1.65,50.84,50.84,0,0,1,14.49-6.76,8.67,8.67,0,0,1-7.87-.06,3.26,3.26,0,0,1-1.88-2.21,3.92,3.92,0,0,1,1.16-2.74,169.36,169.36,0,0,1,15.07-16.73,6.69,6.69,0,0,1,2.15-1.59c2.59-1,5.19,1.24,7.16,3.2a80.39,80.39,0,0,0,14.35,11.39,9.65,9.65,0,0,1,2.81,2.25,3.05,3.05,0,0,1,.34,3.37,4.23,4.23,0,0,1-2.79,1.46,31.7,31.7,0,0,1-8.13.61,80.75,80.75,0,0,1,12.87,8c1.73,1.31,3.57,3.06,3.37,5.22s-2.32,3.51-4.39,3.67a13.32,13.32,0,0,1-6-1.43q5.35,7,10.46,14.24c1.13,1.61,2.31,3.63,1.5,5.42-.68,1.51-2.53,2.14-4.19,2.12-3.37,0-6.39-2-9.13-4a60.11,60.11,0,0,1,12.35,11.32c1.67,2,3.29,4.79,2.14,7.17-.87,1.8-3,2.59-5,2.83a16.37,16.37,0,0,1-15.46-7.39,4.94,4.94,0,0,1-7.15-1,3.23,3.23,0,0,1-6,.07,5.57,5.57,0,0,1-3.13.66A2.28,2.28,0,0,1,150,605.39Z"/><path class="cls-3" d="M132.36,568.36c.43-.55,1.19.22.76.76-1.55,2,.44,3.87,2.18,4.78,2.26,1.17,5.34,1.71,7.74.68a4.32,4.32,0,0,0,2.59-3.15c.14-.62,1-.44,1.06.14.11,1.68,1,3.61,2.95,3.5s2.47-2,3.67-3.07a.55.55,0,0,1,.91.24c.35,1.85,1.18,4.17,3.16,4.82a3.6,3.6,0,0,0,4.57-3.63.54.54,0,0,1,1-.27c1.25,1.87,3.5,3.59,5.87,3.23a2.57,2.57,0,0,0,2-1.16,7.27,7.27,0,0,0,.47-2.22.54.54,0,0,1,.8-.32c1.22.82,2.13,2,3.37,2.81a9.44,9.44,0,0,0,4.34,1.25,7.93,7.93,0,0,0,3.62-.33,2.49,2.49,0,0,0,1.5-2.58.54.54,0,0,1,1.08,0,3.58,3.58,0,0,1-1.53,3.24,6.81,6.81,0,0,1-3.82.8,12.63,12.63,0,0,1-5-1,16.61,16.61,0,0,1-3.43-2.7,4.59,4.59,0,0,1-.63,1.91,3.78,3.78,0,0,1-2.72,1.42,7,7,0,0,1-6.05-2.7,4.63,4.63,0,0,1-5.28,3.46c-2.3-.43-3.56-2.58-4.16-4.71a13.46,13.46,0,0,1-1.3,1.61,3.67,3.67,0,0,1-6.13-1.76c-1.28,2.08-3.83,2.94-6.36,2.79-2.73-.16-6.28-1.28-7.7-3.82A3.45,3.45,0,0,1,132.36,568.36Z"/><path class="cls-3" d="M139.35,556c.54-.43,1.31.33.77.77-.72.57-1.89,1.5-1.8,2.53.06.66.81,1.15,1.46,1.44A9.18,9.18,0,0,0,146,561a2.73,2.73,0,0,0,1.07-.59,1,1,0,0,0,.3-.78.88.88,0,0,0,0-.17c0-.6,1-.76,1.06-.15a.76.76,0,0,1,0,.15h0c0,.9.37,2.3,1.57,1.94a2.45,2.45,0,0,0,1.46-2.57.55.55,0,0,1,1-.27,6.32,6.32,0,0,0,.94,1.71,2.39,2.39,0,0,0,1.92.5c1.41-.1,2.15-1.22,2.77-2.35a.55.55,0,0,1,.94,0,4.81,4.81,0,0,0,3.39,2.89,2.59,2.59,0,0,0,2.17-.65,1.36,1.36,0,0,0,0-2,.54.54,0,0,1,.65-.85c.93.54,1.67,1.38,2.64,1.84a9.41,9.41,0,0,0,3.72.63,27.71,27.71,0,0,0,4.07-.16c1.76-.21,5.93-.88,4.68-3.54-.3-.63.63-1.18.93-.55,2.54,5.4-7.58,5.49-10.54,5.3a9.24,9.24,0,0,1-3.4-.75,7.17,7.17,0,0,1-1.27-.84,3,3,0,0,1-2.69,2.6,5.06,5.06,0,0,1-4.83-2.62,4.11,4.11,0,0,1-3.23,2.11,3.52,3.52,0,0,1-2.48-.63,2.86,2.86,0,0,1-.59-.71,3.05,3.05,0,0,1-2.16,2,2,2,0,0,1-2.33-1.26c-1.05,1-3.09,1.21-4.36,1.21-1.94,0-5.52-.45-6.11-2.78C136.92,558.16,138.28,556.83,139.35,556Z"/><path class="cls-3" d="M128.31,590.56a3.45,3.45,0,0,1,.52.73,4.5,4.5,0,0,0,3.29,2.09,9.84,9.84,0,0,0,4-.39,24.41,24.41,0,0,0,4.82-1.9,2.12,2.12,0,0,1,1.15-.37c.87.06,1.27,1.06,1.82,1.73,1.22,1.45,3.48,1.4,5.31.9,1.32-.35,2.85-1.24,2.72-2.6a1.27,1.27,0,0,1,0-.55c.12-.33.6-.38.9-.2a2.15,2.15,0,0,1,.64.82,5.87,5.87,0,0,0,3.39,2.94,3.39,3.39,0,0,0,3.92-1.59c.14-.29.25-.63.54-.77.46-.23.95.21,1.29.59a7.57,7.57,0,0,0,4.87,2.75,4.11,4.11,0,0,0,4.36-2.92c.09-.42.41-1.11.94-1,.31.08.7,1.08.92,1.37a10.87,10.87,0,0,0,1.66,1.73,12.09,12.09,0,0,0,9,2.84,19.53,19.53,0,0,1,2.49-.49c.79.05,1,.61.07,1a10.4,10.4,0,0,1-7.66,0,18.4,18.4,0,0,1-6.45-4.35,5.7,5.7,0,0,1-5.45,2.83,8.32,8.32,0,0,1-5.55-3,4.59,4.59,0,0,1-4.62,2.2,6.14,6.14,0,0,1-4.3-3,6.44,6.44,0,0,1-10.91-.12,21.66,21.66,0,0,1-7.43,2.7c-2.64.27-5.57-.64-7-2.89-.24-.37-.38-.94,0-1.18S128.07,590.32,128.31,590.56Z"/><path class="cls-3" d="M131.2,610.18c6.57,3.12,12.4-2.55,17.91-5.37a.53.53,0,0,1,.72.21.46.46,0,0,1,.33.49c-.06,1.17.58,1.67,1.72,1.6a5.19,5.19,0,0,0,2.75-1,.55.55,0,0,1,.85.11,3.31,3.31,0,0,0,2.45,2,2.34,2.34,0,0,0,2.4-1.8c.14-.38.79-.59,1-.13,1.09,2.54,4.54,3.41,6.29,1a.53.53,0,0,1,.22-.18.45.45,0,0,1,.68.14.52.52,0,0,1,.11.19c3.1,6.4,11.91,8,18.23,6.38a.54.54,0,0,1,.29,1c-5.44,1.38-12.09.54-16.5-3.11a11.21,11.21,0,0,1-2.68-3.25,4.41,4.41,0,0,1-3.75,1.28,4.87,4.87,0,0,1-3.33-2.06,3.13,3.13,0,0,1-2.83,1.6,4.16,4.16,0,0,1-3.24-2.1c-2,1.16-5.46,1.54-5.72-1.22-2.92,1.57-5.61,3.59-8.66,4.92a11.36,11.36,0,0,1-9.78.14C130,610.82,130.57,609.89,131.2,610.18Z"/><path class="cls-2" d="M364.85,682.7q0,25.29,0,50.58a113.13,113.13,0,0,1-.68,15.42c-1.29,8.75-5,8.74-6.29,0a113.93,113.93,0,0,1-.68-15.36l0-50.61"/><path class="cls-1" d="M353.48,683.34c-4.17,2.29-8.39,4.59-13,5.83a9.85,9.85,0,0,1-4.87.32,4.25,4.25,0,0,1-3.29-3.29,5.79,5.79,0,0,1,.76-3.2,29.15,29.15,0,0,1,5-7.4,30.2,30.2,0,0,1,3.15-2.94c.88-.7,2.6-2.41,3.74-2.55-2.55.32-5,1.46-7.52,1.7a6.5,6.5,0,0,1-5.39-1.81c-1.87-2.14.65-4.25,2.18-5.81L345.24,653a9.25,9.25,0,0,1-9.56-3.21,2.44,2.44,0,0,1-.65-1.78,2.75,2.75,0,0,1,1.38-1.66,51,51,0,0,1,14.49-6.76,8.64,8.64,0,0,1-7.86-.06,3.23,3.23,0,0,1-1.89-2.21,3.94,3.94,0,0,1,1.16-2.74,169.37,169.37,0,0,1,15.07-16.72,6.83,6.83,0,0,1,2.15-1.6c2.59-1,5.19,1.25,7.16,3.21a81,81,0,0,0,14.36,11.39,9.55,9.55,0,0,1,2.8,2.24,3.05,3.05,0,0,1,.34,3.38A4.13,4.13,0,0,1,381.4,638a31.26,31.26,0,0,1-8.13.61,80.63,80.63,0,0,1,12.88,8c1.72,1.3,3.56,3.06,3.36,5.21s-2.32,3.51-4.38,3.67a13.33,13.33,0,0,1-6-1.43q5.36,7,10.46,14.25c1.13,1.6,2.31,3.62,1.5,5.41-.68,1.51-2.53,2.14-4.19,2.13-3.37,0-6.39-2-9.12-4a60.37,60.37,0,0,1,12.34,11.33c1.68,2,3.29,4.79,2.14,7.16-.87,1.81-3,2.59-5,2.83a16.36,16.36,0,0,1-15.46-7.39,4.94,4.94,0,0,1-7.14-1,3.24,3.24,0,0,1-6,.06,5.58,5.58,0,0,1-3.13.67A2.29,2.29,0,0,1,353.48,683.34Z"/><path class="cls-3" d="M335.85,646.31c.43-.55,1.19.22.76.77-1.55,2,.44,3.87,2.18,4.77,2.26,1.17,5.34,1.71,7.75.69a4.32,4.32,0,0,0,2.58-3.16c.14-.62,1-.44,1.07.15.1,1.67,1,3.61,2.94,3.5s2.47-2,3.68-3.07a.54.54,0,0,1,.9.23c.36,1.85,1.18,4.18,3.16,4.82a3.6,3.6,0,0,0,4.57-3.62.54.54,0,0,1,1-.28c1.25,1.87,3.5,3.6,5.88,3.23a2.52,2.52,0,0,0,2-1.16,7.27,7.27,0,0,0,.47-2.22.55.55,0,0,1,.8-.32c1.22.82,2.13,2,3.37,2.82a9.56,9.56,0,0,0,4.34,1.25,8.06,8.06,0,0,0,3.62-.34,2.47,2.47,0,0,0,1.5-2.58.54.54,0,0,1,1.08,0A3.59,3.59,0,0,1,388,655a6.81,6.81,0,0,1-3.82.79,12.45,12.45,0,0,1-5-1,16.87,16.87,0,0,1-3.43-2.7,4.49,4.49,0,0,1-.62,1.9,3.78,3.78,0,0,1-2.72,1.42,7,7,0,0,1-6.06-2.69,4.62,4.62,0,0,1-5.28,3.45c-2.3-.43-3.56-2.58-4.16-4.7a14.2,14.2,0,0,1-1.3,1.6,3.67,3.67,0,0,1-6.13-1.75c-1.28,2.08-3.83,2.94-6.36,2.79-2.72-.16-6.27-1.28-7.7-3.83A3.45,3.45,0,0,1,335.85,646.31Z"/><path class="cls-3" d="M342.84,633.93c.54-.43,1.31.33.77.76-.72.57-1.89,1.51-1.79,2.53.05.66.8,1.16,1.45,1.45a9.24,9.24,0,0,0,6.22.31,2.72,2.72,0,0,0,1.08-.59.91.91,0,0,0,.29-.78c0-.06,0-.11,0-.17,0-.6,1-.76,1.06-.14a.66.66,0,0,0,0,.14h0c0,.9.36,2.3,1.57,1.94a2.44,2.44,0,0,0,1.45-2.56.55.55,0,0,1,1-.28,6.38,6.38,0,0,0,.94,1.72,2.4,2.4,0,0,0,1.93.5c1.4-.11,2.14-1.23,2.77-2.35a.54.54,0,0,1,.93,0,4.79,4.79,0,0,0,3.39,2.88,2.56,2.56,0,0,0,2.17-.65,1.36,1.36,0,0,0,0-2,.54.54,0,0,1,.65-.85c.93.54,1.67,1.38,2.65,1.84a9.36,9.36,0,0,0,3.71.64,29.1,29.1,0,0,0,4.07-.16c1.76-.21,5.93-.89,4.68-3.55-.3-.62.63-1.17.93-.54,2.55,5.39-7.58,5.48-10.54,5.29a9,9,0,0,1-3.4-.75,6.66,6.66,0,0,1-1.27-.84,3,3,0,0,1-2.69,2.61,5.09,5.09,0,0,1-4.83-2.62,4.15,4.15,0,0,1-3.22,2.11,3.59,3.59,0,0,1-2.48-.63,2.9,2.9,0,0,1-.6-.71,3,3,0,0,1-2.16,2,2,2,0,0,1-2.33-1.25c-1.05,1-3.09,1.2-4.36,1.2-1.94,0-5.51-.45-6.1-2.77C340.41,636.12,341.77,634.78,342.84,633.93Z"/><path class="cls-3" d="M331.8,668.51a3.35,3.35,0,0,1,.52.73,4.47,4.47,0,0,0,3.29,2.09,9.67,9.67,0,0,0,4-.39,23.81,23.81,0,0,0,4.82-1.9,2.21,2.21,0,0,1,1.15-.37c.87.07,1.27,1.07,1.82,1.73,1.22,1.46,3.48,1.4,5.31.91,1.32-.36,2.85-1.24,2.73-2.6a1.14,1.14,0,0,1,0-.55.62.62,0,0,1,.9-.2,2,2,0,0,1,.64.82,5.85,5.85,0,0,0,3.39,2.93,3.4,3.4,0,0,0,3.93-1.58c.13-.29.24-.64.53-.78.46-.23.95.22,1.29.6a7.6,7.6,0,0,0,4.87,2.74,4.11,4.11,0,0,0,4.36-2.92c.09-.42.41-1.11.94-1,.31.08.7,1.08.92,1.38a10.8,10.8,0,0,0,1.66,1.72,12.23,12.23,0,0,0,4.17,2.32,12,12,0,0,0,4.8.52,23.76,23.76,0,0,1,2.49-.49c.79,0,1,.61.07,1a10.5,10.5,0,0,1-7.66,0,18.53,18.53,0,0,1-6.45-4.35,5.68,5.68,0,0,1-5.44,2.83,8.37,8.37,0,0,1-5.56-3.05,4.59,4.59,0,0,1-4.62,2.2,6.1,6.1,0,0,1-4.29-3,6.43,6.43,0,0,1-10.92-.12,21.26,21.26,0,0,1-7.43,2.7c-2.64.27-5.57-.63-7-2.88-.23-.38-.38-.94,0-1.19S331.57,668.27,331.8,668.51Z"/><path class="cls-3" d="M334.69,688.14c6.57,3.11,12.41-2.56,17.91-5.38a.54.54,0,0,1,.72.21.48.48,0,0,1,.33.49c-.06,1.17.59,1.67,1.72,1.61a5.26,5.26,0,0,0,2.75-1,.55.55,0,0,1,.85.11,3.31,3.31,0,0,0,2.45,2.05,2.32,2.32,0,0,0,2.4-1.79c.14-.39.79-.6,1-.13,1.1,2.54,4.55,3.41,6.29,1a.53.53,0,0,1,.22-.18.46.46,0,0,1,.68.14.52.52,0,0,1,.11.19c3.1,6.4,11.91,8,18.24,6.38a.54.54,0,0,1,.28,1c-5.43,1.39-12.09.54-16.5-3.1a11.38,11.38,0,0,1-2.68-3.26,4.43,4.43,0,0,1-3.74,1.29,4.86,4.86,0,0,1-3.33-2.06,3.12,3.12,0,0,1-2.84,1.59,4.11,4.11,0,0,1-3.24-2.1c-2,1.16-5.46,1.55-5.72-1.22-2.92,1.58-5.6,3.59-8.65,4.93a11.42,11.42,0,0,1-9.79.14C333.51,688.77,334.06,687.84,334.69,688.14Z"/><path class="cls-2" d="M571.27,866.08q0,25.29,0,50.58a111.55,111.55,0,0,1-.68,15.42c-1.28,8.76-5,8.75-6.28,0a112.46,112.46,0,0,1-.68-15.37l0-50.6"/><path class="cls-1" d="M559.91,866.73c-4.17,2.28-8.39,4.59-13,5.82a9.77,9.77,0,0,1-4.88.32,4.26,4.26,0,0,1-3.29-3.28,5.82,5.82,0,0,1,.76-3.21,29.4,29.4,0,0,1,8.19-10.33c.87-.7,2.6-2.41,3.74-2.56-2.56.32-5,1.47-7.53,1.7a6.49,6.49,0,0,1-5.39-1.81c-1.86-2.13.66-4.24,2.19-5.8q5.47-5.58,10.94-11.15a9.27,9.27,0,0,1-9.56-3.22,2.46,2.46,0,0,1-.65-1.78,2.74,2.74,0,0,1,1.39-1.65A50.71,50.71,0,0,1,557.33,823a8.67,8.67,0,0,1-7.87-.06,3.23,3.23,0,0,1-1.88-2.21,3.88,3.88,0,0,1,1.16-2.74,170.52,170.52,0,0,1,15.06-16.73,6.84,6.84,0,0,1,2.16-1.59c2.59-1,5.19,1.24,7.15,3.2a80.82,80.82,0,0,0,14.36,11.39,9.79,9.79,0,0,1,2.81,2.25,3,3,0,0,1,.33,3.37,4.18,4.18,0,0,1-2.78,1.46,31.7,31.7,0,0,1-8.13.61,81.2,81.2,0,0,1,12.87,8c1.73,1.31,3.57,3.06,3.37,5.22s-2.32,3.51-4.39,3.67a13.39,13.39,0,0,1-6-1.43q5.37,7,10.47,14.24c1.13,1.61,2.3,3.63,1.5,5.42-.68,1.51-2.53,2.14-4.19,2.12-3.37,0-6.4-2-9.13-4a60.06,60.06,0,0,1,12.34,11.32c1.68,2,3.3,4.79,2.15,7.17-.87,1.8-3,2.59-5,2.83a16.38,16.38,0,0,1-15.47-7.39,4.93,4.93,0,0,1-7.14-1,3.23,3.23,0,0,1-6,.07,5.59,5.59,0,0,1-3.13.66A2.28,2.28,0,0,1,559.91,866.73Z"/><path class="cls-3" d="M542.28,829.7c.42-.55,1.18.22.76.76-1.55,2,.43,3.87,2.18,4.78,2.26,1.17,5.33,1.71,7.74.68a4.36,4.36,0,0,0,2.59-3.15c.14-.62,1-.44,1.06.14.11,1.68,1,3.61,2.95,3.5s2.47-2,3.67-3.07a.55.55,0,0,1,.91.24c.35,1.85,1.18,4.18,3.16,4.82a3.59,3.59,0,0,0,4.56-3.63.55.55,0,0,1,1-.27c1.24,1.87,3.5,3.59,5.87,3.23a2.57,2.57,0,0,0,2-1.16,7.27,7.27,0,0,0,.47-2.22A.54.54,0,0,1,582,834c1.23.82,2.13,2,3.37,2.81a9.48,9.48,0,0,0,4.35,1.25,7.93,7.93,0,0,0,3.62-.33,2.48,2.48,0,0,0,1.49-2.58.54.54,0,0,1,1.08,0,3.57,3.57,0,0,1-1.52,3.24,6.83,6.83,0,0,1-3.82.8,12.67,12.67,0,0,1-5-1.05,16.81,16.81,0,0,1-3.42-2.7,4.59,4.59,0,0,1-.63,1.91,3.79,3.79,0,0,1-2.72,1.42,7,7,0,0,1-6.05-2.7,4.63,4.63,0,0,1-5.28,3.46c-2.3-.43-3.56-2.58-4.16-4.71a13.46,13.46,0,0,1-1.3,1.61,3.67,3.67,0,0,1-6.13-1.76c-1.29,2.08-3.84,2.94-6.36,2.8-2.73-.17-6.28-1.29-7.7-3.83A3.45,3.45,0,0,1,542.28,829.7Z"/><path class="cls-3" d="M549.27,817.31c.54-.43,1.31.33.76.77-.72.57-1.88,1.51-1.79,2.53.06.66.81,1.15,1.45,1.44a9.2,9.2,0,0,0,6.23.32,2.8,2.8,0,0,0,1.07-.59,1,1,0,0,0,.3-.78,1.11,1.11,0,0,1,0-.17c0-.6,1-.76,1.06-.15a.76.76,0,0,1,0,.15h0c0,.9.37,2.3,1.57,1.94a2.45,2.45,0,0,0,1.46-2.57.54.54,0,0,1,1-.27,6.06,6.06,0,0,0,.94,1.71,2.39,2.39,0,0,0,1.92.5c1.4-.1,2.14-1.22,2.77-2.35a.54.54,0,0,1,.93,0,4.83,4.83,0,0,0,3.4,2.89,2.59,2.59,0,0,0,2.17-.65,1.35,1.35,0,0,0,0-2,.54.54,0,0,1,.66-.85c.93.54,1.66,1.38,2.64,1.84a9.21,9.21,0,0,0,3.71.63,27.79,27.79,0,0,0,4.08-.16c1.75-.21,5.93-.88,4.67-3.54-.29-.63.64-1.18.94-.55,2.54,5.4-7.59,5.49-10.54,5.3a9.19,9.19,0,0,1-3.4-.75,6.82,6.82,0,0,1-1.27-.84,3,3,0,0,1-2.69,2.6,5.06,5.06,0,0,1-4.83-2.62,4.14,4.14,0,0,1-3.23,2.11,3.52,3.52,0,0,1-2.48-.63,3.14,3.14,0,0,1-.6-.71,3,3,0,0,1-2.15,2,2,2,0,0,1-2.33-1.25c-1.05,1-3.09,1.2-4.36,1.2-1.94,0-5.52-.45-6.11-2.78C546.83,819.5,548.19,818.17,549.27,817.31Z"/><path class="cls-3" d="M538.23,851.9a3.09,3.09,0,0,1,.51.73,4.54,4.54,0,0,0,3.3,2.09,9.84,9.84,0,0,0,4-.39,24.32,24.32,0,0,0,4.81-1.9,2.18,2.18,0,0,1,1.16-.37c.86.06,1.26,1.06,1.82,1.73,1.22,1.45,3.47,1.4,5.31.9,1.32-.35,2.84-1.24,2.72-2.6a1.28,1.28,0,0,1,0-.55.64.64,0,0,1,.91-.2,2.36,2.36,0,0,1,.64.82,5.86,5.86,0,0,0,3.38,2.94,3.4,3.4,0,0,0,3.93-1.58c.14-.3.25-.64.54-.78.46-.23,1,.21,1.29.59a7.52,7.52,0,0,0,4.87,2.75,4.12,4.12,0,0,0,4.36-2.92c.09-.42.41-1.11.94-1,.3.08.7,1.08.91,1.37a11.39,11.39,0,0,0,1.67,1.73,12.09,12.09,0,0,0,9,2.84,19.53,19.53,0,0,1,2.49-.49c.78,0,1,.61.06,1a10.37,10.37,0,0,1-7.65,0,18.43,18.43,0,0,1-6.46-4.35,5.67,5.67,0,0,1-5.44,2.83,8.32,8.32,0,0,1-5.55-3,4.6,4.6,0,0,1-4.62,2.2,6.14,6.14,0,0,1-4.3-3,6.44,6.44,0,0,1-10.91-.12,21.66,21.66,0,0,1-7.43,2.7c-2.64.27-5.57-.64-7-2.89-.23-.37-.38-.94,0-1.18S538,851.66,538.23,851.9Z"/><path class="cls-3" d="M541.11,871.52c6.58,3.12,12.41-2.55,17.92-5.37a.53.53,0,0,1,.72.21.45.45,0,0,1,.32.49c-.05,1.17.59,1.67,1.72,1.6a5.2,5.2,0,0,0,2.76-1,.55.55,0,0,1,.85.11,3.31,3.31,0,0,0,2.44,2,2.34,2.34,0,0,0,2.41-1.8c.14-.38.79-.59,1-.13,1.09,2.54,4.54,3.41,6.28,1a.56.56,0,0,1,.23-.18.45.45,0,0,1,.68.14.52.52,0,0,1,.11.19c3.1,6.4,11.91,8,18.23,6.38a.54.54,0,0,1,.29,1c-5.44,1.38-12.09.54-16.5-3.11a11,11,0,0,1-2.68-3.25,4.41,4.41,0,0,1-3.75,1.28,4.85,4.85,0,0,1-3.33-2.06,3.15,3.15,0,0,1-2.83,1.6,4.16,4.16,0,0,1-3.24-2.1c-2,1.16-5.47,1.54-5.72-1.22-2.93,1.57-5.61,3.59-8.66,4.92a11.4,11.4,0,0,1-9.78.15C539.94,872.16,540.49,871.23,541.11,871.52Z"/><path class="cls-2" d="M59.84,597.89q0,27.68,0,55.36a148.51,148.51,0,0,1-.63,16.87c-1.19,9.59-4.61,9.58-5.79,0a145.34,145.34,0,0,1-.63-16.82l0-55.38"/><path class="cls-1" d="M79.2,610.92c5.61-2.59,9.27-7.17,6.53-14.35-9.65-25.33-14.62-45.16-21.94-67.74-1.45-4.48-3.63-9.67-7.38-9.94-4.18-.3-6.77,5.62-8.32,10.64C41.72,550,35.12,570.15,28,590.17c-1.85,5.18-5.19,14-2.52,19.52,3.78,7.89,14.92,5.25,20.8,5C51.48,614.44,69.08,615.58,79.2,610.92Z"/><g class="cls-4"><path class="cls-3" d="M48.42,540.36a.55.55,0,0,0-.67.49,11.4,11.4,0,0,0-.24,3.09c0,.36.23.71.54.69a.64.64,0,0,0,.54-.69,9.89,9.89,0,0,1,0-1.44,1.11,1.11,0,0,1,0-.19h0v0c0-.11,0-.23,0-.34s.08-.48.13-.72A.75.75,0,0,0,48.42,540.36Z"/><path class="cls-3" d="M59.5,540.63a.64.64,0,0,0-.55.7v3.48c0,.36.25.71.55.69a.64.64,0,0,0,.54-.69v-3.48C60,541,59.79,540.61,59.5,540.63Z"/><path class="cls-3" d="M52.76,563.24a.65.65,0,0,0-.54.7v3.77c0,.37.25.72.54.7a.65.65,0,0,0,.54-.7v-3.77C53.3,563.58,53.05,563.23,52.76,563.24Z"/><path class="cls-3" d="M65.56,564.11a.65.65,0,0,0-.55.7V568c0,.37.25.72.55.7a.65.65,0,0,0,.54-.7v-3.19C66.1,564.45,65.85,564.1,65.56,564.11Z"/><path class="cls-3" d="M42.89,580.06a.65.65,0,0,0-.55.7v2.9c0,.36.25.71.55.7a.65.65,0,0,0,.54-.7v-2.9C43.43,580.39,43.18,580,42.89,580.06Z"/><path class="cls-3" d="M63.31,588.76a.65.65,0,0,0-.54.7v4.06c0,.36.25.71.54.7a.65.65,0,0,0,.54-.7v-4.06C63.85,589.09,63.6,588.74,63.31,588.76Z"/><path class="cls-3" d="M78.13,591.08a.65.65,0,0,0-.55.7v3.48c0,.36.25.71.55.7a.65.65,0,0,0,.54-.7v-3.48C78.67,591.41,78.42,591.06,78.13,591.08Z"/><path class="cls-3" d="M42.44,559.76a.65.65,0,0,0-.54.7v2c0,.37.24.72.54.7a.65.65,0,0,0,.54-.7v-2C43,560.1,42.73,559.75,42.44,559.76Z"/><path class="cls-3" d="M33.68,594a.65.65,0,0,0-.54.7v4.06c0,.36.25.71.54.7a.65.65,0,0,0,.54-.7v-4.06C34.22,594.31,34,594,33.68,594Z"/><path class="cls-3" d="M49.09,596.61a.55.55,0,0,0-.67.49,41.68,41.68,0,0,0-.24,5.7c0,.89,1.1.9,1.08,0a37.89,37.89,0,0,1,.21-5.33A.78.78,0,0,0,49.09,596.61Z"/><path class="cls-3" d="M73.19,603a.63.63,0,0,0-.54.7v2.9c0,.36.25.71.54.69a.64.64,0,0,0,.54-.69v-2.9C73.73,603.3,73.48,603,73.19,603Z"/><path class="cls-3" d="M72.51,572.52a.65.65,0,0,0-.54.7v4.93a.56.56,0,1,0,1.09,0v-4.93A.65.65,0,0,0,72.51,572.52Z"/><path class="cls-3" d="M53.66,577.45a.65.65,0,0,0-.54.7v2.32c0,.37.25.72.54.7a.65.65,0,0,0,.54-.7v-2.32C54.2,577.78,54,577.43,53.66,577.45Z"/><path class="cls-3" d="M65.56,549.62c-.32,0-.52.3-.55.69-.05,1-.13,1.94-.22,2.9a.77.77,0,0,0,.16.5.48.48,0,0,0,.38.2.47.47,0,0,0,.38-.2.93.93,0,0,0,.16-.5c.09-1,.17-1.93.23-2.9C66.12,550,65.83,549.6,65.56,549.62Z"/><path class="cls-3" d="M37.37,574.67c0-.36-.27-.71-.54-.7s-.52.31-.55.7a34.41,34.41,0,0,0-.22,4.06c0,.36.24.72.54.7a.65.65,0,0,0,.54-.7A32.4,32.4,0,0,1,37.37,574.67Z"/><path class="cls-3" d="M60.62,606.45a.63.63,0,0,0-.54.7,8.24,8.24,0,0,1,0,.85,8.5,8.5,0,0,1-.16,1,.75.75,0,0,0,.38.86.55.55,0,0,0,.66-.49,9.66,9.66,0,0,0,.25-2.21C61.16,606.78,60.91,606.43,60.62,606.45Z"/><path class="cls-3" d="M39.37,607.25c0-.26-.09-.51-.12-.77l0-.18v-.08h0l0-.39c0-.52,0-1.05,0-1.57s-.26-.72-.54-.7-.52.3-.54.7a15.8,15.8,0,0,0,.24,3.37c.07.36.4.6.67.49A.76.76,0,0,0,39.37,607.25Z"/><path class="cls-3" d="M64.43,532.8a.65.65,0,0,0-.54.7v2.61c0,.36.25.71.54.7a.65.65,0,0,0,.54-.7V533.5C65,533.13,64.73,532.78,64.43,532.8Z"/><path class="cls-3" d="M55,526.13a.65.65,0,0,0-.54.7v4.06c0,.36.24.71.54.7a.65.65,0,0,0,.54-.7v-4.06C55.55,526.46,55.3,526.11,55,526.13Z"/><path class="cls-3" d="M54.33,550.49a.64.64,0,0,0-.54.69v2.32c0,.37.25.72.54.7a.63.63,0,0,0,.54-.7v-2.32C54.87,550.82,54.63,550.47,54.33,550.49Z"/><path class="cls-3" d="M72.29,556.86a.65.65,0,0,0-.54.7v2.61c0,.37.25.72.54.7a.65.65,0,0,0,.54-.7v-2.61C72.83,557.2,72.58,556.85,72.29,556.86Z"/><path class="cls-3" d="M46.33,615.66c0-.28-.08-.56-.11-.84v-.11a1.23,1.23,0,0,1,0-.2l0-.43c0-.57,0-1.14,0-1.72,0-.36-.25-.71-.54-.69a.64.64,0,0,0-.54.69,22.48,22.48,0,0,0,.24,3.67.55.55,0,0,0,.67.49A.79.79,0,0,0,46.33,615.66Z"/><path class="cls-3" d="M29.34,605.89a.56.56,0,0,0-.67.49,13.59,13.59,0,0,0-.24,2.22c0,.36.25.71.54.69a.64.64,0,0,0,.54-.69c0-.28,0-.56,0-.83s.09-.68.16-1A.77.77,0,0,0,29.34,605.89Z"/><path class="cls-3" d="M80.59,603.26a.64.64,0,0,0-.54.7v1.74c0,.36.25.71.54.69a.64.64,0,0,0,.55-.69V604C81.14,603.59,80.89,603.24,80.59,603.26Z"/><path class="cls-3" d="M63.17,574.26a.65.65,0,0,0-.54.7v4.16c0,.37.25.72.54.7a.65.65,0,0,0,.54-.7V575C63.71,574.59,63.46,574.24,63.17,574.26Z"/><path class="cls-3" d="M72,590.25a.46.46,0,0,0-.77,0,.87.87,0,0,0-.16.49v1.32a.82.82,0,0,0,.16.49.55.55,0,0,0,.39.21.5.5,0,0,0,.38-.21.82.82,0,0,0,.16-.49v-1.32A.8.8,0,0,0,72,590.25Z"/><path class="cls-3" d="M56.25,589.21c0-.9-1.08-.9-1.09,0,0,2.12-.24,4.23-.17,6.35,0,.9,1.12.9,1.09,0C56,593.44,56.24,591.33,56.25,589.21Z"/><path class="cls-3" d="M79.46,579.52a.65.65,0,0,0-.54.7v3.51c0,.36.25.71.54.7a.65.65,0,0,0,.54-.7v-3.51C80,579.85,79.75,579.5,79.46,579.52Z"/><path class="cls-3" d="M46.85,552.16c0,2.05,0,4.1-.17,6.14a.65.65,0,0,0,.54.7c.31,0,.51-.32.54-.7.15-2,.16-4.09.17-6.14C47.93,551.26,46.85,551.26,46.85,552.16Z"/><path class="cls-3" d="M59.58,555.23v8.33c0,.9,1.08.9,1.08,0v-8.33C60.66,554.33,59.58,554.33,59.58,555.23Z"/><path class="cls-3" d="M46.2,568.56a.65.65,0,0,0-.54.7v3.07c0,.36.25.71.54.7a.65.65,0,0,0,.54-.7v-3.07C46.74,568.89,46.49,568.54,46.2,568.56Z"/><path class="cls-3" d="M41.8,595.6a42.62,42.62,0,0,1-.32-6.39c0-.9-1.06-.9-1.08,0a43.57,43.57,0,0,0,.36,6.76.55.55,0,0,0,.66.49A.76.76,0,0,0,41.8,595.6Z"/><path class="cls-3" d="M52.86,536.32a.48.48,0,0,0-.38-.2.44.44,0,0,0-.38.2.84.84,0,0,0-.16.49v1.1a.85.85,0,0,0,.16.5.48.48,0,0,0,.38.2.52.52,0,0,0,.38-.2.85.85,0,0,0,.16-.5v-1.1A.84.84,0,0,0,52.86,536.32Z"/><path class="cls-3" d="M58.73,520.15v6.58c0,.9,1.08.9,1.08,0v-6.58C59.81,519.26,58.73,519.25,58.73,520.15Z"/><path class="cls-3" d="M51,520.81c0-.36-.24-.71-.54-.7a.65.65,0,0,0-.54.7c0,.65,0,1.3,0,2,0,.32,0,.65,0,1a.68.68,0,0,0,0,.14,1.23,1.23,0,0,1,0,.19,4.54,4.54,0,0,1-.09.51.74.74,0,0,0,.38.86.55.55,0,0,0,.67-.49A20.29,20.29,0,0,0,51,520.81Z"/><path class="cls-3" d="M31.78,585.44a.65.65,0,0,0-.54.7v2.19c0,.37.25.72.54.7a.65.65,0,0,0,.54-.7v-2.19C32.32,585.77,32.07,585.42,31.78,585.44Z"/></g><path class="cls-5" d="M86.14,604a.3.3,0,0,1-.19-.07.59.59,0,0,1-.16-.71,8.9,8.9,0,0,0,.26-5.18,27.16,27.16,0,0,0-1.68-4.76l-.16-.36c-4.84-11.4-8.5-23.75-12-35.69C69,546.52,65.71,535.45,61.59,525.1a14.34,14.34,0,0,0-2.94-5.17.63.63,0,0,1-.09-.73.35.35,0,0,1,.57-.12,15.36,15.36,0,0,1,3.18,5.54c4.14,10.4,7.44,21.5,10.62,32.24,3.53,11.91,7.18,24.22,12,35.56l.16.36a28.74,28.74,0,0,1,1.75,5,10.2,10.2,0,0,1-.33,6A.4.4,0,0,1,86.14,604Z"/><path class="cls-5" d="M24.6,602.86a.35.35,0,0,1-.14,0,.57.57,0,0,1-.25-.66c2.94-11,6.59-21.83,10.11-32.33.7-2.08,1.39-4.15,2.09-6.22q1.77-5.36,3.56-10.69l3.66-11q1.74-5.24,3.47-10.49c.25-.76.48-1.5.71-2.23,1.42-4.61,2.64-8.59,7.08-10.28.21-.08.44.08.5.36a.56.56,0,0,1-.28.65c-4,1.54-5.15,5.12-6.55,9.65-.22.74-.46,1.5-.71,2.26q-1.73,5.26-3.47,10.49l-3.66,11L37.15,564l-2.08,6.22c-3.52,10.49-7.16,21.32-10.09,32.26A.43.43,0,0,1,24.6,602.86Z"/><path class="cls-5" d="M36.65,616.09C33,616.09,29,615.6,26.4,612a.65.65,0,0,1,0-.74.35.35,0,0,1,.58,0c2.88,4,7.74,3.85,11.64,3.75,12.24-.31,37.7-1,45-7.8a.35.35,0,0,1,.57.11.63.63,0,0,1-.09.73c-7.47,7-33.1,7.69-45.42,8C38,616.07,37.33,616.09,36.65,616.09Z"/><path class="cls-2" d="M265,630.45q0,25.27,0,50.57a121.93,121.93,0,0,1-.63,15.41c-1.19,8.76-4.61,8.75-5.79,0a123.18,123.18,0,0,1-.63-15.36l0-50.6"/><path class="cls-1" d="M284.38,643.47c5.62-2.59,9.27-7.16,6.53-14.35C281.26,603.79,276.29,584,269,561.38c-1.46-4.48-3.64-9.66-7.39-9.93-4.18-.3-6.76,5.61-8.32,10.63-6.37,20.49-13,40.62-20.12,60.64-1.85,5.18-5.19,14-2.52,19.53,3.78,7.89,14.92,5.24,20.8,5C256.66,647,274.27,648.14,284.38,643.47Z"/><g class="cls-6"><path class="cls-3" d="M253.6,572.92a.55.55,0,0,0-.67.48,11.81,11.81,0,0,0-.24,3.09c0,.36.23.72.54.7a.65.65,0,0,0,.54-.7,11.53,11.53,0,0,1,0-1.44c0-.06,0-.12,0-.19h0c0-.12,0-.24,0-.35s.08-.48.14-.71A.76.76,0,0,0,253.6,572.92Z"/><path class="cls-3" d="M264.68,573.18a.65.65,0,0,0-.54.7v3.48c0,.37.24.72.54.7a.65.65,0,0,0,.54-.7v-3.48C265.22,573.51,265,573.16,264.68,573.18Z"/><path class="cls-3" d="M257.94,595.8a.64.64,0,0,0-.54.7v3.77c0,.36.25.71.54.69a.63.63,0,0,0,.54-.69V596.5C258.48,596.13,258.24,595.78,257.94,595.8Z"/><path class="cls-3" d="M270.74,596.67a.63.63,0,0,0-.54.7v3.19c0,.36.25.71.54.69a.64.64,0,0,0,.54-.69v-3.19C271.28,597,271,596.65,270.74,596.67Z"/><path class="cls-3" d="M248.07,612.61a.65.65,0,0,0-.54.7v2.9c0,.37.24.72.54.7a.64.64,0,0,0,.54-.7v-2.9C248.61,613,248.36,612.6,248.07,612.61Z"/><path class="cls-3" d="M268.49,621.31a.65.65,0,0,0-.54.7v4.06c0,.37.25.72.54.7a.65.65,0,0,0,.54-.7V622C269,621.65,268.78,621.3,268.49,621.31Z"/><path class="cls-3" d="M283.31,623.63a.65.65,0,0,0-.54.7v3.48c0,.37.24.72.54.7a.65.65,0,0,0,.54-.7v-3.48C283.85,624,283.6,623.62,283.31,623.63Z"/><path class="cls-3" d="M247.62,592.32a.65.65,0,0,0-.54.7v2c0,.36.25.71.54.7a.65.65,0,0,0,.54-.7v-2C248.16,592.65,247.91,592.3,247.62,592.32Z"/><path class="cls-3" d="M238.86,626.53a.65.65,0,0,0-.54.7v4.06c0,.37.25.72.54.7a.65.65,0,0,0,.55-.7v-4.06C239.41,626.87,239.16,626.52,238.86,626.53Z"/><path class="cls-3" d="M254.27,629.17a.54.54,0,0,0-.66.49,39.94,39.94,0,0,0-.25,5.69c0,.9,1.1.9,1.08,0a39.32,39.32,0,0,1,.21-5.32A.76.76,0,0,0,254.27,629.17Z"/><path class="cls-3" d="M278.37,635.52a.65.65,0,0,0-.54.7v2.9c0,.37.25.72.54.7a.65.65,0,0,0,.54-.7v-2.9C278.91,635.85,278.66,635.5,278.37,635.52Z"/><path class="cls-3" d="M277.7,605.08a.64.64,0,0,0-.55.69v4.93a.56.56,0,1,0,1.09,0v-4.93A.64.64,0,0,0,277.7,605.08Z"/><path class="cls-3" d="M258.84,610a.64.64,0,0,0-.54.69V613c0,.37.25.72.54.7a.64.64,0,0,0,.54-.7V610.7C259.38,610.34,259.13,610,258.84,610Z"/><path class="cls-3" d="M270.74,582.17c-.31,0-.52.31-.54.7-.06,1-.14,1.93-.23,2.9a.82.82,0,0,0,.16.49.53.53,0,0,0,.38.21.51.51,0,0,0,.39-.21.89.89,0,0,0,.15-.49c.09-1,.17-1.93.23-2.9C271.3,582.5,271,582.15,270.74,582.17Z"/><path class="cls-3" d="M242.55,607.22c0-.36-.27-.71-.54-.69s-.51.3-.54.69a32.51,32.51,0,0,0-.23,4.06c0,.37.24.72.54.7a.63.63,0,0,0,.54-.7A36.83,36.83,0,0,1,242.55,607.22Z"/><path class="cls-3" d="M265.8,639a.65.65,0,0,0-.54.7,8.08,8.08,0,0,1-.05.85,6.39,6.39,0,0,1-.16,1,.75.75,0,0,0,.38.86c.29.09.58-.11.67-.48a10.27,10.27,0,0,0,.24-2.22C266.34,639.33,266.09,639,265.8,639Z"/><path class="cls-3" d="M244.55,639.8c-.05-.25-.09-.51-.12-.77a1.1,1.1,0,0,1,0-.18v-.08h0c0-.13,0-.26,0-.39,0-.53,0-1,0-1.58a.64.64,0,0,0-.54-.7.66.66,0,0,0-.54.7,15.31,15.31,0,0,0,.25,3.38c.06.35.39.6.66.48A.75.75,0,0,0,244.55,639.8Z"/><path class="cls-3" d="M269.62,565.35a.65.65,0,0,0-.55.7v2.61c0,.37.25.72.55.7a.65.65,0,0,0,.54-.7v-2.61C270.16,565.69,269.91,565.34,269.62,565.35Z"/><path class="cls-3" d="M260.19,558.68a.65.65,0,0,0-.54.7v4.06c0,.37.25.72.54.7a.65.65,0,0,0,.54-.7v-4.06C260.73,559,260.48,558.67,260.19,558.68Z"/><path class="cls-3" d="M259.51,583a.65.65,0,0,0-.54.7v2.32c0,.36.25.71.54.7a.65.65,0,0,0,.55-.7v-2.32C260.06,583.37,259.81,583,259.51,583Z"/><path class="cls-3" d="M277.47,589.42a.65.65,0,0,0-.54.7v2.61c0,.36.25.71.54.7a.65.65,0,0,0,.54-.7v-2.61C278,589.75,277.76,589.4,277.47,589.42Z"/><path class="cls-3" d="M251.51,648.21c0-.28-.08-.56-.11-.84v-.1c0-.07,0-.14,0-.2l0-.44c0-.57-.05-1.14,0-1.71,0-.37-.25-.72-.54-.7a.65.65,0,0,0-.54.7,22.29,22.29,0,0,0,.24,3.66c.06.36.41.6.67.49A.76.76,0,0,0,251.51,648.21Z"/><path class="cls-3" d="M234.52,638.45a.54.54,0,0,0-.67.48,13.71,13.71,0,0,0-.24,2.22c0,.37.26.71.54.7a.65.65,0,0,0,.54-.7c0-.28,0-.55.06-.83a8.48,8.48,0,0,1,.15-1A.74.74,0,0,0,234.52,638.45Z"/><path class="cls-3" d="M285.78,635.81a.65.65,0,0,0-.55.7v1.74c0,.37.25.72.55.7a.65.65,0,0,0,.54-.7v-1.74C286.32,636.14,286.07,635.79,285.78,635.81Z"/><path class="cls-3" d="M268.35,606.81a.65.65,0,0,0-.54.7v4.17c0,.36.25.71.54.7a.65.65,0,0,0,.54-.7v-4.17C268.89,607.15,268.64,606.8,268.35,606.81Z"/><path class="cls-3" d="M277.22,622.8a.48.48,0,0,0-.38-.2.47.47,0,0,0-.39.2.92.92,0,0,0-.15.5v1.31a.86.86,0,0,0,.15.49.49.49,0,0,0,.39.21.5.5,0,0,0,.38-.21.8.8,0,0,0,.16-.49V623.3A.85.85,0,0,0,277.22,622.8Z"/><path class="cls-3" d="M261.43,621.76c0-.9-1.08-.9-1.09,0,0,2.12-.24,4.23-.17,6.36,0,.89,1.12.9,1.09,0C261.18,626,261.42,623.88,261.43,621.76Z"/><path class="cls-3" d="M284.64,612.07a.65.65,0,0,0-.54.7v3.51c0,.37.25.72.54.7a.65.65,0,0,0,.54-.7v-3.51C285.18,612.41,284.93,612.06,284.64,612.07Z"/><path class="cls-3" d="M252,584.71c0,2,0,4.1-.17,6.14a.64.64,0,0,0,.54.7c.32,0,.51-.32.54-.7.15-2,.17-4.09.17-6.14C253.11,583.81,252,583.81,252,584.71Z"/><path class="cls-3" d="M264.76,587.78v8.33c0,.9,1.08.9,1.08,0v-8.33C265.84,586.88,264.76,586.88,264.76,587.78Z"/><path class="cls-3" d="M251.38,601.11a.65.65,0,0,0-.54.7v3.07c0,.37.25.72.54.7a.65.65,0,0,0,.54-.7v-3.07C251.92,601.45,251.67,601.1,251.38,601.11Z"/><path class="cls-3" d="M247,628.15a43.92,43.92,0,0,1-.32-6.39c0-.9-1.06-.9-1.08,0a46.19,46.19,0,0,0,.36,6.76.54.54,0,0,0,.67.49A.76.76,0,0,0,247,628.15Z"/><path class="cls-3" d="M258,568.87a.47.47,0,0,0-.38-.2.52.52,0,0,0-.38.2.85.85,0,0,0-.16.5v1.1a.84.84,0,0,0,.16.49.48.48,0,0,0,.38.2.44.44,0,0,0,.38-.2.84.84,0,0,0,.16-.49v-1.1A.85.85,0,0,0,258,568.87Z"/><path class="cls-3" d="M263.91,552.71v6.58c0,.89,1.08.9,1.08,0v-6.58C265,551.81,263.91,551.81,263.91,552.71Z"/><path class="cls-3" d="M256.17,553.37c0-.37-.25-.72-.54-.7a.64.64,0,0,0-.55.7c0,.65,0,1.3,0,1.94,0,.33,0,.65,0,1a.59.59,0,0,1,0,.14,1.36,1.36,0,0,1,0,.2,4.54,4.54,0,0,1-.09.51.76.76,0,0,0,.38.86.56.56,0,0,0,.67-.49A21.1,21.1,0,0,0,256.17,553.37Z"/><path class="cls-3" d="M237,618a.65.65,0,0,0-.54.7v2.19c0,.37.25.72.54.7a.64.64,0,0,0,.54-.7v-2.19C237.5,618.33,237.25,618,237,618Z"/></g><path class="cls-5" d="M291.33,636.56a.36.36,0,0,1-.2-.06.62.62,0,0,1-.16-.71,8.85,8.85,0,0,0,.26-5.19,27.16,27.16,0,0,0-1.68-4.76l-.16-.36c-4.84-11.4-8.5-23.75-12-35.69-3.17-10.71-6.46-21.79-10.58-32.13a14.39,14.39,0,0,0-2.94-5.18.63.63,0,0,1-.09-.73.35.35,0,0,1,.57-.11,15.19,15.19,0,0,1,3.18,5.54c4.15,10.39,7.44,21.5,10.62,32.24,3.53,11.9,7.18,24.22,12,35.56l.16.36a27.65,27.65,0,0,1,1.75,5,10.13,10.13,0,0,1-.33,6A.4.4,0,0,1,291.33,636.56Z"/><path class="cls-5" d="M229.78,635.42a.35.35,0,0,1-.14,0,.59.59,0,0,1-.25-.67c3-11,6.59-21.83,10.11-32.33.7-2.07,1.4-4.15,2.09-6.22q1.77-5.34,3.56-10.69t3.66-11q1.75-5.24,3.47-10.48c.25-.76.49-1.51.71-2.24,1.42-4.61,2.64-8.59,7.08-10.27.21-.09.44.07.5.35a.56.56,0,0,1-.27.65c-4.06,1.54-5.16,5.12-6.56,9.66-.22.73-.46,1.49-.71,2.26q-1.72,5.25-3.47,10.49l-3.66,11-3.57,10.68c-.69,2.08-1.38,4.15-2.08,6.23-3.52,10.48-7.16,21.32-10.09,32.25A.43.43,0,0,1,229.78,635.42Z"/><path class="cls-5" d="M241.83,648.64c-3.62,0-7.61-.48-10.24-4.12a.63.63,0,0,1,0-.74.35.35,0,0,1,.58,0c2.88,4,7.74,3.85,11.64,3.75,12.24-.32,37.7-1,45-7.81a.35.35,0,0,1,.57.12.63.63,0,0,1-.09.73c-7.47,7-33.1,7.69-45.42,8C243.19,648.62,242.52,648.64,241.83,648.64Z"/><path class="cls-2" d="M467.2,757.84l0,61.2a178.78,178.78,0,0,1-.62,18.66c-1.19,10.6-4.61,10.59-5.79,0a177.29,177.29,0,0,1-.63-18.59l0-61.24"/><path class="cls-1" d="M486.56,770.86c5.61-2.59,9.27-7.17,6.53-14.35-9.65-25.33-14.63-45.16-21.94-67.74-1.45-4.48-3.63-9.67-7.38-9.94-4.18-.3-6.77,5.62-8.33,10.64-6.36,20.49-13,40.62-20.12,60.64-1.85,5.18-5.18,14-2.51,19.53,3.78,7.89,14.91,5.24,20.79,5C458.84,774.39,476.44,775.52,486.56,770.86Z"/><g class="cls-7"><path class="cls-3" d="M455.78,700.3a.56.56,0,0,0-.67.49,11.4,11.4,0,0,0-.24,3.09c0,.36.23.71.54.7a.65.65,0,0,0,.54-.7,9.89,9.89,0,0,1,0-1.44c0-.06,0-.13,0-.19h0v0c0-.11,0-.23,0-.34s.08-.48.13-.72A.75.75,0,0,0,455.78,700.3Z"/><path class="cls-3" d="M466.85,700.57a.65.65,0,0,0-.54.7v3.48c0,.36.25.71.54.7a.65.65,0,0,0,.55-.7v-3.48C467.4,700.9,467.15,700.55,466.85,700.57Z"/><path class="cls-3" d="M460.12,723.19a.64.64,0,0,0-.54.69v3.77c0,.37.25.72.54.7a.64.64,0,0,0,.54-.7v-3.77C460.66,723.52,460.41,723.17,460.12,723.19Z"/><path class="cls-3" d="M472.91,724.06a.64.64,0,0,0-.54.69v3.19c0,.37.25.72.54.7a.64.64,0,0,0,.55-.7v-3.19C473.46,724.39,473.21,724,472.91,724.06Z"/><path class="cls-3" d="M450.24,740a.65.65,0,0,0-.54.7v2.9c0,.37.25.72.54.7a.65.65,0,0,0,.55-.7v-2.9C450.79,740.34,450.54,740,450.24,740Z"/><path class="cls-3" d="M470.67,748.7a.65.65,0,0,0-.54.7v4.06c0,.37.25.72.54.7a.65.65,0,0,0,.54-.7V749.4C471.21,749,471,748.69,470.67,748.7Z"/><path class="cls-3" d="M485.48,751a.65.65,0,0,0-.54.7v3.48c0,.37.25.72.54.7a.65.65,0,0,0,.55-.7v-3.48C486,751.35,485.78,751,485.48,751Z"/><path class="cls-3" d="M449.8,719.71a.64.64,0,0,0-.55.7v2c0,.36.25.71.55.69a.64.64,0,0,0,.54-.69v-2C450.34,720,450.09,719.69,449.8,719.71Z"/><path class="cls-3" d="M441,753.92a.65.65,0,0,0-.54.7v4.06c0,.37.25.72.54.7a.65.65,0,0,0,.54-.7v-4.06C441.58,754.25,441.33,753.9,441,753.92Z"/><path class="cls-3" d="M456.45,756.56a.54.54,0,0,0-.67.48,40.14,40.14,0,0,0-.24,5.7c0,.9,1.1.9,1.08,0a37.69,37.69,0,0,1,.21-5.32A.77.77,0,0,0,456.45,756.56Z"/><path class="cls-3" d="M480.55,762.91a.65.65,0,0,0-.54.7v2.9c0,.36.24.71.54.7a.65.65,0,0,0,.54-.7v-2.9C481.09,763.24,480.84,762.89,480.55,762.91Z"/><path class="cls-3" d="M479.87,732.46a.65.65,0,0,0-.54.7v4.93a.65.65,0,0,0,.54.7.64.64,0,0,0,.54-.7v-4.93C480.41,732.79,480.17,732.46,479.87,732.46Z"/><path class="cls-3" d="M461,737.39a.65.65,0,0,0-.54.7v2.32c0,.37.25.72.54.7a.65.65,0,0,0,.54-.7v-2.32C461.56,737.73,461.31,737.38,461,737.39Z"/><path class="cls-3" d="M472.91,709.56c-.31,0-.51.31-.54.7-.06,1-.13,1.93-.22,2.9a.76.76,0,0,0,.16.49.53.53,0,0,0,.38.21.48.48,0,0,0,.38-.21.89.89,0,0,0,.16-.49c.09-1,.17-1.93.23-2.9C473.48,709.89,473.19,709.54,472.91,709.56Z"/><path class="cls-3" d="M444.72,734.61a.64.64,0,0,0-.54-.7c-.31,0-.51.31-.54.7a34.41,34.41,0,0,0-.22,4.06c0,.37.24.72.54.7a.64.64,0,0,0,.54-.7A34.41,34.41,0,0,1,444.72,734.61Z"/><path class="cls-3" d="M468,766.39a.65.65,0,0,0-.54.7c0,.28,0,.57-.05.85s-.09.67-.16,1a.75.75,0,0,0,.38.86c.29.09.58-.11.66-.49a10.19,10.19,0,0,0,.25-2.21C468.52,766.72,468.27,766.37,468,766.39Z"/><path class="cls-3" d="M446.73,767.19c-.05-.25-.09-.51-.13-.77a1.1,1.1,0,0,0,0-.18v-.08h0l0-.39c0-.53,0-1.06,0-1.58s-.26-.72-.54-.7a.65.65,0,0,0-.54.7,15.18,15.18,0,0,0,.24,3.37c.07.36.4.61.67.49A.76.76,0,0,0,446.73,767.19Z"/><path class="cls-3" d="M471.79,692.74a.65.65,0,0,0-.54.7v2.61c0,.36.25.72.54.7a.65.65,0,0,0,.54-.7v-2.61C472.33,693.07,472.08,692.72,471.79,692.74Z"/><path class="cls-3" d="M462.37,686.07a.65.65,0,0,0-.55.7v4.06c0,.37.25.72.55.7a.65.65,0,0,0,.54-.7v-4.06C462.91,686.41,462.66,686.05,462.37,686.07Z"/><path class="cls-3" d="M461.69,710.43a.65.65,0,0,0-.54.7v2.32c0,.36.25.71.54.7a.65.65,0,0,0,.54-.7v-2.32C462.23,710.76,462,710.41,461.69,710.43Z"/><path class="cls-3" d="M479.65,716.81a.64.64,0,0,0-.54.7v2.61c0,.36.25.71.54.69a.64.64,0,0,0,.54-.69v-2.61C480.19,717.14,479.94,716.79,479.65,716.81Z"/><path class="cls-3" d="M453.68,775.6c0-.28-.07-.56-.1-.84l0-.1c0-.07,0-.14,0-.2s0-.29,0-.44c0-.57,0-1.14,0-1.71,0-.37-.25-.72-.54-.7a.65.65,0,0,0-.54.7,21.24,21.24,0,0,0,.24,3.66.54.54,0,0,0,.67.49A.76.76,0,0,0,453.68,775.6Z"/><path class="cls-3" d="M436.7,765.83a.55.55,0,0,0-.67.49,13.71,13.71,0,0,0-.24,2.22c0,.36.25.71.54.7a.65.65,0,0,0,.54-.7c0-.28,0-.55.05-.83s.09-.68.15-1A.75.75,0,0,0,436.7,765.83Z"/><path class="cls-3" d="M488,763.2a.65.65,0,0,0-.54.7v1.74c0,.36.25.71.54.7a.65.65,0,0,0,.54-.7V763.9C488.49,763.53,488.25,763.18,488,763.2Z"/><path class="cls-3" d="M470.53,734.2a.65.65,0,0,0-.54.7v4.17c0,.36.25.71.54.69a.64.64,0,0,0,.54-.69V734.9C471.07,734.53,470.82,734.18,470.53,734.2Z"/><path class="cls-3" d="M479.4,750.19A.55.55,0,0,0,479,750a.5.5,0,0,0-.38.21.82.82,0,0,0-.16.49V752a.8.8,0,0,0,.16.49.46.46,0,0,0,.77,0,.87.87,0,0,0,.16-.49v-1.32A.89.89,0,0,0,479.4,750.19Z"/><path class="cls-3" d="M463.6,749.15c0-.9-1.07-.9-1.08,0,0,2.12-.24,4.23-.17,6.36,0,.89,1.12.9,1.08,0C463.36,753.38,463.6,751.27,463.6,749.15Z"/><path class="cls-3" d="M486.82,739.46a.65.65,0,0,0-.54.7v3.51c0,.36.25.71.54.7a.65.65,0,0,0,.54-.7v-3.51C487.36,739.8,487.11,739.45,486.82,739.46Z"/><path class="cls-3" d="M454.21,712.1c0,2,0,4.1-.17,6.14a.64.64,0,0,0,.54.7c.31,0,.51-.32.54-.7.15-2,.16-4.09.17-6.14C455.29,711.2,454.21,711.2,454.21,712.1Z"/><path class="cls-3" d="M466.93,715.17v8.33c0,.9,1.09.9,1.09,0v-8.33C468,714.27,466.93,714.27,466.93,715.17Z"/><path class="cls-3" d="M453.56,728.5a.65.65,0,0,0-.54.7v3.07c0,.37.25.72.54.7a.65.65,0,0,0,.54-.7V729.2C454.1,728.84,453.85,728.49,453.56,728.5Z"/><path class="cls-3" d="M449.16,755.54a42.55,42.55,0,0,1-.32-6.39c0-.9-1.06-.9-1.08,0a43.57,43.57,0,0,0,.36,6.76.55.55,0,0,0,.66.49A.76.76,0,0,0,449.16,755.54Z"/><path class="cls-3" d="M460.22,696.26a.48.48,0,0,0-.38-.2.5.5,0,0,0-.38.2.85.85,0,0,0-.16.5v1.09a.85.85,0,0,0,.16.5.47.47,0,0,0,.38.2.48.48,0,0,0,.38-.2.85.85,0,0,0,.16-.5v-1.09A.85.85,0,0,0,460.22,696.26Z"/><path class="cls-3" d="M466.09,680.1v6.57c0,.9,1.08.9,1.08,0V680.1C467.17,679.2,466.09,679.2,466.09,680.1Z"/><path class="cls-3" d="M458.34,680.76c0-.37-.25-.72-.54-.7a.64.64,0,0,0-.54.7c0,.64,0,1.29,0,1.94,0,.33,0,.65,0,1,0,0,0,.12,0,.14s0,.13,0,.19l-.09.52a.74.74,0,0,0,.38.85.53.53,0,0,0,.66-.48A20.36,20.36,0,0,0,458.34,680.76Z"/><path class="cls-3" d="M439.14,745.38a.65.65,0,0,0-.55.7v2.19c0,.37.25.72.55.7a.65.65,0,0,0,.54-.7v-2.19C439.68,745.71,439.43,745.36,439.14,745.38Z"/></g><path class="cls-5" d="M493.5,764a.35.35,0,0,1-.19-.06.6.6,0,0,1-.16-.71,8.94,8.94,0,0,0,.25-5.19,26.37,26.37,0,0,0-1.68-4.76l-.15-.36c-4.84-11.4-8.5-23.75-12-35.69-3.18-10.71-6.46-21.79-10.58-32.13a14.69,14.69,0,0,0-2.94-5.18.63.63,0,0,1-.09-.73.35.35,0,0,1,.57-.11,15.19,15.19,0,0,1,3.18,5.54c4.14,10.39,7.43,21.5,10.62,32.23,3.53,11.91,7.18,24.23,12,35.57l.16.36a28.63,28.63,0,0,1,1.75,5,10.2,10.2,0,0,1-.33,6A.4.4,0,0,1,493.5,764Z"/><path class="cls-5" d="M432,762.8a.32.32,0,0,1-.13,0,.59.59,0,0,1-.25-.67c2.94-11,6.59-21.83,10.11-32.33q1.05-3.12,2.08-6.22l3.57-10.69,3.66-11q1.74-5.24,3.47-10.48c.25-.76.48-1.51.71-2.24,1.42-4.61,2.64-8.59,7.07-10.27.22-.09.44.07.51.35a.56.56,0,0,1-.28.65c-4.05,1.54-5.15,5.12-6.55,9.66-.23.73-.46,1.49-.71,2.26q-1.72,5.25-3.47,10.49l-3.66,10.95L444.51,724c-.69,2.08-1.39,4.15-2.08,6.23-3.52,10.48-7.16,21.32-10.09,32.25A.43.43,0,0,1,432,762.8Z"/><path class="cls-5" d="M444,776c-3.61,0-7.6-.49-10.24-4.12a.65.65,0,0,1,0-.74.35.35,0,0,1,.58,0c2.88,4,7.73,3.85,11.64,3.75,12.24-.32,37.7-1,45-7.81a.35.35,0,0,1,.57.11.64.64,0,0,1-.09.74c-7.47,7-33.11,7.69-45.43,8C445.37,776,444.69,776,444,776Z"/><path class="cls-2" d="M675.38,937.61q0,17.52,0,35.06a58.85,58.85,0,0,1-.63,10.68c-1.18,6.07-4.61,6.07-5.79,0a58.55,58.55,0,0,1-.62-10.65q0-17.54,0-35.07"/><path class="cls-1" d="M694.75,950.63c5.61-2.59,9.26-7.16,6.52-14.35-9.65-25.33-14.62-45.16-21.93-67.74-1.45-4.48-3.63-9.66-7.39-9.93-4.17-.3-6.76,5.61-8.32,10.63-6.37,20.49-13,40.62-20.12,60.65-1.85,5.17-5.18,14-2.52,19.52,3.79,7.89,14.92,5.24,20.8,5C667,954.16,684.63,955.3,694.75,950.63Z"/><g class="cls-8"><path class="cls-3" d="M664,880.08c-.29-.09-.58.11-.66.49a11.33,11.33,0,0,0-.25,3.08c0,.36.24.72.54.7a.64.64,0,0,0,.54-.7,13.83,13.83,0,0,1,0-1.44c0-.06,0-.12,0-.19h0c0-.12,0-.23.05-.35s.08-.48.13-.71A.76.76,0,0,0,664,880.08Z"/><path class="cls-3" d="M675,880.34a.65.65,0,0,0-.54.7v3.48c0,.37.25.72.54.7a.65.65,0,0,0,.54-.7V881C675.58,880.68,675.33,880.33,675,880.34Z"/><path class="cls-3" d="M668.31,903a.65.65,0,0,0-.54.7v3.77c0,.36.24.71.54.7a.65.65,0,0,0,.54-.7v-3.77C668.85,903.29,668.6,902.94,668.31,903Z"/><path class="cls-3" d="M681.1,903.83a.65.65,0,0,0-.54.7v3.19c0,.36.25.71.54.7a.65.65,0,0,0,.54-.7v-3.19C681.64,904.16,681.39,903.81,681.1,903.83Z"/><path class="cls-3" d="M658.43,919.78a.64.64,0,0,0-.54.69v2.9c0,.37.25.72.54.7a.64.64,0,0,0,.54-.7v-2.9C659,920.11,658.72,919.76,658.43,919.78Z"/><path class="cls-3" d="M678.86,928.47a.65.65,0,0,0-.55.7v4.06c0,.37.25.72.55.7a.65.65,0,0,0,.54-.7v-4.06C679.4,928.81,679.15,928.46,678.86,928.47Z"/><path class="cls-3" d="M693.67,930.79a.65.65,0,0,0-.54.7V935c0,.37.25.72.54.7a.65.65,0,0,0,.54-.7v-3.48C694.21,931.13,694,930.78,693.67,930.79Z"/><path class="cls-3" d="M658,899.48a.65.65,0,0,0-.54.7v2c0,.36.25.71.54.7a.65.65,0,0,0,.54-.7v-2C658.52,899.81,658.27,899.46,658,899.48Z"/><path class="cls-3" d="M649.23,933.69a.65.65,0,0,0-.54.7v4.06c0,.37.25.72.54.7a.65.65,0,0,0,.54-.7v-4.06C649.77,934,649.52,933.68,649.23,933.69Z"/><path class="cls-3" d="M664.63,936.33a.54.54,0,0,0-.66.49,41.47,41.47,0,0,0-.25,5.69c0,.9,1.1.9,1.09,0a37.75,37.75,0,0,1,.2-5.32A.76.76,0,0,0,664.63,936.33Z"/><path class="cls-3" d="M688.73,942.68a.65.65,0,0,0-.54.7v2.9c0,.37.25.72.54.7a.65.65,0,0,0,.54-.7v-2.9C689.27,943,689,942.67,688.73,942.68Z"/><path class="cls-3" d="M688.06,912.24a.64.64,0,0,0-.54.7v4.93a.56.56,0,1,0,1.08,0v-4.93A.65.65,0,0,0,688.06,912.24Z"/><path class="cls-3" d="M669.2,917.17a.64.64,0,0,0-.54.7v2.31c0,.37.25.72.54.7a.63.63,0,0,0,.54-.7v-2.31C669.74,917.5,669.5,917.15,669.2,917.17Z"/><path class="cls-3" d="M681.1,889.33c-.31,0-.52.31-.54.7-.06,1-.14,1.93-.23,2.9a.89.89,0,0,0,.16.49.51.51,0,0,0,.39.21.5.5,0,0,0,.38-.21,1,1,0,0,0,.16-.49c.09-1,.16-1.93.22-2.9C681.66,889.66,681.38,889.31,681.1,889.33Z"/><path class="cls-3" d="M652.91,914.39c0-.37-.27-.72-.54-.7s-.51.3-.54.7a36.56,36.56,0,0,0-.23,4.06c0,.36.24.71.55.69a.64.64,0,0,0,.54-.69A34.29,34.29,0,0,1,652.91,914.39Z"/><path class="cls-3" d="M676.16,946.16a.65.65,0,0,0-.54.7c0,.29,0,.57,0,.85s-.09.67-.16,1a.74.74,0,0,0,.37.86.55.55,0,0,0,.67-.48,10.27,10.27,0,0,0,.24-2.22C676.7,946.49,676.45,946.14,676.16,946.16Z"/><path class="cls-3" d="M654.91,947c0-.25-.09-.51-.12-.77a1.1,1.1,0,0,1,0-.18v-.07h0l0-.39a13.88,13.88,0,0,1,0-1.58c0-.36-.26-.71-.54-.7a.66.66,0,0,0-.55.7,15.94,15.94,0,0,0,.25,3.38c.06.35.39.6.66.48A.75.75,0,0,0,654.91,947Z"/><path class="cls-3" d="M680,872.51a.65.65,0,0,0-.54.7v2.61c0,.37.25.72.54.7a.65.65,0,0,0,.54-.7v-2.61C680.52,872.85,680.27,872.5,680,872.51Z"/><path class="cls-3" d="M670.55,865.84a.65.65,0,0,0-.54.7v4.06c0,.37.25.72.54.7a.65.65,0,0,0,.54-.7v-4.06C671.09,866.18,670.84,865.83,670.55,865.84Z"/><path class="cls-3" d="M669.88,890.2a.65.65,0,0,0-.54.7v2.32c0,.36.25.71.54.7a.65.65,0,0,0,.54-.7V890.9C670.42,890.53,670.17,890.18,669.88,890.2Z"/><path class="cls-3" d="M687.83,896.58a.65.65,0,0,0-.54.7v2.61c0,.36.25.71.54.7a.65.65,0,0,0,.54-.7v-2.61C688.37,896.91,688.13,896.56,687.83,896.58Z"/><path class="cls-3" d="M661.87,955.37c0-.27-.08-.55-.11-.84v-.1c0-.07,0-.13,0-.2l0-.44c0-.57-.05-1.14,0-1.71,0-.37-.25-.72-.54-.7a.65.65,0,0,0-.54.7,22.29,22.29,0,0,0,.25,3.66c0,.36.4.6.66.49A.75.75,0,0,0,661.87,955.37Z"/><path class="cls-3" d="M644.88,945.61a.54.54,0,0,0-.66.48,13.72,13.72,0,0,0-.25,2.22c0,.37.26.72.54.7a.65.65,0,0,0,.54-.7c0-.28,0-.55.06-.83s.08-.68.15-1A.74.74,0,0,0,644.88,945.61Z"/><path class="cls-3" d="M696.14,943a.65.65,0,0,0-.54.7v1.74c0,.37.25.72.54.7a.65.65,0,0,0,.54-.7v-1.74C696.68,943.31,696.43,943,696.14,943Z"/><path class="cls-3" d="M678.72,914a.65.65,0,0,0-.55.7v4.17c0,.36.25.71.55.7a.65.65,0,0,0,.54-.7v-4.17C679.26,914.31,679,914,678.72,914Z"/><path class="cls-3" d="M687.58,930a.48.48,0,0,0-.38-.2.47.47,0,0,0-.38.2.85.85,0,0,0-.16.5v1.31a.85.85,0,0,0,.16.5.48.48,0,0,0,.38.2.52.52,0,0,0,.38-.2.85.85,0,0,0,.16-.5v-1.31A.85.85,0,0,0,687.58,930Z"/><path class="cls-3" d="M671.79,928.92c0-.9-1.08-.9-1.08,0,0,2.12-.24,4.24-.17,6.36,0,.89,1.11.9,1.08,0C671.55,933.16,671.78,931,671.79,928.92Z"/><path class="cls-3" d="M695,919.24a.64.64,0,0,0-.55.69v3.51c0,.37.25.72.55.7a.65.65,0,0,0,.54-.7v-3.51C695.55,919.57,695.3,919.22,695,919.24Z"/><path class="cls-3" d="M662.39,891.87c0,2,0,4.1-.17,6.14a.65.65,0,0,0,.54.7c.32,0,.52-.32.54-.7.15-2,.17-4.09.17-6.14C663.48,891,662.4,891,662.39,891.87Z"/><path class="cls-3" d="M675.12,894.94v8.33c0,.9,1.08.9,1.08,0v-8.33C676.2,894,675.12,894,675.12,894.94Z"/><path class="cls-3" d="M661.75,908.27a.65.65,0,0,0-.55.7V912c0,.37.25.72.55.7a.65.65,0,0,0,.54-.7V909C662.29,908.61,662,908.26,661.75,908.27Z"/><path class="cls-3" d="M657.35,935.31a41.27,41.27,0,0,1-.32-6.39c0-.9-1.07-.9-1.09,0a46.12,46.12,0,0,0,.36,6.76.55.55,0,0,0,.67.49A.76.76,0,0,0,657.35,935.31Z"/><path class="cls-3" d="M668.41,876a.49.49,0,0,0-.39-.21.5.5,0,0,0-.38.21.8.8,0,0,0-.16.49v1.1a.82.82,0,0,0,.16.49.5.5,0,0,0,.38.2.47.47,0,0,0,.39-.2.89.89,0,0,0,.16-.49v-1.1A.87.87,0,0,0,668.41,876Z"/><path class="cls-3" d="M674.27,859.87v6.58c0,.9,1.08.9,1.08,0v-6.58C675.35,859,674.27,859,674.27,859.87Z"/><path class="cls-3" d="M666.53,860.53c0-.37-.25-.72-.54-.7a.65.65,0,0,0-.54.7c0,.65,0,1.3,0,2,0,.32,0,.64,0,1,0,0,0,.13,0,.14l0,.2c0,.17,0,.34-.08.51a.76.76,0,0,0,.37.86.55.55,0,0,0,.67-.49A21.1,21.1,0,0,0,666.53,860.53Z"/><path class="cls-3" d="M647.32,925.15a.65.65,0,0,0-.54.7V928c0,.37.25.72.54.7a.64.64,0,0,0,.54-.7v-2.19C647.86,925.49,647.61,925.14,647.32,925.15Z"/></g><path class="cls-5" d="M701.69,943.72a.33.33,0,0,1-.19-.06.6.6,0,0,1-.17-.71,8.85,8.85,0,0,0,.26-5.19,26.77,26.77,0,0,0-1.68-4.75l-.15-.37c-4.84-11.4-8.5-23.75-12-35.69-3.18-10.71-6.46-21.79-10.59-32.13a14.39,14.39,0,0,0-2.94-5.18.61.61,0,0,1-.08-.73.35.35,0,0,1,.56-.11,15.21,15.21,0,0,1,3.19,5.54c4.14,10.39,7.43,21.5,10.61,32.24,3.53,11.9,7.19,24.22,12,35.56l.15.36a27.65,27.65,0,0,1,1.75,5,10.22,10.22,0,0,1-.32,6A.42.42,0,0,1,701.69,943.72Z"/><path class="cls-5" d="M640.14,942.58a.31.31,0,0,1-.13,0,.57.57,0,0,1-.25-.67c2.94-11,6.58-21.83,10.11-32.33l2.08-6.22,3.57-10.69,3.66-11q1.74-5.23,3.47-10.48c.25-.76.48-1.51.7-2.24,1.42-4.61,2.65-8.59,7.08-10.27.21-.09.44.08.5.35a.55.55,0,0,1-.27.65c-4.06,1.54-5.16,5.12-6.55,9.66-.23.74-.46,1.49-.72,2.26q-1.73,5.25-3.47,10.49l-3.66,11-3.57,10.69q-1,3.11-2.08,6.22c-3.52,10.48-7.15,21.32-10.09,32.25A.42.42,0,0,1,640.14,942.58Z"/><path class="cls-5" d="M652.19,955.8c-3.62,0-7.61-.48-10.24-4.12a.63.63,0,0,1,0-.74.34.34,0,0,1,.57,0c2.89,4,7.74,3.85,11.64,3.75,12.24-.32,37.7-1,45-7.81a.34.34,0,0,1,.56.12.62.62,0,0,1-.09.73c-7.46,7-33.1,7.69-45.42,8C653.55,955.78,652.88,955.8,652.19,955.8Z"/><path class="cls-2" d="M1748.06,614.16q0,25.29,0,50.58a113.2,113.2,0,0,0,.68,15.42c1.29,8.75,5,8.74,6.28,0a112.31,112.31,0,0,0,.68-15.36l0-50.61"/><path class="cls-1" d="M1759.43,614.8c4.16,2.29,8.38,4.59,13,5.83a9.77,9.77,0,0,0,4.88.31,4.26,4.26,0,0,0,3.29-3.28,5.79,5.79,0,0,0-.76-3.2,29.68,29.68,0,0,0-5-7.4,30.2,30.2,0,0,0-3.15-2.94c-.88-.7-2.61-2.41-3.74-2.55,2.55.32,4.95,1.46,7.52,1.7a6.52,6.52,0,0,0,5.39-1.81c1.86-2.14-.65-4.25-2.19-5.81q-5.47-5.56-10.94-11.15a9.25,9.25,0,0,0,9.56-3.21,2.44,2.44,0,0,0,.65-1.78,2.75,2.75,0,0,0-1.38-1.66,50.9,50.9,0,0,0-14.5-6.76,8.67,8.67,0,0,0,7.87-.06,3.21,3.21,0,0,0,1.88-2.21,3.87,3.87,0,0,0-1.15-2.74,171.91,171.91,0,0,0-15.07-16.73,7,7,0,0,0-2.16-1.59c-2.58-1-5.19,1.25-7.15,3.21a81.37,81.37,0,0,1-14.36,11.39,9.42,9.42,0,0,0-2.8,2.24,3.05,3.05,0,0,0-.34,3.38,4.13,4.13,0,0,0,2.78,1.45,31.26,31.26,0,0,0,8.13.61,81,81,0,0,0-12.87,8c-1.73,1.3-3.57,3.06-3.37,5.21s2.32,3.51,4.39,3.67a13.36,13.36,0,0,0,6-1.43q-5.37,7-10.46,14.25c-1.14,1.6-2.31,3.62-1.5,5.41.68,1.51,2.53,2.14,4.18,2.13,3.38,0,6.4-2,9.13-4a60.37,60.37,0,0,0-12.34,11.33c-1.68,2-3.3,4.79-2.15,7.16.87,1.81,3,2.59,5,2.83a16.37,16.37,0,0,0,15.47-7.39,4.94,4.94,0,0,0,7.14-1,3.23,3.23,0,0,0,6,.06,5.6,5.6,0,0,0,3.13.67A2.31,2.31,0,0,0,1759.43,614.8Z"/><path class="cls-3" d="M1777.06,577.77c-.43-.55-1.19.22-.77.77,1.56,2-.43,3.87-2.18,4.77a9.58,9.58,0,0,1-7.74.69,4.38,4.38,0,0,1-2.59-3.16c-.14-.62-1-.44-1.06.15-.1,1.67-1,3.61-3,3.5s-2.46-2-3.67-3.07a.54.54,0,0,0-.9.23c-.36,1.85-1.19,4.18-3.16,4.82a3.59,3.59,0,0,1-4.57-3.62.55.55,0,0,0-1-.28c-1.24,1.87-3.5,3.6-5.87,3.23a2.52,2.52,0,0,1-2-1.16,7,7,0,0,1-.48-2.22.54.54,0,0,0-.79-.32c-1.22.82-2.13,2-3.37,2.82a9.6,9.6,0,0,1-4.35,1.25,8.07,8.07,0,0,1-3.62-.34,2.48,2.48,0,0,1-1.49-2.58.54.54,0,0,0-1.08,0,3.58,3.58,0,0,0,1.52,3.25,6.86,6.86,0,0,0,3.83.79,12.45,12.45,0,0,0,5-1,16.87,16.87,0,0,0,3.43-2.7,4.49,4.49,0,0,0,.62,1.9,3.76,3.76,0,0,0,2.72,1.42,7,7,0,0,0,6.06-2.69,4.62,4.62,0,0,0,5.27,3.45c2.3-.43,3.56-2.58,4.16-4.7a16.8,16.8,0,0,0,1.3,1.6,3.81,3.81,0,0,0,3,1,3.75,3.75,0,0,0,3.11-2.77c1.29,2.07,3.84,2.94,6.37,2.79,2.72-.16,6.27-1.28,7.7-3.83A3.48,3.48,0,0,0,1777.06,577.77Z"/><path class="cls-3" d="M1770.06,565.39c-.54-.43-1.31.33-.76.76.72.57,1.88,1.51,1.79,2.53-.06.66-.8,1.16-1.45,1.45a9.24,9.24,0,0,1-6.22.31,2.65,2.65,0,0,1-1.08-.59,1,1,0,0,1-.3-.78,1,1,0,0,0,0-.17c0-.6-1-.76-1.06-.14a.66.66,0,0,0,0,.14h0c0,.9-.37,2.3-1.57,1.94a2.46,2.46,0,0,1-1.46-2.56.55.55,0,0,0-1-.28,6.12,6.12,0,0,1-.94,1.72,2.39,2.39,0,0,1-1.92.5c-1.4-.11-2.14-1.23-2.77-2.35a.54.54,0,0,0-.93,0,4.79,4.79,0,0,1-3.4,2.88,2.56,2.56,0,0,1-2.17-.65,1.35,1.35,0,0,1,0-2,.55.55,0,0,0-.66-.85c-.93.54-1.66,1.38-2.64,1.84a9.4,9.4,0,0,1-3.71.64,29.25,29.25,0,0,1-4.08-.16c-1.75-.21-5.93-.89-4.67-3.55.29-.62-.64-1.17-.94-.54-2.54,5.39,7.59,5.48,10.54,5.29a9.09,9.09,0,0,0,3.41-.75,7.55,7.55,0,0,0,1.27-.84,3,3,0,0,0,2.69,2.61,5.1,5.1,0,0,0,4.83-2.62,4.15,4.15,0,0,0,3.22,2.11,3.62,3.62,0,0,0,2.48-.63,3.14,3.14,0,0,0,.6-.71,3,3,0,0,0,2.15,2,2,2,0,0,0,2.33-1.25c1.06,1,3.09,1.2,4.36,1.2,1.94,0,5.52-.45,6.11-2.77C1772.5,567.58,1771.14,566.24,1770.06,565.39Z"/><path class="cls-3" d="M1781.1,600a3.31,3.31,0,0,0-.51.73,4.49,4.49,0,0,1-3.29,2.09,9.7,9.7,0,0,1-4-.39,24,24,0,0,1-4.81-1.9,2.24,2.24,0,0,0-1.16-.37c-.86.07-1.26,1.07-1.82,1.73-1.21,1.46-3.47,1.4-5.31.91-1.32-.36-2.84-1.24-2.72-2.6a1.27,1.27,0,0,0,0-.55.62.62,0,0,0-.9-.2,2,2,0,0,0-.64.82,5.85,5.85,0,0,1-3.39,2.93,3.4,3.4,0,0,1-3.93-1.58c-.14-.29-.25-.64-.53-.78-.46-.23-1,.22-1.3.6a7.55,7.55,0,0,1-4.87,2.74,4.13,4.13,0,0,1-4.36-2.92c-.08-.42-.4-1.11-.94-1-.3.08-.7,1.08-.91,1.38a10.87,10.87,0,0,1-1.67,1.72,12.14,12.14,0,0,1-4.17,2.32,12,12,0,0,1-4.8.52,23.76,23.76,0,0,0-2.49-.49c-.78,0-1,.61-.06,1a10.47,10.47,0,0,0,7.65,0,18.57,18.57,0,0,0,6.46-4.35,5.68,5.68,0,0,0,5.44,2.83,8.35,8.35,0,0,0,5.55-3,4.61,4.61,0,0,0,4.63,2.2,6.1,6.1,0,0,0,4.29-3.05,6.44,6.44,0,0,0,10.91-.12,21.26,21.26,0,0,0,7.43,2.7c2.64.27,5.57-.63,7-2.89.23-.37.38-.93,0-1.18S1781.34,599.73,1781.1,600Z"/><path class="cls-3" d="M1778.22,619.6c-6.58,3.11-12.41-2.56-17.91-5.38a.56.56,0,0,0-.73.21.47.47,0,0,0-.32.49c0,1.17-.59,1.67-1.72,1.61a5.29,5.29,0,0,1-2.76-1,.55.55,0,0,0-.85.11,3.29,3.29,0,0,1-2.44,2.05,2.33,2.33,0,0,1-2.41-1.79c-.13-.39-.78-.6-1-.13-1.1,2.54-4.55,3.41-6.29,1a.53.53,0,0,0-.22-.18.47.47,0,0,0-.69.14.52.52,0,0,0-.11.19c-3.1,6.4-11.91,8-18.23,6.38a.54.54,0,0,0-.29,1c5.44,1.39,12.09.54,16.51-3.11a11.17,11.17,0,0,0,2.67-3.25,4.45,4.45,0,0,0,3.75,1.29,4.86,4.86,0,0,0,3.33-2.06,3.12,3.12,0,0,0,2.83,1.59,4.09,4.09,0,0,0,3.24-2.1c2,1.16,5.47,1.55,5.73-1.22,2.92,1.58,5.6,3.59,8.65,4.93a11.4,11.4,0,0,0,9.78.14C1779.39,620.23,1778.84,619.3,1778.22,619.6Z"/><path class="cls-2" d="M1544.57,692.11q0,25.29,0,50.58a111.55,111.55,0,0,0,.68,15.42c1.28,8.76,5,8.75,6.28,0a112.23,112.23,0,0,0,.68-15.36l0-50.6"/><path class="cls-1" d="M1555.93,692.75c4.17,2.29,8.39,4.6,13,5.83a9.77,9.77,0,0,0,4.88.32,4.26,4.26,0,0,0,3.29-3.28,5.82,5.82,0,0,0-.76-3.21,29.63,29.63,0,0,0-5-7.4,29.14,29.14,0,0,0-3.15-2.93c-.87-.71-2.6-2.42-3.74-2.56,2.56.32,5,1.47,7.53,1.7a6.52,6.52,0,0,0,5.39-1.81c1.86-2.14-.66-4.24-2.19-5.8l-10.94-11.15a9.27,9.27,0,0,0,9.56-3.22,2.46,2.46,0,0,0,.65-1.78,2.74,2.74,0,0,0-1.39-1.65,50.71,50.71,0,0,0-14.49-6.76,8.67,8.67,0,0,0,7.87-.07,3.2,3.2,0,0,0,1.88-2.2,3.92,3.92,0,0,0-1.16-2.74A169.38,169.38,0,0,0,1552,627.31a6.69,6.69,0,0,0-2.16-1.59c-2.59-1-5.19,1.24-7.15,3.2a81.74,81.74,0,0,1-14.36,11.39,9.93,9.93,0,0,0-2.81,2.24,3,3,0,0,0-.33,3.38,4.18,4.18,0,0,0,2.78,1.46,31.7,31.7,0,0,0,8.13.61,80.48,80.48,0,0,0-12.87,8c-1.73,1.31-3.57,3.06-3.37,5.22s2.32,3.51,4.39,3.67a13.53,13.53,0,0,0,6-1.43q-5.37,7-10.47,14.24c-1.13,1.61-2.3,3.62-1.5,5.42.68,1.51,2.53,2.13,4.19,2.12,3.37,0,6.4-2,9.13-4a60.39,60.39,0,0,0-12.34,11.33c-1.68,2-3.3,4.79-2.15,7.17.87,1.8,3,2.59,5,2.83a16.42,16.42,0,0,0,15.47-7.39,4.93,4.93,0,0,0,7.14-1,3.23,3.23,0,0,0,6,.06,5.6,5.6,0,0,0,3.13.67A2.29,2.29,0,0,0,1555.93,692.75Z"/><path class="cls-3" d="M1573.56,655.73c-.42-.55-1.18.22-.76.76,1.55,2-.43,3.87-2.18,4.77a9.54,9.54,0,0,1-7.74.69,4.36,4.36,0,0,1-2.59-3.15c-.14-.62-1-.44-1.06.14-.11,1.68-1,3.61-3,3.5s-2.47-2-3.67-3.07a.55.55,0,0,0-.91.24c-.35,1.84-1.18,4.17-3.16,4.81a3.58,3.58,0,0,1-4.56-3.62.55.55,0,0,0-1-.27c-1.25,1.87-3.5,3.59-5.87,3.22a2.53,2.53,0,0,1-2-1.15,7.34,7.34,0,0,1-.47-2.22.55.55,0,0,0-.79-.33c-1.23.82-2.13,2-3.37,2.82a9.48,9.48,0,0,1-4.35,1.25,8.07,8.07,0,0,1-3.62-.33,2.48,2.48,0,0,1-1.49-2.58.54.54,0,0,0-1.08,0,3.57,3.57,0,0,0,1.52,3.24,6.74,6.74,0,0,0,3.82.79,12.49,12.49,0,0,0,5-1,16.81,16.81,0,0,0,3.42-2.7,4.5,4.5,0,0,0,.63,1.9,3.77,3.77,0,0,0,2.72,1.43,7.06,7.06,0,0,0,6-2.7,4.63,4.63,0,0,0,5.28,3.45c2.3-.42,3.56-2.58,4.16-4.7a14.3,14.3,0,0,0,1.3,1.61,3.67,3.67,0,0,0,6.13-1.76c1.29,2.08,3.83,2.94,6.36,2.79,2.73-.16,6.28-1.28,7.7-3.83A3.43,3.43,0,0,0,1573.56,655.73Z"/><path class="cls-3" d="M1566.57,643.34c-.54-.43-1.31.33-.76.76.72.58,1.88,1.51,1.79,2.54-.06.65-.81,1.15-1.45,1.44a9.27,9.27,0,0,1-6.23.32,2.63,2.63,0,0,1-1.07-.6.94.94,0,0,1-.3-.77,1.1,1.1,0,0,0,0-.18c0-.59-1-.75-1.06-.14a.71.71,0,0,0,0,.14h0c0,.91-.37,2.31-1.57,1.95a2.47,2.47,0,0,1-1.46-2.57.54.54,0,0,0-1-.27,6.2,6.2,0,0,1-.94,1.71,2.39,2.39,0,0,1-1.92.5c-1.4-.1-2.15-1.23-2.77-2.35a.54.54,0,0,0-.93,0,4.84,4.84,0,0,1-3.4,2.89,2.6,2.6,0,0,1-2.17-.66,1.34,1.34,0,0,1,0-2,.54.54,0,0,0-.66-.85c-.93.53-1.66,1.38-2.64,1.83a9.4,9.4,0,0,1-3.71.64,29.25,29.25,0,0,1-4.08-.16c-1.75-.21-5.93-.88-4.67-3.54.29-.63-.64-1.18-.94-.55-2.54,5.4,7.58,5.49,10.54,5.3a9.44,9.44,0,0,0,3.4-.75,6.87,6.87,0,0,0,1.27-.85,3,3,0,0,0,2.69,2.61,5.06,5.06,0,0,0,4.83-2.62,4.16,4.16,0,0,0,3.23,2.11,3.52,3.52,0,0,0,2.48-.63,3.14,3.14,0,0,0,.6-.71,3,3,0,0,0,2.15,2,2,2,0,0,0,2.33-1.26c1,1,3.09,1.21,4.36,1.2,1.94,0,5.52-.44,6.11-2.77C1569,645.53,1567.65,644.19,1566.57,643.34Z"/><path class="cls-3" d="M1577.61,677.92a3.56,3.56,0,0,0-.51.73,4.55,4.55,0,0,1-3.3,2.1,9.67,9.67,0,0,1-4-.4,23.15,23.15,0,0,1-4.81-1.9,2.17,2.17,0,0,0-1.16-.36c-.86.06-1.26,1.06-1.82,1.73-1.22,1.45-3.47,1.4-5.31.9-1.32-.35-2.84-1.24-2.72-2.6a1.45,1.45,0,0,0,0-.55.64.64,0,0,0-.91-.2,2.17,2.17,0,0,0-.64.82,5.81,5.81,0,0,1-3.38,2.93,3.39,3.39,0,0,1-3.93-1.58c-.14-.29-.25-.63-.54-.78-.46-.22-.95.22-1.29.6a7.51,7.51,0,0,1-4.87,2.74,4.1,4.1,0,0,1-4.36-2.91c-.09-.42-.41-1.12-.94-1-.3.08-.7,1.08-.91,1.37a10.88,10.88,0,0,1-1.67,1.72,12.17,12.17,0,0,1-4.17,2.33,12.38,12.38,0,0,1-4.8.52,19.53,19.53,0,0,0-2.49-.49c-.78.05-1,.6-.07,1a10.5,10.5,0,0,0,7.66,0,18.53,18.53,0,0,0,6.46-4.35,5.67,5.67,0,0,0,5.44,2.83,8.36,8.36,0,0,0,5.55-3,4.6,4.6,0,0,0,4.62,2.2,6.17,6.17,0,0,0,4.3-3,6.43,6.43,0,0,0,10.91-.13,21.48,21.48,0,0,0,7.43,2.71c2.64.27,5.57-.64,7-2.89.23-.37.38-.94,0-1.19S1577.85,677.69,1577.61,677.92Z"/><path class="cls-3" d="M1574.73,697.55c-6.58,3.11-12.41-2.56-17.92-5.37a.53.53,0,0,0-.72.21.45.45,0,0,0-.32.49c0,1.17-.59,1.67-1.72,1.6a5.2,5.2,0,0,1-2.76-1,.55.55,0,0,0-.85.11,3.31,3.31,0,0,1-2.45,2,2.35,2.35,0,0,1-2.4-1.8c-.14-.38-.79-.6-1-.13-1.09,2.54-4.54,3.41-6.28,1a.56.56,0,0,0-.23-.18.57.57,0,0,0-.79.33c-3.1,6.39-11.91,8-18.23,6.37a.55.55,0,0,0-.29,1c5.44,1.38,12.09.54,16.5-3.11a11.09,11.09,0,0,0,2.68-3.26,4.42,4.42,0,0,0,3.75,1.29,4.85,4.85,0,0,0,3.33-2.06,3.15,3.15,0,0,0,2.83,1.6,4.14,4.14,0,0,0,3.24-2.11c2,1.17,5.47,1.55,5.72-1.22,2.93,1.58,5.61,3.6,8.66,4.93a11.4,11.4,0,0,0,9.78.14C1575.9,698.19,1575.35,697.25,1574.73,697.55Z"/><path class="cls-2" d="M1338.14,875.5q0,25.29,0,50.58a113.2,113.2,0,0,0,.68,15.42c1.29,8.75,5,8.74,6.29,0a112.37,112.37,0,0,0,.67-15.36q0-25.3,0-50.61"/><path class="cls-1" d="M1349.51,876.14c4.17,2.29,8.38,4.59,13,5.83a9.85,9.85,0,0,0,4.87.32,4.27,4.27,0,0,0,3.29-3.29,5.79,5.79,0,0,0-.76-3.2,29.15,29.15,0,0,0-5-7.4,30.2,30.2,0,0,0-3.15-2.94c-.88-.7-2.6-2.41-3.74-2.55,2.55.32,5,1.46,7.52,1.7a6.5,6.5,0,0,0,5.39-1.81c1.87-2.14-.65-4.25-2.18-5.81l-11-11.15a9.25,9.25,0,0,0,9.56-3.21,2.44,2.44,0,0,0,.65-1.78,2.75,2.75,0,0,0-1.38-1.66,50.9,50.9,0,0,0-14.5-6.76,8.67,8.67,0,0,0,7.87-.06,3.23,3.23,0,0,0,1.89-2.21,3.92,3.92,0,0,0-1.16-2.74,170.62,170.62,0,0,0-15.07-16.73,6.88,6.88,0,0,0-2.16-1.59c-2.58-1-5.19,1.25-7.15,3.21a81,81,0,0,1-14.36,11.39,9.55,9.55,0,0,0-2.8,2.24,3.05,3.05,0,0,0-.34,3.38,4.13,4.13,0,0,0,2.79,1.45,31.23,31.23,0,0,0,8.13.61,80.63,80.63,0,0,0-12.88,8c-1.72,1.3-3.57,3.06-3.36,5.21s2.32,3.51,4.38,3.67a13.36,13.36,0,0,0,6-1.43q-5.36,7-10.46,14.25c-1.14,1.6-2.31,3.62-1.5,5.41.68,1.51,2.53,2.14,4.19,2.13,3.37,0,6.39-2,9.12-4A60.37,60.37,0,0,0,1312.86,876c-1.68,2-3.29,4.79-2.15,7.16.88,1.81,3,2.59,5,2.83a16.36,16.36,0,0,0,15.46-7.39,4.94,4.94,0,0,0,7.14-1,3.24,3.24,0,0,0,6,.06,5.58,5.58,0,0,0,3.13.67A2.29,2.29,0,0,0,1349.51,876.14Z"/><path class="cls-3" d="M1367.14,839.11c-.43-.55-1.19.22-.77.77,1.56,2-.43,3.87-2.18,4.77a9.58,9.58,0,0,1-7.74.69,4.38,4.38,0,0,1-2.59-3.16c-.14-.62-1-.44-1.06.15-.1,1.67-1,3.61-3,3.5s-2.46-2-3.67-3.07a.54.54,0,0,0-.9.23c-.36,1.85-1.18,4.18-3.16,4.82a3.59,3.59,0,0,1-4.57-3.62.55.55,0,0,0-1-.28c-1.24,1.87-3.5,3.6-5.87,3.23a2.52,2.52,0,0,1-2-1.16,7,7,0,0,1-.48-2.22.53.53,0,0,0-.79-.32c-1.22.82-2.13,2-3.37,2.82a9.56,9.56,0,0,1-4.34,1.25,8.06,8.06,0,0,1-3.62-.34,2.47,2.47,0,0,1-1.5-2.58.54.54,0,0,0-1.08,0,3.61,3.61,0,0,0,1.52,3.25,6.86,6.86,0,0,0,3.83.79,12.45,12.45,0,0,0,5-1,16.87,16.87,0,0,0,3.43-2.7,4.49,4.49,0,0,0,.62,1.9,3.78,3.78,0,0,0,2.72,1.42,7,7,0,0,0,6.06-2.69,4.62,4.62,0,0,0,5.27,3.45c2.3-.43,3.57-2.58,4.16-4.7a15.48,15.48,0,0,0,1.31,1.6,3.67,3.67,0,0,0,6.13-1.75c1.28,2.08,3.83,2.94,6.36,2.79,2.72-.16,6.27-1.28,7.7-3.83A3.48,3.48,0,0,0,1367.14,839.11Z"/><path class="cls-3" d="M1360.14,826.73c-.54-.43-1.31.33-.76.76.72.57,1.89,1.51,1.79,2.53-.06.66-.8,1.16-1.45,1.45a9.24,9.24,0,0,1-6.22.31,2.65,2.65,0,0,1-1.08-.59.91.91,0,0,1-.29-.78c0-.06,0-.11,0-.17,0-.6-1-.76-1.06-.14,0,0,0,.09,0,.14h0c0,.9-.37,2.3-1.57,1.94a2.46,2.46,0,0,1-1.46-2.56.54.54,0,0,0-1-.28,6.67,6.67,0,0,1-.94,1.72,2.41,2.41,0,0,1-1.93.5c-1.4-.11-2.14-1.23-2.77-2.35a.54.54,0,0,0-.93,0,4.79,4.79,0,0,1-3.4,2.88,2.58,2.58,0,0,1-2.17-.65,1.36,1.36,0,0,1,0-2,.54.54,0,0,0-.65-.85c-.93.54-1.67,1.38-2.65,1.84a9.36,9.36,0,0,1-3.71.64,29.1,29.1,0,0,1-4.07-.16c-1.76-.21-5.93-.89-4.68-3.55.29-.62-.64-1.17-.93-.54-2.55,5.39,7.58,5.48,10.53,5.29a9.09,9.09,0,0,0,3.41-.75,6.66,6.66,0,0,0,1.27-.84,3,3,0,0,0,2.69,2.61,5.1,5.1,0,0,0,4.83-2.62,4.15,4.15,0,0,0,3.22,2.11,3.62,3.62,0,0,0,2.48-.63,2.9,2.9,0,0,0,.6-.71,3,3,0,0,0,2.16,2,2,2,0,0,0,2.33-1.25c1,1,3.08,1.2,4.36,1.2,1.94,0,5.51-.45,6.1-2.77C1362.58,828.92,1361.22,827.58,1360.14,826.73Z"/><path class="cls-3" d="M1371.19,861.31a3,3,0,0,0-.52.73,4.47,4.47,0,0,1-3.29,2.09,9.65,9.65,0,0,1-4-.39,23.81,23.81,0,0,1-4.82-1.9,2.24,2.24,0,0,0-1.15-.37c-.87.07-1.27,1.07-1.83,1.73-1.21,1.46-3.47,1.4-5.3.91-1.32-.36-2.85-1.24-2.73-2.6a1.14,1.14,0,0,0,0-.55.62.62,0,0,0-.9-.2,2,2,0,0,0-.64.82,5.85,5.85,0,0,1-3.39,2.93,3.4,3.4,0,0,1-3.93-1.58c-.13-.29-.24-.64-.53-.78-.46-.23-1,.22-1.3.6a7.55,7.55,0,0,1-4.87,2.74,4.13,4.13,0,0,1-4.36-2.92c-.08-.42-.4-1.11-.93-1-.31.08-.7,1.08-.92,1.38a10.44,10.44,0,0,1-1.67,1.72A12.19,12.19,0,0,1,1320,867a12.06,12.06,0,0,1-4.81.52,22.79,22.79,0,0,0-2.49-.49c-.78.05-1,.61-.06,1a10.5,10.5,0,0,0,7.66,0,18.53,18.53,0,0,0,6.45-4.35,5.68,5.68,0,0,0,5.44,2.83,8.35,8.35,0,0,0,5.55-3,4.61,4.61,0,0,0,4.63,2.2,6.1,6.1,0,0,0,4.29-3,6.44,6.44,0,0,0,10.91-.12,21.38,21.38,0,0,0,7.44,2.7c2.63.27,5.57-.63,7-2.89.23-.37.38-.93,0-1.18S1371.42,861.07,1371.19,861.31Z"/><path class="cls-3" d="M1368.3,880.94c-6.58,3.11-12.41-2.56-17.91-5.38a.54.54,0,0,0-.72.21.48.48,0,0,0-.33.49c.06,1.17-.59,1.67-1.72,1.61a5.23,5.23,0,0,1-2.75-1,.55.55,0,0,0-.85.11,3.31,3.31,0,0,1-2.45,2,2.32,2.32,0,0,1-2.4-1.79c-.14-.39-.79-.6-1-.13-1.1,2.54-4.55,3.41-6.29,1a.53.53,0,0,0-.22-.18.46.46,0,0,0-.68.14.44.44,0,0,0-.12.19c-3.09,6.4-11.9,8-18.23,6.38a.54.54,0,0,0-.28,1c5.43,1.39,12.09.54,16.5-3.11a11.37,11.37,0,0,0,2.68-3.25,4.43,4.43,0,0,0,3.74,1.29,4.86,4.86,0,0,0,3.33-2.06,3.12,3.12,0,0,0,2.84,1.59,4.11,4.11,0,0,0,3.24-2.1c2,1.16,5.46,1.55,5.72-1.22,2.92,1.58,5.6,3.59,8.65,4.93a11.42,11.42,0,0,0,9.79.14C1369.47,881.57,1368.93,880.64,1368.3,880.94Z"/><path class="cls-2" d="M1849.57,607.31l0,55.35a148.7,148.7,0,0,0,.62,16.88c1.19,9.58,4.61,9.57,5.8,0a147.62,147.62,0,0,0,.62-16.82q0-27.69,0-55.38"/><path class="cls-1" d="M1830.21,620.33c-5.61-2.59-9.26-7.16-6.53-14.35,9.65-25.33,14.63-45.16,21.94-67.74,1.45-4.48,3.63-9.67,7.39-9.93,4.17-.31,6.76,5.61,8.32,10.63,6.36,20.49,13,40.62,20.12,60.64,1.85,5.18,5.18,14,2.52,19.53-3.79,7.89-14.92,5.24-20.8,5C1857.94,623.86,1840.33,625,1830.21,620.33Z"/><g class="cls-9"><path class="cls-3" d="M1861,549.78a.54.54,0,0,1,.66.48,11.81,11.81,0,0,1,.25,3.09c0,.36-.24.72-.54.7a.65.65,0,0,1-.55-.7,9.89,9.89,0,0,0,0-1.44c0-.06,0-.12,0-.19h0c0-.12,0-.24,0-.35s-.08-.48-.13-.71A.73.73,0,0,1,1861,549.78Z"/><path class="cls-3" d="M1849.92,550a.65.65,0,0,1,.54.7v3.48c0,.36-.25.71-.54.7a.65.65,0,0,1-.54-.7v-3.48C1849.38,550.37,1849.63,550,1849.92,550Z"/><path class="cls-3" d="M1856.65,572.66a.63.63,0,0,1,.54.7v3.77c0,.36-.25.71-.54.69a.64.64,0,0,1-.54-.69v-3.77C1856.11,573,1856.36,572.64,1856.65,572.66Z"/><path class="cls-3" d="M1843.86,573.53a.64.64,0,0,1,.54.7v3.19c0,.36-.25.71-.54.69a.63.63,0,0,1-.54-.69v-3.19C1843.32,573.86,1843.57,573.51,1843.86,573.53Z"/><path class="cls-3" d="M1866.53,589.47a.65.65,0,0,1,.54.7v2.9c0,.37-.25.72-.54.7a.65.65,0,0,1-.54-.7v-2.9C1866,589.81,1866.24,589.46,1866.53,589.47Z"/><path class="cls-3" d="M1846.1,598.17a.65.65,0,0,1,.54.7v4.06c0,.37-.25.72-.54.7a.65.65,0,0,1-.54-.7v-4.06C1845.56,598.51,1845.81,598.16,1846.1,598.17Z"/><path class="cls-3" d="M1831.29,600.49a.65.65,0,0,1,.54.7v3.48c0,.37-.25.72-.54.7a.65.65,0,0,1-.54-.7v-3.48C1830.75,600.83,1831,600.48,1831.29,600.49Z"/><path class="cls-3" d="M1867,569.18a.64.64,0,0,1,.54.7v2c0,.36-.25.71-.54.7a.65.65,0,0,1-.54-.7v-2C1866.44,569.51,1866.69,569.16,1867,569.18Z"/><path class="cls-3" d="M1875.73,603.39a.65.65,0,0,1,.54.7v4.06c0,.37-.25.72-.54.7a.65.65,0,0,1-.54-.7v-4.06C1875.19,603.73,1875.44,603.38,1875.73,603.39Z"/><path class="cls-3" d="M1860.32,606a.55.55,0,0,1,.67.49,39.94,39.94,0,0,1,.24,5.69c0,.9-1.1.9-1.08,0a37.75,37.75,0,0,0-.2-5.32A.75.75,0,0,1,1860.32,606Z"/><path class="cls-3" d="M1836.23,612.38a.65.65,0,0,1,.54.7V616c0,.37-.25.72-.54.7a.65.65,0,0,1-.54-.7v-2.9C1835.69,612.71,1835.93,612.36,1836.23,612.38Z"/><path class="cls-3" d="M1836.9,581.94a.64.64,0,0,1,.54.69v4.93a.56.56,0,1,1-1.08,0v-4.93A.64.64,0,0,1,1836.9,581.94Z"/><path class="cls-3" d="M1855.75,586.86a.65.65,0,0,1,.55.7v2.32c0,.37-.25.72-.55.7a.64.64,0,0,1-.54-.7v-2.32C1855.21,587.2,1855.46,586.85,1855.75,586.86Z"/><path class="cls-3" d="M1843.86,559c.31,0,.51.31.54.7.06,1,.13,1.93.22,2.9a.76.76,0,0,1-.16.49.51.51,0,0,1-.38.21.5.5,0,0,1-.38-.21,1,1,0,0,1-.16-.49c-.09-1-.16-1.93-.22-2.9C1843.29,559.36,1843.58,559,1843.86,559Z"/><path class="cls-3" d="M1872.05,584.08c0-.36.27-.71.54-.69s.51.3.54.69a34.41,34.41,0,0,1,.22,4.06c0,.37-.23.72-.54.7a.65.65,0,0,1-.54-.7A34.41,34.41,0,0,0,1872.05,584.08Z"/><path class="cls-3" d="M1848.8,615.86a.65.65,0,0,1,.54.7c0,.28,0,.57,0,.85s.09.67.16,1a.74.74,0,0,1-.38.86c-.28.09-.58-.11-.66-.49a10.11,10.11,0,0,1-.24-2.21C1848.25,616.19,1848.5,615.84,1848.8,615.86Z"/><path class="cls-3" d="M1870.05,616.66l.12-.77c0-.06,0-.12,0-.18v-.08h0l0-.39a13.88,13.88,0,0,0,0-1.58c0-.37.26-.72.54-.7a.65.65,0,0,1,.54.7,15.18,15.18,0,0,1-.24,3.37c-.07.36-.39.61-.67.49A.76.76,0,0,1,1870.05,616.66Z"/><path class="cls-3" d="M1845,542.21a.65.65,0,0,1,.54.7v2.61c0,.37-.25.72-.54.7a.65.65,0,0,1-.54-.7v-2.61C1844.44,542.55,1844.69,542.2,1845,542.21Z"/><path class="cls-3" d="M1854.41,535.54a.65.65,0,0,1,.54.7v4.06c0,.37-.25.72-.54.7a.65.65,0,0,1-.54-.7v-4.06C1853.87,535.88,1854.12,535.53,1854.41,535.54Z"/><path class="cls-3" d="M1855.08,559.9a.65.65,0,0,1,.54.7v2.32c0,.36-.25.71-.54.7a.65.65,0,0,1-.54-.7V560.6C1854.54,560.23,1854.79,559.88,1855.08,559.9Z"/><path class="cls-3" d="M1837.12,566.28a.65.65,0,0,1,.55.7v2.61c0,.36-.25.71-.55.7a.65.65,0,0,1-.54-.7V567C1836.58,566.61,1836.83,566.26,1837.12,566.28Z"/><path class="cls-3" d="M1863.09,625.07c0-.28.08-.56.11-.84v-.1a1.23,1.23,0,0,1,0-.2l0-.44q0-.86,0-1.71c0-.37.26-.72.54-.7a.66.66,0,0,1,.55.7,22.29,22.29,0,0,1-.25,3.66c-.05.36-.4.6-.66.49A.75.75,0,0,1,1863.09,625.07Z"/><path class="cls-3" d="M1880.08,615.31a.53.53,0,0,1,.66.48A14.93,14.93,0,0,1,1881,618c0,.36-.26.71-.55.7a.65.65,0,0,1-.54-.7,7.7,7.7,0,0,0-.05-.83c0-.34-.09-.68-.15-1A.74.74,0,0,1,1880.08,615.31Z"/><path class="cls-3" d="M1828.82,612.67a.65.65,0,0,1,.54.7v1.74c0,.37-.25.72-.54.7a.65.65,0,0,1-.54-.7v-1.74C1828.28,613,1828.53,612.65,1828.82,612.67Z"/><path class="cls-3" d="M1846.24,583.67a.65.65,0,0,1,.54.7v4.17c0,.36-.24.71-.54.7a.65.65,0,0,1-.54-.7v-4.17C1845.7,584,1846,583.66,1846.24,583.67Z"/><path class="cls-3" d="M1837.38,599.66a.47.47,0,0,1,.38-.2.46.46,0,0,1,.38.2.84.84,0,0,1,.16.49v1.32a.8.8,0,0,1-.16.49.47.47,0,0,1-.38.21.48.48,0,0,1-.38-.21.8.8,0,0,1-.16-.49v-1.32A.84.84,0,0,1,1837.38,599.66Z"/><path class="cls-3" d="M1853.17,598.62c0-.9,1.08-.9,1.08,0,0,2.12.24,4.23.17,6.36,0,.89-1.11.9-1.08,0C1853.41,602.85,1853.18,600.74,1853.17,598.62Z"/><path class="cls-3" d="M1830,588.93a.65.65,0,0,1,.54.7v3.51c0,.37-.25.72-.54.7a.65.65,0,0,1-.54-.7v-3.51C1829.41,589.27,1829.66,588.92,1830,588.93Z"/><path class="cls-3" d="M1862.57,561.57c0,2,0,4.1.17,6.14a.65.65,0,0,1-.55.7c-.31,0-.51-.32-.54-.7-.14-2-.16-4.09-.17-6.14C1861.48,560.67,1862.56,560.67,1862.57,561.57Z"/><path class="cls-3" d="M1849.84,564.64V573c0,.9-1.08.9-1.08,0v-8.33C1848.76,563.74,1849.84,563.74,1849.84,564.64Z"/><path class="cls-3" d="M1863.21,578a.65.65,0,0,1,.54.7v3.07c0,.37-.25.72-.54.7a.65.65,0,0,1-.54-.7v-3.07C1862.67,578.31,1862.92,578,1863.21,578Z"/><path class="cls-3" d="M1867.61,605a42.55,42.55,0,0,0,.32-6.39c0-.9,1.07-.9,1.08,0a44.84,44.84,0,0,1-.35,6.76.55.55,0,0,1-.67.49A.76.76,0,0,1,1867.61,605Z"/><path class="cls-3" d="M1856.55,545.73a.5.5,0,0,1,.38-.2.54.54,0,0,1,.39.2.92.92,0,0,1,.15.5v1.09a.92.92,0,0,1-.15.5.5.5,0,0,1-.39.2.46.46,0,0,1-.38-.2.85.85,0,0,1-.16-.5v-1.09A.85.85,0,0,1,1856.55,545.73Z"/><path class="cls-3" d="M1850.69,529.57v6.58c0,.89-1.08.9-1.08,0v-6.58C1849.61,528.67,1850.69,528.67,1850.69,529.57Z"/><path class="cls-3" d="M1858.43,530.23c0-.37.25-.72.54-.7a.64.64,0,0,1,.54.7c0,.65,0,1.29,0,1.94,0,.33,0,.65,0,1,0,0,0,.12,0,.14a1.37,1.37,0,0,1,0,.19l.09.52a.76.76,0,0,1-.38.86.55.55,0,0,1-.66-.49A21.1,21.1,0,0,1,1858.43,530.23Z"/><path class="cls-3" d="M1877.64,594.85a.65.65,0,0,1,.54.7v2.19c0,.37-.25.72-.54.7a.63.63,0,0,1-.54-.7v-2.19C1877.1,595.19,1877.34,594.84,1877.64,594.85Z"/></g><path class="cls-5" d="M1823.27,613.42a.33.33,0,0,0,.19-.06.62.62,0,0,0,.17-.71,8.85,8.85,0,0,1-.26-5.19,27.16,27.16,0,0,1,1.68-4.76l.15-.36c4.84-11.4,8.5-23.75,12-35.69,3.18-10.71,6.46-21.79,10.58-32.13a14.55,14.55,0,0,1,3-5.18.61.61,0,0,0,.08-.73.35.35,0,0,0-.56-.11,15.21,15.21,0,0,0-3.19,5.54c-4.14,10.39-7.43,21.5-10.62,32.24-3.53,11.9-7.18,24.22-12,35.56l-.15.36a27.65,27.65,0,0,0-1.75,5,10.14,10.14,0,0,0,.32,6A.42.42,0,0,0,1823.27,613.42Z"/><path class="cls-5" d="M1884.82,612.28a.31.31,0,0,0,.13,0,.58.58,0,0,0,.25-.67c-2.94-11-6.58-21.83-10.11-32.33L1873,573l-3.57-10.69-3.66-11q-1.74-5.24-3.47-10.48c-.25-.76-.48-1.51-.7-2.24-1.42-4.61-2.65-8.59-7.08-10.27-.22-.09-.44.07-.51.35a.56.56,0,0,0,.28.65c4,1.54,5.16,5.12,6.55,9.66.23.73.46,1.49.71,2.26q1.73,5.25,3.48,10.49,1.82,5.48,3.66,11t3.56,10.68c.69,2.08,1.39,4.15,2.09,6.23,3.52,10.48,7.15,21.32,10.08,32.25A.44.44,0,0,0,1884.82,612.28Z"/><path class="cls-5" d="M1872.77,625.5c3.62,0,7.61-.48,10.24-4.12a.65.65,0,0,0,0-.74.34.34,0,0,0-.57,0c-2.89,4-7.74,3.85-11.65,3.75-12.23-.32-37.7-1-45-7.81a.34.34,0,0,0-.56.12.61.61,0,0,0,.08.73c7.47,7,33.11,7.69,45.43,8C1871.41,625.48,1872.08,625.5,1872.77,625.5Z"/><path class="cls-2" d="M1644.39,639.86l0,50.57a122.25,122.25,0,0,0,.62,15.42c1.19,8.75,4.61,8.75,5.8,0a123.18,123.18,0,0,0,.62-15.36l0-50.59"/><path class="cls-1" d="M1625,652.89c-5.61-2.59-9.26-7.17-6.53-14.35,9.65-25.33,14.63-45.16,21.94-67.74,1.45-4.48,3.63-9.67,7.38-9.94,4.18-.3,6.77,5.62,8.33,10.63,6.36,20.5,13,40.62,20.12,60.65,1.85,5.18,5.18,14,2.51,19.52-3.78,7.89-14.91,5.24-20.79,5C1652.76,656.41,1635.15,657.55,1625,652.89Z"/><g class="cls-10"><path class="cls-3" d="M1655.82,582.33a.55.55,0,0,1,.66.49,11.77,11.77,0,0,1,.25,3.08c0,.37-.24.72-.55.7a.65.65,0,0,1-.54-.7,9.89,9.89,0,0,0,0-1.44c0-.06,0-.12,0-.18v0h0c0-.12,0-.23,0-.35s-.08-.47-.13-.71A.74.74,0,0,1,1655.82,582.33Z"/><path class="cls-3" d="M1644.74,582.6a.64.64,0,0,1,.54.69v3.48c0,.37-.25.72-.54.7a.63.63,0,0,1-.54-.7v-3.48C1644.2,582.93,1644.44,582.58,1644.74,582.6Z"/><path class="cls-3" d="M1651.47,605.21a.65.65,0,0,1,.54.7v3.77c0,.37-.25.72-.54.7a.65.65,0,0,1-.54-.7v-3.77C1650.93,605.54,1651.18,605.19,1651.47,605.21Z"/><path class="cls-3" d="M1638.68,606.08a.65.65,0,0,1,.54.7V610c0,.37-.25.72-.54.7a.65.65,0,0,1-.54-.7v-3.19C1638.14,606.41,1638.38,606.06,1638.68,606.08Z"/><path class="cls-3" d="M1661.35,622a.65.65,0,0,1,.54.7v2.9c0,.36-.25.71-.54.7a.65.65,0,0,1-.54-.7v-2.9C1660.81,622.36,1661.05,622,1661.35,622Z"/><path class="cls-3" d="M1640.92,630.73a.64.64,0,0,1,.54.7v4.06c0,.36-.25.71-.54.69a.64.64,0,0,1-.54-.69v-4.06C1640.38,631.06,1640.63,630.71,1640.92,630.73Z"/><path class="cls-3" d="M1626.11,633.05a.64.64,0,0,1,.54.7v3.48c0,.36-.25.71-.54.69a.63.63,0,0,1-.54-.69v-3.48C1625.57,633.38,1625.81,633,1626.11,633.05Z"/><path class="cls-3" d="M1661.8,601.73a.65.65,0,0,1,.54.7v2c0,.37-.25.72-.54.7a.65.65,0,0,1-.55-.7v-2C1661.25,602.07,1661.5,601.72,1661.8,601.73Z"/><path class="cls-3" d="M1670.55,636a.64.64,0,0,1,.54.7v4.05c0,.37-.25.72-.54.7a.64.64,0,0,1-.54-.7v-4.05C1670,636.28,1670.26,635.93,1670.55,636Z"/><path class="cls-3" d="M1655.14,638.58a.55.55,0,0,1,.67.49,40.07,40.07,0,0,1,.24,5.69c0,.9-1.1.91-1.08,0a37.81,37.81,0,0,0-.21-5.32A.78.78,0,0,1,1655.14,638.58Z"/><path class="cls-3" d="M1631.05,644.94a.64.64,0,0,1,.54.69v2.9c0,.37-.25.72-.54.7a.64.64,0,0,1-.55-.7v-2.9C1630.5,645.27,1630.75,644.92,1631.05,644.94Z"/><path class="cls-3" d="M1631.72,614.49a.65.65,0,0,1,.54.7v4.93a.56.56,0,1,1-1.08,0v-4.93A.65.65,0,0,1,1631.72,614.49Z"/><path class="cls-3" d="M1650.57,619.42a.65.65,0,0,1,.54.7v2.32c0,.36-.24.71-.54.7a.65.65,0,0,1-.54-.7v-2.32C1650,619.75,1650.28,619.4,1650.57,619.42Z"/><path class="cls-3" d="M1638.68,591.58c.31,0,.51.31.54.7.06,1,.13,1.94.22,2.9a.79.79,0,0,1-.16.5.47.47,0,0,1-.38.2.52.52,0,0,1-.38-.2,1,1,0,0,1-.16-.5c-.09-1-.17-1.93-.22-2.9A.64.64,0,0,1,1638.68,591.58Z"/><path class="cls-3" d="M1666.87,616.64c0-.37.26-.72.54-.7s.51.31.54.7a34.41,34.41,0,0,1,.22,4.06c0,.36-.24.71-.54.7a.65.65,0,0,1-.54-.7A34.41,34.41,0,0,0,1666.87,616.64Z"/><path class="cls-3" d="M1643.61,648.41a.66.66,0,0,1,.55.7,8.25,8.25,0,0,0,0,.86c0,.33.09.66.16,1a.74.74,0,0,1-.38.86.55.55,0,0,1-.66-.49,10.94,10.94,0,0,1-.25-2.22C1643.07,648.75,1643.32,648.4,1643.61,648.41Z"/><path class="cls-3" d="M1664.87,649.22l.12-.78a1.1,1.1,0,0,1,0-.18v-.07h0l0-.39a13.85,13.85,0,0,0,0-1.58c0-.36.26-.71.54-.69s.53.3.54.69a15.22,15.22,0,0,1-.24,3.38c-.07.36-.4.6-.67.49A.76.76,0,0,1,1664.87,649.22Z"/><path class="cls-3" d="M1639.8,574.77a.64.64,0,0,1,.54.7v2.6c0,.37-.25.72-.54.7a.64.64,0,0,1-.54-.7v-2.6C1639.26,575.1,1639.51,574.75,1639.8,574.77Z"/><path class="cls-3" d="M1649.23,568.1a.64.64,0,0,1,.54.7v4.06c0,.36-.25.71-.54.69a.63.63,0,0,1-.54-.69V568.8C1648.69,568.43,1648.93,568.08,1649.23,568.1Z"/><path class="cls-3" d="M1649.9,592.45a.65.65,0,0,1,.54.7v2.32c0,.37-.25.72-.54.7a.65.65,0,0,1-.54-.7v-2.32C1649.36,592.79,1649.61,592.44,1649.9,592.45Z"/><path class="cls-3" d="M1631.94,598.83a.65.65,0,0,1,.54.7v2.61c0,.37-.24.72-.54.7a.65.65,0,0,1-.54-.7v-2.61C1631.4,599.17,1631.65,598.82,1631.94,598.83Z"/><path class="cls-3" d="M1657.91,657.63c0-.28.07-.56.11-.84v-.11c0-.06,0-.13,0-.2s0-.29,0-.43c0-.57,0-1.15,0-1.72,0-.36.26-.71.54-.7a.65.65,0,0,1,.54.7A21.42,21.42,0,0,1,1659,658c0,.36-.4.6-.66.49A.76.76,0,0,1,1657.91,657.63Z"/><path class="cls-3" d="M1674.9,647.86a.55.55,0,0,1,.66.49,13.58,13.58,0,0,1,.24,2.21c0,.37-.25.72-.54.7a.65.65,0,0,1-.54-.7c0-.27,0-.55,0-.82s-.09-.68-.15-1A.76.76,0,0,1,1674.9,647.86Z"/><path class="cls-3" d="M1623.64,645.23a.64.64,0,0,1,.54.69v1.74c0,.37-.25.72-.54.7a.63.63,0,0,1-.54-.7v-1.74C1623.1,645.56,1623.35,645.21,1623.64,645.23Z"/><path class="cls-3" d="M1641.06,616.23a.64.64,0,0,1,.54.7v4.16c0,.37-.25.72-.54.7a.65.65,0,0,1-.54-.7v-4.16C1640.52,616.56,1640.77,616.21,1641.06,616.23Z"/><path class="cls-3" d="M1632.19,632.21a.5.5,0,0,1,.39-.2.52.52,0,0,1,.38.2.85.85,0,0,1,.16.5V634a.85.85,0,0,1-.16.5.48.48,0,0,1-.38.2.47.47,0,0,1-.39-.2.92.92,0,0,1-.15-.5v-1.31A.92.92,0,0,1,1632.19,632.21Z"/><path class="cls-3" d="M1648,631.17c0-.89,1.08-.9,1.08,0,0,2.13.24,4.24.17,6.36,0,.9-1.11.9-1.08,0C1648.23,635.41,1648,633.3,1648,631.17Z"/><path class="cls-3" d="M1624.77,621.49a.65.65,0,0,1,.54.7v3.5c0,.37-.25.72-.54.7a.64.64,0,0,1-.54-.7v-3.5C1624.23,621.82,1624.48,621.47,1624.77,621.49Z"/><path class="cls-3" d="M1657.38,594.13c0,2,0,4.1.17,6.14a.63.63,0,0,1-.54.69c-.31,0-.51-.32-.54-.69-.15-2-.16-4.09-.17-6.14C1656.3,593.23,1657.38,593.23,1657.38,594.13Z"/><path class="cls-3" d="M1644.66,597.2v8.33c0,.9-1.08.9-1.08,0V597.2C1643.58,596.3,1644.66,596.3,1644.66,597.2Z"/><path class="cls-3" d="M1658,610.53a.64.64,0,0,1,.54.7v3.07c0,.36-.25.71-.54.69a.64.64,0,0,1-.54-.69v-3.07C1657.49,610.86,1657.74,610.51,1658,610.53Z"/><path class="cls-3" d="M1662.43,637.57a42.69,42.69,0,0,0,.32-6.4c0-.9,1.06-.89,1.08,0a43.7,43.7,0,0,1-.36,6.77.53.53,0,0,1-.66.48A.74.74,0,0,1,1662.43,637.57Z"/><path class="cls-3" d="M1651.37,578.29a.53.53,0,0,1,.38-.21.51.51,0,0,1,.39.21.89.89,0,0,1,.15.49v1.1a.86.86,0,0,1-.15.49.51.51,0,0,1-.39.21.5.5,0,0,1-.38-.21.8.8,0,0,1-.16-.49v-1.1A.82.82,0,0,1,1651.37,578.29Z"/><path class="cls-3" d="M1645.51,562.12v6.58c0,.9-1.09.9-1.09,0v-6.58C1644.42,561.22,1645.51,561.22,1645.51,562.12Z"/><path class="cls-3" d="M1653.25,562.78c0-.36.25-.72.54-.7a.65.65,0,0,1,.54.7c0,.65,0,1.3,0,2,0,.32,0,.65,0,1,0,0,0,.12,0,.14s0,.13,0,.19l.09.51a.75.75,0,0,1-.38.86.55.55,0,0,1-.66-.49A20.32,20.32,0,0,1,1653.25,562.78Z"/><path class="cls-3" d="M1672.46,627.41a.64.64,0,0,1,.54.7v2.19c0,.36-.25.71-.54.7a.65.65,0,0,1-.55-.7v-2.19C1671.91,627.74,1672.16,627.39,1672.46,627.41Z"/></g><path class="cls-5" d="M1618.09,646a.37.37,0,0,0,.19-.07.61.61,0,0,0,.17-.71,8.84,8.84,0,0,1-.26-5.19,26,26,0,0,1,1.68-4.75l.15-.36c4.84-11.41,8.5-23.75,12-35.7,3.18-10.71,6.46-21.79,10.58-32.13a14.64,14.64,0,0,1,2.94-5.17.63.63,0,0,0,.09-.74.35.35,0,0,0-.57-.11,15.51,15.51,0,0,0-3.18,5.54c-4.14,10.4-7.43,21.5-10.62,32.24-3.53,11.91-7.18,24.22-12,35.56l-.15.36a26.9,26.9,0,0,0-1.75,5,10.14,10.14,0,0,0,.32,6A.4.4,0,0,0,1618.09,646Z"/><path class="cls-5" d="M1679.64,644.83a.31.31,0,0,0,.13,0,.58.58,0,0,0,.25-.67c-2.94-11-6.59-21.83-10.11-32.32-.7-2.08-1.39-4.15-2.08-6.23l-3.57-10.68-3.66-11q-1.74-5.24-3.47-10.49c-.25-.76-.48-1.51-.71-2.23-1.41-4.61-2.64-8.6-7.07-10.28-.22-.08-.44.08-.51.36a.56.56,0,0,0,.28.65c4.05,1.54,5.15,5.12,6.55,9.65.23.74.46,1.49.71,2.26q1.72,5.25,3.48,10.49,1.82,5.48,3.65,11c1.19,3.56,2.39,7.12,3.57,10.69.69,2.07,1.39,4.15,2.09,6.22,3.51,10.48,7.15,21.32,10.08,32.26A.44.44,0,0,0,1679.64,644.83Z"/><path class="cls-5" d="M1667.59,658.06c3.62,0,7.61-.49,10.24-4.12a.65.65,0,0,0,0-.74.34.34,0,0,0-.57,0c-2.89,4-7.74,3.85-11.65,3.75-12.23-.31-37.7-1-45-7.8a.35.35,0,0,0-.57.11.63.63,0,0,0,.09.73c7.47,7,33.11,7.69,45.43,8C1666.22,658,1666.9,658.06,1667.59,658.06Z"/><path class="cls-2" d="M1442.21,767.25l0,61.21a178.76,178.76,0,0,0,.63,18.66c1.18,10.59,4.61,10.58,5.79,0a177.71,177.71,0,0,0,.62-18.6q0-30.62,0-61.23"/><path class="cls-1" d="M1422.85,780.27c-5.61-2.58-9.26-7.16-6.52-14.35,9.65-25.32,14.62-45.16,21.93-67.74,1.45-4.48,3.63-9.66,7.39-9.93,4.17-.3,6.76,5.62,8.32,10.63,6.37,20.5,13,40.62,20.12,60.65,1.85,5.17,5.18,14,2.52,19.52-3.79,7.89-14.92,5.24-20.8,5C1450.58,783.8,1433,784.94,1422.85,780.27Z"/><g class="cls-11"><path class="cls-3" d="M1453.64,709.72c.29-.09.58.11.66.49a11.36,11.36,0,0,1,.25,3.08c0,.37-.24.72-.54.7a.64.64,0,0,1-.54-.7,13.83,13.83,0,0,0,0-1.44c0-.06,0-.12,0-.18v0h0c0-.12,0-.23,0-.35s-.08-.48-.13-.71A.74.74,0,0,1,1453.64,709.72Z"/><path class="cls-3" d="M1442.56,710a.65.65,0,0,1,.54.7v3.48c0,.37-.25.72-.54.7a.65.65,0,0,1-.54-.7v-3.48C1442,710.32,1442.27,710,1442.56,710Z"/><path class="cls-3" d="M1449.29,732.6a.65.65,0,0,1,.54.7v3.77c0,.36-.24.71-.54.7a.65.65,0,0,1-.54-.7V733.3C1448.75,732.93,1449,732.58,1449.29,732.6Z"/><path class="cls-3" d="M1436.5,733.47a.65.65,0,0,1,.54.7v3.19c0,.36-.25.71-.54.7a.65.65,0,0,1-.54-.7v-3.19C1436,733.8,1436.21,733.45,1436.5,733.47Z"/><path class="cls-3" d="M1459.17,749.42a.64.64,0,0,1,.54.7V753c0,.36-.25.71-.54.69a.64.64,0,0,1-.54-.69v-2.9C1458.63,749.75,1458.88,749.4,1459.17,749.42Z"/><path class="cls-3" d="M1438.74,758.12a.64.64,0,0,1,.55.69v4.06c0,.37-.25.72-.55.7a.64.64,0,0,1-.54-.7v-4.06C1438.2,758.45,1438.45,758.1,1438.74,758.12Z"/><path class="cls-3" d="M1423.93,760.44a.64.64,0,0,1,.54.69v3.48c0,.37-.25.72-.54.7a.64.64,0,0,1-.54-.7v-3.48C1423.39,760.77,1423.64,760.42,1423.93,760.44Z"/><path class="cls-3" d="M1459.62,729.12a.65.65,0,0,1,.54.7v2c0,.36-.25.71-.54.7a.65.65,0,0,1-.54-.7v-2C1459.08,729.45,1459.33,729.1,1459.62,729.12Z"/><path class="cls-3" d="M1468.37,763.34a.63.63,0,0,1,.54.69v4.06c0,.37-.25.72-.54.7a.64.64,0,0,1-.54-.7V764C1467.83,763.67,1468.08,763.32,1468.37,763.34Z"/><path class="cls-3" d="M1453,766a.54.54,0,0,1,.66.49,40,40,0,0,1,.24,5.69c0,.9-1.1.9-1.08,0a37.81,37.81,0,0,0-.2-5.32A.76.76,0,0,1,1453,766Z"/><path class="cls-3" d="M1428.87,772.32a.65.65,0,0,1,.54.7v2.9c0,.37-.25.72-.54.7a.65.65,0,0,1-.54-.7V773C1428.33,772.66,1428.58,772.31,1428.87,772.32Z"/><path class="cls-3" d="M1429.54,741.88a.65.65,0,0,1,.54.7v4.93c0,.37-.25.7-.54.7a.65.65,0,0,1-.54-.7v-4.93A.65.65,0,0,1,1429.54,741.88Z"/><path class="cls-3" d="M1448.4,746.81a.64.64,0,0,1,.54.7v2.32c0,.36-.25.71-.54.7a.65.65,0,0,1-.55-.7v-2.32C1447.85,747.14,1448.1,746.79,1448.4,746.81Z"/><path class="cls-3" d="M1436.5,719c.31,0,.52.31.54.7.06,1,.13,1.94.22,2.9a.79.79,0,0,1-.15.49.49.49,0,0,1-.39.21.5.5,0,0,1-.38-.21,1,1,0,0,1-.16-.49c-.09-1-.16-1.93-.22-2.9C1435.94,719.31,1436.22,719,1436.5,719Z"/><path class="cls-3" d="M1464.69,744c0-.37.27-.72.54-.7s.51.31.54.7a36.56,36.56,0,0,1,.23,4.06c0,.36-.24.71-.55.7a.65.65,0,0,1-.54-.7A34.29,34.29,0,0,0,1464.69,744Z"/><path class="cls-3" d="M1441.44,775.8a.65.65,0,0,1,.54.7c0,.29,0,.57,0,.85s.09.67.16,1a.75.75,0,0,1-.37.86.56.56,0,0,1-.67-.49,10.27,10.27,0,0,1-.24-2.22C1440.9,776.14,1441.15,775.79,1441.44,775.8Z"/><path class="cls-3" d="M1462.69,776.61q.07-.39.12-.78c0-.06,0-.12,0-.18v-.07h0l0-.39a13.88,13.88,0,0,0,0-1.58c0-.36.26-.71.54-.7a.66.66,0,0,1,.55.7,15.9,15.9,0,0,1-.25,3.38c-.06.35-.39.6-.66.49A.76.76,0,0,1,1462.69,776.61Z"/><path class="cls-3" d="M1437.62,702.15a.65.65,0,0,1,.54.7v2.61c0,.37-.25.72-.54.7a.65.65,0,0,1-.54-.7v-2.61C1437.08,702.49,1437.33,702.14,1437.62,702.15Z"/><path class="cls-3" d="M1447.05,695.49a.64.64,0,0,1,.54.69v4.06c0,.37-.25.72-.54.7a.64.64,0,0,1-.54-.7v-4.06C1446.51,695.82,1446.76,695.47,1447.05,695.49Z"/><path class="cls-3" d="M1447.72,719.84a.65.65,0,0,1,.54.7v2.32c0,.37-.25.72-.54.7a.65.65,0,0,1-.54-.7v-2.32C1447.18,720.18,1447.43,719.82,1447.72,719.84Z"/><path class="cls-3" d="M1429.77,726.22a.65.65,0,0,1,.54.7v2.61c0,.36-.25.72-.54.7a.65.65,0,0,1-.55-.7v-2.61C1429.22,726.55,1429.47,726.2,1429.77,726.22Z"/><path class="cls-3" d="M1455.73,785c0-.27.08-.55.11-.83v-.11c0-.07,0-.13,0-.2l0-.43c0-.57,0-1.15,0-1.72,0-.36.25-.71.54-.7a.65.65,0,0,1,.54.7,22.49,22.49,0,0,1-.25,3.67.53.53,0,0,1-.66.48A.75.75,0,0,1,1455.73,785Z"/><path class="cls-3" d="M1472.72,775.25a.55.55,0,0,1,.66.49,13.6,13.6,0,0,1,.25,2.21c0,.37-.26.72-.54.7a.65.65,0,0,1-.54-.7c0-.27,0-.55-.06-.82s-.09-.69-.15-1A.74.74,0,0,1,1472.72,775.25Z"/><path class="cls-3" d="M1421.46,772.61a.65.65,0,0,1,.54.7v1.74c0,.37-.25.72-.54.7a.65.65,0,0,1-.54-.7v-1.74C1420.92,773,1421.17,772.6,1421.46,772.61Z"/><path class="cls-3" d="M1438.88,743.62a.64.64,0,0,1,.55.69v4.17c0,.36-.25.72-.55.7a.65.65,0,0,1-.54-.7v-4.17C1438.34,744,1438.59,743.6,1438.88,743.62Z"/><path class="cls-3" d="M1430,759.6a.48.48,0,0,1,.38-.2.52.52,0,0,1,.38.2.85.85,0,0,1,.16.5v1.31a.85.85,0,0,1-.16.5.48.48,0,0,1-.38.2.5.5,0,0,1-.38-.2.85.85,0,0,1-.16-.5V760.1A.85.85,0,0,1,1430,759.6Z"/><path class="cls-3" d="M1445.81,758.56c0-.9,1.08-.9,1.08,0,0,2.12.24,4.24.17,6.36,0,.9-1.11.9-1.08,0C1446.05,762.8,1445.82,760.68,1445.81,758.56Z"/><path class="cls-3" d="M1422.59,748.88a.63.63,0,0,1,.54.7v3.5c0,.37-.24.72-.54.7a.65.65,0,0,1-.54-.7v-3.5C1422.05,749.21,1422.3,748.86,1422.59,748.88Z"/><path class="cls-3" d="M1455.21,721.52c0,2,0,4.09.17,6.13a.65.65,0,0,1-.54.7c-.32,0-.52-.32-.55-.7-.14-2-.16-4.09-.16-6.13C1454.12,720.62,1455.2,720.62,1455.21,721.52Z"/><path class="cls-3" d="M1442.48,724.59v8.33c0,.89-1.08.9-1.08,0v-8.33C1441.4,723.69,1442.48,723.68,1442.48,724.59Z"/><path class="cls-3" d="M1455.85,737.92a.63.63,0,0,1,.54.69v3.07c0,.37-.24.72-.54.7a.64.64,0,0,1-.54-.7v-3.07C1455.31,738.25,1455.56,737.9,1455.85,737.92Z"/><path class="cls-3" d="M1460.25,765a41.21,41.21,0,0,0,.32-6.39c0-.9,1.07-.9,1.09,0a46.33,46.33,0,0,1-.36,6.77.54.54,0,0,1-.67.48A.76.76,0,0,1,1460.25,765Z"/><path class="cls-3" d="M1449.19,705.68a.51.51,0,0,1,.39-.21.5.5,0,0,1,.38.21.8.8,0,0,1,.16.49v1.1a.8.8,0,0,1-.16.49.55.55,0,0,1-.38.21.51.51,0,0,1-.39-.21.87.87,0,0,1-.16-.49v-1.1A.8.8,0,0,1,1449.19,705.68Z"/><path class="cls-3" d="M1443.33,689.51v6.58c0,.9-1.08.9-1.08,0v-6.58C1442.25,688.61,1443.33,688.61,1443.33,689.51Z"/><path class="cls-3" d="M1451.07,690.17c0-.37.25-.72.54-.7a.65.65,0,0,1,.54.7c0,.65,0,1.3,0,2,0,.32,0,.64,0,1,0,0,0,.12,0,.14l0,.19c0,.17,0,.34.08.51a.76.76,0,0,1-.37.86.55.55,0,0,1-.67-.49A21.07,21.07,0,0,1,1451.07,690.17Z"/><path class="cls-3" d="M1470.28,754.8a.64.64,0,0,1,.54.69v2.2c0,.36-.25.71-.54.7a.65.65,0,0,1-.54-.7v-2.2C1469.74,755.13,1470,754.78,1470.28,754.8Z"/></g><path class="cls-5" d="M1415.91,773.36a.33.33,0,0,0,.19-.06.61.61,0,0,0,.17-.71,8.85,8.85,0,0,1-.26-5.19,26.77,26.77,0,0,1,1.68-4.75l.15-.36c4.84-11.41,8.5-23.76,12-35.7,3.18-10.71,6.46-21.79,10.59-32.13a14.26,14.26,0,0,1,2.94-5.17.63.63,0,0,0,.08-.74.35.35,0,0,0-.56-.11,15.21,15.21,0,0,0-3.19,5.54c-4.14,10.39-7.43,21.5-10.61,32.24-3.53,11.91-7.19,24.22-12,35.56l-.15.36a27.65,27.65,0,0,0-1.75,5,10.22,10.22,0,0,0,.32,6A.42.42,0,0,0,1415.91,773.36Z"/><path class="cls-5" d="M1477.46,772.22a.31.31,0,0,0,.13,0,.57.57,0,0,0,.25-.67c-2.94-11-6.58-21.83-10.11-32.33-.69-2.07-1.39-4.14-2.08-6.22l-3.57-10.69-3.66-11q-1.74-5.24-3.47-10.48c-.25-.76-.48-1.51-.7-2.24-1.42-4.61-2.65-8.59-7.08-10.27-.21-.09-.44.08-.5.36a.56.56,0,0,0,.27.65c4,1.53,5.16,5.12,6.55,9.65.23.74.46,1.49.71,2.26,1.16,3.5,2.31,7,3.48,10.49,1.21,3.65,2.44,7.31,3.66,11l3.57,10.69c.69,2.07,1.38,4.15,2.08,6.22,3.52,10.48,7.15,21.32,10.09,32.26A.42.42,0,0,0,1477.46,772.22Z"/><path class="cls-5" d="M1465.41,785.44c3.62,0,7.61-.48,10.24-4.12a.63.63,0,0,0,0-.74.35.35,0,0,0-.57,0c-2.89,4-7.74,3.85-11.65,3.75-12.23-.32-37.69-1-45-7.81a.34.34,0,0,0-.56.12.6.6,0,0,0,.09.73c7.46,7,33.1,7.69,45.42,8Q1464.38,785.44,1465.41,785.44Z"/><path class="cls-2" d="M1234,947q0,17.54,0,35.06a59,59,0,0,0,.63,10.69c1.19,6.07,4.61,6.06,5.79,0a58.57,58.57,0,0,0,.63-10.65l0-35.08"/><path class="cls-1" d="M1214.67,960.05c-5.61-2.59-9.27-7.17-6.53-14.35,9.65-25.33,14.62-45.16,21.94-67.74,1.45-4.48,3.63-9.67,7.38-9.94,4.18-.3,6.77,5.62,8.32,10.63,6.37,20.5,13,40.63,20.12,60.65,1.85,5.18,5.19,14,2.52,19.52-3.78,7.89-14.92,5.24-20.8,5C1242.39,963.57,1224.78,964.71,1214.67,960.05Z"/><g class="cls-12"><path class="cls-3" d="M1245.45,889.49a.55.55,0,0,1,.67.49,11.35,11.35,0,0,1,.24,3.08c0,.37-.23.72-.54.7a.65.65,0,0,1-.54-.7,9.75,9.75,0,0,0,0-1.43,1.11,1.11,0,0,0,0-.19v0h0c0-.12,0-.23,0-.35s-.08-.47-.13-.71A.75.75,0,0,1,1245.45,889.49Z"/><path class="cls-3" d="M1234.37,889.76a.64.64,0,0,1,.55.69v3.48c0,.37-.25.72-.55.7a.64.64,0,0,1-.54-.7v-3.48C1233.83,890.09,1234.08,889.74,1234.37,889.76Z"/><path class="cls-3" d="M1241.11,912.37a.65.65,0,0,1,.54.7v3.77c0,.37-.25.72-.54.7a.65.65,0,0,1-.54-.7v-3.77C1240.57,912.71,1240.82,912.36,1241.11,912.37Z"/><path class="cls-3" d="M1228.31,913.24a.65.65,0,0,1,.54.7v3.19c0,.37-.24.72-.54.7a.65.65,0,0,1-.54-.7v-3.19C1227.77,913.58,1228,913.23,1228.31,913.24Z"/><path class="cls-3" d="M1251,929.19a.65.65,0,0,1,.54.7v2.9c0,.36-.24.71-.54.7a.65.65,0,0,1-.54-.7v-2.9C1250.44,929.52,1250.69,929.17,1251,929.19Z"/><path class="cls-3" d="M1230.56,937.89a.65.65,0,0,1,.54.7v4.06c0,.36-.25.71-.54.7a.65.65,0,0,1-.54-.7v-4.06C1230,938.22,1230.27,937.87,1230.56,937.89Z"/><path class="cls-3" d="M1215.74,940.21a.65.65,0,0,1,.55.7v3.48c0,.36-.25.71-.55.7a.65.65,0,0,1-.54-.7v-3.48C1215.2,940.54,1215.45,940.19,1215.74,940.21Z"/><path class="cls-3" d="M1251.43,908.89a.65.65,0,0,1,.54.7v2c0,.37-.24.72-.54.7a.65.65,0,0,1-.54-.7v-2C1250.89,909.23,1251.14,908.88,1251.43,908.89Z"/><path class="cls-3" d="M1260.19,943.11a.64.64,0,0,1,.54.7v4.06c0,.36-.25.71-.54.69a.63.63,0,0,1-.54-.69v-4.06C1259.65,943.44,1259.89,943.09,1260.19,943.11Z"/><path class="cls-3" d="M1244.78,945.74a.55.55,0,0,1,.67.49,41.68,41.68,0,0,1,.24,5.7c0,.89-1.1.9-1.08,0a37.89,37.89,0,0,0-.21-5.33A.78.78,0,0,1,1244.78,945.74Z"/><path class="cls-3" d="M1220.68,952.1a.63.63,0,0,1,.54.7v2.89c0,.37-.25.72-.54.7a.64.64,0,0,1-.54-.7V952.8C1220.14,952.43,1220.39,952.08,1220.68,952.1Z"/><path class="cls-3" d="M1221.36,921.65a.65.65,0,0,1,.54.7v4.93a.56.56,0,1,1-1.09,0v-4.93A.65.65,0,0,1,1221.36,921.65Z"/><path class="cls-3" d="M1240.21,926.58a.65.65,0,0,1,.54.7v2.32c0,.36-.25.71-.54.7a.65.65,0,0,1-.54-.7v-2.32C1239.67,926.91,1239.92,926.56,1240.21,926.58Z"/><path class="cls-3" d="M1228.31,898.74c.32,0,.52.31.54.7.06,1,.14,1.94.23,2.9a.85.85,0,0,1-.16.5.48.48,0,0,1-.38.2.5.5,0,0,1-.38-.2.93.93,0,0,1-.16-.5c-.09-1-.17-1.93-.23-2.9C1227.75,899.08,1228,898.73,1228.31,898.74Z"/><path class="cls-3" d="M1256.5,923.8c0-.37.27-.72.54-.7s.52.31.55.7a34.41,34.41,0,0,1,.22,4.06c0,.36-.24.72-.54.7a.65.65,0,0,1-.54-.7A32.4,32.4,0,0,0,1256.5,923.8Z"/><path class="cls-3" d="M1233.25,955.58a.63.63,0,0,1,.54.69,8.27,8.27,0,0,0,0,.86,8.5,8.5,0,0,0,.16,1,.76.76,0,0,1-.38.86.56.56,0,0,1-.67-.49,10.27,10.27,0,0,1-.24-2.22C1232.71,955.91,1233,955.56,1233.25,955.58Z"/><path class="cls-3" d="M1254.5,956.38q.07-.39.12-.78l0-.17v-.08h0l0-.39c0-.52,0-1.05,0-1.58,0-.36.26-.71.54-.69s.52.3.54.69a15.85,15.85,0,0,1-.24,3.38c-.07.36-.4.6-.67.49A.76.76,0,0,1,1254.5,956.38Z"/><path class="cls-3" d="M1229.44,881.93a.64.64,0,0,1,.54.7v2.61c0,.36-.25.71-.54.69a.63.63,0,0,1-.54-.69v-2.61C1228.9,882.26,1229.14,881.91,1229.44,881.93Z"/><path class="cls-3" d="M1238.86,875.26a.65.65,0,0,1,.54.7V880c0,.36-.24.71-.54.7a.65.65,0,0,1-.54-.7V876C1238.32,875.59,1238.57,875.24,1238.86,875.26Z"/><path class="cls-3" d="M1239.54,899.61a.65.65,0,0,1,.54.7v2.32c0,.37-.25.72-.54.7a.65.65,0,0,1-.54-.7v-2.32C1239,900,1239.24,899.6,1239.54,899.61Z"/><path class="cls-3" d="M1221.58,906a.65.65,0,0,1,.54.7v2.61c0,.37-.25.72-.54.7a.65.65,0,0,1-.54-.7v-2.61C1221,906.33,1221.29,906,1221.58,906Z"/><path class="cls-3" d="M1247.54,964.79c0-.28.08-.56.11-.84v-.11a1.23,1.23,0,0,0,0-.2l0-.43c0-.57,0-1.14,0-1.72,0-.36.25-.71.54-.7a.65.65,0,0,1,.54.7,22.48,22.48,0,0,1-.24,3.67.55.55,0,0,1-.67.49A.79.79,0,0,1,1247.54,964.79Z"/><path class="cls-3" d="M1264.53,955a.56.56,0,0,1,.67.49,13.58,13.58,0,0,1,.24,2.21c0,.37-.25.72-.54.7s-.53-.3-.54-.7,0-.55,0-.82-.09-.68-.16-1A.77.77,0,0,1,1264.53,955Z"/><path class="cls-3" d="M1213.28,952.39a.64.64,0,0,1,.54.69v1.74c0,.37-.25.72-.54.7a.64.64,0,0,1-.55-.7v-1.74C1212.73,952.72,1213,952.37,1213.28,952.39Z"/><path class="cls-3" d="M1230.7,923.39a.64.64,0,0,1,.54.7v4.16c0,.37-.25.72-.54.7a.65.65,0,0,1-.54-.7v-4.16C1230.16,923.72,1230.41,923.37,1230.7,923.39Z"/><path class="cls-3" d="M1221.83,939.38a.48.48,0,0,1,.38-.21.51.51,0,0,1,.39.21.87.87,0,0,1,.16.49v1.32a.92.92,0,0,1-.16.49.5.5,0,0,1-.39.2.46.46,0,0,1-.38-.2.84.84,0,0,1-.16-.49v-1.32A.8.8,0,0,1,1221.83,939.38Z"/><path class="cls-3" d="M1237.62,938.34c0-.9,1.08-.91,1.09,0,0,2.12.24,4.23.17,6.35,0,.9-1.12.9-1.09,0C1237.87,942.57,1237.63,940.46,1237.62,938.34Z"/><path class="cls-3" d="M1214.41,928.65a.65.65,0,0,1,.54.7v3.51c0,.36-.25.71-.54.69a.64.64,0,0,1-.54-.69v-3.51C1213.87,929,1214.12,928.63,1214.41,928.65Z"/><path class="cls-3" d="M1247,901.29c0,2.05,0,4.1.17,6.14a.65.65,0,0,1-.54.7c-.32,0-.51-.33-.54-.7-.15-2-.16-4.09-.17-6.14C1245.94,900.39,1247,900.39,1247,901.29Z"/><path class="cls-3" d="M1234.29,904.36v8.33c0,.9-1.08.9-1.08,0v-8.33C1233.21,903.46,1234.29,903.46,1234.29,904.36Z"/><path class="cls-3" d="M1247.67,917.69a.65.65,0,0,1,.54.7v3.07c0,.36-.25.71-.54.7a.65.65,0,0,1-.54-.7v-3.07C1247.13,918,1247.38,917.67,1247.67,917.69Z"/><path class="cls-3" d="M1252.07,944.73a42.62,42.62,0,0,0,.32-6.39c0-.9,1.06-.9,1.08,0a43.64,43.64,0,0,1-.36,6.76.55.55,0,0,1-.66.49A.76.76,0,0,1,1252.07,944.73Z"/><path class="cls-3" d="M1241,885.45a.47.47,0,0,1,.38-.2.46.46,0,0,1,.38.2.82.82,0,0,1,.16.49V887a.8.8,0,0,1-.16.49.47.47,0,0,1-.38.21.48.48,0,0,1-.38-.21.8.8,0,0,1-.16-.49v-1.1A.82.82,0,0,1,1241,885.45Z"/><path class="cls-3" d="M1235.14,869.28v6.58c0,.9-1.08.9-1.08,0v-6.58C1234.06,868.38,1235.14,868.38,1235.14,869.28Z"/><path class="cls-3" d="M1242.89,869.94c0-.36.24-.71.54-.7a.65.65,0,0,1,.54.7c0,.65,0,1.3,0,1.95,0,.32,0,.65,0,1a.59.59,0,0,1,0,.14,1.23,1.23,0,0,0,0,.19,4.54,4.54,0,0,0,.09.51.75.75,0,0,1-.38.86.56.56,0,0,1-.67-.49A20.32,20.32,0,0,1,1242.89,869.94Z"/><path class="cls-3" d="M1262.09,934.57a.63.63,0,0,1,.54.7v2.19c0,.36-.25.71-.54.7a.65.65,0,0,1-.54-.7v-2.19C1261.55,934.9,1261.8,934.55,1262.09,934.57Z"/></g><path class="cls-5" d="M1207.73,953.14a.3.3,0,0,0,.19-.07.59.59,0,0,0,.16-.71,8.9,8.9,0,0,1-.26-5.18,26.87,26.87,0,0,1,1.68-4.76l.16-.36c4.84-11.41,8.5-23.75,12-35.69,3.17-10.72,6.46-21.8,10.58-32.14a14.34,14.34,0,0,1,2.94-5.17.63.63,0,0,0,.09-.73.35.35,0,0,0-.57-.12,15.36,15.36,0,0,0-3.18,5.54c-4.14,10.4-7.44,21.5-10.62,32.24-3.53,11.91-7.18,24.22-12,35.56l-.16.36a28.45,28.45,0,0,0-1.75,5,10.13,10.13,0,0,0,.33,6A.4.4,0,0,0,1207.73,953.14Z"/><path class="cls-5" d="M1269.27,952a.35.35,0,0,0,.14,0,.58.58,0,0,0,.25-.67c-2.94-11-6.59-21.82-10.11-32.32l-2.09-6.23q-1.77-5.34-3.56-10.68c-1.22-3.66-2.45-7.31-3.66-11q-1.74-5.24-3.47-10.49c-.25-.76-.48-1.5-.71-2.23-1.42-4.61-2.64-8.6-7.08-10.28-.21-.08-.44.08-.5.36a.56.56,0,0,0,.28.65c4,1.54,5.15,5.12,6.55,9.65.22.74.46,1.5.71,2.26q1.73,5.25,3.47,10.49l3.66,11,3.57,10.69,2.08,6.22c3.52,10.48,7.16,21.32,10.09,32.26A.44.44,0,0,0,1269.27,952Z"/><path class="cls-5" d="M1257.22,965.22c3.62,0,7.61-.49,10.25-4.12a.65.65,0,0,0,0-.74.35.35,0,0,0-.58,0c-2.88,4-7.74,3.85-11.64,3.75-12.24-.31-37.7-1-45-7.8a.35.35,0,0,0-.57.11.63.63,0,0,0,.09.73c7.47,7,33.1,7.69,45.42,8C1255.86,965.2,1256.54,965.22,1257.22,965.22Z"/><path class="cls-13" d="M-46,656.23v-1.64c129.44-21,271.1-20.86,382.22,44.17,60.93,35.66,107.85,88,155.5,138.14,47,49.39,98.87,99.6,164.53,127.25,72.55,30.55,153.52,40.06,225.85,74.18,30,14.14,58.79,31.9,79,56.82,0,0,17-27.94,21.47,22.95l-1032.73,3.84C-48.53,966.72-45.63,811.46-46,656.23Z"/><path class="cls-13" d="M1431.93,834.28l-2.48,2.62c-46.86,49.39-98.66,99.6-164.18,127.25-72.38,30.55-153.18,40.06-225.35,74.18-29.89,14.14-58.66,31.9-78.81,56.82,0,0-17-27.94-21.43,22.95l1030.46,3.84c-1.61-155.22-4.51-310.48-4.16-465.71v-1.64c-129.15-21-270.5-20.86-381.38,44.17C1529,731.4,1485,778.05,1441.51,824.15Z"/><rect class="cls-14" x="1.53" y="1079.63" width="1920" height="954.16"/></svg>