<svg id="Layer_1" data-name="Layer 1" xmlns="http://www.w3.org/2000/svg" xmlns:xlink="http://www.w3.org/1999/xlink" viewBox="0 0 1920 2160"><defs><style>.cls-1{fill:#4ca5bc;}.cls-2{fill:#19798b;}.cls-3{fill:#141412;}.cls-4{clip-path:url(#clip-path);}.cls-5{fill:#151514;}.cls-6{clip-path:url(#clip-path-2);}.cls-7{clip-path:url(#clip-path-3);}.cls-8{clip-path:url(#clip-path-4);}.cls-9{clip-path:url(#clip-path-5);}.cls-10{clip-path:url(#clip-path-6);}.cls-11{clip-path:url(#clip-path-7);}.cls-12{clip-path:url(#clip-path-8);}.cls-13{fill:#fff;}.cls-14{fill:url(#linear-gradient);}</style><clipPath id="clip-path"><path class="cls-1" d="M79.2,735.11c5.61-2.59,9.27-7.17,6.53-14.35C76.08,695.43,71.11,675.6,63.79,653c-1.45-4.49-3.63-9.67-7.38-9.94-4.18-.3-6.77,5.62-8.32,10.63-6.37,20.5-13,40.62-20.12,60.65-1.85,5.17-5.19,13.95-2.52,19.52,3.78,7.89,14.92,5.24,20.8,5C51.48,738.63,69.08,739.77,79.2,735.11Z"/></clipPath><clipPath id="clip-path-2"><path class="cls-1" d="M284.38,767.66c5.62-2.59,9.27-7.17,6.53-14.35C281.26,728,276.29,708.15,269,685.57c-1.46-4.48-3.64-9.67-7.39-9.94-4.18-.3-6.76,5.62-8.32,10.64-6.37,20.49-13,40.62-20.12,60.64-1.85,5.18-5.19,14-2.52,19.53,3.78,7.89,14.92,5.24,20.8,5C256.66,771.19,274.27,772.32,284.38,767.66Z"/></clipPath><clipPath id="clip-path-3"><path class="cls-1" d="M486.56,895.05c5.61-2.59,9.27-7.17,6.53-14.35-9.65-25.33-14.63-45.16-21.94-67.74-1.45-4.48-3.63-9.67-7.38-9.94-4.18-.3-6.77,5.62-8.33,10.64-6.36,20.49-13,40.62-20.12,60.64-1.85,5.18-5.18,14-2.51,19.52,3.78,7.89,14.91,5.25,20.79,5C458.84,898.57,476.44,899.71,486.56,895.05Z"/></clipPath><clipPath id="clip-path-4"><path class="cls-1" d="M694.75,1074.82c5.61-2.59,9.26-7.17,6.52-14.35-9.65-25.33-14.62-45.16-21.93-67.74-1.45-4.48-3.63-9.67-7.39-9.94-4.17-.3-6.76,5.62-8.32,10.64-6.37,20.49-13,40.62-20.12,60.64-1.85,5.18-5.18,14-2.52,19.53,3.79,7.89,14.92,5.24,20.8,5C667,1078.35,684.63,1079.49,694.75,1074.82Z"/></clipPath><clipPath id="clip-path-5"><path class="cls-1" d="M1830.21,744.52c-5.61-2.59-9.26-7.17-6.53-14.35,9.65-25.33,14.63-45.16,21.94-67.74,1.45-4.48,3.63-9.67,7.39-9.94,4.17-.3,6.76,5.62,8.32,10.64,6.36,20.49,13,40.62,20.12,60.64,1.85,5.18,5.18,14,2.52,19.53-3.79,7.89-14.92,5.24-20.8,5C1857.94,748.05,1840.33,749.18,1830.21,744.52Z"/></clipPath><clipPath id="clip-path-6"><path class="cls-1" d="M1625,777.07c-5.61-2.58-9.26-7.16-6.53-14.35,9.65-25.32,14.63-45.16,21.94-67.74,1.45-4.48,3.63-9.66,7.38-9.93,4.18-.3,6.77,5.61,8.33,10.63,6.36,20.49,13,40.62,20.12,60.65,1.85,5.17,5.18,13.95,2.51,19.52-3.78,7.89-14.91,5.24-20.79,5C1652.76,780.6,1635.15,781.74,1625,777.07Z"/></clipPath><clipPath id="clip-path-7"><path class="cls-1" d="M1422.85,904.46c-5.61-2.59-9.26-7.16-6.52-14.35,9.65-25.33,14.62-45.16,21.93-67.74,1.45-4.48,3.63-9.66,7.39-9.93,4.17-.3,6.76,5.61,8.32,10.63,6.37,20.49,13,40.62,20.12,60.64,1.85,5.18,5.18,14,2.52,19.53-3.79,7.89-14.92,5.24-20.8,5C1450.58,908,1433,909.13,1422.85,904.46Z"/></clipPath><clipPath id="clip-path-8"><path class="cls-1" d="M1214.67,1084.23c-5.61-2.58-9.27-7.16-6.53-14.35,9.65-25.32,14.62-45.16,21.94-67.74,1.45-4.48,3.63-9.66,7.38-9.93,4.18-.3,6.77,5.62,8.32,10.63,6.37,20.5,13,40.62,20.12,60.65,1.85,5.17,5.19,14,2.52,19.52-3.78,7.89-14.92,5.24-20.8,5C1242.39,1087.76,1224.78,1088.9,1214.67,1084.23Z"/></clipPath><linearGradient id="linear-gradient" x1="961.53" y1="1203.82" x2="961.53" y2="2157.98" gradientUnits="userSpaceOnUse"><stop offset="0" stop-color="#fff"/><stop offset="0.28" stop-color="#f7fcfc"/><stop offset="0.72" stop-color="#e1f2f5"/><stop offset="1" stop-color="#cfebef"/></linearGradient></defs><path class="cls-2" d="M161.36,728.93l0,50.58a113.2,113.2,0,0,1-.67,15.42c-1.29,8.76-5,8.75-6.29,0a112.23,112.23,0,0,1-.68-15.36l0-50.6"/><path class="cls-1" d="M150,729.57c-4.17,2.29-8.39,4.6-13,5.83a9.74,9.74,0,0,1-4.87.32,4.26,4.26,0,0,1-3.3-3.28,6,6,0,0,1,.76-3.21,29.63,29.63,0,0,1,5-7.4,29.14,29.14,0,0,1,3.15-2.93c.87-.71,2.6-2.42,3.74-2.56-2.56.32-5,1.47-7.52,1.7a6.5,6.5,0,0,1-5.39-1.81c-1.87-2.14.65-4.24,2.18-5.8l10.95-11.15a9.29,9.29,0,0,1-9.57-3.22,2.46,2.46,0,0,1-.65-1.78,2.74,2.74,0,0,1,1.39-1.65,50.84,50.84,0,0,1,14.49-6.76,8.67,8.67,0,0,1-7.87-.07,3.22,3.22,0,0,1-1.88-2.2,3.92,3.92,0,0,1,1.16-2.74,168.23,168.23,0,0,1,15.07-16.73,6.54,6.54,0,0,1,2.15-1.59c2.59-1,5.19,1.24,7.16,3.2a81.3,81.3,0,0,0,14.35,11.39,9.79,9.79,0,0,1,2.81,2.24,3.07,3.07,0,0,1,.34,3.38,4.23,4.23,0,0,1-2.79,1.46,31.7,31.7,0,0,1-8.13.61,80,80,0,0,1,12.87,8c1.73,1.31,3.57,3.06,3.37,5.22s-2.32,3.51-4.39,3.67a13.45,13.45,0,0,1-6-1.43q5.35,7,10.46,14.24c1.13,1.61,2.31,3.62,1.5,5.42-.68,1.51-2.53,2.13-4.19,2.12-3.37,0-6.39-2-9.13-4a60.44,60.44,0,0,1,12.35,11.33c1.67,2,3.29,4.79,2.14,7.17-.87,1.8-3,2.59-5,2.83a16.38,16.38,0,0,1-15.46-7.4,4.93,4.93,0,0,1-7.15-1,3.23,3.23,0,0,1-6,.06,5.58,5.58,0,0,1-3.13.67A2.29,2.29,0,0,1,150,729.57Z"/><path class="cls-3" d="M132.36,692.55c.43-.55,1.19.22.76.76-1.55,2,.44,3.87,2.18,4.77a9.55,9.55,0,0,0,7.74.69,4.32,4.32,0,0,0,2.59-3.15c.14-.62,1-.44,1.06.14.11,1.68,1,3.61,2.95,3.5s2.47-2,3.67-3.07a.55.55,0,0,1,.91.24c.35,1.84,1.18,4.17,3.16,4.81a3.59,3.59,0,0,0,4.57-3.62.54.54,0,0,1,1-.27c1.25,1.87,3.5,3.59,5.87,3.22a2.53,2.53,0,0,0,2-1.15,7.34,7.34,0,0,0,.47-2.22.55.55,0,0,1,.8-.33c1.22.82,2.13,2,3.37,2.82a9.44,9.44,0,0,0,4.34,1.25,8.07,8.07,0,0,0,3.62-.33A2.49,2.49,0,0,0,185,698a.54.54,0,0,1,1.08,0,3.58,3.58,0,0,1-1.53,3.24,6.72,6.72,0,0,1-3.82.79,12.45,12.45,0,0,1-5-1,16.61,16.61,0,0,1-3.43-2.7,4.5,4.5,0,0,1-.63,1.9,3.75,3.75,0,0,1-2.72,1.43,7.06,7.06,0,0,1-6.05-2.7,4.63,4.63,0,0,1-5.28,3.45c-2.3-.42-3.56-2.58-4.16-4.7a15.26,15.26,0,0,1-1.3,1.61,3.67,3.67,0,0,1-6.13-1.76c-1.28,2.08-3.83,2.94-6.36,2.79-2.73-.16-6.28-1.28-7.7-3.83A3.43,3.43,0,0,1,132.36,692.55Z"/><path class="cls-3" d="M139.35,680.16c.54-.43,1.31.33.77.76-.72.58-1.89,1.51-1.8,2.54.06.65.81,1.15,1.46,1.44a9.24,9.24,0,0,0,6.22.32,2.63,2.63,0,0,0,1.07-.6.94.94,0,0,0,.3-.77,1.1,1.1,0,0,0,0-.18c0-.59,1-.75,1.06-.14a.71.71,0,0,1,0,.14h0c0,.91.37,2.31,1.57,2a2.47,2.47,0,0,0,1.46-2.57.55.55,0,0,1,1-.27,6.47,6.47,0,0,0,.94,1.71,2.39,2.39,0,0,0,1.92.5c1.41-.1,2.15-1.23,2.77-2.35a.55.55,0,0,1,.94,0,4.81,4.81,0,0,0,3.39,2.89,2.6,2.6,0,0,0,2.17-.66,1.35,1.35,0,0,0,0-2,.54.54,0,0,1,.65-.85c.93.53,1.67,1.38,2.64,1.83a9.41,9.41,0,0,0,3.72.64,29.16,29.16,0,0,0,4.07-.16c1.76-.21,5.93-.88,4.68-3.54-.3-.63.63-1.18.93-.55,2.54,5.4-7.58,5.49-10.54,5.3a9.44,9.44,0,0,1-3.4-.75,7.22,7.22,0,0,1-1.27-.85,3,3,0,0,1-2.69,2.61,5.06,5.06,0,0,1-4.83-2.62,4.13,4.13,0,0,1-3.23,2.11,3.52,3.52,0,0,1-2.48-.63,2.86,2.86,0,0,1-.59-.71,3.05,3.05,0,0,1-2.16,2,2,2,0,0,1-2.33-1.26c-1.05,1-3.09,1.21-4.36,1.2-1.94,0-5.52-.44-6.11-2.77C136.92,682.35,138.28,681,139.35,680.16Z"/><path class="cls-3" d="M128.31,714.74a4.05,4.05,0,0,1,.52.73,4.51,4.51,0,0,0,3.29,2.1,9.67,9.67,0,0,0,4-.4,23.24,23.24,0,0,0,4.82-1.9,2.11,2.11,0,0,1,1.15-.36c.87.06,1.27,1.06,1.82,1.72,1.22,1.46,3.48,1.41,5.31.91,1.32-.35,2.85-1.24,2.72-2.6a1.27,1.27,0,0,1,0-.55c.12-.33.6-.38.9-.2a2.08,2.08,0,0,1,.64.82,5.82,5.82,0,0,0,3.39,2.93,3.37,3.37,0,0,0,3.92-1.58c.14-.29.25-.63.54-.78.46-.22.95.22,1.29.6a7.55,7.55,0,0,0,4.87,2.74,4.1,4.1,0,0,0,4.36-2.91c.09-.42.41-1.12.94-1,.31.07.7,1.08.92,1.37a10.4,10.4,0,0,0,1.66,1.72,12.17,12.17,0,0,0,4.17,2.33,12.38,12.38,0,0,0,4.8.52,19.53,19.53,0,0,1,2.49-.49c.79,0,1,.6.07,1a10.5,10.5,0,0,1-7.66,0,18.4,18.4,0,0,1-6.45-4.35,5.7,5.7,0,0,1-5.45,2.83,8.36,8.36,0,0,1-5.55-3,4.59,4.59,0,0,1-4.62,2.2,6.17,6.17,0,0,1-4.3-3.05,6.43,6.43,0,0,1-10.91-.13,21.48,21.48,0,0,1-7.43,2.71c-2.64.27-5.57-.64-7-2.89-.24-.37-.38-.94,0-1.19S128.07,714.51,128.31,714.74Z"/><path class="cls-3" d="M131.2,734.37c6.57,3.11,12.4-2.56,17.91-5.37a.53.53,0,0,1,.72.21.46.46,0,0,1,.33.49c-.06,1.17.58,1.67,1.72,1.6a5.19,5.19,0,0,0,2.75-1,.54.54,0,0,1,.85.11,3.31,3.31,0,0,0,2.45,2.05,2.35,2.35,0,0,0,2.4-1.8c.14-.38.79-.6,1-.13,1.09,2.54,4.54,3.41,6.29,1a.53.53,0,0,1,.22-.18.57.57,0,0,1,.79.33c3.1,6.39,11.91,8,18.23,6.37a.54.54,0,0,1,.29,1.05c-5.44,1.38-12.09.54-16.5-3.11a11.38,11.38,0,0,1-2.68-3.26,4.42,4.42,0,0,1-3.75,1.29,4.87,4.87,0,0,1-3.33-2.06,3.13,3.13,0,0,1-2.83,1.6,4.14,4.14,0,0,1-3.24-2.11c-2,1.17-5.46,1.55-5.72-1.22-2.92,1.58-5.61,3.6-8.66,4.93a11.4,11.4,0,0,1-9.78.14C130,735,130.57,734.07,131.2,734.37Z"/><path class="cls-2" d="M364.85,806.89q0,25.29,0,50.58a113.05,113.05,0,0,1-.68,15.41c-1.29,8.76-5,8.75-6.29,0a114.08,114.08,0,0,1-.68-15.37l0-50.6"/><path class="cls-1" d="M353.48,807.53c-4.17,2.28-8.39,4.59-13,5.82a9.73,9.73,0,0,1-4.87.32,4.23,4.23,0,0,1-3.29-3.28,5.84,5.84,0,0,1,.76-3.21,29.89,29.89,0,0,1,8.18-10.33c.88-.7,2.6-2.41,3.74-2.56-2.55.32-5,1.47-7.52,1.7a6.46,6.46,0,0,1-5.39-1.8c-1.87-2.14.65-4.25,2.18-5.81l10.95-11.15a9.27,9.27,0,0,1-9.56-3.21,2.45,2.45,0,0,1-.65-1.79,2.73,2.73,0,0,1,1.38-1.65,51,51,0,0,1,14.49-6.76,8.64,8.64,0,0,1-7.86-.06,3.23,3.23,0,0,1-1.89-2.21,3.92,3.92,0,0,1,1.16-2.74,170.62,170.62,0,0,1,15.07-16.73,7,7,0,0,1,2.15-1.59c2.59-1,5.19,1.24,7.16,3.2a80.11,80.11,0,0,0,14.36,11.39,9.74,9.74,0,0,1,2.8,2.25,3,3,0,0,1,.34,3.37,4.18,4.18,0,0,1-2.79,1.46,31.26,31.26,0,0,1-8.13.61,81.29,81.29,0,0,1,12.88,8c1.72,1.31,3.56,3.06,3.36,5.22s-2.32,3.51-4.38,3.67a13.33,13.33,0,0,1-6-1.43q5.36,7,10.46,14.24c1.13,1.61,2.31,3.63,1.5,5.42-.68,1.51-2.53,2.14-4.19,2.12-3.37,0-6.39-2-9.12-4a60.08,60.08,0,0,1,12.34,11.33c1.68,2,3.29,4.78,2.14,7.16-.87,1.81-3,2.59-5,2.83A16.36,16.36,0,0,1,371.8,810a4.94,4.94,0,0,1-7.14-1,3.24,3.24,0,0,1-6,.06,5.57,5.57,0,0,1-3.13.66A2.28,2.28,0,0,1,353.48,807.53Z"/><path class="cls-3" d="M335.85,770.5c.43-.55,1.19.22.76.76-1.55,2,.44,3.87,2.18,4.78,2.26,1.17,5.34,1.71,7.75.68a4.33,4.33,0,0,0,2.58-3.15c.14-.62,1-.44,1.07.15.1,1.67,1,3.6,2.94,3.5s2.47-2,3.68-3.08a.55.55,0,0,1,.9.24c.36,1.85,1.18,4.18,3.16,4.82a3.6,3.6,0,0,0,4.57-3.63.54.54,0,0,1,1-.27c1.25,1.87,3.5,3.59,5.88,3.23a2.52,2.52,0,0,0,2-1.16,7.27,7.27,0,0,0,.47-2.22.55.55,0,0,1,.8-.32c1.22.82,2.13,2,3.37,2.81a9.57,9.57,0,0,0,4.34,1.26,8.06,8.06,0,0,0,3.62-.34,2.47,2.47,0,0,0,1.5-2.58.54.54,0,0,1,1.08,0,3.6,3.6,0,0,1-1.53,3.25,6.89,6.89,0,0,1-3.82.79,12.45,12.45,0,0,1-5-1,16.92,16.92,0,0,1-3.43-2.71,4.58,4.58,0,0,1-.62,1.91,3.78,3.78,0,0,1-2.72,1.42,7.05,7.05,0,0,1-6.06-2.69,4.62,4.62,0,0,1-5.28,3.45c-2.3-.43-3.56-2.58-4.16-4.7a14.2,14.2,0,0,1-1.3,1.6,3.67,3.67,0,0,1-6.13-1.76c-1.28,2.08-3.83,3-6.36,2.8-2.72-.16-6.27-1.28-7.7-3.83A3.45,3.45,0,0,1,335.85,770.5Z"/><path class="cls-3" d="M342.84,758.11c.54-.42,1.31.34.77.77-.72.57-1.89,1.51-1.79,2.53.05.66.8,1.16,1.45,1.44a9.18,9.18,0,0,0,6.22.32,2.84,2.84,0,0,0,1.08-.59.92.92,0,0,0,.29-.78c0-.06,0-.12,0-.17,0-.6,1-.76,1.06-.15a.76.76,0,0,0,0,.15h0c0,.9.36,2.3,1.57,1.94A2.45,2.45,0,0,0,355,761a.55.55,0,0,1,1-.27,6.32,6.32,0,0,0,.94,1.71,2.44,2.44,0,0,0,1.93.51c1.4-.11,2.14-1.23,2.77-2.36a.54.54,0,0,1,.93,0,4.83,4.83,0,0,0,3.39,2.89,2.59,2.59,0,0,0,2.17-.65,1.36,1.36,0,0,0,0-2,.54.54,0,0,1,.65-.85c.93.54,1.67,1.38,2.65,1.84a9.18,9.18,0,0,0,3.71.63,29.1,29.1,0,0,0,4.07-.15c1.76-.21,5.93-.89,4.68-3.55-.3-.63.63-1.18.93-.55,2.55,5.4-7.58,5.49-10.54,5.3a9.24,9.24,0,0,1-3.4-.75,7.17,7.17,0,0,1-1.27-.84,3,3,0,0,1-2.69,2.6,5.07,5.07,0,0,1-4.83-2.61,4.15,4.15,0,0,1-3.22,2.11,3.59,3.59,0,0,1-2.48-.63,3,3,0,0,1-.6-.72,3,3,0,0,1-2.16,2,2,2,0,0,1-2.33-1.25c-1.05,1-3.09,1.2-4.36,1.2-1.94,0-5.51-.45-6.1-2.78C340.41,760.3,341.77,759,342.84,758.11Z"/><path class="cls-3" d="M331.8,792.7a3.35,3.35,0,0,1,.52.73,4.47,4.47,0,0,0,3.29,2.09,9.67,9.67,0,0,0,4-.39,24.41,24.41,0,0,0,4.82-1.9,2.21,2.21,0,0,1,1.15-.37c.87.07,1.27,1.06,1.82,1.73,1.22,1.46,3.48,1.4,5.31.91,1.32-.36,2.85-1.24,2.73-2.61a1.14,1.14,0,0,1,0-.55c.12-.33.6-.38.9-.2a2.11,2.11,0,0,1,.64.83,5.89,5.89,0,0,0,3.39,2.93,3.4,3.4,0,0,0,3.93-1.58c.13-.3.24-.64.53-.78.46-.23.95.21,1.29.6a7.6,7.6,0,0,0,4.87,2.74,4.11,4.11,0,0,0,4.36-2.92c.09-.42.41-1.11.94-1,.31.08.7,1.08.92,1.37a10.87,10.87,0,0,0,1.66,1.73A12.4,12.4,0,0,0,383,798.4a12.21,12.21,0,0,0,4.8.52,21.44,21.44,0,0,1,2.49-.49c.79.05,1,.61.07,1a10.45,10.45,0,0,1-7.66,0,18.67,18.67,0,0,1-6.45-4.35,5.69,5.69,0,0,1-5.44,2.82,8.32,8.32,0,0,1-5.56-3,4.59,4.59,0,0,1-4.62,2.2,6.1,6.1,0,0,1-4.29-3,6.45,6.45,0,0,1-10.92-.12,21.66,21.66,0,0,1-7.43,2.7c-2.64.27-5.57-.64-7-2.89-.23-.37-.38-.94,0-1.18S331.57,792.46,331.8,792.7Z"/><path class="cls-3" d="M334.69,812.32c6.57,3.12,12.41-2.55,17.91-5.37a.54.54,0,0,1,.72.21.47.47,0,0,1,.33.49c-.06,1.17.59,1.67,1.72,1.61a5.26,5.26,0,0,0,2.75-1,.55.55,0,0,1,.85.11,3.33,3.33,0,0,0,2.45,2,2.32,2.32,0,0,0,2.4-1.8c.14-.38.79-.59,1-.13,1.1,2.54,4.55,3.42,6.29,1a.53.53,0,0,1,.22-.18.45.45,0,0,1,.68.14.52.52,0,0,1,.11.19c3.1,6.4,11.91,8,18.24,6.38a.54.54,0,0,1,.28,1c-5.43,1.38-12.09.54-16.5-3.11a11.21,11.21,0,0,1-2.68-3.25,4.43,4.43,0,0,1-3.74,1.29,4.87,4.87,0,0,1-3.33-2.07,3.13,3.13,0,0,1-2.84,1.6,4.13,4.13,0,0,1-3.24-2.1c-2,1.16-5.46,1.54-5.72-1.22-2.92,1.57-5.6,3.59-8.65,4.92a11.42,11.42,0,0,1-9.79.15C333.51,813,334.06,812,334.69,812.32Z"/><path class="cls-2" d="M571.27,990.27q0,25.29,0,50.58a111.55,111.55,0,0,1-.68,15.42c-1.28,8.76-5,8.75-6.28,0a112.23,112.23,0,0,1-.68-15.36l0-50.6"/><path class="cls-1" d="M559.91,990.91c-4.17,2.29-8.39,4.6-13,5.83a9.77,9.77,0,0,1-4.88.32,4.26,4.26,0,0,1-3.29-3.28,5.82,5.82,0,0,1,.76-3.21,29.86,29.86,0,0,1,5-7.4,30.21,30.21,0,0,1,3.16-2.93c.87-.71,2.6-2.42,3.74-2.56-2.56.32-5,1.47-7.53,1.7a6.52,6.52,0,0,1-5.39-1.81c-1.86-2.14.66-4.24,2.19-5.8l10.94-11.15a9.27,9.27,0,0,1-9.56-3.22,2.46,2.46,0,0,1-.65-1.78,2.74,2.74,0,0,1,1.39-1.65,50.71,50.71,0,0,1,14.49-6.76,8.67,8.67,0,0,1-7.87-.07,3.2,3.2,0,0,1-1.88-2.2,3.88,3.88,0,0,1,1.16-2.74,169.38,169.38,0,0,1,15.06-16.73,6.69,6.69,0,0,1,2.16-1.59c2.59-1,5.19,1.24,7.15,3.2a81.74,81.74,0,0,0,14.36,11.39,9.93,9.93,0,0,1,2.81,2.24,3,3,0,0,1,.33,3.38,4.18,4.18,0,0,1-2.78,1.46,31.7,31.7,0,0,1-8.13.61,80.48,80.48,0,0,1,12.87,8c1.73,1.31,3.57,3.06,3.37,5.22s-2.32,3.51-4.39,3.67a13.53,13.53,0,0,1-6-1.43q5.37,7,10.47,14.24c1.13,1.61,2.3,3.62,1.5,5.42-.68,1.51-2.53,2.13-4.19,2.12-3.37,0-6.4-2-9.13-4a60.39,60.39,0,0,1,12.34,11.33c1.68,2,3.3,4.79,2.15,7.17-.87,1.8-3,2.59-5,2.83a16.42,16.42,0,0,1-15.47-7.39,4.93,4.93,0,0,1-7.14-1,3.23,3.23,0,0,1-6,.06,5.6,5.6,0,0,1-3.13.67A2.29,2.29,0,0,1,559.91,990.91Z"/><path class="cls-3" d="M542.28,953.89c.42-.55,1.18.22.76.76-1.55,2,.43,3.87,2.18,4.77a9.54,9.54,0,0,0,7.74.69,4.36,4.36,0,0,0,2.59-3.15c.14-.62,1-.44,1.06.14.11,1.68,1,3.61,2.95,3.5s2.47-2,3.67-3.07a.55.55,0,0,1,.91.24c.35,1.84,1.18,4.17,3.16,4.81a3.58,3.58,0,0,0,4.56-3.62.55.55,0,0,1,1-.27c1.24,1.87,3.5,3.59,5.87,3.22a2.53,2.53,0,0,0,2-1.15,7.34,7.34,0,0,0,.47-2.22.55.55,0,0,1,.79-.33c1.23.82,2.13,2,3.37,2.82a9.48,9.48,0,0,0,4.35,1.25,8.07,8.07,0,0,0,3.62-.33,2.48,2.48,0,0,0,1.49-2.58.54.54,0,0,1,1.08,0,3.57,3.57,0,0,1-1.52,3.24,6.74,6.74,0,0,1-3.82.79,12.49,12.49,0,0,1-5-1,16.81,16.81,0,0,1-3.42-2.7,4.5,4.5,0,0,1-.63,1.9,3.77,3.77,0,0,1-2.72,1.43,7,7,0,0,1-6.05-2.7,4.63,4.63,0,0,1-5.28,3.45c-2.3-.42-3.56-2.58-4.16-4.7a14.3,14.3,0,0,1-1.3,1.61,3.67,3.67,0,0,1-6.13-1.76c-1.29,2.08-3.84,2.94-6.36,2.79-2.73-.16-6.28-1.28-7.7-3.83A3.43,3.43,0,0,1,542.28,953.89Z"/><path class="cls-3" d="M549.27,941.5c.54-.43,1.31.33.76.76-.72.58-1.88,1.51-1.79,2.54.06.65.81,1.15,1.45,1.44a9.26,9.26,0,0,0,6.23.32A2.7,2.7,0,0,0,557,946a.94.94,0,0,0,.3-.77,1.1,1.1,0,0,1,0-.18c0-.59,1-.75,1.06-.14a.71.71,0,0,1,0,.14h0c0,.91.37,2.31,1.57,2a2.47,2.47,0,0,0,1.46-2.57.54.54,0,0,1,1-.27,6.2,6.2,0,0,0,.94,1.71,2.39,2.39,0,0,0,1.92.5c1.4-.1,2.14-1.23,2.77-2.35a.54.54,0,0,1,.93,0,4.83,4.83,0,0,0,3.4,2.89,2.6,2.6,0,0,0,2.17-.66,1.34,1.34,0,0,0,0-2,.54.54,0,0,1,.66-.85c.93.53,1.66,1.38,2.64,1.83a9.4,9.4,0,0,0,3.71.64,29.25,29.25,0,0,0,4.08-.16c1.75-.21,5.93-.88,4.67-3.54-.29-.63.64-1.18.94-.55,2.54,5.4-7.59,5.49-10.54,5.3a9.4,9.4,0,0,1-3.4-.75,6.87,6.87,0,0,1-1.27-.85,3,3,0,0,1-2.69,2.61,5.06,5.06,0,0,1-4.83-2.62,4.16,4.16,0,0,1-3.23,2.11,3.52,3.52,0,0,1-2.48-.63,3.14,3.14,0,0,1-.6-.71,3,3,0,0,1-2.15,2,2,2,0,0,1-2.33-1.26c-1.05,1-3.09,1.21-4.36,1.2-1.94,0-5.52-.44-6.11-2.77C546.83,943.69,548.19,942.35,549.27,941.5Z"/><path class="cls-3" d="M538.23,976.08a3.56,3.56,0,0,1,.51.73,4.55,4.55,0,0,0,3.3,2.1,9.67,9.67,0,0,0,4-.4,23.15,23.15,0,0,0,4.81-1.9,2.17,2.17,0,0,1,1.16-.36c.86.06,1.26,1.06,1.82,1.73,1.22,1.45,3.47,1.4,5.31.9,1.32-.35,2.84-1.24,2.72-2.6a1.27,1.27,0,0,1,0-.55.64.64,0,0,1,.91-.2,2.28,2.28,0,0,1,.64.82,5.81,5.81,0,0,0,3.38,2.93,3.39,3.39,0,0,0,3.93-1.58c.14-.29.25-.63.54-.78.46-.22,1,.22,1.29.6a7.51,7.51,0,0,0,4.87,2.74,4.11,4.11,0,0,0,4.36-2.91c.09-.42.41-1.12.94-1,.3.08.7,1.08.91,1.37a10.88,10.88,0,0,0,1.67,1.72,12.17,12.17,0,0,0,4.17,2.33,12.38,12.38,0,0,0,4.8.52,19.53,19.53,0,0,1,2.49-.49c.78,0,1,.6.06,1a10.47,10.47,0,0,1-7.65,0,18.43,18.43,0,0,1-6.46-4.35,5.67,5.67,0,0,1-5.44,2.83,8.36,8.36,0,0,1-5.55-3,4.6,4.6,0,0,1-4.62,2.2,6.17,6.17,0,0,1-4.3-3.05,6.43,6.43,0,0,1-10.91-.13,21.48,21.48,0,0,1-7.43,2.71c-2.64.27-5.57-.64-7-2.89-.23-.37-.38-.94,0-1.19S538,975.85,538.23,976.08Z"/><path class="cls-3" d="M541.11,995.71c6.58,3.11,12.41-2.56,17.92-5.37a.53.53,0,0,1,.72.21.45.45,0,0,1,.32.49c-.05,1.17.59,1.67,1.72,1.6a5.2,5.2,0,0,0,2.76-1,.55.55,0,0,1,.85.11,3.31,3.31,0,0,0,2.44,2,2.35,2.35,0,0,0,2.41-1.8c.14-.38.79-.6,1-.13,1.09,2.54,4.54,3.41,6.28,1a.56.56,0,0,1,.23-.18.57.57,0,0,1,.79.33c3.1,6.39,11.91,8,18.23,6.37a.55.55,0,0,1,.29,1.05c-5.44,1.38-12.09.54-16.5-3.11a11.09,11.09,0,0,1-2.68-3.26,4.42,4.42,0,0,1-3.75,1.29,4.85,4.85,0,0,1-3.33-2.06,3.15,3.15,0,0,1-2.83,1.6,4.14,4.14,0,0,1-3.24-2.11c-2,1.17-5.47,1.55-5.72-1.22-2.93,1.58-5.61,3.6-8.66,4.93a11.4,11.4,0,0,1-9.78.14C539.94,996.35,540.49,995.41,541.11,995.71Z"/><path class="cls-2" d="M59.84,722.08q0,27.67,0,55.36a148.51,148.51,0,0,1-.63,16.87c-1.19,9.58-4.61,9.57-5.79,0a145.17,145.17,0,0,1-.63-16.81l0-55.38"/><path class="cls-1" d="M79.2,735.11c5.61-2.59,9.27-7.17,6.53-14.35C76.08,695.43,71.11,675.6,63.79,653c-1.45-4.49-3.63-9.67-7.38-9.94-4.18-.3-6.77,5.62-8.32,10.63-6.37,20.5-13,40.62-20.12,60.65-1.85,5.17-5.19,13.95-2.52,19.52,3.78,7.89,14.92,5.24,20.8,5C51.48,738.63,69.08,739.77,79.2,735.11Z"/><g class="cls-4"><path class="cls-3" d="M48.42,664.55a.55.55,0,0,0-.67.49,11.35,11.35,0,0,0-.24,3.08c0,.37.23.72.54.7a.65.65,0,0,0,.54-.7,9.89,9.89,0,0,1,0-1.44,1.1,1.1,0,0,1,0-.18v0h0c0-.12,0-.23,0-.35s.08-.48.13-.71A.75.75,0,0,0,48.42,664.55Z"/><path class="cls-3" d="M59.5,664.81a.65.65,0,0,0-.55.7V669c0,.37.25.72.55.7A.65.65,0,0,0,60,669v-3.48C60,665.15,59.79,664.8,59.5,664.81Z"/><path class="cls-3" d="M52.76,687.43a.65.65,0,0,0-.54.7v3.77c0,.36.25.72.54.7a.65.65,0,0,0,.54-.7v-3.77C53.3,687.76,53.05,687.41,52.76,687.43Z"/><path class="cls-3" d="M65.56,688.3a.65.65,0,0,0-.55.7v3.19c0,.36.25.72.55.7a.65.65,0,0,0,.54-.7V689C66.1,688.63,65.85,688.28,65.56,688.3Z"/><path class="cls-3" d="M42.89,704.25a.65.65,0,0,0-.55.7v2.9c0,.36.25.71.55.7a.65.65,0,0,0,.54-.7V705C43.43,704.58,43.18,704.23,42.89,704.25Z"/><path class="cls-3" d="M63.31,713a.64.64,0,0,0-.54.7v4.06c0,.36.25.71.54.69a.64.64,0,0,0,.54-.69v-4.06C63.85,713.28,63.6,712.93,63.31,713Z"/><path class="cls-3" d="M78.13,715.27a.64.64,0,0,0-.55.7v3.48c0,.36.25.71.55.69a.64.64,0,0,0,.54-.69V716C78.67,715.6,78.42,715.25,78.13,715.27Z"/><path class="cls-3" d="M42.44,684a.65.65,0,0,0-.54.7v2c0,.37.24.72.54.7a.65.65,0,0,0,.54-.7v-2C43,684.28,42.73,683.93,42.44,684Z"/><path class="cls-3" d="M33.68,718.17a.64.64,0,0,0-.54.7v4c0,.37.25.72.54.7a.63.63,0,0,0,.54-.7v-4C34.22,718.5,34,718.15,33.68,718.17Z"/><path class="cls-3" d="M49.09,720.8a.55.55,0,0,0-.67.49,41.6,41.6,0,0,0-.24,5.69c0,.9,1.1.91,1.08,0a37.81,37.81,0,0,1,.21-5.32A.78.78,0,0,0,49.09,720.8Z"/><path class="cls-3" d="M73.19,727.15a.65.65,0,0,0-.54.7v2.9c0,.37.25.72.54.7a.64.64,0,0,0,.54-.7v-2.9C73.73,727.49,73.48,727.14,73.19,727.15Z"/><path class="cls-3" d="M72.51,696.71a.65.65,0,0,0-.54.7v4.93a.56.56,0,1,0,1.09,0v-4.93A.65.65,0,0,0,72.51,696.71Z"/><path class="cls-3" d="M53.66,701.64a.65.65,0,0,0-.54.7v2.32c0,.36.25.71.54.7a.65.65,0,0,0,.54-.7v-2.32C54.2,702,54,701.62,53.66,701.64Z"/><path class="cls-3" d="M65.56,673.8c-.32,0-.52.31-.55.7-.05,1-.13,1.94-.22,2.9a.79.79,0,0,0,.16.5.48.48,0,0,0,.38.2.5.5,0,0,0,.38-.2.93.93,0,0,0,.16-.5c.09-1,.17-1.93.23-2.9C66.12,674.14,65.83,673.79,65.56,673.8Z"/><path class="cls-3" d="M37.37,698.86c0-.37-.27-.72-.54-.7s-.52.31-.55.7a34.41,34.41,0,0,0-.22,4.06c0,.36.24.71.54.7a.65.65,0,0,0,.54-.7A32.4,32.4,0,0,1,37.37,698.86Z"/><path class="cls-3" d="M60.62,730.63a.65.65,0,0,0-.54.7,8.27,8.27,0,0,1,0,.86,8.5,8.5,0,0,1-.16,1,.76.76,0,0,0,.38.86.55.55,0,0,0,.66-.49,9.69,9.69,0,0,0,.25-2.22C61.16,731,60.91,730.62,60.62,730.63Z"/><path class="cls-3" d="M39.37,731.44q-.07-.39-.12-.78l0-.18v-.07h0l0-.39c0-.52,0-1,0-1.58,0-.36-.26-.71-.54-.7a.66.66,0,0,0-.54.7,15.85,15.85,0,0,0,.24,3.38c.07.35.4.6.67.49A.76.76,0,0,0,39.37,731.44Z"/><path class="cls-3" d="M64.43,657a.64.64,0,0,0-.54.69v2.61c0,.37.25.72.54.7a.63.63,0,0,0,.54-.7v-2.61C65,657.32,64.73,657,64.43,657Z"/><path class="cls-3" d="M55,650.32a.63.63,0,0,0-.54.7v4.06c0,.36.24.71.54.69a.64.64,0,0,0,.54-.69V651C55.55,650.65,55.3,650.3,55,650.32Z"/><path class="cls-3" d="M54.33,674.67a.65.65,0,0,0-.54.7v2.32c0,.37.25.72.54.7a.65.65,0,0,0,.54-.7v-2.32C54.87,675,54.63,674.66,54.33,674.67Z"/><path class="cls-3" d="M72.29,681.05a.65.65,0,0,0-.54.7v2.61c0,.37.25.72.54.7a.65.65,0,0,0,.54-.7v-2.61C72.83,681.39,72.58,681,72.29,681.05Z"/><path class="cls-3" d="M46.33,739.85c0-.28-.08-.56-.11-.84v-.11a1.36,1.36,0,0,1,0-.2l0-.43c0-.57,0-1.15,0-1.72,0-.36-.25-.71-.54-.7a.65.65,0,0,0-.54.7,22.48,22.48,0,0,0,.24,3.67.55.55,0,0,0,.67.49A.79.79,0,0,0,46.33,739.85Z"/><path class="cls-3" d="M29.34,730.08a.56.56,0,0,0-.67.49,13.58,13.58,0,0,0-.24,2.21c0,.37.25.72.54.7a.65.65,0,0,0,.54-.7c0-.27,0-.55,0-.82s.09-.69.16-1S29.63,730.16,29.34,730.08Z"/><path class="cls-3" d="M80.59,727.44a.65.65,0,0,0-.54.7v1.74c0,.37.25.72.54.7a.64.64,0,0,0,.55-.7v-1.74C81.14,727.78,80.89,727.43,80.59,727.44Z"/><path class="cls-3" d="M63.17,698.45a.64.64,0,0,0-.54.7v4.16c0,.37.25.72.54.7a.65.65,0,0,0,.54-.7v-4.16C63.71,698.78,63.46,698.43,63.17,698.45Z"/><path class="cls-3" d="M72,714.43a.5.5,0,0,0-.38-.2.54.54,0,0,0-.39.2.93.93,0,0,0-.16.5v1.31a.85.85,0,0,0,.16.5.5.5,0,0,0,.39.2.48.48,0,0,0,.38-.2.85.85,0,0,0,.16-.5v-1.31A.85.85,0,0,0,72,714.43Z"/><path class="cls-3" d="M56.25,713.39c0-.9-1.08-.9-1.09,0,0,2.13-.24,4.24-.17,6.36,0,.9,1.12.9,1.09,0C56,717.63,56.24,715.52,56.25,713.39Z"/><path class="cls-3" d="M79.46,703.71a.64.64,0,0,0-.54.7v3.5c0,.37.25.72.54.7a.64.64,0,0,0,.54-.7v-3.5C80,704,79.75,703.69,79.46,703.71Z"/><path class="cls-3" d="M46.85,676.35c0,2,0,4.09-.17,6.14a.63.63,0,0,0,.54.69c.31,0,.51-.32.54-.69.15-2,.16-4.09.17-6.14C47.93,675.45,46.85,675.45,46.85,676.35Z"/><path class="cls-3" d="M59.58,679.42v8.33c0,.9,1.08.9,1.08,0v-8.33C60.66,678.52,59.58,678.52,59.58,679.42Z"/><path class="cls-3" d="M46.2,692.75a.64.64,0,0,0-.54.7v3.06c0,.37.25.72.54.7a.64.64,0,0,0,.54-.7v-3.06C46.74,693.08,46.49,692.73,46.2,692.75Z"/><path class="cls-3" d="M41.8,719.78a42.49,42.49,0,0,1-.32-6.39c0-.9-1.06-.9-1.08,0a43.7,43.7,0,0,0,.36,6.77.53.53,0,0,0,.66.48A.74.74,0,0,0,41.8,719.78Z"/><path class="cls-3" d="M52.86,660.51a.53.53,0,0,0-.38-.21.48.48,0,0,0-.38.21.82.82,0,0,0-.16.49v1.1a.8.8,0,0,0,.16.49.45.45,0,0,0,.76,0,.8.8,0,0,0,.16-.49V661A.82.82,0,0,0,52.86,660.51Z"/><path class="cls-3" d="M58.73,644.34v6.58c0,.9,1.08.9,1.08,0v-6.58C59.81,643.44,58.73,643.44,58.73,644.34Z"/><path class="cls-3" d="M51,645c0-.37-.24-.72-.54-.7a.65.65,0,0,0-.54.7c0,.65,0,1.3,0,2,0,.32,0,.65,0,1a.59.59,0,0,0,0,.14,1.37,1.37,0,0,1,0,.19,4.54,4.54,0,0,1-.09.51.75.75,0,0,0,.38.86.56.56,0,0,0,.67-.49A20.32,20.32,0,0,0,51,645Z"/><path class="cls-3" d="M31.78,709.63a.63.63,0,0,0-.54.7v2.19c0,.36.25.71.54.7a.65.65,0,0,0,.54-.7v-2.19C32.32,710,32.07,709.61,31.78,709.63Z"/></g><path class="cls-5" d="M86.14,728.19a.35.35,0,0,1-.19-.06.6.6,0,0,1-.16-.71,8.93,8.93,0,0,0,.26-5.19,26.77,26.77,0,0,0-1.68-4.75l-.16-.36c-4.84-11.41-8.5-23.75-12-35.7-3.17-10.71-6.46-21.79-10.58-32.13a14.34,14.34,0,0,0-2.94-5.17.64.64,0,0,1-.09-.74.35.35,0,0,1,.57-.11,15.36,15.36,0,0,1,3.18,5.54c4.14,10.39,7.44,21.5,10.62,32.24,3.53,11.91,7.18,24.22,12,35.56l.16.36a28.45,28.45,0,0,1,1.75,5,10.21,10.21,0,0,1-.33,6A.39.39,0,0,1,86.14,728.19Z"/><path class="cls-5" d="M24.6,727.05a.35.35,0,0,1-.14,0,.58.58,0,0,1-.25-.67c2.94-11,6.59-21.83,10.11-32.33.7-2.07,1.39-4.14,2.09-6.22q1.77-5.34,3.56-10.68l3.66-11q1.74-5.25,3.47-10.49c.25-.76.48-1.51.71-2.24,1.42-4.6,2.64-8.59,7.08-10.27.21-.08.44.08.5.36a.56.56,0,0,1-.28.65c-4,1.53-5.15,5.12-6.55,9.65-.22.74-.46,1.49-.71,2.26q-1.73,5.25-3.47,10.49l-3.66,11-3.57,10.69-2.08,6.22C31.55,704.92,27.91,715.76,25,726.7A.44.44,0,0,1,24.6,727.05Z"/><path class="cls-5" d="M36.65,740.28c-3.62,0-7.61-.49-10.25-4.12a.65.65,0,0,1,0-.74.35.35,0,0,1,.58,0c2.88,4,7.74,3.85,11.64,3.75,12.24-.32,37.7-1,45-7.81a.36.36,0,0,1,.57.12.63.63,0,0,1-.09.73c-7.47,7-33.1,7.69-45.42,8C38,740.26,37.33,740.28,36.65,740.28Z"/><path class="cls-2" d="M265,754.63q0,25.29,0,50.58a122.09,122.09,0,0,1-.63,15.41c-1.19,8.76-4.61,8.75-5.79,0a123.34,123.34,0,0,1-.63-15.37l0-50.59"/><path class="cls-1" d="M284.38,767.66c5.62-2.59,9.27-7.17,6.53-14.35C281.26,728,276.29,708.15,269,685.57c-1.46-4.48-3.64-9.67-7.39-9.94-4.18-.3-6.76,5.62-8.32,10.64-6.37,20.49-13,40.62-20.12,60.64-1.85,5.18-5.19,14-2.52,19.53,3.78,7.89,14.92,5.24,20.8,5C256.66,771.19,274.27,772.32,284.38,767.66Z"/><g class="cls-6"><path class="cls-3" d="M253.6,697.1a.56.56,0,0,0-.67.49,11.81,11.81,0,0,0-.24,3.09c0,.36.23.71.54.7a.65.65,0,0,0,.54-.7,11.53,11.53,0,0,1,0-1.44c0-.06,0-.13,0-.19h0v0c0-.11,0-.23,0-.34s.08-.48.14-.72A.77.77,0,0,0,253.6,697.1Z"/><path class="cls-3" d="M264.68,697.37a.65.65,0,0,0-.54.7v3.48c0,.36.24.71.54.7a.65.65,0,0,0,.54-.7v-3.48C265.22,697.7,265,697.35,264.68,697.37Z"/><path class="cls-3" d="M257.94,720a.64.64,0,0,0-.54.69v3.77c0,.37.25.72.54.7a.63.63,0,0,0,.54-.7v-3.77C258.48,720.32,258.24,720,257.94,720Z"/><path class="cls-3" d="M270.74,720.86a.63.63,0,0,0-.54.69v3.19c0,.37.25.72.54.7a.64.64,0,0,0,.54-.7v-3.19C271.28,721.19,271,720.84,270.74,720.86Z"/><path class="cls-3" d="M248.07,736.8a.65.65,0,0,0-.54.7v2.9c0,.37.24.72.54.7a.65.65,0,0,0,.54-.7v-2.9C248.61,737.14,248.36,736.79,248.07,736.8Z"/><path class="cls-3" d="M268.49,745.5a.65.65,0,0,0-.54.7v4.06c0,.37.25.72.54.7a.65.65,0,0,0,.54-.7V746.2C269,745.83,268.78,745.48,268.49,745.5Z"/><path class="cls-3" d="M283.31,747.82a.65.65,0,0,0-.54.7V752c0,.36.24.71.54.7a.65.65,0,0,0,.54-.7v-3.48C283.85,748.15,283.6,747.8,283.31,747.82Z"/><path class="cls-3" d="M247.62,716.51a.64.64,0,0,0-.54.69v2c0,.37.25.72.54.7a.64.64,0,0,0,.54-.7v-2C248.16,716.84,247.91,716.49,247.62,716.51Z"/><path class="cls-3" d="M238.86,750.72a.65.65,0,0,0-.54.7v4.06c0,.36.25.71.54.7a.65.65,0,0,0,.55-.7v-4.06C239.41,751.05,239.16,750.7,238.86,750.72Z"/><path class="cls-3" d="M254.27,753.35a.54.54,0,0,0-.66.49,40.15,40.15,0,0,0-.25,5.7c0,.9,1.1.9,1.08,0a39.46,39.46,0,0,1,.21-5.33A.77.77,0,0,0,254.27,753.35Z"/><path class="cls-3" d="M278.37,759.71a.65.65,0,0,0-.54.7v2.9c0,.36.25.71.54.7a.65.65,0,0,0,.54-.7v-2.9C278.91,760,278.66,759.69,278.37,759.71Z"/><path class="cls-3" d="M277.7,729.26a.65.65,0,0,0-.55.7v4.93a.56.56,0,1,0,1.09,0V730A.65.65,0,0,0,277.7,729.26Z"/><path class="cls-3" d="M258.84,734.19a.65.65,0,0,0-.54.7v2.32c0,.37.25.72.54.7a.65.65,0,0,0,.54-.7v-2.32C259.38,734.53,259.13,734.18,258.84,734.19Z"/><path class="cls-3" d="M270.74,706.36c-.31,0-.52.31-.54.7-.06,1-.14,1.93-.23,2.9a.82.82,0,0,0,.16.49.48.48,0,0,0,.38.2.47.47,0,0,0,.39-.2.91.91,0,0,0,.15-.49c.09-1,.17-1.94.23-2.9C271.3,706.69,271,706.34,270.74,706.36Z"/><path class="cls-3" d="M242.55,731.41a.65.65,0,0,0-.54-.7c-.32,0-.51.31-.54.7a32.4,32.4,0,0,0-.23,4.06c0,.37.24.72.54.7a.65.65,0,0,0,.54-.7A36.7,36.7,0,0,1,242.55,731.41Z"/><path class="cls-3" d="M265.8,763.19a.65.65,0,0,0-.54.7,8.08,8.08,0,0,1-.05.85,6.59,6.59,0,0,1-.16,1,.75.75,0,0,0,.38.86c.29.09.58-.11.67-.49a10.18,10.18,0,0,0,.24-2.21C266.34,763.52,266.09,763.17,265.8,763.19Z"/><path class="cls-3" d="M244.55,764c-.05-.25-.09-.51-.12-.77a1.1,1.1,0,0,1,0-.18V763h0c0-.13,0-.26,0-.39,0-.52,0-1,0-1.57s-.26-.72-.54-.7a.66.66,0,0,0-.54.7,15.18,15.18,0,0,0,.25,3.37c.06.36.39.6.66.49A.76.76,0,0,0,244.55,764Z"/><path class="cls-3" d="M269.62,689.54a.65.65,0,0,0-.55.7v2.61c0,.36.25.71.55.7a.65.65,0,0,0,.54-.7v-2.61C270.16,689.87,269.91,689.52,269.62,689.54Z"/><path class="cls-3" d="M260.19,682.87a.65.65,0,0,0-.54.7v4.06c0,.36.25.72.54.7a.65.65,0,0,0,.54-.7v-4.06C260.73,683.2,260.48,682.85,260.19,682.87Z"/><path class="cls-3" d="M259.51,707.23a.64.64,0,0,0-.54.7v2.32c0,.36.25.71.54.69a.64.64,0,0,0,.55-.69v-2.32C260.06,707.56,259.81,707.21,259.51,707.23Z"/><path class="cls-3" d="M277.47,713.61a.64.64,0,0,0-.54.7v2.6c0,.37.25.72.54.7a.64.64,0,0,0,.54-.7v-2.6C278,713.94,277.76,713.59,277.47,713.61Z"/><path class="cls-3" d="M251.51,772.4c0-.28-.08-.56-.11-.84v-.1c0-.07,0-.14,0-.2l0-.44c0-.57-.05-1.14,0-1.71,0-.37-.25-.72-.54-.7s-.53.3-.54.7a22.36,22.36,0,0,0,.24,3.66c.06.36.41.6.67.49A.76.76,0,0,0,251.51,772.4Z"/><path class="cls-3" d="M234.52,762.63a.56.56,0,0,0-.67.49,13.71,13.71,0,0,0-.24,2.22c0,.36.26.71.54.7a.65.65,0,0,0,.54-.7c0-.28,0-.55.06-.83a9,9,0,0,1,.15-1A.76.76,0,0,0,234.52,762.63Z"/><path class="cls-3" d="M285.78,760a.65.65,0,0,0-.55.7v1.74c0,.36.25.71.55.7a.65.65,0,0,0,.54-.7V760.7C286.32,760.33,286.07,760,285.78,760Z"/><path class="cls-3" d="M268.35,731a.65.65,0,0,0-.54.7v4.16c0,.37.25.72.54.7a.63.63,0,0,0,.54-.7V731.7C268.89,731.33,268.64,731,268.35,731Z"/><path class="cls-3" d="M277.22,747a.53.53,0,0,0-.38-.21.51.51,0,0,0-.39.21.89.89,0,0,0-.15.49v1.32a.86.86,0,0,0,.15.49.55.55,0,0,0,.39.21.5.5,0,0,0,.38-.21.8.8,0,0,0,.16-.49v-1.32A.82.82,0,0,0,277.22,747Z"/><path class="cls-3" d="M261.43,746c0-.9-1.08-.9-1.09,0,0,2.12-.24,4.23-.17,6.36,0,.89,1.12.9,1.09,0C261.18,750.18,261.42,748.07,261.43,746Z"/><path class="cls-3" d="M284.64,736.26a.65.65,0,0,0-.54.7v3.51c0,.36.25.71.54.7a.65.65,0,0,0,.54-.7V737C285.18,736.6,284.93,736.24,284.64,736.26Z"/><path class="cls-3" d="M252,708.9c0,2.05,0,4.1-.17,6.14a.64.64,0,0,0,.54.7c.32,0,.51-.32.54-.7.15-2,.17-4.09.17-6.14C253.11,708,252,708,252,708.9Z"/><path class="cls-3" d="M264.76,712v8.33c0,.9,1.08.9,1.08,0V712C265.84,711.07,264.76,711.07,264.76,712Z"/><path class="cls-3" d="M251.38,725.3a.65.65,0,0,0-.54.7v3.07c0,.36.25.71.54.7a.65.65,0,0,0,.54-.7V726C251.92,725.63,251.67,725.28,251.38,725.3Z"/><path class="cls-3" d="M247,752.34a44,44,0,0,1-.32-6.39c0-.9-1.06-.9-1.08,0a46.19,46.19,0,0,0,.36,6.76.55.55,0,0,0,.67.49A.76.76,0,0,0,247,752.34Z"/><path class="cls-3" d="M258,693.06a.47.47,0,0,0-.38-.2.52.52,0,0,0-.38.2.85.85,0,0,0-.16.5v1.09a.85.85,0,0,0,.16.5.48.48,0,0,0,.38.2.5.5,0,0,0,.38-.2.85.85,0,0,0,.16-.5v-1.09A.85.85,0,0,0,258,693.06Z"/><path class="cls-3" d="M263.91,676.9v6.57c0,.9,1.08.9,1.08,0V676.9C265,676,263.91,676,263.91,676.9Z"/><path class="cls-3" d="M256.17,677.55c0-.36-.25-.71-.54-.69a.64.64,0,0,0-.55.69c0,.65,0,1.3,0,2,0,.33,0,.65,0,1a.68.68,0,0,1,0,.14,1.11,1.11,0,0,1,0,.19,3.86,3.86,0,0,1-.09.51.74.74,0,0,0,.38.86.55.55,0,0,0,.67-.48A21.17,21.17,0,0,0,256.17,677.55Z"/><path class="cls-3" d="M237,742.18a.65.65,0,0,0-.54.7v2.19c0,.37.25.72.54.7a.65.65,0,0,0,.54-.7v-2.19C237.5,742.51,237.25,742.16,237,742.18Z"/></g><path class="cls-5" d="M291.33,760.75a.36.36,0,0,1-.2-.06A.62.62,0,0,1,291,760a8.85,8.85,0,0,0,.26-5.19,27.16,27.16,0,0,0-1.68-4.76l-.16-.36c-4.84-11.4-8.5-23.75-12-35.69-3.17-10.71-6.46-21.79-10.58-32.14a14.34,14.34,0,0,0-2.94-5.17.63.63,0,0,1-.09-.73.35.35,0,0,1,.57-.11,15.23,15.23,0,0,1,3.18,5.53c4.15,10.4,7.44,21.5,10.62,32.24,3.53,11.91,7.18,24.23,12,35.57l.16.36a27.82,27.82,0,0,1,1.75,5,10.12,10.12,0,0,1-.33,6A.4.4,0,0,1,291.33,760.75Z"/><path class="cls-5" d="M229.78,759.6l-.14,0a.59.59,0,0,1-.25-.67c3-11,6.59-21.83,10.11-32.33q1-3.12,2.09-6.22,1.77-5.36,3.56-10.69t3.66-11q1.75-5.24,3.47-10.48c.25-.76.49-1.51.71-2.24,1.42-4.61,2.64-8.59,7.08-10.27.21-.09.44.07.5.35a.56.56,0,0,1-.27.65c-4.06,1.54-5.16,5.12-6.56,9.66-.22.73-.46,1.49-.71,2.26q-1.72,5.25-3.47,10.48l-3.66,11-3.57,10.69c-.69,2.08-1.38,4.15-2.08,6.23-3.52,10.48-7.16,21.32-10.09,32.25A.42.42,0,0,1,229.78,759.6Z"/><path class="cls-5" d="M241.83,772.83c-3.62,0-7.61-.49-10.24-4.12a.63.63,0,0,1,0-.74.35.35,0,0,1,.58,0c2.88,4,7.74,3.86,11.64,3.76,12.24-.32,37.7-1,45-7.81a.35.35,0,0,1,.57.11.64.64,0,0,1-.09.74c-7.47,7-33.1,7.69-45.42,8C243.19,772.81,242.52,772.83,241.83,772.83Z"/><path class="cls-2" d="M467.2,882l0,61.21a178.88,178.88,0,0,1-.62,18.66c-1.19,10.6-4.61,10.59-5.79,0a177.49,177.49,0,0,1-.63-18.59l0-61.24"/><path class="cls-1" d="M486.56,895.05c5.61-2.59,9.27-7.17,6.53-14.35-9.65-25.33-14.63-45.16-21.94-67.74-1.45-4.48-3.63-9.67-7.38-9.94-4.18-.3-6.77,5.62-8.33,10.64-6.36,20.49-13,40.62-20.12,60.64-1.85,5.18-5.18,14-2.51,19.52,3.78,7.89,14.91,5.25,20.79,5C458.84,898.57,476.44,899.71,486.56,895.05Z"/><g class="cls-7"><path class="cls-3" d="M455.78,824.49a.55.55,0,0,0-.67.49,11.4,11.4,0,0,0-.24,3.09c0,.36.23.71.54.69a.64.64,0,0,0,.54-.69,9.89,9.89,0,0,1,0-1.44c0-.07,0-.13,0-.19h0v0c0-.11,0-.23,0-.34s.08-.48.13-.72A.75.75,0,0,0,455.78,824.49Z"/><path class="cls-3" d="M466.85,824.76a.64.64,0,0,0-.54.7v3.48c0,.36.25.71.54.69a.64.64,0,0,0,.55-.69v-3.48C467.4,825.09,467.15,824.74,466.85,824.76Z"/><path class="cls-3" d="M460.12,847.37a.65.65,0,0,0-.54.7v3.77c0,.37.25.72.54.7a.65.65,0,0,0,.54-.7v-3.77C460.66,847.71,460.41,847.36,460.12,847.37Z"/><path class="cls-3" d="M472.91,848.24a.65.65,0,0,0-.54.7v3.19c0,.37.25.72.54.7a.65.65,0,0,0,.55-.7v-3.19C473.46,848.58,473.21,848.23,472.91,848.24Z"/><path class="cls-3" d="M450.24,864.19a.65.65,0,0,0-.54.7v2.9c0,.37.25.72.54.7a.65.65,0,0,0,.55-.7v-2.9C450.79,864.52,450.54,864.17,450.24,864.19Z"/><path class="cls-3" d="M470.67,872.89a.65.65,0,0,0-.54.7v4.06c0,.36.25.71.54.7a.65.65,0,0,0,.54-.7v-4.06C471.21,873.22,471,872.87,470.67,872.89Z"/><path class="cls-3" d="M485.48,875.21a.65.65,0,0,0-.54.7v3.48c0,.36.25.71.54.7a.65.65,0,0,0,.55-.7v-3.48C486,875.54,485.78,875.19,485.48,875.21Z"/><path class="cls-3" d="M449.8,843.89a.65.65,0,0,0-.55.7v2c0,.37.25.72.55.7a.65.65,0,0,0,.54-.7v-2C450.34,844.23,450.09,843.88,449.8,843.89Z"/><path class="cls-3" d="M441,878.11a.65.65,0,0,0-.54.7v4.06c0,.36.25.71.54.7a.65.65,0,0,0,.54-.7v-4.06C441.58,878.44,441.33,878.09,441,878.11Z"/><path class="cls-3" d="M456.45,880.74a.55.55,0,0,0-.67.49,40.14,40.14,0,0,0-.24,5.7c0,.89,1.1.9,1.08,0a37.89,37.89,0,0,1,.21-5.33A.78.78,0,0,0,456.45,880.74Z"/><path class="cls-3" d="M480.55,887.1a.63.63,0,0,0-.54.7v2.9c0,.36.24.71.54.69a.64.64,0,0,0,.54-.69v-2.9C481.09,887.43,480.84,887.08,480.55,887.1Z"/><path class="cls-3" d="M479.87,856.65a.65.65,0,0,0-.54.7v4.93a.65.65,0,0,0,.54.7.64.64,0,0,0,.54-.7v-4.93A.64.64,0,0,0,479.87,856.65Z"/><path class="cls-3" d="M461,861.58a.65.65,0,0,0-.54.7v2.32c0,.37.25.72.54.7a.65.65,0,0,0,.54-.7v-2.32C461.56,861.91,461.31,861.56,461,861.58Z"/><path class="cls-3" d="M472.91,833.75c-.31,0-.51.3-.54.69-.06,1-.13,1.94-.22,2.9a.77.77,0,0,0,.16.5.48.48,0,0,0,.38.2.44.44,0,0,0,.38-.2.93.93,0,0,0,.16-.5c.09-1,.17-1.93.23-2.9C473.48,834.08,473.19,833.73,472.91,833.75Z"/><path class="cls-3" d="M444.72,858.8a.64.64,0,0,0-.54-.7c-.31,0-.51.31-.54.7a34.41,34.41,0,0,0-.22,4.06c0,.36.24.72.54.7a.65.65,0,0,0,.54-.7A34.41,34.41,0,0,1,444.72,858.8Z"/><path class="cls-3" d="M468,890.58a.63.63,0,0,0-.54.7c0,.28,0,.57-.05.85s-.09.66-.16,1a.75.75,0,0,0,.38.86.55.55,0,0,0,.66-.49,10.26,10.26,0,0,0,.25-2.21C468.52,890.91,468.27,890.56,468,890.58Z"/><path class="cls-3" d="M446.73,891.38c-.05-.26-.09-.51-.13-.77a1.1,1.1,0,0,0,0-.18v-.08h0l0-.39c0-.52,0-1.05,0-1.57s-.26-.72-.54-.7-.53.3-.54.7a15.18,15.18,0,0,0,.24,3.37c.07.36.4.6.67.49A.76.76,0,0,0,446.73,891.38Z"/><path class="cls-3" d="M471.79,816.93a.65.65,0,0,0-.54.7v2.61c0,.36.25.71.54.7a.65.65,0,0,0,.54-.7v-2.61C472.33,817.26,472.08,816.91,471.79,816.93Z"/><path class="cls-3" d="M462.37,810.26a.65.65,0,0,0-.55.7V815c0,.36.25.71.55.7a.65.65,0,0,0,.54-.7V811C462.91,810.59,462.66,810.24,462.37,810.26Z"/><path class="cls-3" d="M461.69,834.62a.64.64,0,0,0-.54.69v2.32c0,.37.25.72.54.7a.64.64,0,0,0,.54-.7v-2.32C462.23,835,462,834.6,461.69,834.62Z"/><path class="cls-3" d="M479.65,841a.65.65,0,0,0-.54.7v2.61c0,.37.25.72.54.7a.65.65,0,0,0,.54-.7v-2.61C480.19,841.33,479.94,841,479.65,841Z"/><path class="cls-3" d="M453.68,899.79c0-.28-.07-.56-.1-.84l0-.11c0-.06,0-.13,0-.2s0-.29,0-.43c0-.57,0-1.14,0-1.71,0-.37-.25-.72-.54-.7a.63.63,0,0,0-.54.7,21.37,21.37,0,0,0,.24,3.66.54.54,0,0,0,.67.49A.77.77,0,0,0,453.68,899.79Z"/><path class="cls-3" d="M436.7,890a.55.55,0,0,0-.67.49,13.59,13.59,0,0,0-.24,2.22c0,.36.25.71.54.69a.64.64,0,0,0,.54-.69c0-.28,0-.56.05-.83s.09-.68.15-1A.75.75,0,0,0,436.7,890Z"/><path class="cls-3" d="M488,887.39a.64.64,0,0,0-.54.7v1.74c0,.36.25.71.54.69a.63.63,0,0,0,.54-.69v-1.74C488.49,887.72,488.25,887.37,488,887.39Z"/><path class="cls-3" d="M470.53,858.39a.65.65,0,0,0-.54.7v4.16c0,.37.25.72.54.7a.65.65,0,0,0,.54-.7v-4.16C471.07,858.72,470.82,858.37,470.53,858.39Z"/><path class="cls-3" d="M479.4,874.38a.51.51,0,0,0-.39-.21.5.5,0,0,0-.38.21.8.8,0,0,0-.16.49v1.32a.82.82,0,0,0,.16.49.55.55,0,0,0,.38.21.51.51,0,0,0,.39-.21.89.89,0,0,0,.16-.49v-1.32A.87.87,0,0,0,479.4,874.38Z"/><path class="cls-3" d="M463.6,873.34c0-.9-1.07-.9-1.08,0,0,2.12-.24,4.23-.17,6.35,0,.9,1.12.9,1.08,0C463.36,877.57,463.6,875.46,463.6,873.34Z"/><path class="cls-3" d="M486.82,863.65a.65.65,0,0,0-.54.7v3.51c0,.36.25.71.54.7a.65.65,0,0,0,.54-.7v-3.51C487.36,864,487.11,863.63,486.82,863.65Z"/><path class="cls-3" d="M454.21,836.29c0,2.05,0,4.1-.17,6.14a.65.65,0,0,0,.54.7c.31,0,.51-.32.54-.7.15-2,.16-4.09.17-6.14C455.29,835.39,454.21,835.39,454.21,836.29Z"/><path class="cls-3" d="M466.93,839.36v8.33c0,.9,1.09.9,1.09,0v-8.33C468,838.46,466.93,838.46,466.93,839.36Z"/><path class="cls-3" d="M453.56,852.69a.65.65,0,0,0-.54.7v3.07c0,.36.25.71.54.7a.65.65,0,0,0,.54-.7v-3.07C454.1,853,453.85,852.67,453.56,852.69Z"/><path class="cls-3" d="M449.16,879.73a42.62,42.62,0,0,1-.32-6.39c0-.9-1.06-.9-1.08,0a43.57,43.57,0,0,0,.36,6.76.55.55,0,0,0,.66.49A.76.76,0,0,0,449.16,879.73Z"/><path class="cls-3" d="M460.22,820.45a.48.48,0,0,0-.38-.2.44.44,0,0,0-.38.2.85.85,0,0,0-.16.5V822a.85.85,0,0,0,.16.5.47.47,0,0,0,.38.2.52.52,0,0,0,.38-.2.85.85,0,0,0,.16-.5V821A.85.85,0,0,0,460.22,820.45Z"/><path class="cls-3" d="M466.09,804.29v6.57c0,.9,1.08.9,1.08,0v-6.57C467.17,803.39,466.09,803.38,466.09,804.29Z"/><path class="cls-3" d="M458.34,804.94c0-.36-.25-.71-.54-.7a.65.65,0,0,0-.54.7c0,.65,0,1.3,0,1.95,0,.32,0,.65,0,1,0,0,0,.12,0,.14s0,.13,0,.19l-.09.51a.74.74,0,0,0,.38.86.54.54,0,0,0,.66-.49A20.29,20.29,0,0,0,458.34,804.94Z"/><path class="cls-3" d="M439.14,869.57a.65.65,0,0,0-.55.7v2.19c0,.37.25.72.55.7a.65.65,0,0,0,.54-.7v-2.19C439.68,869.9,439.43,869.55,439.14,869.57Z"/></g><path class="cls-5" d="M493.5,888.14a.3.3,0,0,1-.19-.07.59.59,0,0,1-.16-.71,8.9,8.9,0,0,0,.25-5.18,26.37,26.37,0,0,0-1.68-4.76l-.15-.36c-4.84-11.4-8.5-23.75-12-35.69-3.18-10.72-6.46-21.79-10.58-32.14a14.64,14.64,0,0,0-2.94-5.17.63.63,0,0,1-.09-.73.35.35,0,0,1,.57-.12,15.36,15.36,0,0,1,3.18,5.54c4.14,10.4,7.43,21.5,10.62,32.24,3.53,11.91,7.18,24.22,12,35.56l.16.36a28.74,28.74,0,0,1,1.75,5,10.2,10.2,0,0,1-.33,6A.4.4,0,0,1,493.5,888.14Z"/><path class="cls-5" d="M432,887l-.13,0a.57.57,0,0,1-.25-.66c2.94-11,6.59-21.83,10.11-32.33q1.05-3.12,2.08-6.22l3.57-10.69,3.66-11q1.74-5.24,3.47-10.49c.25-.76.48-1.5.71-2.23,1.42-4.61,2.64-8.59,7.07-10.28.22-.08.44.08.51.36a.56.56,0,0,1-.28.65c-4.05,1.54-5.15,5.12-6.55,9.65-.23.74-.46,1.5-.71,2.26q-1.72,5.26-3.47,10.49l-3.66,11-3.57,10.69-2.08,6.22c-3.52,10.49-7.16,21.32-10.09,32.26A.43.43,0,0,1,432,887Z"/><path class="cls-5" d="M444,900.22c-3.61,0-7.6-.49-10.24-4.12a.65.65,0,0,1,0-.74.35.35,0,0,1,.58,0c2.88,4,7.73,3.85,11.64,3.76,12.24-.32,37.7-1,45-7.81a.35.35,0,0,1,.57.11.63.63,0,0,1-.09.73c-7.47,7-33.11,7.69-45.43,8C445.37,900.2,444.69,900.22,444,900.22Z"/><path class="cls-2" d="M675.38,1061.8q0,17.52,0,35a58.91,58.91,0,0,1-.63,10.69c-1.18,6.07-4.61,6.06-5.79,0a58.55,58.55,0,0,1-.62-10.65q0-17.54,0-35.07"/><path class="cls-1" d="M694.75,1074.82c5.61-2.59,9.26-7.17,6.52-14.35-9.65-25.33-14.62-45.16-21.93-67.74-1.45-4.48-3.63-9.67-7.39-9.94-4.17-.3-6.76,5.62-8.32,10.64-6.37,20.49-13,40.62-20.12,60.64-1.85,5.18-5.18,14-2.52,19.53,3.79,7.89,14.92,5.24,20.8,5C667,1078.35,684.63,1079.49,694.75,1074.82Z"/><g class="cls-8"><path class="cls-3" d="M664,1004.26a.55.55,0,0,0-.66.49,11.4,11.4,0,0,0-.25,3.09c0,.36.24.71.54.7a.64.64,0,0,0,.54-.7,13.83,13.83,0,0,1,0-1.44c0-.06,0-.13,0-.19h0v0c0-.11,0-.23.05-.34s.08-.48.13-.72A.77.77,0,0,0,664,1004.26Z"/><path class="cls-3" d="M675,1004.53a.65.65,0,0,0-.54.7v3.48c0,.36.25.71.54.7a.65.65,0,0,0,.54-.7v-3.48C675.58,1004.86,675.33,1004.51,675,1004.53Z"/><path class="cls-3" d="M668.31,1027.15a.63.63,0,0,0-.54.7v3.76c0,.37.24.72.54.7a.64.64,0,0,0,.54-.7v-3.76C668.85,1027.48,668.6,1027.13,668.31,1027.15Z"/><path class="cls-3" d="M681.1,1028a.64.64,0,0,0-.54.69v3.19c0,.37.25.72.54.7a.64.64,0,0,0,.54-.7v-3.19C681.64,1028.35,681.39,1028,681.1,1028Z"/><path class="cls-3" d="M658.43,1044a.65.65,0,0,0-.54.7v2.9c0,.37.25.72.54.7a.65.65,0,0,0,.54-.7v-2.9C659,1044.3,658.72,1044,658.43,1044Z"/><path class="cls-3" d="M678.86,1052.66a.65.65,0,0,0-.55.7v4.06c0,.37.25.72.55.7a.65.65,0,0,0,.54-.7v-4.06C679.4,1053,679.15,1052.65,678.86,1052.66Z"/><path class="cls-3" d="M693.67,1055a.65.65,0,0,0-.54.7v3.48c0,.37.25.72.54.7a.65.65,0,0,0,.54-.7v-3.48C694.21,1055.32,694,1055,693.67,1055Z"/><path class="cls-3" d="M658,1023.67a.64.64,0,0,0-.54.7v2c0,.36.25.71.54.69a.64.64,0,0,0,.54-.69v-2C658.52,1024,658.27,1023.65,658,1023.67Z"/><path class="cls-3" d="M649.23,1057.88a.65.65,0,0,0-.54.7v4.06c0,.37.25.72.54.7a.65.65,0,0,0,.54-.7v-4.06C649.77,1058.21,649.52,1057.86,649.23,1057.88Z"/><path class="cls-3" d="M664.63,1060.52a.53.53,0,0,0-.66.48,41.68,41.68,0,0,0-.25,5.7c0,.9,1.1.9,1.09,0a37.69,37.69,0,0,1,.2-5.32A.74.74,0,0,0,664.63,1060.52Z"/><path class="cls-3" d="M688.73,1066.87a.65.65,0,0,0-.54.7v2.9c0,.36.25.71.54.7a.65.65,0,0,0,.54-.7v-2.9C689.27,1067.2,689,1066.85,688.73,1066.87Z"/><path class="cls-3" d="M688.06,1036.42a.64.64,0,0,0-.54.7v4.93a.56.56,0,1,0,1.08,0v-4.93C688.6,1036.75,688.35,1036.42,688.06,1036.42Z"/><path class="cls-3" d="M669.2,1041.35a.65.65,0,0,0-.54.7v2.32c0,.37.25.72.54.7a.65.65,0,0,0,.54-.7v-2.32C669.74,1041.69,669.5,1041.34,669.2,1041.35Z"/><path class="cls-3" d="M681.1,1013.52c-.31,0-.52.31-.54.7-.06,1-.14,1.93-.23,2.9a.89.89,0,0,0,.16.49.55.55,0,0,0,.39.21.5.5,0,0,0,.38-.21,1,1,0,0,0,.16-.49c.09-1,.16-1.93.22-2.9C681.66,1013.85,681.38,1013.5,681.1,1013.52Z"/><path class="cls-3" d="M652.91,1038.57a.65.65,0,0,0-.54-.7c-.32,0-.51.31-.54.7a36.7,36.7,0,0,0-.23,4.06c0,.37.24.72.55.7a.65.65,0,0,0,.54-.7A34.41,34.41,0,0,1,652.91,1038.57Z"/><path class="cls-3" d="M676.16,1070.35a.65.65,0,0,0-.54.7c0,.28,0,.57,0,.85s-.09.67-.16,1a.75.75,0,0,0,.37.86.55.55,0,0,0,.67-.49,10.18,10.18,0,0,0,.24-2.21C676.7,1070.68,676.45,1070.33,676.16,1070.35Z"/><path class="cls-3" d="M654.91,1071.15c0-.25-.09-.51-.12-.77a1.1,1.1,0,0,1,0-.18v-.08h0l0-.39a13.91,13.91,0,0,1,0-1.58c0-.37-.26-.72-.54-.7a.66.66,0,0,0-.55.7,15.8,15.8,0,0,0,.25,3.37c.06.36.39.61.66.49A.76.76,0,0,0,654.91,1071.15Z"/><path class="cls-3" d="M680,996.7a.65.65,0,0,0-.54.7V1000c0,.36.25.72.54.7a.65.65,0,0,0,.54-.7V997.4C680.52,997,680.27,996.68,680,996.7Z"/><path class="cls-3" d="M670.55,990a.65.65,0,0,0-.54.7v4.06c0,.37.25.72.54.7a.65.65,0,0,0,.54-.7v-4.06C671.09,990.37,670.84,990,670.55,990Z"/><path class="cls-3" d="M669.88,1014.39a.65.65,0,0,0-.54.7v2.32c0,.36.25.71.54.7a.65.65,0,0,0,.54-.7v-2.32C670.42,1014.72,670.17,1014.37,669.88,1014.39Z"/><path class="cls-3" d="M687.83,1020.77a.64.64,0,0,0-.54.7v2.61c0,.36.25.71.54.69a.63.63,0,0,0,.54-.69v-2.61C688.37,1021.1,688.13,1020.75,687.83,1020.77Z"/><path class="cls-3" d="M661.87,1079.56c0-.28-.08-.56-.11-.84v-.1c0-.07,0-.14,0-.2l0-.44c0-.57-.05-1.14,0-1.71,0-.37-.25-.72-.54-.7a.65.65,0,0,0-.54.7,22.29,22.29,0,0,0,.25,3.66c0,.36.4.6.66.49A.75.75,0,0,0,661.87,1079.56Z"/><path class="cls-3" d="M644.88,1069.79a.55.55,0,0,0-.66.49,13.72,13.72,0,0,0-.25,2.22c0,.36.26.71.54.7a.65.65,0,0,0,.54-.7c0-.28,0-.55.06-.83s.08-.68.15-1A.76.76,0,0,0,644.88,1069.79Z"/><path class="cls-3" d="M696.14,1067.16a.65.65,0,0,0-.54.7v1.74c0,.36.25.71.54.7a.65.65,0,0,0,.54-.7v-1.74C696.68,1067.49,696.43,1067.14,696.14,1067.16Z"/><path class="cls-3" d="M678.72,1038.16a.65.65,0,0,0-.55.7V1043c0,.36.25.71.55.69a.64.64,0,0,0,.54-.69v-4.17C679.26,1038.49,679,1038.14,678.72,1038.16Z"/><path class="cls-3" d="M687.58,1054.15a.53.53,0,0,0-.38-.21.48.48,0,0,0-.38.21.82.82,0,0,0-.16.49V1056a.8.8,0,0,0,.16.49.45.45,0,0,0,.76,0,.8.8,0,0,0,.16-.49v-1.32A.82.82,0,0,0,687.58,1054.15Z"/><path class="cls-3" d="M671.79,1053.11c0-.9-1.08-.9-1.08,0,0,2.12-.24,4.23-.17,6.36,0,.89,1.11.9,1.08,0C671.55,1057.34,671.78,1055.23,671.79,1053.11Z"/><path class="cls-3" d="M695,1043.42a.65.65,0,0,0-.55.7v3.51c0,.36.25.71.55.7a.65.65,0,0,0,.54-.7v-3.51C695.55,1043.76,695.3,1043.41,695,1043.42Z"/><path class="cls-3" d="M662.39,1016.06c0,2.05,0,4.1-.17,6.14a.65.65,0,0,0,.54.7c.32,0,.52-.32.54-.7.15-2,.17-4.09.17-6.14C663.48,1015.16,662.4,1015.16,662.39,1016.06Z"/><path class="cls-3" d="M675.12,1019.13v8.33c0,.9,1.08.9,1.08,0v-8.33C676.2,1018.23,675.12,1018.23,675.12,1019.13Z"/><path class="cls-3" d="M661.75,1032.46a.65.65,0,0,0-.55.7v3.07c0,.37.25.72.55.7a.65.65,0,0,0,.54-.7v-3.07C662.29,1032.8,662,1032.45,661.75,1032.46Z"/><path class="cls-3" d="M657.35,1059.5a41.27,41.27,0,0,1-.32-6.39c0-.9-1.07-.9-1.09,0a46.19,46.19,0,0,0,.36,6.76.55.55,0,0,0,.67.49A.77.77,0,0,0,657.35,1059.5Z"/><path class="cls-3" d="M668.41,1000.22a.5.5,0,0,0-.39-.2.52.52,0,0,0-.38.2.85.85,0,0,0-.16.5v1.09a.85.85,0,0,0,.16.5.47.47,0,0,0,.77,0,.93.93,0,0,0,.16-.5v-1.09A.93.93,0,0,0,668.41,1000.22Z"/><path class="cls-3" d="M674.27,984.06v6.57c0,.9,1.08.9,1.08,0v-6.57C675.35,983.16,674.27,983.16,674.27,984.06Z"/><path class="cls-3" d="M666.53,984.72c0-.37-.25-.72-.54-.7a.63.63,0,0,0-.54.7c0,.64,0,1.29,0,1.94,0,.33,0,.65,0,1,0,0,0,.12,0,.14l0,.19c0,.18,0,.35-.08.52a.74.74,0,0,0,.37.85.54.54,0,0,0,.67-.48A21.1,21.1,0,0,0,666.53,984.72Z"/><path class="cls-3" d="M647.32,1049.34a.65.65,0,0,0-.54.7v2.19c0,.37.25.72.54.7a.65.65,0,0,0,.54-.7V1050C647.86,1049.67,647.61,1049.32,647.32,1049.34Z"/></g><path class="cls-5" d="M701.69,1067.91a.33.33,0,0,1-.19-.06.6.6,0,0,1-.17-.71,8.85,8.85,0,0,0,.26-5.19,27.16,27.16,0,0,0-1.68-4.76l-.15-.36c-4.84-11.4-8.5-23.75-12-35.69-3.18-10.71-6.46-21.79-10.59-32.13a14.39,14.39,0,0,0-2.94-5.18.61.61,0,0,1-.08-.73.34.34,0,0,1,.56-.11,15.21,15.21,0,0,1,3.19,5.54c4.14,10.39,7.43,21.5,10.61,32.23,3.53,11.91,7.19,24.23,12,35.57l.15.36a27.82,27.82,0,0,1,1.75,5,10.21,10.21,0,0,1-.32,6A.42.42,0,0,1,701.69,1067.91Z"/><path class="cls-5" d="M640.14,1066.76a.3.3,0,0,1-.13,0,.58.58,0,0,1-.25-.67c2.94-11,6.58-21.83,10.11-32.33.69-2.08,1.39-4.15,2.08-6.22l3.57-10.69,3.66-11q1.74-5.24,3.47-10.48c.25-.76.48-1.51.7-2.24,1.42-4.61,2.65-8.59,7.08-10.27.21-.09.44.07.5.35a.55.55,0,0,1-.27.65c-4.06,1.54-5.16,5.12-6.55,9.66-.23.73-.46,1.49-.72,2.26q-1.73,5.25-3.47,10.49l-3.66,11-3.57,10.68c-.69,2.08-1.38,4.15-2.08,6.23-3.52,10.48-7.15,21.32-10.09,32.25A.41.41,0,0,1,640.14,1066.76Z"/><path class="cls-5" d="M652.19,1080c-3.62,0-7.61-.49-10.24-4.12a.63.63,0,0,1,0-.74.34.34,0,0,1,.57,0c2.89,4,7.74,3.85,11.64,3.75,12.24-.32,37.7-1,45-7.81a.35.35,0,0,1,.56.11.63.63,0,0,1-.09.74c-7.46,7-33.1,7.69-45.42,8C653.55,1080,652.88,1080,652.19,1080Z"/><path class="cls-2" d="M1748.06,738.35q0,25.29,0,50.57a113.13,113.13,0,0,0,.68,15.42c1.29,8.76,5,8.75,6.28,0a112.46,112.46,0,0,0,.68-15.37l0-50.6"/><path class="cls-1" d="M1759.43,739c4.16,2.28,8.38,4.59,13,5.82a9.77,9.77,0,0,0,4.88.32,4.26,4.26,0,0,0,3.29-3.28,5.84,5.84,0,0,0-.76-3.21,29.81,29.81,0,0,0-5-7.39,29.16,29.16,0,0,0-3.15-2.94c-.88-.7-2.61-2.41-3.74-2.56,2.55.32,4.95,1.47,7.52,1.7a6.48,6.48,0,0,0,5.39-1.8c1.86-2.14-.65-4.25-2.19-5.81l-10.94-11.15a9.27,9.27,0,0,0,9.56-3.21,2.45,2.45,0,0,0,.65-1.79,2.73,2.73,0,0,0-1.38-1.65,50.9,50.9,0,0,0-14.5-6.76,8.67,8.67,0,0,0,7.87-.06,3.21,3.21,0,0,0,1.88-2.21,3.87,3.87,0,0,0-1.15-2.74,171.91,171.91,0,0,0-15.07-16.73,7,7,0,0,0-2.16-1.59c-2.58-1-5.19,1.24-7.15,3.2a80.46,80.46,0,0,1-14.36,11.39,9.61,9.61,0,0,0-2.8,2.25,3,3,0,0,0-.34,3.37,4.18,4.18,0,0,0,2.78,1.46,31.26,31.26,0,0,0,8.13.61,81.66,81.66,0,0,0-12.87,8c-1.73,1.31-3.57,3.06-3.37,5.22s2.32,3.51,4.39,3.67a13.36,13.36,0,0,0,6-1.43q-5.37,7-10.46,14.24c-1.14,1.61-2.31,3.63-1.5,5.42.68,1.51,2.53,2.14,4.18,2.12,3.38,0,6.4-2,9.13-4a60.08,60.08,0,0,0-12.34,11.33c-1.68,2-3.3,4.78-2.15,7.16.87,1.8,3,2.59,5,2.83a16.37,16.37,0,0,0,15.47-7.39,4.93,4.93,0,0,0,7.14-1,3.23,3.23,0,0,0,6,.07,5.59,5.59,0,0,0,3.13.66A2.3,2.3,0,0,0,1759.43,739Z"/><path class="cls-3" d="M1777.06,702c-.43-.55-1.19.22-.77.76,1.56,2-.43,3.87-2.18,4.78a9.54,9.54,0,0,1-7.74.68,4.36,4.36,0,0,1-2.59-3.15c-.14-.62-1-.44-1.06.15-.1,1.67-1,3.6-3,3.5s-2.46-2-3.67-3.08a.54.54,0,0,0-.9.24c-.36,1.85-1.19,4.18-3.16,4.82a3.6,3.6,0,0,1-4.57-3.63.55.55,0,0,0-1-.27c-1.24,1.87-3.5,3.59-5.87,3.23a2.52,2.52,0,0,1-2-1.16,7,7,0,0,1-.48-2.22.54.54,0,0,0-.79-.32c-1.22.82-2.13,2-3.37,2.81a9.62,9.62,0,0,1-4.35,1.26A8.07,8.07,0,0,1,1726,710a2.48,2.48,0,0,1-1.49-2.58.54.54,0,0,0-1.08,0,3.59,3.59,0,0,0,1.52,3.25,6.94,6.94,0,0,0,3.83.79,12.45,12.45,0,0,0,5-1,16.92,16.92,0,0,0,3.43-2.71,4.58,4.58,0,0,0,.62,1.91,3.76,3.76,0,0,0,2.72,1.42,7,7,0,0,0,6.06-2.7,4.62,4.62,0,0,0,5.27,3.46c2.3-.43,3.56-2.58,4.16-4.7a16.8,16.8,0,0,0,1.3,1.6,3.81,3.81,0,0,0,3,1,3.76,3.76,0,0,0,3.11-2.78c1.29,2.08,3.84,2.95,6.37,2.8,2.72-.16,6.27-1.28,7.7-3.83A3.48,3.48,0,0,0,1777.06,702Z"/><path class="cls-3" d="M1770.06,689.57c-.54-.42-1.31.34-.76.77.72.57,1.88,1.51,1.79,2.53-.06.66-.8,1.16-1.45,1.44a9.18,9.18,0,0,1-6.22.32,2.77,2.77,0,0,1-1.08-.59,1,1,0,0,1-.3-.78,1.11,1.11,0,0,0,0-.17c0-.6-1-.76-1.06-.15a.76.76,0,0,0,0,.15h0c0,.9-.37,2.3-1.57,1.94a2.47,2.47,0,0,1-1.46-2.57.55.55,0,0,0-1-.27,6.06,6.06,0,0,1-.94,1.71,2.43,2.43,0,0,1-1.92.51c-1.4-.11-2.14-1.23-2.77-2.36a.54.54,0,0,0-.93,0,4.83,4.83,0,0,1-3.4,2.89,2.59,2.59,0,0,1-2.17-.65,1.35,1.35,0,0,1,0-2,.55.55,0,0,0-.66-.85c-.93.54-1.66,1.38-2.64,1.84a9.21,9.21,0,0,1-3.71.63,29.24,29.24,0,0,1-4.08-.15c-1.75-.21-5.93-.89-4.67-3.55.29-.63-.64-1.18-.94-.55-2.54,5.4,7.59,5.49,10.54,5.3a9.29,9.29,0,0,0,3.41-.75,7.55,7.55,0,0,0,1.27-.84A3,3,0,0,0,1746,696a5.08,5.08,0,0,0,4.83-2.61,4.15,4.15,0,0,0,3.22,2.11,3.62,3.62,0,0,0,2.48-.63,3.19,3.19,0,0,0,.6-.72,3,3,0,0,0,2.15,2,2,2,0,0,0,2.33-1.25c1.06,1,3.09,1.2,4.36,1.2,1.94,0,5.52-.45,6.11-2.78C1772.5,691.76,1771.14,690.43,1770.06,689.57Z"/><path class="cls-3" d="M1781.1,724.16a3.31,3.31,0,0,0-.51.73,4.49,4.49,0,0,1-3.29,2.09,9.7,9.7,0,0,1-4-.39,24.56,24.56,0,0,1-4.81-1.9,2.24,2.24,0,0,0-1.16-.37c-.86.07-1.26,1.06-1.82,1.73-1.21,1.46-3.47,1.4-5.31.91-1.32-.36-2.84-1.24-2.72-2.61a1.28,1.28,0,0,0,0-.55.63.63,0,0,0-.9-.2,2.11,2.11,0,0,0-.64.83,5.89,5.89,0,0,1-3.39,2.93,3.4,3.4,0,0,1-3.93-1.58c-.14-.3-.25-.64-.53-.78-.46-.23-1,.21-1.3.59a7.52,7.52,0,0,1-4.87,2.75,4.13,4.13,0,0,1-4.36-2.92c-.08-.42-.4-1.11-.94-1-.3.08-.7,1.08-.91,1.37a10.93,10.93,0,0,1-1.67,1.73,12.31,12.31,0,0,1-4.17,2.32,12.17,12.17,0,0,1-4.8.52,19.53,19.53,0,0,0-2.49-.49c-.78.05-1,.61-.06,1a10.42,10.42,0,0,0,7.65,0,18.6,18.6,0,0,0,6.46-4.36,5.68,5.68,0,0,0,5.44,2.83,8.3,8.3,0,0,0,5.55-3,4.61,4.61,0,0,0,4.63,2.2,6.1,6.1,0,0,0,4.29-3,6.44,6.44,0,0,0,10.91-.12,21.66,21.66,0,0,0,7.43,2.7c2.64.27,5.57-.64,7-2.89.23-.37.38-.94,0-1.18S1781.34,723.92,1781.1,724.16Z"/><path class="cls-3" d="M1778.22,743.78c-6.58,3.12-12.41-2.55-17.91-5.37a.56.56,0,0,0-.73.21.46.46,0,0,0-.32.49c0,1.17-.59,1.67-1.72,1.61a5.29,5.29,0,0,1-2.76-1,.55.55,0,0,0-.85.11,3.31,3.31,0,0,1-2.44,2,2.33,2.33,0,0,1-2.41-1.8c-.13-.38-.78-.59-1-.13-1.1,2.54-4.55,3.42-6.29,1a.53.53,0,0,0-.22-.18.46.46,0,0,0-.69.14.52.52,0,0,0-.11.19c-3.1,6.4-11.91,8-18.23,6.38a.54.54,0,0,0-.29,1c5.44,1.38,12.09.54,16.51-3.11a11.17,11.17,0,0,0,2.67-3.25,4.45,4.45,0,0,0,3.75,1.29,4.87,4.87,0,0,0,3.33-2.07,3.13,3.13,0,0,0,2.83,1.6,4.12,4.12,0,0,0,3.24-2.1c2,1.16,5.47,1.54,5.73-1.22,2.92,1.57,5.6,3.59,8.65,4.92a11.4,11.4,0,0,0,9.78.15C1779.39,744.42,1778.84,743.49,1778.22,743.78Z"/><path class="cls-2" d="M1544.57,816.3q0,25.29,0,50.58a111.55,111.55,0,0,0,.68,15.42c1.28,8.75,5,8.75,6.28,0a112.23,112.23,0,0,0,.68-15.36l0-50.61"/><path class="cls-1" d="M1555.93,816.94c4.17,2.29,8.39,4.6,13,5.83a9.89,9.89,0,0,0,4.88.32,4.26,4.26,0,0,0,3.29-3.29,5.79,5.79,0,0,0-.76-3.2,29.45,29.45,0,0,0-5-7.4,29.14,29.14,0,0,0-3.15-2.93c-.87-.71-2.6-2.42-3.74-2.56,2.56.32,5,1.47,7.53,1.7a6.52,6.52,0,0,0,5.39-1.81c1.86-2.14-.66-4.25-2.19-5.81l-10.94-11.14a9.27,9.27,0,0,0,9.56-3.22,2.48,2.48,0,0,0,.65-1.78A2.79,2.79,0,0,0,1573,780a50.71,50.71,0,0,0-14.49-6.76,8.67,8.67,0,0,0,7.87-.06,3.22,3.22,0,0,0,1.88-2.2,3.94,3.94,0,0,0-1.16-2.75A169.27,169.27,0,0,0,1552,751.5a6.69,6.69,0,0,0-2.16-1.59c-2.59-1-5.19,1.24-7.15,3.2a81.74,81.74,0,0,1-14.36,11.39,9.76,9.76,0,0,0-2.81,2.24,3,3,0,0,0-.33,3.38,4.18,4.18,0,0,0,2.78,1.46,31.26,31.26,0,0,0,8.13.6,80.54,80.54,0,0,0-12.87,8c-1.73,1.31-3.57,3.06-3.37,5.22s2.32,3.5,4.39,3.66a13.52,13.52,0,0,0,6-1.42q-5.37,7-10.47,14.24c-1.13,1.6-2.3,3.62-1.5,5.41.68,1.51,2.53,2.14,4.19,2.13,3.37,0,6.4-2,9.13-4a60.11,60.11,0,0,0-12.34,11.33c-1.68,2-3.3,4.79-2.15,7.17.87,1.8,3,2.59,5,2.82a16.38,16.38,0,0,0,15.47-7.39,4.93,4.93,0,0,0,7.14-1,3.23,3.23,0,0,0,6,.06,5.6,5.6,0,0,0,3.13.67A2.29,2.29,0,0,0,1555.93,816.94Z"/><path class="cls-3" d="M1573.56,779.91c-.42-.54-1.18.23-.76.77,1.55,2-.43,3.87-2.18,4.77a9.58,9.58,0,0,1-7.74.69,4.36,4.36,0,0,1-2.59-3.15c-.14-.62-1-.44-1.06.14-.11,1.68-1,3.61-3,3.5s-2.47-2-3.67-3.07a.55.55,0,0,0-.91.24c-.35,1.84-1.18,4.17-3.16,4.81A3.59,3.59,0,0,1,1544,785a.55.55,0,0,0-1-.28c-1.25,1.88-3.5,3.6-5.87,3.23a2.54,2.54,0,0,1-2-1.16,7.27,7.27,0,0,1-.47-2.22.54.54,0,0,0-.79-.32c-1.23.82-2.13,2-3.37,2.82a9.6,9.6,0,0,1-4.35,1.25,8.07,8.07,0,0,1-3.62-.34,2.46,2.46,0,0,1-1.49-2.57.54.54,0,0,0-1.08,0,3.58,3.58,0,0,0,1.52,3.24,6.74,6.74,0,0,0,3.82.79,12.49,12.49,0,0,0,5-1,16.81,16.81,0,0,0,3.42-2.7,4.5,4.5,0,0,0,.63,1.9A3.76,3.76,0,0,0,1537,789a7,7,0,0,0,6-2.69,4.63,4.63,0,0,0,5.28,3.45c2.3-.42,3.56-2.58,4.16-4.7a14.2,14.2,0,0,0,1.3,1.6,3.67,3.67,0,0,0,6.13-1.75c1.29,2.08,3.83,2.94,6.36,2.79,2.73-.16,6.28-1.28,7.7-3.83A3.45,3.45,0,0,0,1573.56,779.91Z"/><path class="cls-3" d="M1566.57,767.53c-.54-.43-1.31.33-.76.76.72.57,1.88,1.51,1.79,2.53-.06.66-.81,1.16-1.45,1.45a9.33,9.33,0,0,1-6.23.32,2.75,2.75,0,0,1-1.07-.6,1,1,0,0,1-.3-.78.88.88,0,0,0,0-.17c0-.59-1-.75-1.06-.14a.66.66,0,0,0,0,.14h0c0,.9-.37,2.31-1.57,2a2.47,2.47,0,0,1-1.46-2.57.54.54,0,0,0-1-.27,6.2,6.2,0,0,1-.94,1.71,2.39,2.39,0,0,1-1.92.5c-1.4-.11-2.15-1.23-2.77-2.35a.54.54,0,0,0-.93,0,4.81,4.81,0,0,1-3.4,2.88,2.56,2.56,0,0,1-2.17-.65,1.35,1.35,0,0,1,0-2,.55.55,0,0,0-.66-.85c-.93.54-1.66,1.39-2.64,1.84a9.4,9.4,0,0,1-3.71.64,29.25,29.25,0,0,1-4.08-.16c-1.75-.21-5.93-.88-4.67-3.55.29-.62-.64-1.17-.94-.54-2.54,5.4,7.58,5.48,10.54,5.29a9,9,0,0,0,3.4-.75,6.36,6.36,0,0,0,1.27-.84,3,3,0,0,0,2.69,2.61,5.08,5.08,0,0,0,4.83-2.62,4.19,4.19,0,0,0,3.23,2.11,3.52,3.52,0,0,0,2.48-.63,3.14,3.14,0,0,0,.6-.71,3,3,0,0,0,2.15,2,2,2,0,0,0,2.33-1.25c1,1,3.09,1.21,4.36,1.2,1.94,0,5.52-.44,6.11-2.77C1569,769.72,1567.65,768.38,1566.57,767.53Z"/><path class="cls-3" d="M1577.61,802.11a3.56,3.56,0,0,0-.51.73,4.55,4.55,0,0,1-3.3,2.1,9.67,9.67,0,0,1-4-.4,23.15,23.15,0,0,1-4.81-1.9,2.27,2.27,0,0,0-1.16-.37c-.86.07-1.26,1.07-1.82,1.73-1.22,1.46-3.47,1.4-5.31.91-1.32-.36-2.84-1.24-2.72-2.6a1.45,1.45,0,0,0,0-.55.63.63,0,0,0-.91-.2,2.1,2.1,0,0,0-.64.82,5.81,5.81,0,0,1-3.38,2.93,3.4,3.4,0,0,1-3.93-1.58c-.14-.29-.25-.64-.54-.78-.46-.23-.95.22-1.29.6a7.55,7.55,0,0,1-4.87,2.74,4.1,4.1,0,0,1-4.36-2.92c-.09-.42-.41-1.11-.94-1-.3.07-.7,1.08-.91,1.37a11.32,11.32,0,0,1-1.67,1.72,12,12,0,0,1-4.17,2.32,12.2,12.2,0,0,1-4.8.53,19.53,19.53,0,0,0-2.49-.49c-.78,0-1,.6-.07,1a10.5,10.5,0,0,0,7.66,0,18.66,18.66,0,0,0,6.46-4.35,5.67,5.67,0,0,0,5.44,2.83,8.33,8.33,0,0,0,5.55-3.05,4.58,4.58,0,0,0,4.62,2.2,6.14,6.14,0,0,0,4.3-3.05,6.43,6.43,0,0,0,10.91-.12,21.48,21.48,0,0,0,7.43,2.71c2.64.26,5.57-.64,7-2.89.23-.38.38-.94,0-1.19S1577.85,801.87,1577.61,802.11Z"/><path class="cls-3" d="M1574.73,821.74c-6.58,3.11-12.41-2.56-17.92-5.38a.54.54,0,0,0-.72.21.46.46,0,0,0-.32.49c0,1.18-.59,1.67-1.72,1.61a5.13,5.13,0,0,1-2.76-1,.55.55,0,0,0-.85.11,3.3,3.3,0,0,1-2.45,2.06,2.35,2.35,0,0,1-2.4-1.8c-.14-.39-.79-.6-1-.13-1.09,2.54-4.54,3.41-6.28,1a.53.53,0,0,0-.23-.17.45.45,0,0,0-.68.14.4.4,0,0,0-.11.19c-3.1,6.39-11.91,8-18.23,6.37a.54.54,0,0,0-.29,1c5.44,1.39,12.09.54,16.5-3.1a11.22,11.22,0,0,0,2.68-3.26,4.45,4.45,0,0,0,3.75,1.29,4.88,4.88,0,0,0,3.33-2.06,3.15,3.15,0,0,0,2.83,1.6,4.14,4.14,0,0,0,3.24-2.11c2,1.16,5.47,1.55,5.72-1.22,2.93,1.58,5.61,3.59,8.66,4.93a11.4,11.4,0,0,0,9.78.14C1575.9,822.37,1575.35,821.44,1574.73,821.74Z"/><path class="cls-2" d="M1338.14,999.69q0,25.29,0,50.58a113.05,113.05,0,0,0,.68,15.41c1.29,8.76,5,8.75,6.29,0a112.52,112.52,0,0,0,.67-15.37q0-25.29,0-50.6"/><path class="cls-1" d="M1349.51,1000.33c4.17,2.28,8.38,4.59,13,5.82a9.73,9.73,0,0,0,4.87.32,4.24,4.24,0,0,0,3.29-3.28,5.84,5.84,0,0,0-.76-3.21,29.89,29.89,0,0,0-8.18-10.33c-.88-.7-2.6-2.41-3.74-2.56,2.55.32,5,1.47,7.52,1.7a6.46,6.46,0,0,0,5.39-1.8c1.87-2.14-.65-4.25-2.18-5.81l-11-11.15a9.27,9.27,0,0,0,9.56-3.21A2.45,2.45,0,0,0,1368,965a2.73,2.73,0,0,0-1.38-1.65,50.9,50.9,0,0,0-14.5-6.76,8.67,8.67,0,0,0,7.87-.06,3.23,3.23,0,0,0,1.89-2.21,3.92,3.92,0,0,0-1.16-2.74,170.62,170.62,0,0,0-15.07-16.73,6.88,6.88,0,0,0-2.16-1.59c-2.58-1-5.19,1.24-7.15,3.2a80.11,80.11,0,0,1-14.36,11.39,9.74,9.74,0,0,0-2.8,2.25,3,3,0,0,0-.34,3.37,4.18,4.18,0,0,0,2.79,1.46,31.23,31.23,0,0,0,8.13.61,81.29,81.29,0,0,0-12.88,8c-1.72,1.31-3.57,3.06-3.36,5.22s2.32,3.51,4.38,3.67a13.36,13.36,0,0,0,6-1.43q-5.36,7-10.46,14.24c-1.14,1.61-2.31,3.63-1.5,5.42.68,1.51,2.53,2.14,4.19,2.12,3.37,0,6.39-2,9.12-4a60.08,60.08,0,0,0-12.34,11.33c-1.68,2-3.29,4.78-2.15,7.16.88,1.81,3,2.59,5,2.83a16.36,16.36,0,0,0,15.46-7.39,4.94,4.94,0,0,0,7.14-1,3.24,3.24,0,0,0,6,.06,5.57,5.57,0,0,0,3.13.66A2.28,2.28,0,0,0,1349.51,1000.33Z"/><path class="cls-3" d="M1367.14,963.3c-.43-.55-1.19.22-.77.76,1.56,2-.43,3.87-2.18,4.78a9.54,9.54,0,0,1-7.74.68,4.36,4.36,0,0,1-2.59-3.15c-.14-.62-1-.44-1.06.15-.1,1.67-1,3.6-3,3.5s-2.46-2-3.67-3.08a.54.54,0,0,0-.9.24c-.36,1.85-1.18,4.18-3.16,4.82a3.6,3.6,0,0,1-4.57-3.63.55.55,0,0,0-1-.27c-1.24,1.87-3.5,3.59-5.87,3.23a2.52,2.52,0,0,1-2-1.16,7,7,0,0,1-.48-2.22.53.53,0,0,0-.79-.32c-1.22.82-2.13,2-3.37,2.81a9.57,9.57,0,0,1-4.34,1.26,8.06,8.06,0,0,1-3.62-.34,2.47,2.47,0,0,1-1.5-2.58.54.54,0,0,0-1.08,0A3.62,3.62,0,0,0,1315,972a6.94,6.94,0,0,0,3.83.79,12.45,12.45,0,0,0,5-1,16.92,16.92,0,0,0,3.43-2.71,4.58,4.58,0,0,0,.62,1.91,3.78,3.78,0,0,0,2.72,1.42,7.07,7.07,0,0,0,6.06-2.69,4.62,4.62,0,0,0,5.27,3.45c2.3-.43,3.57-2.58,4.16-4.7a15.48,15.48,0,0,0,1.31,1.6,3.67,3.67,0,0,0,6.13-1.76c1.28,2.08,3.83,3,6.36,2.8,2.72-.16,6.27-1.28,7.7-3.83A3.48,3.48,0,0,0,1367.14,963.3Z"/><path class="cls-3" d="M1360.14,950.91c-.54-.42-1.31.34-.76.77.72.57,1.89,1.51,1.79,2.53-.06.66-.8,1.16-1.45,1.44a9.18,9.18,0,0,1-6.22.32,2.77,2.77,0,0,1-1.08-.59.92.92,0,0,1-.29-.78c0-.06,0-.12,0-.17,0-.6-1-.76-1.06-.15,0,.05,0,.1,0,.15h0c0,.9-.37,2.3-1.57,1.94a2.47,2.47,0,0,1-1.46-2.57.54.54,0,0,0-1-.27,6.61,6.61,0,0,1-.94,1.71,2.45,2.45,0,0,1-1.93.51c-1.4-.11-2.14-1.23-2.77-2.36a.54.54,0,0,0-.93,0,4.83,4.83,0,0,1-3.4,2.89,2.61,2.61,0,0,1-2.17-.65,1.36,1.36,0,0,1,0-2,.54.54,0,0,0-.65-.85c-.93.54-1.67,1.38-2.65,1.84a9.18,9.18,0,0,1-3.71.63,29.1,29.1,0,0,1-4.07-.15c-1.76-.21-5.93-.89-4.68-3.55.29-.63-.64-1.18-.93-.55-2.55,5.4,7.58,5.49,10.53,5.3a9.29,9.29,0,0,0,3.41-.75,7.17,7.17,0,0,0,1.27-.84,3,3,0,0,0,2.69,2.6,5.08,5.08,0,0,0,4.83-2.61,4.15,4.15,0,0,0,3.22,2.11,3.62,3.62,0,0,0,2.48-.63,3,3,0,0,0,.6-.72,3,3,0,0,0,2.16,2,2,2,0,0,0,2.33-1.25c1,1,3.08,1.2,4.36,1.2,1.94,0,5.51-.45,6.1-2.78C1362.58,953.1,1361.22,951.77,1360.14,950.91Z"/><path class="cls-3" d="M1371.19,985.5a3,3,0,0,0-.52.73,4.47,4.47,0,0,1-3.29,2.09,9.65,9.65,0,0,1-4-.39,24.41,24.41,0,0,1-4.82-1.9,2.24,2.24,0,0,0-1.15-.37c-.87.07-1.27,1.06-1.83,1.73-1.21,1.46-3.47,1.4-5.3.91-1.32-.36-2.85-1.24-2.73-2.61a1.14,1.14,0,0,0,0-.55c-.12-.33-.6-.38-.9-.2a2.11,2.11,0,0,0-.64.83,5.89,5.89,0,0,1-3.39,2.93,3.4,3.4,0,0,1-3.93-1.58c-.13-.3-.24-.64-.53-.78-.46-.23-1,.21-1.3.6a7.55,7.55,0,0,1-4.87,2.74,4.13,4.13,0,0,1-4.36-2.92c-.08-.42-.4-1.11-.93-1-.31.08-.7,1.08-.92,1.37a10.5,10.5,0,0,1-1.67,1.73,12.05,12.05,0,0,1-9,2.84,20.64,20.64,0,0,0-2.49-.49c-.78,0-1,.61-.06,1a10.45,10.45,0,0,0,7.66,0,18.67,18.67,0,0,0,6.45-4.35,5.69,5.69,0,0,0,5.44,2.82,8.3,8.3,0,0,0,5.55-3,4.61,4.61,0,0,0,4.63,2.2,6.1,6.1,0,0,0,4.29-3.05,6.44,6.44,0,0,0,10.91-.12,21.79,21.79,0,0,0,7.44,2.7c2.63.27,5.57-.64,7-2.89.23-.37.38-.94,0-1.18S1371.42,985.26,1371.19,985.5Z"/><path class="cls-3" d="M1368.3,1005.12c-6.58,3.12-12.41-2.55-17.91-5.37a.54.54,0,0,0-.72.21.47.47,0,0,0-.33.49c.06,1.17-.59,1.67-1.72,1.61a5.23,5.23,0,0,1-2.75-1,.55.55,0,0,0-.85.11,3.33,3.33,0,0,1-2.45,2.05,2.32,2.32,0,0,1-2.4-1.8c-.14-.38-.79-.59-1-.13-1.1,2.54-4.55,3.42-6.29,1a.53.53,0,0,0-.22-.18.45.45,0,0,0-.68.14.44.44,0,0,0-.12.19c-3.09,6.4-11.9,8-18.23,6.38a.54.54,0,0,0-.28,1c5.43,1.38,12.09.54,16.5-3.11a11.37,11.37,0,0,0,2.68-3.25,4.43,4.43,0,0,0,3.74,1.29,4.87,4.87,0,0,0,3.33-2.07,3.13,3.13,0,0,0,2.84,1.6,4.13,4.13,0,0,0,3.24-2.1c2,1.16,5.46,1.54,5.72-1.22,2.92,1.57,5.6,3.59,8.65,4.92a11.42,11.42,0,0,0,9.79.15C1369.47,1005.76,1368.93,1004.83,1368.3,1005.12Z"/><path class="cls-2" d="M1849.57,731.49l0,55.36a148.43,148.43,0,0,0,.62,16.87c1.19,9.59,4.61,9.58,5.8,0a147.71,147.71,0,0,0,.62-16.82q0-27.69,0-55.38"/><path class="cls-1" d="M1830.21,744.52c-5.61-2.59-9.26-7.17-6.53-14.35,9.65-25.33,14.63-45.16,21.94-67.74,1.45-4.48,3.63-9.67,7.39-9.94,4.17-.3,6.76,5.62,8.32,10.64,6.36,20.49,13,40.62,20.12,60.64,1.85,5.18,5.18,14,2.52,19.53-3.79,7.89-14.92,5.24-20.8,5C1857.94,748.05,1840.33,749.18,1830.21,744.52Z"/><g class="cls-9"><path class="cls-3" d="M1861,674a.55.55,0,0,1,.66.49,11.81,11.81,0,0,1,.25,3.09c0,.36-.24.71-.54.7a.65.65,0,0,1-.55-.7,9.89,9.89,0,0,0,0-1.44c0-.06,0-.13,0-.19h0v0c0-.11,0-.23,0-.34s-.08-.48-.13-.72A.74.74,0,0,1,1861,674Z"/><path class="cls-3" d="M1849.92,674.23a.65.65,0,0,1,.54.7v3.48c0,.36-.25.71-.54.7a.65.65,0,0,1-.54-.7v-3.48C1849.38,674.56,1849.63,674.21,1849.92,674.23Z"/><path class="cls-3" d="M1856.65,696.84a.65.65,0,0,1,.54.7v3.77c0,.37-.25.72-.54.7a.65.65,0,0,1-.54-.7v-3.77C1856.11,697.18,1856.36,696.83,1856.65,696.84Z"/><path class="cls-3" d="M1843.86,697.71a.65.65,0,0,1,.54.7v3.19c0,.37-.25.72-.54.7a.64.64,0,0,1-.54-.7v-3.19C1843.32,698.05,1843.57,697.7,1843.86,697.71Z"/><path class="cls-3" d="M1866.53,713.66a.65.65,0,0,1,.54.7v2.9c0,.37-.25.72-.54.7a.65.65,0,0,1-.54-.7v-2.9C1866,714,1866.24,713.65,1866.53,713.66Z"/><path class="cls-3" d="M1846.1,722.36a.65.65,0,0,1,.54.7v4.06c0,.36-.25.71-.54.7a.65.65,0,0,1-.54-.7v-4.06C1845.56,722.69,1845.81,722.34,1846.1,722.36Z"/><path class="cls-3" d="M1831.29,724.68a.65.65,0,0,1,.54.7v3.48c0,.36-.25.71-.54.7a.65.65,0,0,1-.54-.7v-3.48C1830.75,725,1831,724.66,1831.29,724.68Z"/><path class="cls-3" d="M1867,693.37a.64.64,0,0,1,.54.69v2c0,.37-.25.72-.54.7a.63.63,0,0,1-.54-.7v-2C1866.44,693.7,1866.69,693.35,1867,693.37Z"/><path class="cls-3" d="M1875.73,727.58a.65.65,0,0,1,.54.7v4.06c0,.36-.25.71-.54.7a.65.65,0,0,1-.54-.7v-4.06C1875.19,727.91,1875.44,727.56,1875.73,727.58Z"/><path class="cls-3" d="M1860.32,730.21a.55.55,0,0,1,.67.49,40.14,40.14,0,0,1,.24,5.7c0,.9-1.1.9-1.08,0a37.89,37.89,0,0,0-.2-5.33A.76.76,0,0,1,1860.32,730.21Z"/><path class="cls-3" d="M1836.23,736.57a.65.65,0,0,1,.54.7v2.9c0,.36-.25.71-.54.7a.65.65,0,0,1-.54-.7v-2.9C1835.69,736.9,1835.93,736.55,1836.23,736.57Z"/><path class="cls-3" d="M1836.9,706.12a.65.65,0,0,1,.54.7v4.93a.56.56,0,1,1-1.08,0v-4.93A.65.65,0,0,1,1836.9,706.12Z"/><path class="cls-3" d="M1855.75,711.05a.65.65,0,0,1,.55.7v2.32c0,.37-.25.72-.55.7a.65.65,0,0,1-.54-.7v-2.32C1855.21,711.39,1855.46,711,1855.75,711.05Z"/><path class="cls-3" d="M1843.86,683.22c.31,0,.51.3.54.7.06,1,.13,1.93.22,2.9a.76.76,0,0,1-.16.49.47.47,0,0,1-.38.2.46.46,0,0,1-.38-.2,1,1,0,0,1-.16-.49c-.09-1-.16-1.94-.22-2.9C1843.29,683.55,1843.58,683.2,1843.86,683.22Z"/><path class="cls-3" d="M1872.05,708.27a.65.65,0,0,1,.54-.7c.32,0,.51.31.54.7a34.41,34.41,0,0,1,.22,4.06c0,.37-.23.72-.54.7a.65.65,0,0,1-.54-.7A34.41,34.41,0,0,0,1872.05,708.27Z"/><path class="cls-3" d="M1848.8,740.05a.65.65,0,0,1,.54.7c0,.28,0,.57,0,.85s.09.67.16,1a.74.74,0,0,1-.38.86c-.28.09-.58-.11-.66-.49a10.18,10.18,0,0,1-.24-2.21C1848.25,740.38,1848.5,740,1848.8,740.05Z"/><path class="cls-3" d="M1870.05,740.85l.12-.77c0-.06,0-.12,0-.18v-.08h0l0-.39a13.71,13.71,0,0,0,0-1.57c0-.37.26-.72.54-.7a.65.65,0,0,1,.54.7,15.18,15.18,0,0,1-.24,3.37c-.07.36-.39.6-.67.49A.76.76,0,0,1,1870.05,740.85Z"/><path class="cls-3" d="M1845,666.4a.65.65,0,0,1,.54.7v2.61c0,.36-.25.71-.54.7a.65.65,0,0,1-.54-.7V667.1C1844.44,666.73,1844.69,666.38,1845,666.4Z"/><path class="cls-3" d="M1854.41,659.73a.65.65,0,0,1,.54.7v4.06c0,.36-.25.71-.54.7a.65.65,0,0,1-.54-.7v-4.06C1853.87,660.06,1854.12,659.71,1854.41,659.73Z"/><path class="cls-3" d="M1855.08,684.09a.64.64,0,0,1,.54.7v2.32c0,.36-.25.71-.54.69a.64.64,0,0,1-.54-.69v-2.32C1854.54,684.42,1854.79,684.07,1855.08,684.09Z"/><path class="cls-3" d="M1837.12,690.47a.64.64,0,0,1,.55.69v2.61c0,.37-.25.72-.55.7a.64.64,0,0,1-.54-.7v-2.61C1836.58,690.8,1836.83,690.45,1837.12,690.47Z"/><path class="cls-3" d="M1863.09,749.26c0-.28.08-.56.11-.84v-.1a1.49,1.49,0,0,1,0-.21l0-.43q0-.85,0-1.71c0-.37.26-.72.54-.7a.65.65,0,0,1,.55.7,22.37,22.37,0,0,1-.25,3.66c-.05.36-.4.6-.66.49A.75.75,0,0,1,1863.09,749.26Z"/><path class="cls-3" d="M1880.08,739.49a.55.55,0,0,1,.66.49,14.79,14.79,0,0,1,.25,2.22c0,.36-.26.71-.55.7a.65.65,0,0,1-.54-.7,7.7,7.7,0,0,0-.05-.83q-.06-.51-.15-1A.76.76,0,0,1,1880.08,739.49Z"/><path class="cls-3" d="M1828.82,736.86a.65.65,0,0,1,.54.7v1.74c0,.36-.25.71-.54.7a.65.65,0,0,1-.54-.7v-1.74C1828.28,737.19,1828.53,736.84,1828.82,736.86Z"/><path class="cls-3" d="M1846.24,707.86a.65.65,0,0,1,.54.7v4.16c0,.37-.24.72-.54.7a.64.64,0,0,1-.54-.7v-4.16C1845.7,708.19,1846,707.84,1846.24,707.86Z"/><path class="cls-3" d="M1837.38,723.85a.51.51,0,0,1,.38-.21.5.5,0,0,1,.38.21.82.82,0,0,1,.16.49v1.32a.8.8,0,0,1-.16.49.53.53,0,0,1-.38.21.48.48,0,0,1-.38-.21.8.8,0,0,1-.16-.49v-1.32A.82.82,0,0,1,1837.38,723.85Z"/><path class="cls-3" d="M1853.17,722.81c0-.9,1.08-.9,1.08,0,0,2.12.24,4.23.17,6.36,0,.89-1.11.9-1.08,0C1853.41,727,1853.18,724.93,1853.17,722.81Z"/><path class="cls-3" d="M1830,713.12a.65.65,0,0,1,.54.7v3.51c0,.36-.25.71-.54.7a.65.65,0,0,1-.54-.7v-3.51C1829.41,713.45,1829.66,713.1,1830,713.12Z"/><path class="cls-3" d="M1862.57,685.76c0,2,0,4.1.17,6.14a.65.65,0,0,1-.55.7c-.31,0-.51-.32-.54-.7-.14-2-.16-4.09-.17-6.14C1861.48,684.86,1862.56,684.86,1862.57,685.76Z"/><path class="cls-3" d="M1849.84,688.83v8.33c0,.9-1.08.9-1.08,0v-8.33C1848.76,687.93,1849.84,687.93,1849.84,688.83Z"/><path class="cls-3" d="M1863.21,702.16a.65.65,0,0,1,.54.7v3.07c0,.36-.25.71-.54.7a.65.65,0,0,1-.54-.7v-3.07C1862.67,702.49,1862.92,702.14,1863.21,702.16Z"/><path class="cls-3" d="M1867.61,729.2a42.62,42.62,0,0,0,.32-6.39c0-.9,1.07-.9,1.08,0a44.84,44.84,0,0,1-.35,6.76.55.55,0,0,1-.67.49A.76.76,0,0,1,1867.61,729.2Z"/><path class="cls-3" d="M1856.55,669.92a.5.5,0,0,1,.38-.2.54.54,0,0,1,.39.2.92.92,0,0,1,.15.5v1.09a.92.92,0,0,1-.15.5.5.5,0,0,1-.39.2.52.52,0,0,1-.38-.2.85.85,0,0,1-.16-.5v-1.09A.85.85,0,0,1,1856.55,669.92Z"/><path class="cls-3" d="M1850.69,653.76v6.57c0,.9-1.08.9-1.08,0v-6.57C1849.61,652.86,1850.69,652.86,1850.69,653.76Z"/><path class="cls-3" d="M1858.43,654.41c0-.36.25-.71.54-.69a.64.64,0,0,1,.54.69c0,.65,0,1.3,0,2,0,.33,0,.65,0,1,0,0,0,.12,0,.14a1.23,1.23,0,0,1,0,.19l.09.51a.74.74,0,0,1-.38.86.54.54,0,0,1-.66-.48A21.17,21.17,0,0,1,1858.43,654.41Z"/><path class="cls-3" d="M1877.64,719a.65.65,0,0,1,.54.7v2.19c0,.37-.25.72-.54.7a.65.65,0,0,1-.54-.7v-2.19C1877.1,719.37,1877.34,719,1877.64,719Z"/></g><path class="cls-5" d="M1823.27,737.61a.33.33,0,0,0,.19-.06.62.62,0,0,0,.17-.71,8.85,8.85,0,0,1-.26-5.19,27.16,27.16,0,0,1,1.68-4.76l.15-.36c4.84-11.4,8.5-23.75,12-35.69,3.18-10.71,6.46-21.79,10.58-32.14a14.5,14.5,0,0,1,3-5.17.61.61,0,0,0,.08-.73.34.34,0,0,0-.56-.12,15.38,15.38,0,0,0-3.19,5.54c-4.14,10.4-7.43,21.5-10.62,32.24-3.53,11.91-7.18,24.22-12,35.57l-.15.36a27.55,27.55,0,0,0-1.75,5,10.12,10.12,0,0,0,.32,6A.42.42,0,0,0,1823.27,737.61Z"/><path class="cls-5" d="M1884.82,736.46a.31.31,0,0,0,.13,0,.56.56,0,0,0,.25-.66c-2.94-11-6.58-21.83-10.11-32.33-.69-2.08-1.39-4.15-2.08-6.22l-3.57-10.69-3.66-11q-1.74-5.24-3.47-10.48c-.25-.76-.48-1.51-.7-2.24-1.42-4.61-2.65-8.59-7.08-10.27-.22-.09-.44.07-.51.35a.56.56,0,0,0,.28.65c4,1.54,5.16,5.12,6.55,9.65.23.74.46,1.5.71,2.27q1.73,5.25,3.48,10.48,1.82,5.49,3.66,11t3.56,10.69q1,3.12,2.09,6.22c3.52,10.49,7.15,21.32,10.08,32.26A.43.43,0,0,0,1884.82,736.46Z"/><path class="cls-5" d="M1872.77,749.69c3.62,0,7.61-.49,10.24-4.12a.65.65,0,0,0,0-.74.34.34,0,0,0-.57,0c-2.89,4-7.74,3.85-11.65,3.76-12.23-.32-37.7-1-45-7.81a.35.35,0,0,0-.56.11.63.63,0,0,0,.08.74c7.47,7,33.11,7.69,45.43,8C1871.41,749.67,1872.08,749.69,1872.77,749.69Z"/><path class="cls-2" d="M1644.39,764.05l0,50.57A122.25,122.25,0,0,0,1645,830c1.19,8.75,4.61,8.74,5.8,0a123.18,123.18,0,0,0,.62-15.36l0-50.6"/><path class="cls-1" d="M1625,777.07c-5.61-2.58-9.26-7.16-6.53-14.35,9.65-25.32,14.63-45.16,21.94-67.74,1.45-4.48,3.63-9.66,7.38-9.93,4.18-.3,6.77,5.61,8.33,10.63,6.36,20.49,13,40.62,20.12,60.65,1.85,5.17,5.18,13.95,2.51,19.52-3.78,7.89-14.91,5.24-20.79,5C1652.76,780.6,1635.15,781.74,1625,777.07Z"/><g class="cls-10"><path class="cls-3" d="M1655.82,706.52c.28-.09.58.11.66.49a11.77,11.77,0,0,1,.25,3.08c0,.36-.24.72-.55.7a.65.65,0,0,1-.54-.7,9.89,9.89,0,0,0,0-1.44c0-.06,0-.12,0-.19h0c0-.12,0-.23,0-.35s-.08-.48-.13-.71A.74.74,0,0,1,1655.82,706.52Z"/><path class="cls-3" d="M1644.74,706.78a.65.65,0,0,1,.54.7V711c0,.37-.25.72-.54.7a.65.65,0,0,1-.54-.7v-3.48C1644.2,707.12,1644.44,706.77,1644.74,706.78Z"/><path class="cls-3" d="M1651.47,729.4a.65.65,0,0,1,.54.7v3.77c0,.36-.25.71-.54.7a.65.65,0,0,1-.54-.7V730.1C1650.93,729.73,1651.18,729.38,1651.47,729.4Z"/><path class="cls-3" d="M1638.68,730.27a.65.65,0,0,1,.54.7v3.19c0,.36-.25.71-.54.7a.65.65,0,0,1-.54-.7V731C1638.14,730.6,1638.38,730.25,1638.68,730.27Z"/><path class="cls-3" d="M1661.35,746.22a.64.64,0,0,1,.54.7v2.89c0,.37-.25.72-.54.7a.63.63,0,0,1-.54-.7v-2.89C1660.81,746.55,1661.05,746.2,1661.35,746.22Z"/><path class="cls-3" d="M1640.92,754.92a.64.64,0,0,1,.54.69v4.06c0,.37-.25.72-.54.7a.64.64,0,0,1-.54-.7v-4.06C1640.38,755.25,1640.63,754.9,1640.92,754.92Z"/><path class="cls-3" d="M1626.11,757.23a.65.65,0,0,1,.54.7v3.48c0,.37-.25.72-.54.7a.64.64,0,0,1-.54-.7v-3.48C1625.57,757.57,1625.81,757.22,1626.11,757.23Z"/><path class="cls-3" d="M1661.8,725.92a.65.65,0,0,1,.54.7v2c0,.36-.25.71-.54.7a.65.65,0,0,1-.55-.7v-2C1661.25,726.25,1661.5,725.9,1661.8,725.92Z"/><path class="cls-3" d="M1670.55,760.13a.65.65,0,0,1,.54.7v4.06c0,.37-.25.72-.54.7a.65.65,0,0,1-.54-.7v-4.06C1670,760.47,1670.26,760.12,1670.55,760.13Z"/><path class="cls-3" d="M1655.14,762.77a.55.55,0,0,1,.67.49,39.94,39.94,0,0,1,.24,5.69c0,.9-1.1.9-1.08,0a37.81,37.81,0,0,0-.21-5.32A.78.78,0,0,1,1655.14,762.77Z"/><path class="cls-3" d="M1631.05,769.12a.65.65,0,0,1,.54.7v2.9c0,.37-.25.72-.54.7a.65.65,0,0,1-.55-.7v-2.9C1630.5,769.46,1630.75,769.11,1631.05,769.12Z"/><path class="cls-3" d="M1631.72,738.68a.65.65,0,0,1,.54.7v4.93a.56.56,0,1,1-1.08,0v-4.93A.65.65,0,0,1,1631.72,738.68Z"/><path class="cls-3" d="M1650.57,743.61a.63.63,0,0,1,.54.7v2.32c0,.36-.24.71-.54.69a.64.64,0,0,1-.54-.69v-2.32C1650,743.94,1650.28,743.59,1650.57,743.61Z"/><path class="cls-3" d="M1638.68,715.77c.31,0,.51.31.54.7.06,1,.13,1.94.22,2.9a.76.76,0,0,1-.16.49.46.46,0,0,1-.38.21.5.5,0,0,1-.38-.21,1,1,0,0,1-.16-.49c-.09-1-.17-1.93-.22-2.9A.63.63,0,0,1,1638.68,715.77Z"/><path class="cls-3" d="M1666.87,740.83c0-.37.26-.72.54-.7s.51.31.54.7a34.29,34.29,0,0,1,.22,4.06c0,.36-.24.71-.54.69a.63.63,0,0,1-.54-.69A34.29,34.29,0,0,0,1666.87,740.83Z"/><path class="cls-3" d="M1643.61,772.6a.66.66,0,0,1,.55.7,7.94,7.94,0,0,0,0,.85c0,.34.09.67.16,1a.73.73,0,0,1-.38.86.54.54,0,0,1-.66-.48,10.94,10.94,0,0,1-.25-2.22C1643.07,772.94,1643.32,772.59,1643.61,772.6Z"/><path class="cls-3" d="M1664.87,773.41l.12-.78a1.1,1.1,0,0,1,0-.18v-.07h0l0-.39a13.88,13.88,0,0,0,0-1.58c0-.36.26-.71.54-.7a.65.65,0,0,1,.54.7,15.31,15.31,0,0,1-.24,3.38c-.07.35-.4.6-.67.48A.74.74,0,0,1,1664.87,773.41Z"/><path class="cls-3" d="M1639.8,699a.65.65,0,0,1,.54.7v2.61c0,.37-.25.72-.54.7a.65.65,0,0,1-.54-.7v-2.61C1639.26,699.29,1639.51,698.94,1639.8,699Z"/><path class="cls-3" d="M1649.23,692.28a.65.65,0,0,1,.54.7V697c0,.37-.25.72-.54.7a.65.65,0,0,1-.54-.7V693C1648.69,692.62,1648.93,692.27,1649.23,692.28Z"/><path class="cls-3" d="M1649.9,716.64a.65.65,0,0,1,.54.7v2.32c0,.37-.25.72-.54.7a.65.65,0,0,1-.54-.7v-2.32C1649.36,717,1649.61,716.62,1649.9,716.64Z"/><path class="cls-3" d="M1631.94,723a.65.65,0,0,1,.54.7v2.61c0,.36-.24.71-.54.7a.65.65,0,0,1-.54-.7v-2.61C1631.4,723.35,1631.65,723,1631.94,723Z"/><path class="cls-3" d="M1657.91,781.81c0-.27.07-.55.11-.83v-.11c0-.07,0-.13,0-.2s0-.29,0-.44q0-.86,0-1.71c0-.37.26-.72.54-.7a.65.65,0,0,1,.54.7,21.42,21.42,0,0,1-.24,3.67.53.53,0,0,1-.66.48A.75.75,0,0,1,1657.91,781.81Z"/><path class="cls-3" d="M1674.9,772.05a.54.54,0,0,1,.66.49,13.58,13.58,0,0,1,.24,2.21c0,.37-.25.72-.54.7a.65.65,0,0,1-.54-.7c0-.28,0-.55,0-.82s-.09-.69-.15-1A.74.74,0,0,1,1674.9,772.05Z"/><path class="cls-3" d="M1623.64,769.41a.65.65,0,0,1,.54.7v1.74c0,.37-.25.72-.54.7a.65.65,0,0,1-.54-.7v-1.74C1623.1,769.75,1623.35,769.4,1623.64,769.41Z"/><path class="cls-3" d="M1641.06,740.41a.65.65,0,0,1,.54.7v4.17c0,.36-.25.71-.54.7a.65.65,0,0,1-.54-.7v-4.17C1640.52,740.75,1640.77,740.4,1641.06,740.41Z"/><path class="cls-3" d="M1632.19,756.4a.5.5,0,0,1,.39-.2.52.52,0,0,1,.38.2.85.85,0,0,1,.16.5v1.31a.85.85,0,0,1-.16.5.48.48,0,0,1-.38.2.54.54,0,0,1-.39-.2.92.92,0,0,1-.15-.5V756.9A.92.92,0,0,1,1632.19,756.4Z"/><path class="cls-3" d="M1648,755.36c0-.9,1.08-.9,1.08,0,0,2.12.24,4.24.17,6.36,0,.9-1.11.9-1.08,0C1648.23,759.6,1648,757.48,1648,755.36Z"/><path class="cls-3" d="M1624.77,745.68a.64.64,0,0,1,.54.69v3.51c0,.37-.25.72-.54.7a.65.65,0,0,1-.54-.7v-3.51C1624.23,746,1624.48,745.66,1624.77,745.68Z"/><path class="cls-3" d="M1657.38,718.32c0,2,0,4.09.17,6.13a.63.63,0,0,1-.54.7c-.31,0-.51-.32-.54-.7-.15-2-.16-4.09-.17-6.13C1656.3,717.42,1657.38,717.41,1657.38,718.32Z"/><path class="cls-3" d="M1644.66,721.38v8.33c0,.9-1.08.91-1.08,0v-8.33C1643.58,720.49,1644.66,720.48,1644.66,721.38Z"/><path class="cls-3" d="M1658,734.71a.65.65,0,0,1,.54.7v3.07c0,.37-.25.72-.54.7a.65.65,0,0,1-.54-.7v-3.07C1657.49,735.05,1657.74,734.7,1658,734.71Z"/><path class="cls-3" d="M1662.43,761.75a42.55,42.55,0,0,0,.32-6.39c0-.9,1.06-.9,1.08,0a43.51,43.51,0,0,1-.36,6.76.53.53,0,0,1-.66.49A.75.75,0,0,1,1662.43,761.75Z"/><path class="cls-3" d="M1651.37,702.48a.5.5,0,0,1,.38-.21.51.51,0,0,1,.39.21.86.86,0,0,1,.15.49v1.1a.89.89,0,0,1-.15.49.55.55,0,0,1-.39.21.5.5,0,0,1-.38-.21.82.82,0,0,1-.16-.49V703A.8.8,0,0,1,1651.37,702.48Z"/><path class="cls-3" d="M1645.51,686.31v6.58c0,.9-1.09.9-1.09,0v-6.58C1644.42,685.41,1645.51,685.41,1645.51,686.31Z"/><path class="cls-3" d="M1653.25,687c0-.37.25-.72.54-.7a.65.65,0,0,1,.54.7c0,.65,0,1.3,0,1.95,0,.32,0,.64,0,1V690c0,.07,0,.13,0,.2l.09.51a.76.76,0,0,1-.38.86.55.55,0,0,1-.66-.49A20.32,20.32,0,0,1,1653.25,687Z"/><path class="cls-3" d="M1672.46,751.59a.65.65,0,0,1,.54.7v2.2c0,.36-.25.71-.54.69a.64.64,0,0,1-.55-.69v-2.2C1671.91,751.93,1672.16,751.58,1672.46,751.59Z"/></g><path class="cls-5" d="M1618.09,770.16a.35.35,0,0,0,.19-.06.62.62,0,0,0,.17-.71,8.85,8.85,0,0,1-.26-5.19,26,26,0,0,1,1.68-4.75l.15-.37c4.84-11.4,8.5-23.75,12-35.69,3.18-10.71,6.46-21.79,10.58-32.13a14.55,14.55,0,0,1,2.94-5.17.63.63,0,0,0,.09-.74.35.35,0,0,0-.57-.11,15.34,15.34,0,0,0-3.18,5.54c-4.14,10.39-7.43,21.5-10.62,32.24-3.53,11.91-7.18,24.22-12,35.56l-.15.36a26.9,26.9,0,0,0-1.75,5,10.14,10.14,0,0,0,.32,6A.4.4,0,0,0,1618.09,770.16Z"/><path class="cls-5" d="M1679.64,769a.31.31,0,0,0,.13,0,.58.58,0,0,0,.25-.67c-2.94-11-6.59-21.83-10.11-32.33-.7-2.07-1.39-4.15-2.08-6.22l-3.57-10.69-3.66-11q-1.74-5.24-3.47-10.48c-.25-.76-.48-1.51-.71-2.24-1.41-4.61-2.64-8.59-7.07-10.27-.22-.09-.44.08-.51.35a.56.56,0,0,0,.28.65c4.05,1.54,5.15,5.12,6.55,9.66.23.74.46,1.49.71,2.26q1.72,5.25,3.48,10.49,1.82,5.48,3.65,11c1.19,3.56,2.39,7.12,3.57,10.69q1,3.1,2.09,6.22c3.51,10.48,7.15,21.32,10.08,32.26A.44.44,0,0,0,1679.64,769Z"/><path class="cls-5" d="M1667.59,782.24c3.62,0,7.61-.48,10.24-4.12a.65.65,0,0,0,0-.74.34.34,0,0,0-.57,0c-2.89,4-7.74,3.85-11.65,3.75-12.23-.32-37.7-1-45-7.81a.35.35,0,0,0-.57.12.63.63,0,0,0,.09.73c7.47,7,33.11,7.69,45.43,8C1666.22,782.23,1666.9,782.24,1667.59,782.24Z"/><path class="cls-2" d="M1442.21,891.44l0,61.21a178.56,178.56,0,0,0,.63,18.65c1.18,10.6,4.61,10.59,5.79,0a177.71,177.71,0,0,0,.62-18.6q0-30.62,0-61.24"/><path class="cls-1" d="M1422.85,904.46c-5.61-2.59-9.26-7.16-6.52-14.35,9.65-25.33,14.62-45.16,21.93-67.74,1.45-4.48,3.63-9.66,7.39-9.93,4.17-.3,6.76,5.61,8.32,10.63,6.37,20.49,13,40.62,20.12,60.64,1.85,5.18,5.18,14,2.52,19.53-3.79,7.89-14.92,5.24-20.8,5C1450.58,908,1433,909.13,1422.85,904.46Z"/><g class="cls-11"><path class="cls-3" d="M1453.64,833.91a.54.54,0,0,1,.66.48,11.4,11.4,0,0,1,.25,3.09c0,.36-.24.72-.54.7a.64.64,0,0,1-.54-.7,13.83,13.83,0,0,0,0-1.44c0-.06,0-.12,0-.19h0c0-.12,0-.24,0-.35s-.08-.48-.13-.71A.73.73,0,0,1,1453.64,833.91Z"/><path class="cls-3" d="M1442.56,834.17a.65.65,0,0,1,.54.7v3.48c0,.37-.25.72-.54.7a.65.65,0,0,1-.54-.7v-3.48C1442,834.5,1442.27,834.15,1442.56,834.17Z"/><path class="cls-3" d="M1449.29,856.79a.63.63,0,0,1,.54.7v3.77c0,.36-.24.71-.54.69a.64.64,0,0,1-.54-.69v-3.77C1448.75,857.12,1449,856.77,1449.29,856.79Z"/><path class="cls-3" d="M1436.5,857.66a.64.64,0,0,1,.54.7v3.19c0,.36-.25.71-.54.69a.64.64,0,0,1-.54-.69v-3.19C1436,858,1436.21,857.64,1436.5,857.66Z"/><path class="cls-3" d="M1459.17,873.6a.65.65,0,0,1,.54.7v2.9c0,.37-.25.72-.54.7a.64.64,0,0,1-.54-.7v-2.9C1458.63,873.94,1458.88,873.59,1459.17,873.6Z"/><path class="cls-3" d="M1438.74,882.3a.65.65,0,0,1,.55.7v4.06c0,.37-.25.72-.55.7a.65.65,0,0,1-.54-.7V883C1438.2,882.64,1438.45,882.29,1438.74,882.3Z"/><path class="cls-3" d="M1423.93,884.62a.65.65,0,0,1,.54.7v3.48c0,.37-.25.72-.54.7a.65.65,0,0,1-.54-.7v-3.48C1423.39,885,1423.64,884.61,1423.93,884.62Z"/><path class="cls-3" d="M1459.62,853.31a.65.65,0,0,1,.54.7v2c0,.36-.25.71-.54.7a.65.65,0,0,1-.54-.7v-2C1459.08,853.64,1459.33,853.29,1459.62,853.31Z"/><path class="cls-3" d="M1468.37,887.52a.65.65,0,0,1,.54.7v4.06c0,.37-.25.72-.54.7a.65.65,0,0,1-.54-.7v-4.06C1467.83,887.86,1468.08,887.51,1468.37,887.52Z"/><path class="cls-3" d="M1453,890.16a.54.54,0,0,1,.66.49,39.94,39.94,0,0,1,.24,5.69c0,.9-1.1.9-1.08,0a37.75,37.75,0,0,0-.2-5.32A.75.75,0,0,1,1453,890.16Z"/><path class="cls-3" d="M1428.87,896.51a.65.65,0,0,1,.54.7v2.9c0,.37-.25.72-.54.7a.65.65,0,0,1-.54-.7v-2.9C1428.33,896.84,1428.58,896.49,1428.87,896.51Z"/><path class="cls-3" d="M1429.54,866.07a.64.64,0,0,1,.54.69v4.93a.56.56,0,1,1-1.08,0v-4.93A.64.64,0,0,1,1429.54,866.07Z"/><path class="cls-3" d="M1448.4,871a.64.64,0,0,1,.54.69V874c0,.37-.25.72-.54.7a.64.64,0,0,1-.55-.7v-2.32C1447.85,871.33,1448.1,871,1448.4,871Z"/><path class="cls-3" d="M1436.5,843.16c.31,0,.52.31.54.7.06,1,.13,1.93.22,2.9a.81.81,0,0,1-.15.49.55.55,0,0,1-.39.21.5.5,0,0,1-.38-.21,1,1,0,0,1-.16-.49c-.09-1-.16-1.93-.22-2.9C1435.94,843.49,1436.22,843.14,1436.5,843.16Z"/><path class="cls-3" d="M1464.69,868.21c0-.36.27-.71.54-.69s.51.3.54.69a36.83,36.83,0,0,1,.23,4.06c0,.37-.24.72-.55.7a.65.65,0,0,1-.54-.7A34.52,34.52,0,0,0,1464.69,868.21Z"/><path class="cls-3" d="M1441.44,900a.65.65,0,0,1,.54.7c0,.28,0,.57,0,.85s.09.67.16,1a.75.75,0,0,1-.37.86.55.55,0,0,1-.67-.48,10.27,10.27,0,0,1-.24-2.22C1440.9,900.32,1441.15,900,1441.44,900Z"/><path class="cls-3" d="M1462.69,900.79c0-.25.09-.51.12-.77,0-.06,0-.12,0-.18v-.08h0l0-.39a13.88,13.88,0,0,0,0-1.58c0-.37.26-.72.54-.7a.66.66,0,0,1,.55.7,15.94,15.94,0,0,1-.25,3.38c-.06.35-.39.6-.66.48A.75.75,0,0,1,1462.69,900.79Z"/><path class="cls-3" d="M1437.62,826.34a.65.65,0,0,1,.54.7v2.61c0,.37-.25.72-.54.7a.65.65,0,0,1-.54-.7V827C1437.08,826.68,1437.33,826.33,1437.62,826.34Z"/><path class="cls-3" d="M1447.05,819.67a.65.65,0,0,1,.54.7v4.06c0,.37-.25.72-.54.7a.65.65,0,0,1-.54-.7v-4.06C1446.51,820,1446.76,819.66,1447.05,819.67Z"/><path class="cls-3" d="M1447.72,844a.65.65,0,0,1,.54.7v2.32c0,.36-.25.71-.54.7a.65.65,0,0,1-.54-.7v-2.32C1447.18,844.36,1447.43,844,1447.72,844Z"/><path class="cls-3" d="M1429.77,850.41a.65.65,0,0,1,.54.7v2.61c0,.36-.25.71-.54.7a.65.65,0,0,1-.55-.7v-2.61C1429.22,850.74,1429.47,850.39,1429.77,850.41Z"/><path class="cls-3" d="M1455.73,909.2c0-.28.08-.56.11-.84v-.1c0-.07,0-.14,0-.2l0-.44c0-.57,0-1.14,0-1.71,0-.37.25-.72.54-.7a.65.65,0,0,1,.54.7,22.29,22.29,0,0,1-.25,3.66c0,.36-.4.6-.66.49A.75.75,0,0,1,1455.73,909.2Z"/><path class="cls-3" d="M1472.72,899.44a.53.53,0,0,1,.66.48,13.72,13.72,0,0,1,.25,2.22c0,.37-.26.71-.54.7a.65.65,0,0,1-.54-.7c0-.28,0-.55-.06-.83s-.09-.68-.15-1A.74.74,0,0,1,1472.72,899.44Z"/><path class="cls-3" d="M1421.46,896.8a.65.65,0,0,1,.54.7v1.74c0,.37-.25.72-.54.7a.65.65,0,0,1-.54-.7V897.5C1420.92,897.13,1421.17,896.78,1421.46,896.8Z"/><path class="cls-3" d="M1438.88,867.8a.65.65,0,0,1,.55.7v4.17c0,.36-.25.71-.55.7a.65.65,0,0,1-.54-.7V868.5C1438.34,868.14,1438.59,867.79,1438.88,867.8Z"/><path class="cls-3" d="M1430,883.79a.48.48,0,0,1,.38-.2.46.46,0,0,1,.38.2.85.85,0,0,1,.16.5v1.31a.8.8,0,0,1-.16.49.47.47,0,0,1-.38.21.48.48,0,0,1-.38-.21.8.8,0,0,1-.16-.49v-1.31A.85.85,0,0,1,1430,883.79Z"/><path class="cls-3" d="M1445.81,882.75c0-.9,1.08-.9,1.08,0,0,2.12.24,4.23.17,6.36,0,.89-1.11.9-1.08,0C1446.05,887,1445.82,884.87,1445.81,882.75Z"/><path class="cls-3" d="M1422.59,873.06a.65.65,0,0,1,.54.7v3.51c0,.37-.24.72-.54.7a.65.65,0,0,1-.54-.7v-3.51C1422.05,873.4,1422.3,873.05,1422.59,873.06Z"/><path class="cls-3" d="M1455.21,845.7c0,2,0,4.1.17,6.14a.65.65,0,0,1-.54.7c-.32,0-.52-.32-.55-.7-.14-2-.16-4.09-.16-6.14C1454.12,844.8,1455.2,844.8,1455.21,845.7Z"/><path class="cls-3" d="M1442.48,848.77v8.33c0,.9-1.08.9-1.08,0v-8.33C1441.4,847.87,1442.48,847.87,1442.48,848.77Z"/><path class="cls-3" d="M1455.85,862.1a.65.65,0,0,1,.54.7v3.07c0,.37-.24.72-.54.7a.65.65,0,0,1-.54-.7V862.8C1455.31,862.44,1455.56,862.09,1455.85,862.1Z"/><path class="cls-3" d="M1460.25,889.14a41.27,41.27,0,0,0,.32-6.39c0-.9,1.07-.9,1.09,0a46.19,46.19,0,0,1-.36,6.76.55.55,0,0,1-.67.49A.77.77,0,0,1,1460.25,889.14Z"/><path class="cls-3" d="M1449.19,829.86a.5.5,0,0,1,.39-.2.52.52,0,0,1,.38.2.85.85,0,0,1,.16.5v1.1a.84.84,0,0,1-.16.49.5.5,0,0,1-.38.2.47.47,0,0,1-.39-.2.92.92,0,0,1-.16-.49v-1.1A.85.85,0,0,1,1449.19,829.86Z"/><path class="cls-3" d="M1443.33,813.7v6.58c0,.89-1.08.9-1.08,0V813.7C1442.25,812.8,1443.33,812.8,1443.33,813.7Z"/><path class="cls-3" d="M1451.07,814.36c0-.37.25-.72.54-.7a.64.64,0,0,1,.54.7c0,.65,0,1.3,0,1.94,0,.33,0,.65,0,1,0,0,0,.13,0,.14l0,.2c0,.17,0,.34.08.51a.76.76,0,0,1-.37.86.55.55,0,0,1-.67-.49A21.1,21.1,0,0,1,1451.07,814.36Z"/><path class="cls-3" d="M1470.28,879a.65.65,0,0,1,.54.7v2.19c0,.37-.25.72-.54.7a.64.64,0,0,1-.54-.7v-2.19C1469.74,879.32,1470,879,1470.28,879Z"/></g><path class="cls-5" d="M1415.91,897.55a.33.33,0,0,0,.19-.06.62.62,0,0,0,.17-.71,8.85,8.85,0,0,1-.26-5.19,27.16,27.16,0,0,1,1.68-4.76l.15-.36c4.84-11.4,8.5-23.75,12-35.69,3.18-10.71,6.46-21.79,10.59-32.13a14.39,14.39,0,0,1,2.94-5.18.61.61,0,0,0,.08-.73.35.35,0,0,0-.56-.11,15.21,15.21,0,0,0-3.19,5.54c-4.14,10.39-7.43,21.5-10.61,32.24-3.53,11.9-7.19,24.22-12,35.56l-.15.36a27.65,27.65,0,0,0-1.75,5,10.22,10.22,0,0,0,.32,6A.42.42,0,0,0,1415.91,897.55Z"/><path class="cls-5" d="M1477.46,896.41a.31.31,0,0,0,.13,0,.58.58,0,0,0,.25-.67c-2.94-11-6.58-21.83-10.11-32.33l-2.08-6.22-3.57-10.69-3.66-11q-1.74-5.24-3.47-10.48c-.25-.76-.48-1.51-.7-2.24-1.42-4.61-2.65-8.59-7.08-10.27-.21-.09-.44.07-.5.35a.55.55,0,0,0,.27.65c4,1.54,5.16,5.12,6.55,9.66.23.73.46,1.49.71,2.26,1.16,3.5,2.31,7,3.48,10.49,1.21,3.65,2.44,7.3,3.66,11l3.57,10.68c.69,2.08,1.38,4.15,2.08,6.23,3.52,10.48,7.15,21.32,10.09,32.25A.42.42,0,0,0,1477.46,896.41Z"/><path class="cls-5" d="M1465.41,909.63c3.62,0,7.61-.48,10.24-4.12a.63.63,0,0,0,0-.74.34.34,0,0,0-.57,0c-2.89,4-7.74,3.85-11.65,3.75-12.23-.32-37.69-1-45-7.81a.34.34,0,0,0-.56.12.6.6,0,0,0,.09.73c7.46,7,33.1,7.69,45.42,8C1464.05,909.61,1464.72,909.63,1465.41,909.63Z"/><path class="cls-2" d="M1234,1071.21q0,17.54,0,35.06a58.85,58.85,0,0,0,.63,10.68c1.19,6.07,4.61,6.07,5.79,0a58.46,58.46,0,0,0,.63-10.65l0-35.07"/><path class="cls-1" d="M1214.67,1084.23c-5.61-2.58-9.27-7.16-6.53-14.35,9.65-25.32,14.62-45.16,21.94-67.74,1.45-4.48,3.63-9.66,7.38-9.93,4.18-.3,6.77,5.62,8.32,10.63,6.37,20.5,13,40.62,20.12,60.65,1.85,5.17,5.19,14,2.52,19.52-3.78,7.89-14.92,5.24-20.8,5C1242.39,1087.76,1224.78,1088.9,1214.67,1084.23Z"/><g class="cls-12"><path class="cls-3" d="M1245.45,1013.68a.55.55,0,0,1,.67.49,11.35,11.35,0,0,1,.24,3.08c0,.37-.23.72-.54.7a.65.65,0,0,1-.54-.7,9.89,9.89,0,0,0,0-1.44,1.1,1.1,0,0,0,0-.18v0h0c0-.12,0-.23,0-.35s-.08-.48-.13-.71A.75.75,0,0,1,1245.45,1013.68Z"/><path class="cls-3" d="M1234.37,1013.94a.65.65,0,0,1,.55.7v3.48c0,.37-.25.72-.55.7a.65.65,0,0,1-.54-.7v-3.48C1233.83,1014.28,1234.08,1013.93,1234.37,1013.94Z"/><path class="cls-3" d="M1241.11,1036.56a.65.65,0,0,1,.54.7V1041c0,.36-.25.71-.54.7a.65.65,0,0,1-.54-.7v-3.77C1240.57,1036.89,1240.82,1036.54,1241.11,1036.56Z"/><path class="cls-3" d="M1228.31,1037.43a.65.65,0,0,1,.54.7v3.19c0,.36-.24.71-.54.7a.65.65,0,0,1-.54-.7v-3.19C1227.77,1037.76,1228,1037.41,1228.31,1037.43Z"/><path class="cls-3" d="M1251,1053.38a.63.63,0,0,1,.54.7v2.9c0,.36-.24.71-.54.69a.64.64,0,0,1-.54-.69v-2.9C1250.44,1053.71,1250.69,1053.36,1251,1053.38Z"/><path class="cls-3" d="M1230.56,1062.08a.64.64,0,0,1,.54.69v4.06c0,.37-.25.72-.54.7a.64.64,0,0,1-.54-.7v-4.06C1230,1062.41,1230.27,1062.06,1230.56,1062.08Z"/><path class="cls-3" d="M1215.74,1064.4a.64.64,0,0,1,.55.69v3.48c0,.37-.25.72-.55.7a.64.64,0,0,1-.54-.7v-3.48C1215.2,1064.73,1215.45,1064.38,1215.74,1064.4Z"/><path class="cls-3" d="M1251.43,1033.08a.65.65,0,0,1,.54.7v2c0,.36-.24.71-.54.7a.65.65,0,0,1-.54-.7v-2C1250.89,1033.41,1251.14,1033.06,1251.43,1033.08Z"/><path class="cls-3" d="M1260.19,1067.3a.64.64,0,0,1,.54.69v4.06c0,.37-.25.72-.54.7a.63.63,0,0,1-.54-.7V1068C1259.65,1067.63,1259.89,1067.28,1260.19,1067.3Z"/><path class="cls-3" d="M1244.78,1069.93a.55.55,0,0,1,.67.49,41.53,41.53,0,0,1,.24,5.69c0,.9-1.1.9-1.08,0a37.81,37.81,0,0,0-.21-5.32A.78.78,0,0,1,1244.78,1069.93Z"/><path class="cls-3" d="M1220.68,1076.28a.65.65,0,0,1,.54.7v2.9c0,.37-.25.72-.54.7a.65.65,0,0,1-.54-.7V1077C1220.14,1076.62,1220.39,1076.27,1220.68,1076.28Z"/><path class="cls-3" d="M1221.36,1045.84a.65.65,0,0,1,.54.7v4.93c0,.37-.25.7-.54.7a.65.65,0,0,1-.55-.7v-4.93A.65.65,0,0,1,1221.36,1045.84Z"/><path class="cls-3" d="M1240.21,1050.77a.64.64,0,0,1,.54.7v2.32c0,.36-.25.71-.54.7a.65.65,0,0,1-.54-.7v-2.32C1239.67,1051.1,1239.92,1050.75,1240.21,1050.77Z"/><path class="cls-3" d="M1228.31,1022.93c.32,0,.52.31.54.7.06,1,.14,1.94.23,2.9a.8.8,0,0,1-.16.49.47.47,0,0,1-.38.21.48.48,0,0,1-.38-.21.87.87,0,0,1-.16-.49c-.09-1-.17-1.93-.23-2.9C1227.75,1023.27,1228,1022.92,1228.31,1022.93Z"/><path class="cls-3" d="M1256.5,1048c0-.37.27-.72.54-.7s.52.31.55.7a34.29,34.29,0,0,1,.22,4.06c0,.36-.24.71-.54.7a.65.65,0,0,1-.54-.7A32.29,32.29,0,0,0,1256.5,1048Z"/><path class="cls-3" d="M1233.25,1079.76a.65.65,0,0,1,.54.7,7.92,7.92,0,0,0,0,.85,8.33,8.33,0,0,0,.16,1,.76.76,0,0,1-.38.86.56.56,0,0,1-.67-.49,10.27,10.27,0,0,1-.24-2.22C1232.71,1080.1,1233,1079.75,1233.25,1079.76Z"/><path class="cls-3" d="M1254.5,1080.57q.07-.39.12-.78l0-.18v-.07h0l0-.39c0-.53,0-1.05,0-1.58,0-.36.26-.71.54-.7a.66.66,0,0,1,.54.7,15.89,15.89,0,0,1-.24,3.38c-.07.35-.4.6-.67.49A.76.76,0,0,1,1254.5,1080.57Z"/><path class="cls-3" d="M1229.44,1006.11a.65.65,0,0,1,.54.7v2.61c0,.37-.25.72-.54.7a.64.64,0,0,1-.54-.7v-2.61C1228.9,1006.45,1229.14,1006.1,1229.44,1006.11Z"/><path class="cls-3" d="M1238.86,999.45a.63.63,0,0,1,.54.69v4.06c0,.37-.24.72-.54.7a.64.64,0,0,1-.54-.7v-4.06C1238.32,999.78,1238.57,999.43,1238.86,999.45Z"/><path class="cls-3" d="M1239.54,1023.8a.65.65,0,0,1,.54.7v2.32c0,.37-.25.72-.54.7a.65.65,0,0,1-.54-.7v-2.32C1239,1024.14,1239.24,1023.78,1239.54,1023.8Z"/><path class="cls-3" d="M1221.58,1030.18a.65.65,0,0,1,.54.7v2.61c0,.36-.25.72-.54.7a.65.65,0,0,1-.54-.7v-2.61C1221,1030.51,1221.29,1030.16,1221.58,1030.18Z"/><path class="cls-3" d="M1247.54,1089c0-.27.08-.55.11-.83V1088a1.36,1.36,0,0,0,0-.2l0-.43c0-.57,0-1.15,0-1.72,0-.36.25-.71.54-.7a.65.65,0,0,1,.54.7,22.48,22.48,0,0,1-.24,3.67.54.54,0,0,1-.67.48A.78.78,0,0,1,1247.54,1089Z"/><path class="cls-3" d="M1264.53,1079.21a.56.56,0,0,1,.67.49,13.58,13.58,0,0,1,.24,2.21c0,.37-.25.72-.54.7a.65.65,0,0,1-.54-.7c0-.27,0-.55,0-.82s-.09-.69-.16-1S1264.24,1079.29,1264.53,1079.21Z"/><path class="cls-3" d="M1213.28,1076.57a.65.65,0,0,1,.54.7V1079c0,.37-.25.72-.54.7a.65.65,0,0,1-.55-.7v-1.74C1212.73,1076.91,1213,1076.56,1213.28,1076.57Z"/><path class="cls-3" d="M1230.7,1047.58a.64.64,0,0,1,.54.69v4.17c0,.36-.25.72-.54.7a.65.65,0,0,1-.54-.7v-4.17C1230.16,1047.91,1230.41,1047.56,1230.7,1047.58Z"/><path class="cls-3" d="M1221.83,1063.56a.5.5,0,0,1,.38-.2.54.54,0,0,1,.39.2.93.93,0,0,1,.16.5v1.31a.93.93,0,0,1-.16.5.5.5,0,0,1-.39.2.52.52,0,0,1-.38-.2.85.85,0,0,1-.16-.5v-1.31A.85.85,0,0,1,1221.83,1063.56Z"/><path class="cls-3" d="M1237.62,1062.52c0-.9,1.08-.9,1.09,0,0,2.12.24,4.24.17,6.36,0,.9-1.12.9-1.09,0C1237.87,1066.76,1237.63,1064.64,1237.62,1062.52Z"/><path class="cls-3" d="M1214.41,1052.84a.64.64,0,0,1,.54.7v3.5c0,.37-.25.72-.54.7a.65.65,0,0,1-.54-.7v-3.5C1213.87,1053.17,1214.12,1052.82,1214.41,1052.84Z"/><path class="cls-3" d="M1247,1025.48c0,2,0,4.09.17,6.13a.64.64,0,0,1-.54.7c-.32,0-.51-.32-.54-.7-.15-2-.16-4.09-.17-6.13C1245.94,1024.58,1247,1024.58,1247,1025.48Z"/><path class="cls-3" d="M1234.29,1028.55v8.33c0,.89-1.08.9-1.08,0v-8.33C1233.21,1027.65,1234.29,1027.64,1234.29,1028.55Z"/><path class="cls-3" d="M1247.67,1041.88a.64.64,0,0,1,.54.69v3.07c0,.37-.25.72-.54.7a.64.64,0,0,1-.54-.7v-3.07C1247.13,1042.21,1247.38,1041.86,1247.67,1041.88Z"/><path class="cls-3" d="M1252.07,1068.91a42.49,42.49,0,0,0,.32-6.39c0-.9,1.06-.9,1.08,0a43.7,43.7,0,0,1-.36,6.77.53.53,0,0,1-.66.48A.75.75,0,0,1,1252.07,1068.91Z"/><path class="cls-3" d="M1241,1009.64a.48.48,0,0,1,.38-.21.5.5,0,0,1,.38.21.8.8,0,0,1,.16.49v1.1a.8.8,0,0,1-.16.49.53.53,0,0,1-.38.21.48.48,0,0,1-.38-.21.8.8,0,0,1-.16-.49v-1.1A.8.8,0,0,1,1241,1009.64Z"/><path class="cls-3" d="M1235.14,993.47v6.58c0,.9-1.08.9-1.08,0v-6.58C1234.06,992.57,1235.14,992.57,1235.14,993.47Z"/><path class="cls-3" d="M1242.89,994.13c0-.37.24-.72.54-.7a.65.65,0,0,1,.54.7c0,.65,0,1.3,0,2,0,.32,0,.64,0,1a.59.59,0,0,1,0,.14,1.37,1.37,0,0,0,0,.19,4.54,4.54,0,0,0,.09.51.76.76,0,0,1-.38.86.56.56,0,0,1-.67-.49A20.32,20.32,0,0,1,1242.89,994.13Z"/><path class="cls-3" d="M1262.09,1058.76a.63.63,0,0,1,.54.69v2.2c0,.36-.25.71-.54.7a.65.65,0,0,1-.54-.7v-2.2C1261.55,1059.09,1261.8,1058.74,1262.09,1058.76Z"/></g><path class="cls-5" d="M1207.73,1077.32a.35.35,0,0,0,.19-.06.6.6,0,0,0,.16-.71,8.93,8.93,0,0,1-.26-5.19,26.77,26.77,0,0,1,1.68-4.75l.16-.36c4.84-11.41,8.5-23.76,12-35.7,3.17-10.71,6.46-21.79,10.58-32.13a14.26,14.26,0,0,1,2.94-5.17.65.65,0,0,0,.09-.74.35.35,0,0,0-.57-.11,15.19,15.19,0,0,0-3.18,5.54c-4.14,10.39-7.44,21.5-10.62,32.24-3.53,11.91-7.18,24.22-12,35.56l-.16.36a28.45,28.45,0,0,0-1.75,5,10.13,10.13,0,0,0,.33,6A.4.4,0,0,0,1207.73,1077.32Z"/><path class="cls-5" d="M1269.27,1076.18a.35.35,0,0,0,.14,0,.58.58,0,0,0,.25-.67c-2.94-11-6.59-21.83-10.11-32.33-.7-2.07-1.39-4.14-2.09-6.22q-1.77-5.34-3.56-10.69c-1.22-3.65-2.45-7.3-3.66-11q-1.74-5.24-3.47-10.48c-.25-.76-.48-1.51-.71-2.24-1.42-4.61-2.64-8.59-7.08-10.27-.21-.09-.44.08-.5.36a.57.57,0,0,0,.28.65c4,1.53,5.15,5.12,6.55,9.65.22.74.46,1.49.71,2.26q1.73,5.25,3.47,10.49l3.66,11,3.57,10.69,2.08,6.22c3.52,10.48,7.16,21.32,10.09,32.26A.44.44,0,0,0,1269.27,1076.18Z"/><path class="cls-5" d="M1257.22,1089.4c3.62,0,7.61-.48,10.25-4.12a.65.65,0,0,0,0-.74.36.36,0,0,0-.58,0c-2.88,4-7.74,3.85-11.64,3.75-12.24-.32-37.7-1-45-7.81a.35.35,0,0,0-.57.12.63.63,0,0,0,.09.73c7.47,7,33.1,7.69,45.42,8C1255.86,1089.39,1256.54,1089.4,1257.22,1089.4Z"/><path class="cls-13" d="M-46,780.42v-1.64c129.44-21,271.1-20.86,382.22,44.17,60.93,35.66,107.85,88,155.5,138.14,47,49.38,98.87,99.6,164.53,127.25,72.55,30.54,153.52,40.06,225.85,74.18,30,14.14,58.79,31.9,79,56.82,0,0,17-27.95,21.47,22.94l-1032.73,3.85C-48.53,1090.91-45.63,935.65-46,780.42Z"/><path class="cls-13" d="M1431.93,958.47l-2.48,2.62c-46.86,49.38-98.66,99.6-164.18,127.25-72.38,30.54-153.18,40.06-225.35,74.18-29.89,14.14-58.66,31.9-78.81,56.82,0,0-17-27.95-21.43,22.94l1030.46,3.85c-1.61-155.22-4.51-310.48-4.16-465.71v-1.64c-129.15-21-270.5-20.86-381.38,44.17C1529,855.59,1485,902.24,1441.51,948.34Z"/><rect class="cls-14" x="1.53" y="1203.82" width="1920" height="954.16"/></svg>