<svg id="Layer_1" data-name="Layer 1" xmlns="http://www.w3.org/2000/svg" xmlns:xlink="http://www.w3.org/1999/xlink" viewBox="0 0 1200 1200"><defs><style>.cls-1{fill:#4ba4bb;}.cls-2{clip-path:url(#clip-path);}.cls-3{fill:#131311;}.cls-4{clip-path:url(#clip-path-2);}.cls-5{fill:#c23736;}.cls-6{fill:#151413;}</style><clipPath id="clip-path"><path class="cls-1" d="M546.76,598.69c3.44-9.62-5-19-15-17.36a101.79,101.79,0,0,1-80.2-20.94c-21.24-17.13-36.1-43.51-41.92-72.52A13.31,13.31,0,0,0,387,481.13c-20.37,20.37-49.1,29.91-77.22,29-33.32-1.11-64.42-23.21-80.45-55.37-4.12-8.27-15.11-10.3-21.45-3.58C156,506.14,95.47,505.08,24,513.55a9.65,9.65,0,0,0-5,17c33.25,27.33,101.2,75.74,113.86,132.76A13.19,13.19,0,0,0,152.08,672c27.89-15.32,61.44-17,90.83-8.33,30,8.82,55.82,48.27,71.25,83.22A13.26,13.26,0,0,0,335,751.75c52.19-45.66,125.43-76,189.51-72.26,8.47.49,15.51-6.77,14.14-15.14C535.36,644.33,539.28,619.66,546.76,598.69Z"/></clipPath><clipPath id="clip-path-2"><path class="cls-1" d="M668.61,621.28c-4.2-9.16,3.25-19.12,13.3-18.36A100.44,100.44,0,0,0,759,575.45c19.41-18.66,31.76-45.87,35-74.9A13.13,13.13,0,0,1,815.64,492c21.78,18.29,50.84,25.2,78.41,21.86,32.67-4,61.35-28.35,74.34-61.35,3.34-8.48,14-11.42,20.78-5.36,55.74,49.62,115.11,43.39,186.11,45.57a9.53,9.53,0,0,1,6.35,16.33c-30.35,29.72-93,83.14-100.56,140.3A13,13,0,0,1,1063,659.5c-28.73-12.68-61.86-11.41-90-.4C944.2,670.34,922.2,711.34,910,747A13.09,13.09,0,0,1,890,753.59c-55.24-40.41-129.85-64-192.53-54.78-8.29,1.21-15.84-5.32-15.21-13.67C683.74,665.17,677.78,641.26,668.61,621.28Z"/></clipPath></defs><path class="cls-1" d="M546.76,598.69c3.44-9.62-5-19-15-17.36a101.79,101.79,0,0,1-80.2-20.94c-21.24-17.13-36.1-43.51-41.92-72.52A13.31,13.31,0,0,0,387,481.13c-20.37,20.37-49.1,29.91-77.22,29-33.32-1.11-64.42-23.21-80.45-55.37-4.12-8.27-15.11-10.3-21.45-3.58C156,506.14,95.47,505.08,24,513.55a9.65,9.65,0,0,0-5,17c33.25,27.33,101.2,75.74,113.86,132.76A13.19,13.19,0,0,0,152.08,672c27.89-15.32,61.44-17,90.83-8.33,30,8.82,55.82,48.27,71.25,83.22A13.26,13.26,0,0,0,335,751.75c52.19-45.66,125.43-76,189.51-72.26,8.47.49,15.51-6.77,14.14-15.14C535.36,644.33,539.28,619.66,546.76,598.69Z"/><g class="cls-2"><path class="cls-3" d="M554.08,627.81c-68.1-17.33-138.55-21.41-207.87-31.6-71.38-10.5-140.95-29.85-210.37-49.07-39.47-10.93-79-21.8-118.9-31-5.61-1.3-7,7.54-1.45,8.83,70.67,16.31,140,37.84,210.28,55.6,35.17,8.88,70.61,16.86,106.45,22.56,34.46,5.48,69.17,9.17,103.8,13.43,39.16,4.82,78.33,10.35,116.61,20.09C558.21,638.07,559.63,629.23,554.08,627.81Z"/></g><path class="cls-1" d="M668.61,621.28c-4.2-9.16,3.25-19.12,13.3-18.36A100.44,100.44,0,0,0,759,575.45c19.41-18.66,31.76-45.87,35-74.9A13.13,13.13,0,0,1,815.64,492c21.78,18.29,50.84,25.2,78.41,21.86,32.67-4,61.35-28.35,74.34-61.35,3.34-8.48,14-11.42,20.78-5.36,55.74,49.62,115.11,43.39,186.11,45.57a9.53,9.53,0,0,1,6.35,16.33c-30.35,29.72-93,83.14-100.56,140.3A13,13,0,0,1,1063,659.5c-28.73-12.68-61.86-11.41-90-.4C944.2,670.34,922.2,711.34,910,747A13.09,13.09,0,0,1,890,753.59c-55.24-40.41-129.85-64-192.53-54.78-8.29,1.21-15.84-5.32-15.21-13.67C683.74,665.17,677.78,641.26,668.61,621.28Z"/><g class="cls-4"><path class="cls-3" d="M667.7,662.64c60.31-21.08,123.79-30.35,185.76-45.06,63.81-15.14,125.29-38.17,186.63-61.06,34.88-13,69.8-26,105.23-37.49,5-1.62,7,6.27,2,7.89-62.71,20.35-123.78,45.33-186,67-31.15,10.83-62.61,20.86-94.62,28.85-30.77,7.69-61.92,13.77-92.94,20.37-35.08,7.46-70.12,15.56-104,27.41C664.77,672.25,662.79,664.36,667.7,662.64Z"/></g><path class="cls-5" d="M519.77,548C475.43,548,433,587,435,632.77c2.05,45.93,37.24,84.77,84.76,84.77,44.34,0,86.82-39,84.77-84.77S567.29,548,519.77,548Z"/><path class="cls-5" d="M663.89,583.86c-44.33,0-86.81,39-84.76,84.77s37.24,84.76,84.76,84.76c44.34,0,86.82-39,84.77-84.76S711.42,583.86,663.89,583.86Z"/><path class="cls-5" d="M619.49,446.61C575.81,446.61,534,485,536,530.12s36.7,83.51,83.51,83.51c43.69,0,85.54-38.41,83.52-83.51S666.31,446.61,619.49,446.61Z"/><path class="cls-6" d="M617.2,616.26c-32,0-62.67-19.1-76.73-47.82-14.24-29.08-10.21-65.6,10-90.87a4.07,4.07,0,1,1,6.35,5.08c-18,22.51-21.75,56.31-9.08,82.21s41.64,43.75,70.5,43.25,57.27-19.07,69.17-45.33a4.07,4.07,0,1,1,7.41,3.35c-13.36,29.49-44.09,49.63-76.46,50.12Z"/><path class="cls-6" d="M666.33,754.52c-26.18,0-52.49-11.63-69.38-31.66-20.88-24.76-26.68-61.54-14.43-91.52a4.07,4.07,0,1,1,7.53,3.07c-11.13,27.26-5.86,60.69,13.12,83.2s51,33.35,79.78,27,53.23-29.74,60.92-58.16a4.07,4.07,0,0,1,7.85,2.13c-8.46,31.26-35.39,57-67,64A84.75,84.75,0,0,1,666.33,754.52Z"/><path class="cls-6" d="M518.22,720.61a86.17,86.17,0,0,1-36.39-8,86.71,86.71,0,0,1-11.6-150.6,4.07,4.07,0,0,1,4.53,6.76c-22.8,15.28-36.71,43.93-34.6,71.3s20.24,53.56,45.11,65.17S541.86,714,564.19,698a4.06,4.06,0,1,1,4.73,6.61A87.45,87.45,0,0,1,518.22,720.61Z"/><path class="cls-6" d="M726.2,663.87a4.06,4.06,0,0,1-4-3.65,53.65,53.65,0,0,0-27.45-40.91,4.07,4.07,0,0,1,3.83-7.18,61.15,61.15,0,0,1,31.71,47.27,4.06,4.06,0,0,1-3.64,4.45A2.88,2.88,0,0,1,726.2,663.87Z"/><path class="cls-6" d="M468.81,620.11a4.07,4.07,0,0,1-4.05-3.7c-1.64-18.31,11.54-36.76,29.41-41.12a4.07,4.07,0,0,1,1.93,7.9c-14.11,3.45-24.53,18-23.23,32.49a4.07,4.07,0,0,1-3.69,4.42Z"/><path class="cls-6" d="M656.77,488.73a4.08,4.08,0,0,1-4-3.46c-1.48-9.77-11.11-17.8-21-17.57a4.07,4.07,0,0,1-.21-8.13c13.83-.37,27.12,10.62,29.22,24.48a4.07,4.07,0,0,1-3.41,4.63A4.44,4.44,0,0,1,656.77,488.73Z"/></svg>