<svg xmlns="http://www.w3.org/2000/svg" viewBox="0 0 1200 1200"><defs><style>.cls-1{isolation:isolate;}.cls-2{fill:#1c1719;}.cls-3{fill:#96262c;}.cls-4{fill:#cd343d;}.cls-5{fill:#fff;}.cls-6{fill:#120f10;}.cls-7{fill:#f0c431;}.cls-8{fill:#5d2a6f;opacity:0.17;}.cls-12,.cls-8{mix-blend-mode:multiply;}.cls-9{fill:#f3efe9;}.cls-10,.cls-12{fill:#f2c3af;}.cls-11{fill:#da8492;}.cls-12{opacity:0.53;}.cls-13{fill:#e2dfda;}.cls-14{fill:#664332;}.cls-15{opacity:0.49;}.cls-16{fill:#573929;}</style></defs><g class="cls-1"><g id="Layer_1" data-name="Layer 1"><path class="cls-2" d="M718.79,1123.55s23.67,15.76,19.85,27.73c-3.89,12.31-75.14,7.61-83.66.85-4.33-3.45-8.53-45.42-11.57-85.8,14.74,1.09,59.18,3.89,82.92.14Z"/><path class="cls-3" d="M738.64,973.1l-12.31,93.37c-23.74,3.75-68.18,1-82.92-.14-2.94-38.88-4.87-76.25-4.87-76.25C670.63,968.1,738.64,973.1,738.64,973.1Z"/><path d="M635,1051.59c-1.8,4.42.51,22.79,1.8,24.89s25.36,5.7,48.81,5.7c26.53,0,44.09-3,46-4.91,2.67-2.73,4.51-24.38,2.32-25.5s-12.44,2-49.39,2C645.06,1053.79,636.33,1048.37,635,1051.59Z"/><path class="cls-2" d="M582.78,1066.33c-3.08,40.38-7.27,82.35-11.6,85.8-8.52,6.76-79.77,11.46-83.66-.85-3.79-12,19.88-27.73,19.88-27.73l-7.54-57.08C523.56,1070.22,568.1,1067.42,582.78,1066.33Z"/><path class="cls-3" d="M587.65,990.08s-1.93,37.37-4.87,76.25c-14.68,1.09-59.22,3.89-82.92.14L487.52,973.1S555.56,968.1,587.65,990.08Z"/><path d="M591.16,1051.59c1.8,4.42-.51,22.79-1.8,24.89s-25.36,5.7-48.81,5.7c-26.53,0-44.09-3-46-4.91-2.67-2.73-4.51-24.38-2.32-25.5s12.44,2,49.39,2C581.12,1053.79,589.85,1048.37,591.16,1051.59Z"/><path class="cls-4" d="M484.07,551.48C383.53,614.74,321.75,900.35,324,942.06c1,19.17,143.16,79.41,326.9,69.7,188.24-10,259.25-68.37,259.26-81,0-38.33-62.49-310.32-181.49-384.39C660.76,504.13,559.31,504.13,484.07,551.48Z"/><path class="cls-5" d="M635.5,971.83c2.1-86-9-455.76-9-455.76-11.71-11.37-28.06.82-28.06.82s-5.59,365.51,0,454.94c0,0,7.21,7.43,17.46,8S635.5,971.83,635.5,971.83Z"/><path class="cls-4" d="M484.07,551.48C383.53,614.74,321.75,900.35,324,942.06c1,19.17,143.16,79.41,326.9,69.7,188.24-10,259.25-68.37,259.26-81,0-38.33-62.49-310.32-181.49-384.39C660.76,504.13,559.31,504.13,484.07,551.48Z"/><path class="cls-5" d="M635.5,971.83c2.1-86-9-455.76-9-455.76-11.71-11.37-28.06.82-28.06.82s-5.59,365.51,0,454.94c0,0,7.21,7.43,17.46,8S635.5,971.83,635.5,971.83Z"/><path class="cls-6" d="M884.43,812.87s-79.11,56.48-269.82,56.48c-157.6,0-267.49-52.41-267.49-52.41s4.17-30.74,15.39-52.88c0,0,125,52,253.44,48.81,144.57-3.54,250.76-53.61,250.76-53.61S884.91,785.14,884.43,812.87Z"/><path class="cls-7" d="M651.09,884.54H582.5a15.23,15.23,0,0,1-15.19-14.31c-.56-3.17-2.93-17.12-2.93-28s2.37-24.77,2.93-27.94A15.23,15.23,0,0,1,582.5,800h68.59a15.24,15.24,0,0,1,15.16,13.8,121.12,121.12,0,0,1,0,56.91A15.24,15.24,0,0,1,651.09,884.54ZM584,867.63h65.55c.06-.28.14-.57.22-.85,0-.07,2.94-9.69,2.94-24.5s-2.92-24.42-3-24.52a7.72,7.72,0,0,1-.2-.83H584c-.28,1.6-2.73,15.45-2.73,25.35S583.74,866.05,584,867.63Z"/><path class="cls-8" d="M902.83,893c-9.53,1-17.36,4.71-26.49,7.89-79,32.46-161.9,58.94-245,62.92-4.33.21-8.65.41-13,.54-4.14.12-8.28.17-12.42.22-1.67,0-3.35.07-5,.07-92.76.41-185.61-25.81-272.44-64-3.64,18.85-4.9,41.06-4.49,47.91,1,17.39,143.16,72.07,326.9,63.25,188.24-9,259.25-62.05,259.26-73.48C910.16,932.27,906.64,910.05,902.83,893Z"/><path class="cls-5" d="M325.13,899.79c13.06-.33,80.55,75,291.92,72.14,164-2.25,269.43-77.78,285.78-78.91s20.85,32.13,15.22,47.35-75,81.16-300.41,82.28S325.69,964,317.8,952.77,314.07,900.07,325.13,899.79Z"/><path class="cls-9" d="M428.83,348.86s-62,75.56-60.87,146.82c1.3,82.84,43.79,62.11,43.79,62.11s.06,98.63,70.54,131.3c50.81,23.55,74.37-17.55,74.37-17.55S587.37,728.45,668.07,713c70.11-13.4,66.5-74,66.5-74s16.08,27.81,46,1.91c51.27-44.38,19.54-125.61,19.54-125.61s33.66,6.38,20.43-67.14c-10.81-60.06-72-134.56-72-134.56S531.87,275.33,428.83,348.86Z"/><path class="cls-10" d="M464.41,342.07S447.28,450,497.1,461.63c32.12,7.49,53.53-25.4,106.41-28.93,55.7-3.71,55.22,26.84,92.9,17.88,18.11-4.3,40.9-39.24,20-125.43C716.39,325.15,601.43,279.71,464.41,342.07Z"/><path class="cls-11" d="M630.73,420.07c1.17,13.39-12.16,25.49-29.79,27s-32.86-8.05-34-21.43,12.16-25.49,29.79-27S629.56,406.69,630.73,420.07Z"/><path class="cls-6" d="M548.59,411.79c.66,7.59-4,14.2-10.31,14.76s-12-5.15-12.71-12.75,3.94-14.2,10.3-14.76S547.92,404.19,548.59,411.79Z"/><path class="cls-6" d="M667.05,401.4c.67,7.6-3.94,14.21-10.3,14.77S644.7,411,644,403.42s4-14.21,10.31-14.77S666.39,393.8,667.05,401.4Z"/><path class="cls-5" d="M543.41,373.78c3.79-4.53,2.83-16.69-11.83-15.15C519,359.94,507.38,369,504,379.26c-2.12,6.4,3.17,11.47,6.11,11.59,5.52.22,7.55-2.58,15-6.86C533.29,379.28,540.13,377.69,543.41,373.78Z"/><path class="cls-5" d="M639.94,366.91c-4.83-3.41-7-15.41,7.56-17.68,12.47-1.94,26,3.87,31.94,12.9,3.68,5.65-.13,11.9-2.94,12.77-5.28,1.63-8-.56-16.25-2.8C651.13,369.64,644.1,369.85,639.94,366.91Z"/><path class="cls-4" d="M752.43,252.12S713,83.3,530.91,87.38,278.58,203.29,264.21,288.12c-3.36,19.82,17.55,16.29,17.55,16.29s33.57-62.35,82.32-58.14,52.47,56.5,52.47,56.5S467,317,615,300.66,752.43,252.12,752.43,252.12Z"/><path class="cls-5" d="M410,285.53c-18.61,10.4-2.29,72.33,4.42,81.08s61.46-26.6,182.26-32.94,166.68,7.16,171.89-1.21,6-72.33-16.09-80.34C677.05,224.78,499.07,235.72,410,285.53Z"/><path class="cls-5" d="M306.72,315a40.79,40.79,0,1,0-37.07,44.19A40.81,40.81,0,0,0,306.72,315Z"/><path class="cls-12" d="M535.19,453.79c-.17,1.07.18,0-.17,1.07-12.27,4.88-23.7,10.09-37.9,6.78-9.6-2.24-16.7-8-21.94-16,.06-.45.09-.93.18-1.41,2.07-13.18,17.17-21.77,33.7-19.15S537.29,440.57,535.19,453.79Z"/><path class="cls-12" d="M718.51,426.35s0,0,0,0c-5.66,14.83-14.3,22.34-22.08,24.21-14.86,3.51-24.68,1.11-36-5-1.48-14.37,4.82-24.32,21.08-30.39C697,409.36,713.29,414.38,718.51,426.35Z"/><path class="cls-13" d="M522.92,654.71c-32.71,8.4-39.12-40.2-40.71-63.27a4,4,0,0,0-7.41-2c-3.25,4.65-8,13.76-15.72,10.33-6.08-2.68-8.64-18.77-9.05-24-.74-9.42.7-18.85.72-28.27a.5.5,0,0,0-.93-.25c-9.25,15.94-10.49,41.79,2.33,56.35,8.65,9.81,16.68,5.33,23.27-2,4,27.75,17.57,78.68,49.23,57.21A2.25,2.25,0,0,0,522.92,654.71Z"/><path class="cls-13" d="M759.27,583c-.94,2.35-2.06,4.65-3.08,7-3.62,8.3-3.23,9.39-13.09,12-9.56,2.52-11.83.89-17.06-7.39a24.32,24.32,0,0,1-3.7-14.66c.34-4.91-7.22-4.85-7.63,0-1.74,20.76-8,40.39-17.86,58.72-7.36,13.76-14.15,27.8-30.43,31.94a1,1,0,0,0,0,1.83c16.07,4.81,25.19-9.36,32.33-21.43,9.73-16.43,17.12-33.46,20.94-51.73,4.5,8,11.75,14.39,20.65,14.93,16.22,1,23.12-17.29,23.19-30.61C763.54,581,760.14,580.87,759.27,583Z"/><path class="cls-13" d="M766.66,527.25a2.23,2.23,0,0,0-3.83,0c-2,4.17-1.54,8.14-1.11,12.65.32,3.32.34,7.65,2.76,10.15a.39.39,0,0,0,.53,0c2.41-2.48,2.44-6.85,2.76-10.15C768.2,535.42,768.66,531.39,766.66,527.25Z"/><path class="cls-13" d="M776.15,506a3.72,3.72,0,0,0-2.59-3.4,2.57,2.57,0,0,0-1.87,0,3.52,3.52,0,0,0-2.47,2.47c-.81,5.52-.79,15.45,4.11,19.25a.62.62,0,0,0,1-.27,33.75,33.75,0,0,0,1.09-8.21C775.67,512.57,776.49,509.21,776.15,506Z"/><path class="cls-13" d="M765.26,373.42c-1.45-1.78-4.66.14-3.88,2.26,2.35,6.42,4.73,12.78,6.83,19.29,1.84,5.69,3.17,11.11,7.14,15.71,1.48,1.71,4.31.28,4.33-1.8C779.77,397.23,772.51,382.3,765.26,373.42Z"/><path class="cls-13" d="M783.11,429.73a.68.68,0,0,0-.8.1c-3.8,3.85-1,9.88,1.17,13.78.92,1.65,3.22.77,3.35-.91C787.17,438.31,787.17,432.54,783.11,429.73Z"/><path class="cls-13" d="M418.94,409.09l-.64-.19a2.72,2.72,0,0,0-2.68.71c-9,9.66-11.6,26-12.18,38.73-.14,2.91,3.9,3.76,5.31,1.44,4.86-8,5.52-16.95,7.75-25.83C417.09,421.63,422.78,410.28,418.94,409.09Z"/><path class="cls-13" d="M397.86,472.79a.68.68,0,0,0-1.07-.14c-3.54,3.92-4.09,10.7-5.2,15.73-1.38,6.24-1.86,11.88-.15,18.12a2.56,2.56,0,0,0,4.9,0,114.65,114.65,0,0,0,2.91-18.25C399.68,483.32,401,477,397.86,472.79Z"/><path class="cls-13" d="M427.22,466.2a.67.67,0,0,0-1.28,0,58.62,58.62,0,0,0-4,27.23c.2,2.48,4,3.37,4.62.62C428.71,484.65,429.93,475.61,427.22,466.2Z"/><path class="cls-13" d="M536.48,536.58c-.73-4.06-1-8.49-2.38-12.38-.88-2.45-4.6-2.79-5.33,0-2.19,8.32.48,19.74,5.51,26.55,1,1.41,3.58,1.08,3.54-1A83.55,83.55,0,0,0,536.48,536.58Z"/><path class="cls-13" d="M549,532.21a1,1,0,0,0-1.49.19c-5,6.58.18,17.89,2.14,24.72.65,2.28,4.25,1.89,4.2-.57C553.68,549.4,554.94,537.52,549,532.21Z"/><path class="cls-6" d="M569.07,450.79s.26.2.68.48l2,1.32c.87.57,2,1.2,3.21,1.94s2.71,1.44,4.26,2.25,3.34,1.47,5.16,2.21a54.32,54.32,0,0,0,5.86,1.85,43.44,43.44,0,0,0,6.35,1.18c1.09.08,2.17.27,3.27.3l1.66,0,.83,0h.3l.24,0,3.66-.33,2.69-.56a37.14,37.14,0,0,0,5.6-2.18,41.3,41.3,0,0,0,9.1-6.66,67.53,67.53,0,0,0,5.73-6.28l1.5-1.91.49-.66.13-.18a1.94,1.94,0,0,1,3.44,1.62s-.08.34-.24,1a26.55,26.55,0,0,1-.8,2.61,37.64,37.64,0,0,1-4.42,8.67,35,35,0,0,1-10.14,10c-1.11.77-2.38,1.35-3.6,2s-2.65,1-4,1.52-3,.73-4.55,1.05c-1.35.21-2.52.22-3.79.33l-.81,0-.52,0-1,0-2.08-.09c-1.38-.07-2.75-.31-4.1-.48a53.58,53.58,0,0,1-7.7-2.05,50.55,50.55,0,0,1-6.7-3.06,49.32,49.32,0,0,1-5.47-3.55,44.32,44.32,0,0,1-7.06-6.57c-.76-.88-1.3-1.63-1.68-2.14l-.57-.81a2.12,2.12,0,0,1,.52-2.95,2.15,2.15,0,0,1,2.51.05Z"/><path class="cls-14" d="M211.62,565s-6.77-.8-6.77,11.6v57.49s17.75,3.76,29,9.21,36.63,0,36.63,0-17.75,8.94-32.83,9.45-32.83-4.27-32.83-.19c0,0-5.35,41.27,0,46.91s13.25,1.13,17.75,6.76-17.75,13.62-17.75,18.65V817s13.21-3.86,15.77-2.07,4.24,8.54,11,9.11,9,2.25,9,3.94-13.53,2.82-17.47,2.82-8.46-5.64-11.27-5.64-7.05,5.64-7.05,5.64v27.33a13.35,13.35,0,0,1,4.51,5.76c1.27,3.54-4.51,11.15-4.51,11.15s-1.41,18.17,1.55,21.13,49.46,0,60.45,0h608.7c15.21,0,19.44-10.13,40.58-5.06s29.68,7.7,47.39,6.38,65.72-.76,65.72-8.08V833.58c0-11.84-9.83-7.62-15.11-12s15.11.67,15.11-7.48,6-52.12,0-57.19-6.87,0-12,0-16.4,8.36-28.74,6.76-35.51-5.07-38.33-7.33,23-1.69,32.92-2.81,27.35-10.77,31.88-10.18,14.22-7.3,14.22-15.19v-89c0-5.07-10.82,1.13-21,1.69s-13-3.94-14.09-6.2,35-2.81,35-6.2,2.37-22.6,0-24.26-14.2,3.91-18.15,0,18.15-18.57,18.15-23.08,2.94-16.11-6.76-16.11-185.15-.34-198.87,0-71.78,9.36-90.38,8.79S695.47,565,675.75,565s-338.7-.07-351.82-.15-26.65,8.37-35.1,6.68-18.32-6.68-18.32-6.68Z"/><g class="cls-15"><path class="cls-16" d="M944,790.62c-58.06-3.93-117.51-1.55-175.54,2.31-55.6,3.7-111.92,6.45-167,15.16-27.56,4.36-57.14,7.53-85.06,4.88-14.12-1.33-27.26-6.65-41-9.83-13-3-26.41-4.78-39.65-6.35a590.55,590.55,0,0,0-85.65-3.69c-28.33.78-58.73,1.61-86.13,9.42a1.06,1.06,0,0,0,.28,2.08c30.73.48,61.62-4.83,92.43-5.3a540.41,540.41,0,0,1,91.38,6c23,3.6,45.2,13,68.31,15.25,25.51,2.51,52.62.54,77.92-3.14,57.68-8.39,116-12,174.13-16,58.46-3.93,117.16-1.28,175.54-5.23A2.78,2.78,0,0,0,944,790.62Z"/><path class="cls-16" d="M949.1,839.73c-30-3.63-61.32-1.37-91.51-1.32-28.06.05-56.11.46-84.14-1-27-1.39-53.27-1.92-80.07,2.49-30.83,5.07-61.54,11.72-92.88,12.69-57.91,1.77-116.52-3.33-174.27-7.19-24.22-1.62-47.75-.58-71.85,2.05-19.53,2.14-39.39,4.59-56.75,14.41-1.11.63-.13,2.2,1,1.68,21.63-10,46.27-10.79,69.64-12.91,25.39-2.31,50.18-1,75.54,1.17,55.65,4.76,113.86,10.53,169.68,6.73,26.46-1.8,52.49-6.94,78.66-11,29.53-4.55,57.93-3.54,87.62-2,28.08,1.42,56.26.86,84.36.91s57.11,2,85-1.34A2.7,2.7,0,0,0,949.1,839.73Z"/><path class="cls-16" d="M700.55,596.7c-37.59-3.13-76.55-9.49-114.28-7.14-34.44,2.14-70.85,12.15-105.32,5.24a.79.79,0,0,0-.42,1.53c33.42,10,66.38,2.64,100.44-.2,40.1-3.35,79.63,7.47,119.58,5.07A2.25,2.25,0,0,0,700.55,596.7Z"/><path class="cls-16" d="M753.55,596.81c-6.19-1.54-16.88-2.1-21.81,2.9a1.33,1.33,0,0,0,.93,2.25c3.37.12,6.74-.29,10.14-.15a37.58,37.58,0,0,0,10.74-.72A2.24,2.24,0,0,0,753.55,596.81Z"/><path class="cls-16" d="M977.84,596.18c-12.45-1.06-25-2.38-37.47-2.3-8.28.06-19.58-.3-25.85,6a1.09,1.09,0,0,0,.76,1.84c10.14.06,20.07-1.66,30.32-1.19,10.75.49,21.48,1.81,32.24,1.19A2.77,2.77,0,0,0,977.84,596.18Z"/><path class="cls-16" d="M791.85,630.42c-42.86-2.42-86.07,1.16-129,.86-21.4-.15-42.83-.82-64.17-2.67-21-1.83-41.72-6.54-62.79-7.78-39-2.29-66.83,19.43-102.87,29.32-22,6-44.69,12.72-67.7,11.83-21.08-.81-41.1-8.67-62.13-10.22-1.66-.12-1.65,2.47,0,2.59,20,1.48,39,8.71,59,10.27,19.19,1.49,38-2.84,56.56-7.13,17.46-4,33.91-8.5,50.42-15.53,22.22-9.46,42.06-16.71,66.7-15.17,20,1.25,39.67,5.72,59.62,7.63,21.3,2,42.72,2.8,64.11,3,43.92.5,88.37.32,132.22-2.34A2.35,2.35,0,0,0,791.85,630.42Z"/><path class="cls-16" d="M424.94,741.64c-18.5-.93-35,2.11-52.79-5-10.08-4-18.72-6.6-29.74-6.53-26.73.17-53.82,8.75-80.08,13.14a1.12,1.12,0,0,0,0,2.14c27,4.27,53.13-8.43,80.08-8.69,15.63-.15,27.55,8.16,42.33,10.81,12.94,2.32,27.2.63,40.2-.47A2.72,2.72,0,0,0,424.94,741.64Z"/><path class="cls-16" d="M990,712.65c-21.24-7.65-46.34-2.32-68.37-1.7-30.86.88-61.77.35-92.61,1.63a1.35,1.35,0,0,0,0,2.69c28.63,1.17,57.36.59,86,0,23.73-.54,51-5.48,74.28,0A1.32,1.32,0,0,0,990,712.65Z"/></g><path class="cls-5" d="M332.88,767.87q4.9,1,4.91,7.63a8.48,8.48,0,0,1-1.69,5.59,5.48,5.48,0,0,1-4.41,2c-.56,0-1.64-.08-3.22-.25s-3.28-.34-5.08-.51l-5.26-.51c-1.69-.17-2.88-.25-3.55-.25h-1.87a8.08,8.08,0,0,0-1.69.17c-1.93-.12-4.16-.37-6.7-.77s-5-.84-7.45-1.35-4.58-1-6.44-1.61-3-1.08-3.31-1.53A44.07,44.07,0,0,1,285.43,763v-2.79a25.36,25.36,0,0,1,.17-3l1-12a21.74,21.74,0,0,0,.17-2.63V738a4.7,4.7,0,0,0-.34-1.78q1.19-6.43,1.7-10.76a61.13,61.13,0,0,0,.51-6.7v-1.35q0-2.37,2-15.09c1.7-3.61,4.29-5.42,7.8-5.42a7,7,0,0,1,5.42,2.46,9.65,9.65,0,0,1,2.2,6.69,57.3,57.3,0,0,0-1.27,5.93c-.4,2.38-.76,5.2-1.1,8.48v1.35c0,1-.08,2.57-.25,4.66s-.37,4.24-.6,6.44-.42,4.18-.59,5.93-.25,2.75-.25,3a10.14,10.14,0,0,0,.16,2.37q-.68,7.13-1,11.87t-.34,7.28a8.49,8.49,0,0,0,.17,2.21q8.81,1,11.69,1c.9,0,1.84,0,2.8-.08s1.95-.09,3-.09A77,77,0,0,1,332.88,767.87Z"/><path class="cls-5" d="M419.31,776.85q5.58,2.88,5.59,8.31,0,3.55-1.78,5.08a10.6,10.6,0,0,1-5.08,2.12,54.08,54.08,0,0,1-8.22.68q-4.92.08-11,.42-2-.68-14.91-1.36c-1.25.11-2.43.2-3.56.26s-2.2.08-3.22.08q-9.15,0-12.54-2.71-.85-6.78-1.27-12.54t-.43-10.51a121.47,121.47,0,0,1,.6-13,94.91,94.91,0,0,0,.59-9.92,54.29,54.29,0,0,0-.51-8.47l1-17.79q.68-6.45,1.61-11a24.08,24.08,0,0,1,2.29-6.95q1-1.35,10.16-3.39l10.85-2.37c.68-.11,2.09-.28,4.24-.51l6.69-.68q3.48-.33,6.19-.5l2.54-.17h.68c1.24,0,2.51.84,3.81,2.54a9.46,9.46,0,0,1,1.95,5.93c0,1.13,0,2.15-.09,3.05a3.23,3.23,0,0,1-1.1,2.29A7.38,7.38,0,0,1,411,707.2a42.72,42.72,0,0,1-6.95.68q-7.46.33-10.16,1.52H393a38.84,38.84,0,0,0-11,2,6.52,6.52,0,0,0-1,3c-.23,1.42-.4,2.88-.51,4.41s-.2,2.82-.26,3.9-.08,1.44-.08,1.1c-.11.56-.2,1.13-.26,1.69s-.08,1.3-.08,2.21,0,1.66.08,2.62.15,2,.26,3.14q5.25-.51,8.56-1.1a30.79,30.79,0,0,1,5.17-.6c2.37,0,4.68,0,6.94-.17a22.3,22.3,0,0,1,6,.43A7.36,7.36,0,0,1,411,734.4c1,1.18,1.53,3.08,1.53,5.68q0,4.41-2.8,5.76T400,747.36c-5.43.23-8.7.46-9.83.68-.68,0-1.39,0-2.12-.08s-1.56-.09-2.46-.09c-.56,0-1.21,0-1.95-.08a12.5,12.5,0,0,0-2.12,0,3.31,3.31,0,0,0-1.77.67,2.56,2.56,0,0,0-.77,2.12c0,.68,0,1.56.09,2.63s.08,2.06.08,3c0,1.35,0,2.71-.08,4.06s-.12,2.8-.17,4.32-.12,3.25-.17,5.17-.09,4.18-.09,6.78c.68.12,2,.23,4,.34l6.27.34q3.3.16,6.35.42c2,.17,3.39.32,4.07.43l2.37-.17,6.44-.51q5.76-.51,9.15-.51Z"/><path class="cls-5" d="M505.57,718.21a13.23,13.23,0,0,1-5.26,1,23.56,23.56,0,0,1-2.46-.17c-1.07-.11-2.23-.25-3.47-.42l-3.64-.51a20.54,20.54,0,0,0-2.63-.25,36.25,36.25,0,0,0-10.51,1.52c.68,4.3,1.25,8.47,1.7,12.54s.85,7.88,1.18,11.44.57,6.78.68,9.66.17,5.34.17,7.37q0,7.64-.08,13.14a44.19,44.19,0,0,1-.94,9.15A10.05,10.05,0,0,1,477.6,788a7.84,7.84,0,0,1-5.42,1.69q-3.39,0-5-1.78a9.53,9.53,0,0,1-2.2-4.24,19,19,0,0,1-.51-5.16c0-1.81.08-3.34.08-4.58a30.93,30.93,0,0,1,.51-5.85,26.19,26.19,0,0,0,.51-5q0-1.18-.68-8.55T464.22,736a35.81,35.81,0,0,0-.77-7.37c-.51-2.43-1-4.77-1.61-7l-10,.68c-4.06.34-6.89,1-8.47,1.87a9.44,9.44,0,0,1-6.1-2,6.39,6.39,0,0,1-2.54-5.25q0-3.23,2.88-7.12.84-.16,7.62-1.27T464.72,705l8.48-1a62.68,62.68,0,0,1,7.79-.51h2.54l20,1.36q3.56,2,3.56,7.62A11.59,11.59,0,0,1,505.57,718.21Z"/><path class="cls-5" d="M585.72,754.48c-.11,3.39-.22,6.08-.33,8s-.26,3.62-.43,4.92a14.69,14.69,0,0,1-.85,3.47c-.39,1-.93,2.26-1.61,3.73a26.53,26.53,0,0,1-11,12.54q-7.46,4.39-19,4.4h-6.44a18.05,18.05,0,0,1-5.17-.84,47.9,47.9,0,0,1-7-3q-4.25-2.12-12-6.18-6.09-3.23-6.1-8.14a8.42,8.42,0,0,1,2-5.51,7.61,7.61,0,0,1,5.25-2.79q12.21,3.9,16.78,8.13A36.13,36.13,0,0,0,554.54,776q7.29,0,11.7-4.23a46,46,0,0,0,1.44-5.26,38.09,38.09,0,0,0,.76-8.13,9,9,0,0,0-2.2-6.19,21.39,21.39,0,0,0-5.6-4.32,55.61,55.61,0,0,0-7.54-3.39c-2.77-1-5.39-2.09-7.88-3.22q-2.88-1.18-5.76-2.71a34.22,34.22,0,0,1-5.76-3.9q-7.29-12.36-7.29-17.45,0-12.72,15.08-24.24,14.07-5.25,19.15-5.25a12.92,12.92,0,0,1,4.92,1.36,37,37,0,0,1,6,3.39,26.21,26.21,0,0,1,5.09,4.49,7.48,7.48,0,0,1,2.12,4.83,6.63,6.63,0,0,1-2.29,5,8.29,8.29,0,0,1-5.85,2.11,6.07,6.07,0,0,1-1.86-1c-1-.68-2.23-1.41-3.65-2.21s-2.82-1.52-4.23-2.2a8.54,8.54,0,0,0-3.48-1,11.87,11.87,0,0,0-5.5,1.36,18.39,18.39,0,0,0-4.67,3.39,16.17,16.17,0,0,0-3.21,4.49,10.36,10.36,0,0,0-1.19,4.49,11,11,0,0,0,2.37,7A18.51,18.51,0,0,0,551,728l10.68,3.73a47.6,47.6,0,0,1,8,3.9,44.41,44.41,0,0,1,7.12,5.34,37.22,37.22,0,0,1,5.59,6.44A23.89,23.89,0,0,1,585.72,754.48Z"/><path class="cls-5" d="M757.56,788c0,.9.06,2,.17,3.39s.17,2.48.17,3.38c0,2.15-.67,3.67-2,4.58a8.68,8.68,0,0,1-4.91,1.36,11.74,11.74,0,0,1-7.8-3,11.11,11.11,0,0,1,.08-1.19,11.67,11.67,0,0,0,.09-1.53,50.57,50.57,0,0,0-.34-5.76c-.23-1.92-.34-2.82-.34-2.71l.34-6.44q-9.5,7.29-16.44,7.8-3.56.33-6.18.51c-1.76.11-3.25.22-4.49.33s-2.55.23-3.56.34h.17a28.3,28.3,0,0,1-11.27-2.45,35.3,35.3,0,0,1-17.71-17,27.7,27.7,0,0,1-2.89-12.46,60.15,60.15,0,0,1,.77-8.39q.76-5.16,2-10.59t2.71-10.34a37.58,37.58,0,0,1,3-7.62q2.53-4.74,9-10.68,4.23-2.37,9.58-5.17t12.11-5.84l18-3q10.66,1.18,15.93,3.89a9.21,9.21,0,0,1,5.25,8.82q0,6.27-6.61,6.27a16.47,16.47,0,0,1-5.59-1.11,23,23,0,0,0-6.61-1.27c-1.47-.11-2.88-.17-4.24-.17h-4.23q-10.35,2-15.93,5.6a14.67,14.67,0,0,0-7.29,4,31.44,31.44,0,0,0-6.27,8.39,53.12,53.12,0,0,0-4.41,11.52,51.75,51.75,0,0,0-1.69,13.22q0,7.13,2.71,11.69t11,7.12a9.47,9.47,0,0,0,3.56.51,49,49,0,0,0,9.41-.68,19.42,19.42,0,0,0,5.93-2.2,38.07,38.07,0,0,0,5.42-3.9,89.89,89.89,0,0,1,7.88-5.76v-2.54c-.34-1.36-1.69-2.4-4.06-3.14a36.46,36.46,0,0,0-7.63-1.44,102.54,102.54,0,0,0-10.85-.51q-4.06-3.72-4.06-7.79,0-5.43,5.59-7h-.17c0-.23,1-.11,3,.34a40,40,0,0,0,8.39.68,8.37,8.37,0,0,0,2.55-.34,35.74,35.74,0,0,1,5.16.84c2,.46,4,1,6,1.7s3.87,1.38,5.51,2.12a21.39,21.39,0,0,1,3.64,2q3.06,2.37,3.05,11.52a24.47,24.47,0,0,1-1,7.29,27.21,27.21,0,0,1,.5,4.49q.18,3.14.34,6.52c.11,2.26.17,5.15.17,8.65A7.56,7.56,0,0,0,757.56,788Z"/><path class="cls-5" d="M861.79,755.5q-2.2,8.81-12.54,20.33a16,16,0,0,0-3.48,2,37.84,37.84,0,0,1-5.42,3.13,41,41,0,0,1-8.05,2.8A46.59,46.59,0,0,1,821.11,785q-12.87,0-21.52-6.87T786.2,756.51a17.06,17.06,0,0,1-.17-2.37V751.6A70.55,70.55,0,0,1,788.24,733a51.6,51.6,0,0,1,5.93-14,42.43,42.43,0,0,1,8.56-10,48.69,48.69,0,0,1,10.08-6.61,63.9,63.9,0,0,1,17-2.37,24.78,24.78,0,0,1,11.69,3,33,33,0,0,1,10.25,8.64A45.14,45.14,0,0,1,859,725.42a61.57,61.57,0,0,1,3.13,18.21ZM846.2,755a70,70,0,0,0,1.18-10.85,36.37,36.37,0,0,0-1.86-11.86,44.13,44.13,0,0,0-4.41-9.4,26.11,26.11,0,0,0-5.34-6.28c-1.86-1.52-3.42-2.28-4.66-2.28q-9,0-14.66,4a29.92,29.92,0,0,0-8.89,9.57,37.68,37.68,0,0,0-4.41,11.7A55.68,55.68,0,0,0,802,749.91a22.91,22.91,0,0,0,1.27,7.54,19.33,19.33,0,0,0,3.73,6.44,19.13,19.13,0,0,0,5.85,4.49,17.22,17.22,0,0,0,7.8,1.69q10.33,0,16.26-3.81A25.52,25.52,0,0,0,846.2,755Z"/><path class="cls-5" d="M919.06,781.94a5.84,5.84,0,0,1-.93,3,9.54,9.54,0,0,1-2.37,2.62,14.76,14.76,0,0,1-3.22,1.87,8.42,8.42,0,0,1-3.3.76,16.83,16.83,0,0,1-6.61-1.1,9.26,9.26,0,0,1-3.82-2.8,9.37,9.37,0,0,1-1.69-3.64,16.81,16.81,0,0,1-.43-3.65,12.23,12.23,0,0,1,.77-4.15,13.14,13.14,0,0,1,2.12-3.81,11.68,11.68,0,0,1,3.22-2.8,8.18,8.18,0,0,1,4.23-1.1,23.21,23.21,0,0,1,3.65.34,8.44,8.44,0,0,1,4,1.86,11.53,11.53,0,0,1,3.13,4.5A20.79,20.79,0,0,1,919.06,781.94Zm3.39-83.55c.12.56.2,1.1.26,1.61s.08,1,.08,1.44a11.89,11.89,0,0,1-.42,2.71l-.93,3.73-1,4.06a27.18,27.18,0,0,0-.68,3.56c-.9.79-1.47,2.6-1.69,5.43a22.44,22.44,0,0,0,.17,2.79,24.72,24.72,0,0,1,.17,2.8,24.39,24.39,0,0,1-1.1,7,25.77,25.77,0,0,0-1.11,7.54v1.36a5.67,5.67,0,0,0,.17,1.35,55.56,55.56,0,0,1-1.69,10q-1.18,4.25-5.25,4.24a10.49,10.49,0,0,1-6.45-2,30.83,30.83,0,0,1-2.88-11.7,3.71,3.71,0,0,1,.09-.76,4.37,4.37,0,0,0,.08-.76c-.11-1.47-.2-2.83-.25-4.07s-.08-2.37-.08-3.39a30.39,30.39,0,0,1,.5-6.61,8,8,0,0,1-.17-1.52v-1.53c0-.79.09-2,.26-3.56s.39-3.24.68-5,.5-3.41.67-5a37.23,37.23,0,0,0,.26-3.72l2-6.44a21.72,21.72,0,0,1,1.44-4.07,5.89,5.89,0,0,1,1.87-2.29,5.45,5.45,0,0,1,2.54-.93,32.78,32.78,0,0,1,3.64-.17Q920.42,694.49,922.45,698.39Z"/><path class="cls-6" d="M408.82,581.64s16.34,9.43,24.25-8.23c5-11.18-8.91-33.49-33.83-38.17-20.86-3.91-72.14-2.22-89.62,18.63s-7.32,72.86,47.91,75.68S407.69,591.22,408.82,581.64Z"/><path class="cls-6" d="M782.74,581.64s-16.35,9.43-24.25-8.23c-5-11.18,8.9-33.49,33.83-38.17,20.85-3.91,72.14-2.22,89.61,18.63s7.33,72.86-47.9,75.68S783.87,591.22,782.74,581.64Z"/><path class="cls-5" d="M535.5,671.41a9.18,9.18,0,0,1,.51,3.22,41,41,0,0,1-.42,5.93,30,30,0,0,1-1.78,6.36,46.68,46.68,0,0,1-3.9,7.54,99.78,99.78,0,0,1-6.78,9.32,14.89,14.89,0,0,1-4.74,1c-1.59,0-2.61-.51-3-1.53a12.45,12.45,0,0,1,.59-1.95c.28-.73.7-1.66,1.27-2.79l2.71-5.26a34.46,34.46,0,0,0,2.37-8.64,15.43,15.43,0,0,1-3-.85,40.63,40.63,0,0,1-4.23-1.86,19.15,19.15,0,0,1-2.21-8.13l4.58-7.8a17.06,17.06,0,0,1,7.62-2Q531.61,664,535.5,671.41Z"/></g></g></svg>