<svg id="Layer_1" data-name="Layer 1" xmlns="http://www.w3.org/2000/svg" viewBox="0 0 1200 1200"><defs><style>.cls-1{fill:#161630;}.cls-2{fill:#c02026;}.cls-3{fill:#802123;}.cls-4{fill:#fff;}.cls-5{fill:#e5cc5d;}.cls-6{fill:#d2d0c6;}.cls-7{fill:#f0cb9c;}.cls-8{fill:#da848c;}.cls-9{fill:#b48331;}</style></defs><path class="cls-1" d="M441.92,989V958.78h98.45q-.35,13.69-.68,27.37c-.26,10.36,3.28,32.89-3.19,41.27-13.17,17.06-54.58,19.73-73.88,19.65-20.49-.09-49.94-5.18-52.5-30.32C410.31,1000.28,424.66,992.31,441.92,989Z"/><path class="cls-1" d="M677.49,989V958.78H579q.35,13.69.68,27.37c.26,10.36-3.28,32.89,3.19,41.27,13.16,17.06,54.58,19.73,73.88,19.65,20.49-.09,49.93-5.18,52.5-30.32C709.1,1000.28,694.75,992.31,677.49,989Z"/><path class="cls-2" d="M416.59,832.21c-15.5,19.2,1.43,120.7,34.12,133.6,14.81,5.85,30.91,7.87,46.76,7.17,12.62-.56,28.35-1.06,39-8.85,7-5.12,11.08-13.49,14.09-21.38,2.7-7.08,4.15-14.52,6.67-21.64,1.24-3.48,2.7-7,5-2.14a20.2,20.2,0,0,1,.78,2c9,25.51,7.23,39.57,30.09,44.84,32.17,7.43,75.59,5.28,94.93-7,25.34-16.13,34.39-104.77,24.75-125.34S465.42,771.69,416.59,832.21Z"/><path class="cls-3" d="M416.59,832.21c-8.27,10.24-7.31,43.86.34,75C464.28,896.36,518.29,890,579,908.62c50.63,15.52,89.54,32.32,119.54,38.15,17.19-29.68,22.43-95.91,14.27-113.33C703.15,812.87,465.42,771.69,416.59,832.21Z"/><path class="cls-2" d="M695,544.53c70.8,40.84,115.28,67.09,199,37.72,13.48-5.31,27,.87,28.22,16,24.76,179.8-339.79,173-288.07-10.1C641.62,560.8,667.22,535.3,695,544.53Z"/><path class="cls-3" d="M887.73,692.46c-29.85,25.5-74.49,37.71-118.32,36.84L738,622C779.61,699.83,864.52,695.3,887.73,692.46Z"/><circle class="cls-4" cx="875.26" cy="634.43" r="58.89" transform="translate(-47.79 1197.08) rotate(-67.3)"/><path class="cls-1" d="M943,614.88c22.5-33.41,28.77-92.28-7.7-102.35-32.81-9.07-43.43,38.4-57.46,54.22-8.42,9.51-9.15,2-13.13-5.26-5-9-16.57-15.21-25.12-4.9-7.31,8.81-.77,29.68,2.54,39.14,10.25,29.26,41.59,49,73.06,41.55C925.67,634.81,935.3,626.34,943,614.88Z"/><path class="cls-2" d="M426.14,542.77c-70.79,40.84-115.28,67.09-199,37.72-13.47-5.31-27,.87-28.22,16-24.76,179.8,339.8,173,288.07-10.11C479.54,559,454,533.54,426.14,542.77Z"/><path class="cls-3" d="M233.43,690.7c29.86,25.5,74.49,37.72,118.32,36.85l31.46-107.27C341.56,698.07,256.65,693.55,233.43,690.7Z"/><circle class="cls-4" cx="245.9" cy="632.68" r="58.89" transform="translate(-423.59 744.6) rotate(-78.25)"/><path class="cls-1" d="M178.15,613.12c-22.5-33.41-28.77-92.27,7.7-102.35,32.8-9.06,43.43,38.4,57.45,54.22,8.43,9.51,9.15,2,13.14-5.26,4.95-9,16.57-15.21,25.12-4.9,7.3,8.81.77,29.68-2.55,39.14-10.25,29.27-41.58,49-73,41.55C195.49,633.05,185.86,624.58,178.15,613.12Z"/><path class="cls-2" d="M768.33,759c4.51-21.21-2.94-229.17-170-236.2-274.29-11.55-237.06,183-242.6,235.57l-7,77.35S516,920.22,642.43,892.91s129.4-55.2,129.4-55.2Z"/><path class="cls-4" d="M326.33,832.65c6.59-60.21,103.27,28.45,231.62,31.2S777.69,783,791.12,842.63c6.37,28.27-99.1,72.65-242,65.17C421.17,901.1,323.18,861.46,326.33,832.65Z"/><path class="cls-1" d="M760.84,707.66c.24,0-98.49,12-197.05,9.69-98.58-.05-197-14.49-196.76-14.46-30.94-4.4-30.31,35-33.22,54.14-4.21,14.83,1,34.09,20.76,36.42,138,18.55,278.2,21.26,416.6,5.28C810.16,794.42,797.76,701.63,760.84,707.66Z"/><path class="cls-5" d="M619.45,701.51c-17.5-16.42-113.19-16.49-130.58,0-21.49,24.23-15.7,70.21-9.51,99.42,5.26,24.81,32.76,31.55,54.61,33,26.74-.86,70.29,3.67,86.36-21.67C636.08,780.42,639.12,732.39,619.45,701.51ZM599.28,799.6c-10.41,9.21-68.78,7.41-82,2.32-12.41-4.81-11.64-14.58-12.95-26.19-1.9-16.84-9.85-56,16.17-56.66,31.84-1.25,86.44-15.27,81.94,34.63C602.32,765.46,608.56,790.22,599.28,799.6Z"/><path class="cls-5" d="M628.1,747.44c-12.58-2.6-29.44-2-43.75-1.72-24.75.27-35.46,31.83-6.67,32a411.94,411.94,0,0,0,46.14-.74C649.72,775,649.72,751.92,628.1,747.44Z"/><path class="cls-4" d="M603.71,746.72c-6.37-1.32-14.92-1-22.17-.87-12.53.13-18,16.12-3.37,16.2a206.59,206.59,0,0,0,23.37-.38C614.66,760.67,614.66,749,603.71,746.72Z"/><path class="cls-4" d="M764.69,494.91c-1.32-28.56-15.48-53.21-27.63-78.31-22.56-53.5-19.54-118.4-77.31-149.92-77.46-47.24-219.45-28.53-251.17,66.56-7.76,27.16-9.24,53-21.84,78.87C221.33,673.19,768.48,746.64,764.69,494.91Z"/><path class="cls-6" d="M607.13,515.82c-31.74,21.66-47.06,20.59-82.59,8.73C530.36,554.08,609.26,546.24,607.13,515.82Z"/><path class="cls-6" d="M737.06,416.6C717.11,369.27,717.13,313,677.42,278.87c-.64,2.94-5.39,20.25-5.63,21.38a265.66,265.66,0,0,0-6,57.05c.2,28.41,7,53,16.93,79.14a280.68,280.68,0,0,1,9.9,30.63L518.08,436.94s84.71,92.46,171.17,82.32c2.28-.27,4.5-.64,6.67-1.07a89.08,89.08,0,0,1-9.37,27.33c-16.37,30.5-45.94,53.66-77.4,67.12C559.22,634,502,633.18,449.58,622.4q-3.21-.66-6.41-1.38c-3.25-.73-6.34-1.4-9.3-2,119.43,63.68,333.19,33.58,330.82-124.09C763.37,466.35,749.21,441.7,737.06,416.6Z"/><path class="cls-7" d="M708.7,429.14c-22.83-201.41-273-198.87-297.11,0C408.76,528.27,711.49,528.28,708.7,429.14Z"/><path class="cls-1" d="M529.42,388.13c1.26,5-7.48,5.39-10.47,5.52-14,.53-33.64,4.5-46,8.7a39.42,39.42,0,0,1,24.78-20.8C513.24,377.28,527.51,380.57,529.42,388.13Z"/><path class="cls-1" d="M590.87,388.13c-1.26,5,7.48,5.39,10.47,5.52,14,.53,33.64,4.5,46,8.7a39.49,39.49,0,0,0-24.79-20.8C607.05,377.28,592.77,380.57,590.87,388.13Z"/><path class="cls-2" d="M599.7,488.52c0,16-18.15,32.52-40,32.52s-39.11-16.5-39.11-32.52,17.71-29,39.55-29S599.7,472.5,599.7,488.52Z"/><path class="cls-4" d="M670.65,491.46c-37.44-9.74-57.5-79.92-120-68.86-52,2.59-67.34,62.74-101,68.86-40,9,70.79,31.61,110.52-5.65C599.86,523.07,710.66,500.46,670.65,491.46Z"/><circle class="cls-8" cx="669.43" cy="426.99" r="32.23" transform="translate(-105.85 598.42) rotate(-45)"/><circle class="cls-8" cx="450.86" cy="426.99" r="32.23" transform="translate(-169.87 443.87) rotate(-45)"/><path class="cls-8" d="M599.7,431.09c0,16-17.71,23.74-39.56,23.74s-39.55-7.72-39.55-23.74,17.71-32.52,39.55-32.52S599.7,415.07,599.7,431.09Z"/><path class="cls-4" d="M554.21,414.19c1,4.68-3.88,8-10.44,9.4s-12.34.21-13.31-4.48,3.34-10.61,9.9-12S553.24,409.5,554.21,414.19Z"/><path class="cls-2" d="M724.11,147.56S456,41.11,394.45,331.18H742.8s-7.3-70.32-35.43-93.17S721.51,194.25,724.11,147.56Z"/><path class="cls-3" d="M707.37,238c-24.39-19.82,4.16-38.18,13.86-73.16-24.87,3.19-126.18,17.32-128.73,36-2.91,21.32,36.92,11.68,67.11,49.9s37.22,64.59,37.22,64.59L736,331.18h6.8S735.5,260.86,707.37,238Z"/><path class="cls-4" d="M757.31,366.4c-5.07,50.73-84.83-8.47-189.46-18.93S373.33,379.28,378.4,328.55s82.86-92.3,198.63-72.93C680.74,273,762.37,315.67,757.31,366.4Z"/><path class="cls-6" d="M706.64,297.73c-49.4,48.45-161.41-8.12-278,55.65,35.12-2.66,85.19-11.3,139.18-5.91,104.63,10.46,184.39,69.66,189.46,18.93C759.87,340.7,740.18,317.06,706.64,297.73Z"/><path class="cls-4" d="M798.79,176.48c0,27.67-12.76,38.67-40.43,38.67s-40.44-21.55-40.44-49.22S727.17,129,754.84,129,798.79,148.81,798.79,176.48Z"/><path class="cls-6" d="M719.78,183.07c4.45,18.94,17,32.08,38.58,32.08,27.67,0,40.43-11,40.43-38.67,0-12.47-3.32-23.34-9.48-31.52.23,17.27-15.09,34.75-30.49,40.1C749.52,188.3,732.47,187.87,719.78,183.07Z"/><path class="cls-4" d="M211.93,353.23,193,371.11l14-24.37c-29.54-37.68-68.88-65.28-107.86-56.27-13.28,16.36-1.41,41,15,67l35.8,3.4-29.76,6c3,4.62,6.11,9.26,9.15,13.87l31.61,3L134.68,389c12.44,19.36,22.78,37.93,22.46,52.85-1.74,81.51,100.22,104.36,99,20.16C255.67,432.4,238.25,389.13,211.93,353.23Z"/><path class="cls-3" d="M125.51,312.36s93.17,102,128.33,330.5C267.32,730.47,260.88,423.12,125.51,312.36Z"/><path class="cls-9" d="M978.1,456l137.13,40.43c2.15.64,3.23-12.43,3.24-13.12.37-30.91-16.92-56.07-48.56-56.67-24.09-.45-48.31,8.53-70,18.33C996.74,446.43,981.4,457,978.1,456Z"/><path class="cls-5" d="M934.58,398.77c-186.77,151.3,93.2,529.32-91.84,628.57l128.33,49.23s126.58-77.35,70.32-291.83c-67.18-256.11-6.41-365.55,71.26-329.91C1099.44,409,974,377.5,934.58,398.77Z"/><path d="M938.47,580.08c-10.79,1.8-12.23-32.8-14.84-49.63-5.07,26.58-13.49,52.64-27.16,5.42a2.64,2.64,0,1,1,5-1.52c5.36,17.82,8.32,21.46,9.29,22.21C915.48,549,917,528,922,520.13c6.57-.3,6,4.12,8.45,22,1,8.84,3.34,28.61,6.73,32.07,21.57-26.29,34.51-77.93,45.29-.75.49,3.37-4.8,4.12-5.23.71C967.55,498.69,960.93,564.34,938.47,580.08Z"/><path d="M963.22,823.58a15.06,15.06,0,0,1-2.1-.26C944.5,801.49,958.06,737,926,805.89c-1.41,3.1-6.29.8-4.76-2.27,33.71-70.27,30.34-17.1,42.92,14.46,4.28-2.27,12.48-20.41,16.14-28.52,7.77-16.27,8.54-20.65,14.72-18.37,2.36,9-2.54,29.55-.37,38.11,1.14-.42,5.06-3,15.58-18.35a2.64,2.64,0,0,1,4.35,3c-27.39,40.83-27.46,13.44-24.23-13.4C983.47,794.83,971,825.74,963.22,823.58Z"/><path d="M947.26,652.6c-8.57.53-8.33-23.77-12.21-30.63-5.06,7.07-14,36.64-21,16.54-.78-2.61-1.66-5.57-3.7-6.64-6.14-3.94-17.32,10.62-20.81,6.53a2.64,2.64,0,0,1,.46-3.7c15.48-12.76,26.7-11.05,29.91,4.74,4.47-5.22,8.87-24.12,15.68-23,7.64-.11,7.59,24.85,11.62,30.67,9-21.19,22.14-25.68,42.67-4.61,2.44,2.38-1.33,6.18-3.73,3.73C955,617.08,961.13,646.71,947.26,652.6Z"/><path d="M968.47,904c-14-4.89.57-37.85-37.75-14.43-2.83,1.9-5.78-2.61-2.87-4.43,24.47-16.36,36.34-9.21,40.77,13.38,5.14-4.86,10.33-29.28,17.75-27.59,6.92.28,7.25,19.75,10.55,25.77,11.79-29.27,41.68,11.79,26.21,5-21.15-23.35-15.27-1.8-26.51.75-7.18.11-7.46-20.06-10.87-26C980.8,882.22,975.79,904.69,968.47,904Z"/><path d="M908.51,732c-3.43,0-7.28-3-13-32-.71-3.34,4.57-4.39,5.17-1,3.94,20,6.67,25.69,7.83,27.29,4.3-11.15,10-48.41,22.2-22.4,2.07,4.58,4.42,9.78,8.37,10.62,11.91-1,21.06-22.1,33.43-3.24,4.72,8.35,13.25,9.82,22.94,5.18,3.07-1.47,5.34,3.43,2.19,4.8-22.27,9.07-22.78-2.47-35.09-12.14-3.51-.81-6.68,1.79-10.35,4.79-16,14.67-22.73-.22-29.42-13.47C917.63,705,916.64,732.83,908.51,732Z"/><path d="M922.57,482.37c-3.42,0-7.27-3-13-32-.71-3.34,4.57-4.38,5.18-1,3.93,20,6.66,25.69,7.83,27.29,4.28-11.16,10-48.43,22.19-22.41,2.07,4.59,4.42,9.79,8.37,10.63,11.91-1,21.07-22.1,33.43-3.24,4.73,8.34,13.25,9.82,22.95,5.17,3.06-1.47,5.33,3.43,2.18,4.8-22.26,9.07-22.77-2.46-35.08-12.13-3.52-.81-6.69,1.78-10.36,4.79-16,14.66-22.73-.22-29.41-13.47C931.7,455.32,930.7,483.2,922.57,482.37Z"/></svg>