<svg id="Layer_1" data-name="Layer 1" xmlns="http://www.w3.org/2000/svg" viewBox="0 0 1200 1200"><defs><style>.cls-1{fill:#b48331;}.cls-2{fill:#974c2a;}.cls-3{fill:#584f58;}.cls-4{fill:#fff;}.cls-5{fill:#161630;}.cls-6{fill:#984c2a;}.cls-7{fill:#da848c;}.cls-8{fill:#802123;}.cls-9{fill:#c02026;}.cls-10{fill:#e5cc5d;}.cls-11{fill:#d2d0c6;}.cls-12{fill:#f0cb9c;}</style></defs><path class="cls-1" d="M692.35,627.73c-4.19-4.52-1-11.55,5.49-17.54s13.7-8.67,17.89-4.15,3.27,14-3.18,20S696.54,632.24,692.35,627.73Z"/><path class="cls-2" d="M712.55,626.05a18,18,0,0,0,3.74-4.9,29.33,29.33,0,0,1-24.52-3.22,15,15,0,0,0-.72,1.75l5.34,10.54C701.14,631.77,707.71,630.54,712.55,626.05Z"/><path class="cls-1" d="M719.23,672.77c-10.61-1.85-15.69,13-17.47-4.11-1.68-16.17,2.36-33.89-5.27-49-23.46-48.71-62.63,6-90.79-13.25-5.32-2.69-5.63-17.41-5-24.1l-37.56,4.22c3.21,12.84,5.5,39.34,5.84,41.85,2.41,17.89,8.66,36.56,28.82,39.86,17.43,2.85,33.48-9,50.76-10,6.1-.35,9.48,2.73,11.43,8.23,4,11.16,8.48,21.66,19.72,27.18,6.14,3,12.71,2.88,19.36,2.7s13.2.34,19,4.14c10,6.6,15.84,18.88,20.46,29.48q.67,1.54,1.32,3.09l18.93-7.76S729.85,674.63,719.23,672.77Z"/><path class="cls-2" d="M643.88,640.25c-11.25-1.09-24.13,21.34-46.82,15.65-18-4.51-28.2-33.95-29.9-44,1,8.29,1.61,15.24,1.78,16.47,2.41,17.89,8.66,36.56,28.82,39.86,17.43,2.85,33.48-9,50.76-10,6.63-.38,9.53,3.12,11.4,7.77C653.88,649.71,654.28,641.27,643.88,640.25Z"/><path class="cls-2" d="M601.16,597.71c-.69-2.69-1.13-9.54-.4-16.38l-37.89,4.31A155.89,155.89,0,0,1,566,602.5C580.86,608.91,595.21,603.65,601.16,597.71Z"/><path class="cls-1" d="M543.76,654.36c-13.92,10.86-2.86,53.49,2.25,55.39,22.82,8.46,26.48,7.72,26.48,7.72l-.08-19.57s-13,1.29-17.16-5.37c-2.79-4.48-2.94-10.73-1.2-15.62,3.84-10.79,21.76-7.86,30.33-8.21,8.38-.34,16.67-2.22,23.79-6.79,44.74-28.73,4.64-24.22-.61-24C589,638.87,568.62,642.34,543.76,654.36Z"/><path class="cls-1" d="M611,524.48a43.77,43.77,0,0,0-44.45-9,51.88,51.88,0,0,0-20,12.81c-5.77,6-8.94,14.65-16.86,18.37-3.54,1.65-23.82,0-24.38,5-1.69,15.13,17,29.79,29.89,34.74,27.54,10.58,73.13,12.28,85.26-20.84C626.43,549.14,621.39,534.21,611,524.48Z"/><path class="cls-3" d="M514.47,551.45c-1.14,4.75-5.65,6.08-10.52,4.9s-8.28-4.42-7.14-9.16,6.28-8.68,11.16-7.51S515.62,546.7,514.47,551.45Z"/><path class="cls-4" d="M505.37,544.37c-.09,1.44-1.53,2.16-3.27,2.17s-3.09-.66-3-2.11a3.45,3.45,0,0,1,3.31-3A2.92,2.92,0,0,1,505.37,544.37Z"/><path class="cls-3" d="M699.2,478.42c9.11-29.12-51.66-69.14-42.49-44.67,12.24,7.9,28.45,15.21,32.41,32.32-1.73,14.3-17-3.26-18.34-10.45-1.64-4.9-9.22-3.31-8.52,1.87,1.39,20.49,29.06,22.61,22.48,30.88-7.52,8.56-20.32,11.43-31.82,12.76a4.37,4.37,0,0,1-4.45-6.14c7-16.89,1.75-51.56-13.59-48a4.71,4.71,0,0,0-.58,6.64c9.56,11.53,14.05,42.06-3.33,48.59-15.25,5.72-57,1.24-67.06-14.14-6.71-10.64,2.25-17.24,1.12-23.33-.89-3.67-6.68-4.65-8.46-1C540.41,497.45,572.22,510,603.77,512a4.36,4.36,0,0,1,1.63,8.28c-2.55,1.35-5.54,2.29-8.14,3.79-3,2.36-1.22,7.1,2.57,7.59,10,1.29,29-14.79,34.52-19C671.52,510.07,697.27,501.26,699.2,478.42Z"/><path class="cls-5" d="M558.09,548.7c-.85,3.95-3.52,7.77-7,9.21-5.34,2.22-7.16-3.29-5.68-7.65,1.05-3.08,2.88-7.14,5.5-9.3s5.58-1.57,6.84,1.66A10.67,10.67,0,0,1,558.09,548.7Z"/><path class="cls-4" d="M556.07,541.69c.74,1.22-.35,2.83-2.13,4.09s-3.59,1.7-4.33.48-.06-3.49,1.73-4.75S555.33,540.47,556.07,541.69Z"/><path class="cls-1" d="M610,547c-.16.66,32.09,20.05,49.82-9.66C660,537,620.53,502.2,610,547Z"/><path class="cls-6" d="M615.29,546.35c-.3.09,15.19-24.8,40.63-5.81C657.13,541.44,644.94,537.19,615.29,546.35Z"/><circle class="cls-7" cx="575.95" cy="564.48" r="12.4" transform="translate(-165.62 881.41) rotate(-67.56)"/><path class="cls-8" d="M531.44,575.38c-12,.59-22.68-10.63-22.67-10.59,0,.24.08.49.13.73a49.65,49.65,0,0,0,12.62,13.2c7.1,2.84,15.44,2,20.36-6.4C541.79,572.59,537.41,575.08,531.44,575.38Z"/><path class="cls-1" d="M273.07,561.85c-4.19-4.51-1-11.54,5.48-17.53s13.71-8.67,17.9-4.15,3.27,14-3.19,20S277.26,566.37,273.07,561.85Z"/><path class="cls-2" d="M293.26,560.18a18.13,18.13,0,0,0,3.75-4.91,29.29,29.29,0,0,1-24.52-3.21,15.14,15.14,0,0,0-.73,1.75l5.34,10.54C281.86,565.9,288.43,564.66,293.26,560.18Z"/><path class="cls-1" d="M300,606.9c-10.62-1.85-15.7,13-17.47-4.11-1.68-16.17,2.35-33.89-5.28-49-23.45-48.71-62.63,6-90.79-13.25-5.31-2.69-5.63-17.41-5-24.1l-37.56,4.21c3.21,12.85,5.5,39.35,5.84,41.86,2.41,17.89,8.67,36.56,28.83,39.86,17.42,2.85,33.48-9,50.75-10,6.1-.35,9.48,2.73,11.43,8.23,4,11.16,8.49,21.66,19.73,27.18,6.13,3,12.7,2.88,19.36,2.7s13.19.34,19,4.14c10,6.6,15.84,18.87,20.47,29.48.45,1,.88,2.06,1.31,3.09l18.94-7.76S310.56,608.76,300,606.9Z"/><path class="cls-2" d="M224.59,574.38c-11.24-1.09-24.13,21.34-46.82,15.64-18-4.5-28.19-33.94-29.89-44,1,8.29,1.61,15.24,1.77,16.47,2.41,17.89,8.67,36.56,28.83,39.86,17.42,2.85,33.48-9,50.75-10,6.64-.38,9.54,3.12,11.4,7.77C234.6,583.84,235,575.4,224.59,574.38Z"/><path class="cls-2" d="M181.88,531.84c-.7-2.69-1.13-9.54-.41-16.38l-37.89,4.31a153.48,153.48,0,0,1,3.09,16.86C161.58,543,175.93,537.78,181.88,531.84Z"/><path class="cls-1" d="M124.48,588.48c-13.93,10.87-2.86,53.5,2.25,55.39,22.81,8.47,26.47,7.73,26.47,7.73L153.12,632s-13,1.29-17.15-5.37c-2.79-4.48-2.94-10.73-1.21-15.62,3.84-10.79,21.77-7.86,30.33-8.21,8.39-.34,16.68-2.22,23.8-6.79,44.74-28.73,4.63-24.22-.61-24C169.72,573,149.33,576.47,124.48,588.48Z"/><path class="cls-1" d="M191.71,458.61a43.77,43.77,0,0,0-44.45-9,52,52,0,0,0-20,12.81c-5.76,6-8.93,14.65-16.86,18.37-3.54,1.65-23.81,0-24.37,5-1.7,15.13,17,29.79,29.88,34.74,27.55,10.58,73.13,12.28,85.26-20.84C207.14,483.27,202.11,468.34,191.71,458.61Z"/><path class="cls-9" d="M95.19,485.58c-1.15,4.74-5.65,6.07-10.53,4.9s-8.28-4.42-7.13-9.16,6.28-8.68,11.15-7.51S96.33,480.83,95.19,485.58Z"/><path class="cls-4" d="M86.08,478.5c-.08,1.44-1.53,2.15-3.26,2.17s-3.1-.66-3-2.11a3.44,3.44,0,0,1,3.31-3A2.9,2.9,0,0,1,86.08,478.5Z"/><path class="cls-3" d="M279.92,412.55c9.11-29.12-51.67-69.14-42.5-44.67,12.24,7.9,28.46,15.21,32.41,32.32-1.73,14.3-16.95-3.26-18.34-10.45-1.63-4.9-9.22-3.32-8.52,1.87,1.39,20.49,29.07,22.61,22.49,30.88-7.52,8.55-20.33,11.43-31.82,12.76a4.37,4.37,0,0,1-4.45-6.15c7-16.88,1.75-51.55-13.59-48a4.71,4.71,0,0,0-.58,6.64c9.55,11.53,14,42.06-3.34,48.59-15.24,5.72-57,1.24-67.05-14.14-6.72-10.64,2.25-17.24,1.11-23.33-.89-3.67-6.68-4.66-8.45-1-16.16,33.69,15.64,46.27,47.2,48.19a4.36,4.36,0,0,1,1.62,8.29c-2.54,1.35-5.53,2.29-8.13,3.78-3,2.37-1.23,7.11,2.56,7.6,10,1.29,29-14.79,34.52-19C252.24,444.2,278,435.39,279.92,412.55Z"/><path class="cls-5" d="M138.81,482.82c-.86,4-3.53,7.78-7,9.22-5.34,2.22-7.17-3.3-5.68-7.65,1-3.08,2.88-7.14,5.49-9.3s5.58-1.57,6.84,1.66A10.64,10.64,0,0,1,138.81,482.82Z"/><path class="cls-4" d="M136.79,475.82c.74,1.21-.35,2.82-2.14,4.09s-3.59,1.7-4.33.48,0-3.49,1.73-4.76S136.05,474.6,136.79,475.82Z"/><path class="cls-1" d="M190.7,481.15c-.15.66,32.09,20.05,49.83-9.66C240.73,471.16,201.25,436.33,190.7,481.15Z"/><path class="cls-2" d="M196,480.48c-.3.09,15.2-24.8,40.64-5.81C237.85,475.57,225.66,471.32,196,480.48Z"/><circle class="cls-7" cx="156.66" cy="498.61" r="12.4" transform="translate(-363.98 452.93) rotate(-67.54)"/><path class="cls-8" d="M112.15,509.51c-12,.58-22.67-10.63-22.67-10.59,0,.24.09.48.14.73a49.49,49.49,0,0,0,12.62,13.2c7.09,2.84,15.44,2,20.36-6.41C122.51,506.72,118.13,509.21,112.15,509.51Z"/><path class="cls-1" d="M462.43,525.57c-4.19-4.52-1-11.55,5.49-17.53s13.7-8.67,17.89-4.16,3.27,14-3.18,20S466.62,530.09,462.43,525.57Z"/><path class="cls-2" d="M482.63,523.9a18.25,18.25,0,0,0,3.74-4.91,29.32,29.32,0,0,1-24.52-3.21,14.23,14.23,0,0,0-.72,1.74l5.34,10.54C471.22,529.62,477.79,528.38,482.63,523.9Z"/><path class="cls-1" d="M489.31,570.62c-10.61-1.86-15.69,13-17.47-4.11-1.68-16.17,2.36-33.89-5.27-49-23.46-48.71-62.64,6-90.79-13.26-5.32-2.68-5.63-17.41-5-24.1l-37.56,4.22c3.21,12.85,5.5,39.34,5.84,41.86,2.41,17.89,8.66,36.55,28.82,39.85,17.43,2.86,33.48-9,50.76-10,6.1-.35,9.47,2.74,11.43,8.24,4,11.16,8.48,21.65,19.72,27.18,6.14,3,12.71,2.87,19.36,2.7s13.2.33,19,4.14c10,6.6,15.84,18.87,20.46,29.47.45,1,.89,2.06,1.32,3.1l18.93-7.77S499.93,572.47,489.31,570.62Z"/><path class="cls-2" d="M414,538.1c-11.24-1.1-24.13,21.33-46.82,15.64-17.95-4.51-28.19-33.94-29.89-44,1,8.29,1.61,15.24,1.78,16.47,2.41,17.89,8.66,36.55,28.82,39.85,17.43,2.86,33.48-9,50.76-10,6.63-.38,9.53,3.13,11.4,7.77C424,547.55,424.36,539.11,414,538.1Z"/><path class="cls-2" d="M371.24,495.55c-.69-2.69-1.13-9.54-.41-16.37l-37.89,4.31a155.2,155.2,0,0,1,3.1,16.86C350.94,506.75,365.29,501.49,371.24,495.55Z"/><path class="cls-1" d="M313.84,552.2c-13.93,10.87-2.86,53.49,2.25,55.39,22.81,8.47,26.48,7.72,26.48,7.72l-.08-19.56s-13,1.28-17.16-5.38c-2.79-4.47-2.94-10.73-1.2-15.61,3.83-10.79,21.76-7.86,30.33-8.21,8.38-.34,16.67-2.22,23.79-6.79,44.74-28.74,4.64-24.23-.61-24C359.09,536.71,338.7,540.19,313.84,552.2Z"/><path class="cls-1" d="M381.07,422.32a43.77,43.77,0,0,0-44.45-9,51.9,51.9,0,0,0-20,12.82c-5.77,6-8.94,14.65-16.86,18.36-3.55,1.66-23.82,0-24.38,5-1.69,15.14,17,29.8,29.88,34.74,27.55,10.59,73.13,12.28,85.27-20.83C396.51,447,391.47,432.05,381.07,422.32Z"/><path class="cls-3" d="M284.55,449.29c-1.15,4.75-5.65,6.08-10.53,4.9s-8.27-4.41-7.13-9.16,6.28-8.68,11.16-7.5S285.7,444.55,284.55,449.29Z"/><path class="cls-4" d="M275.45,442.21c-.09,1.45-1.53,2.16-3.27,2.18s-3.1-.67-3-2.11a3.44,3.44,0,0,1,3.31-3A2.92,2.92,0,0,1,275.45,442.21Z"/><path class="cls-3" d="M469.28,376.27c9.11-29.12-51.66-69.15-42.49-44.68,12.24,7.91,28.45,15.22,32.41,32.33-1.73,14.29-16.95-3.27-18.35-10.45-1.63-4.9-9.21-3.32-8.51,1.86,1.38,20.49,29.06,22.61,22.48,30.88C447.3,394.77,434.49,397.65,423,399a4.37,4.37,0,0,1-4.45-6.15c7-16.88,1.75-51.55-13.59-48a4.72,4.72,0,0,0-.58,6.64c9.56,11.53,14.05,42.07-3.33,48.59-15.25,5.73-57,1.24-67.06-14.14-6.72-10.63,2.25-17.24,1.12-23.32-.89-3.67-6.68-4.66-8.46-1-16.16,33.68,15.65,46.26,47.2,48.19a4.37,4.37,0,0,1,1.63,8.29c-2.55,1.34-5.54,2.28-8.14,3.78-3,2.36-1.23,7.11,2.57,7.6,10,1.29,29-14.79,34.52-19C441.6,407.92,467.35,399.11,469.28,376.27Z"/><path class="cls-5" d="M328.17,446.54c-.85,4-3.53,7.77-7,9.21-5.34,2.22-7.16-3.29-5.68-7.64,1.05-3.09,2.88-7.15,5.5-9.3s5.57-1.58,6.84,1.66A10.64,10.64,0,0,1,328.17,446.54Z"/><path class="cls-4" d="M326.15,439.53c.74,1.22-.35,2.83-2.13,4.09s-3.59,1.71-4.33.49-.06-3.5,1.72-4.76S325.41,438.32,326.15,439.53Z"/><path class="cls-1" d="M380.07,444.86c-.16.66,32.09,20.05,49.82-9.65C430.09,434.88,390.61,400,380.07,444.86Z"/><path class="cls-2" d="M385.37,444.19c-.3.09,15.19-24.79,40.63-5.81C427.21,439.29,415,435,385.37,444.19Z"/><circle class="cls-7" cx="346.02" cy="462.33" r="12.4" transform="translate(-213.37 605.72) rotate(-67.56)"/><path class="cls-8" d="M301.52,473.22c-12,.59-22.68-10.63-22.68-10.58,0,.24.09.48.14.72a49.53,49.53,0,0,0,12.62,13.21c7.09,2.83,15.44,2,20.36-6.41C311.87,470.43,307.49,472.93,301.52,473.22Z"/><path class="cls-8" d="M1035.77,685.89c-2.1,35-28.87,63.31-75.78,56.47-69.83-10.18-91.85-54.62-73.82-84.72,41.18-68.79,51.25-22.72,97.77-31.86C1022.53,618.19,1039.1,630.42,1035.77,685.89Z"/><path class="cls-10" d="M1044.9,826.11c-1.06-15.6-2.24-30.25-3.57-43.08l-12.55-2.95,2.84,42.22c-47.32-13-122-28.39-173.76-39.34L880,745.08l-12.55-3c-7.08,11.17-14.88,24.12-23,38-26.07-5.58-66.16-7.37-72.23-39.82-4.15-22.18,10.69-42.84,34.44-38.29,23,3.74,22.36,43.68-3.46,38.89-7.05-1.77-9.62,9.33-2.56,10.89,40,8.38,45.91-53.81,8.58-60.67A40.24,40.24,0,0,0,760.91,721a48.9,48.9,0,0,0,36.36,58.74l274.66,64.61C1084.21,840.64,1071,834,1044.9,826.11Z"/><path class="cls-1" d="M869.41,763.2,880,745.08l-12.55-3c-2.82,4.45-5.76,9.2-8.79,14.16C861.38,758.15,865,760.5,869.41,763.2Z"/><path class="cls-1" d="M1041.33,783l-12.55-2.95,2.48,36.82q6.43,1,13.12,1.81C1043.45,805.88,1042.44,793.8,1041.33,783Z"/><path class="cls-10" d="M845.93,658.83c27.62,4,49.07,6.32,59.75,35.3,7,19.09,11.37,37.51,34.69,41,27.45,4.13,47.08-27.87,60.11-47,21.22-31.19,52.76-46.49,90.32-44.81,23.38,1,71.1,8.53,63.28,42.29-4.89,10.77-20.36,9-29.7,13.11C1094.11,715.55,1073,751.67,1071,786c-8.78,32.11-269.33-25.76-216.3-62.9,24.64-16,17.19-24.83-1.79-21.63S825.25,655.81,845.93,658.83Z"/><path class="cls-8" d="M1128.71,677.48c-37.22-24-83.55-9.79-114.4,17.91-25,22.46-46.95,72.84-88.88,58.09-20.1-7.07-23.24-25.77-31.24-43-12.14-26.08-34.81-29-60-32.72,1.34,12.17,8.54,25.35,18.7,23.63,19-3.2,26.43,5.6,1.79,21.63-53,37.14,207.52,95,216.3,62.9,2-34.29,23.11-70.41,53.38-87.24,6-2.69,14.66-2.88,21.31-5.6A74.82,74.82,0,0,0,1128.71,677.48Z"/><path class="cls-9" d="M1107,694.66c-22.14,22.69-39,46-49.56,88,0,0-18.31-11.67-3.56-34,2.27-3.45,6.13-8.55,6.15-13,0-4.72-4.27-7.59-3.44-12.8,2.24-14,17.67-4.39,24.9-12.62C1090.89,699.55,1097.89,679,1107,694.66Z"/><path class="cls-4" d="M1040.53,615.48c15-24.28,20-79.38,1.12-96.26-24.83-24.51-75.21-43.39-95.84-5.89a86.34,86.34,0,0,1-29.57,31.24C810.77,612.12,990,697.35,1040.53,615.48Z"/><path class="cls-11" d="M1041.65,519.22a97.64,97.64,0,0,0-15-12,438.05,438.05,0,0,1-6.31,48c-3.55,19.56-7,42.15-20.9,57.35-12.05,13.17-28.73,22.08-46.67,23.27-15.4,1-31-2.78-45.94-7.8,36.34,26.69,105.3,33.41,133.66-12.56C1055.51,591.2,1060.5,536.1,1041.65,519.22Z"/><path class="cls-11" d="M915.85,544.83a109.74,109.74,0,0,0-13.65,10.26c4.67,11,36.62,27.59,39.28,10.6C941.48,565.69,922.11,545.66,915.85,544.83Z"/><path class="cls-12" d="M1007.44,558.39c-2.13-23.42-14.9-67.58-48.41-58.91-7,1.82-12.91,6.66-16.87,12.65s-4.56,13.52-10.54,18c-2,1.54-5.61,2.69-6.32,5.44C916.9,568.34,1010.89,596.37,1007.44,558.39Z"/><path class="cls-5" d="M947.33,527.51c-1.42,1.76,1.83,3.4,2.95,4a74.16,74.16,0,0,1,15.86,11.25,16.2,16.2,0,0,0-5.51-12.42C955.53,526,949.48,524.85,947.33,527.51Z"/><path class="cls-4" d="M953.19,574.55c-13-7.78-13.13-38.65-35.12-35.89-.92,0-10,10.94.87,23.89C928.85,576.41,969.05,583.43,953.19,574.55Z"/><circle class="cls-7" cx="975.8" cy="557.54" r="12.4" transform="translate(41.67 1182.39) rotate(-63.52)"/><path class="cls-7" d="M939.59,538.84c-1.12,6.73-11.11,6.55-16.85,5.41-8.24-1.65-14.12-6.37-12.71-12.37s9.49-10.61,17.67-8.69c5,1.19,11.4,8,11.94,13.35A8.3,8.3,0,0,1,939.59,538.84Z"/><path class="cls-4" d="M926.23,528.32c-.05,1.84-2.16,2.67-4.74,2.6s-4.63-1-4.59-2.85,2.19-3.67,4.77-3.61S926.28,526.48,926.23,528.32Z"/><path class="cls-9" d="M1103.77,516.94s-66.06-97.42-157.68-24.38l115.46,89.67s10.77-27.92,12.69-42.15C1077.07,519.21,1091.53,530.47,1103.77,516.94Z"/><path class="cls-8" d="M1098.53,521.33c-9-5.46-44.22-26.25-49.6-21.24-6.18,5.76,3.24,18.89,4.3,37.82s.39,23.3.39,23.3l10.12,15.11c3.26-9,9.13-26.09,10.5-36.24C1076.67,522.14,1087.7,527.94,1098.53,521.33Z"/><path class="cls-4" d="M1122.35,543.85c-6.73,8.39-13.78,8.63-23.27,1.91s-8.62-16.36-1.9-24.75,12.15-9,21.64-2.24S1129.08,535.45,1122.35,543.85Z"/><path class="cls-11" d="M1126.76,532c-4.12,5.3-13.62,6.88-20.2,4.77-4-1.28-9.72-5.56-12.91-10.09-3.08,6.82-2,13.85,5.43,19.1,9.49,6.72,16.54,6.48,23.27-1.91A18.2,18.2,0,0,0,1126.76,532Z"/><path class="cls-4" d="M1058.14,596.71c-15.86,12.11-31.34-35.94-64.68-64.53s-62.81-20.85-51.75-42.73c9.1-18,44.79-9.38,79.78,24.62C1052.84,544.52,1077.61,581.84,1058.14,596.71Z"/><path class="cls-11" d="M1058.14,596.71c14.26-10.88,4.8-33.8-13.59-57.25,2.68,15.09-8.08,19.51-27,5.34a251.79,251.79,0,0,0-45.33-27,113.8,113.8,0,0,1,21.21,14.38C1026.8,560.77,1042.28,608.82,1058.14,596.71Z"/><path class="cls-8" d="M890.54,678.65c-126.7,11.37-255.95-18.83-363.94-85-39.73-23-80.81-46.82-127.39-54.71C314.93,525,234.5,557.71,153.46,574.14c-4.06.7-2.94,7.53,1.3,6.5,80.14-16.18,160.5-48.87,243.35-35.17,45.42,7.71,86,31.2,125.17,53.91C643.69,670.24,781,701.52,891,681.94Z"/><path class="cls-9" d="M999.27,644.7c-11,0-22.87,11.43-31.82,15.53-16.51,7.57-27.91.2-46.44-1.56-34-3.24-9.71,43.9-9.71,43.9,14.3,10.86,27.86,13.43,41.46,14.34,28.63,1.91,50.62-18,60.23-46,2.66-7.74,1.72-18.64-5.49-23.64A14.11,14.11,0,0,0,999.27,644.7Z"/><path class="cls-4" d="M930.69,685.21c.19,15.58-5,22.84-22.73,18.52-27.16-6.2-20.88-55.25,8.84-47.91C929.38,658.41,930.59,676.39,930.69,685.21Z"/><path class="cls-5" d="M887.6,689.92c-9.68-1.58-26.59.16-29.73-10.14S862.8,660,872,656.54c12.22-4.57,25.3,1.87,35,9.1,6.91,5.14,5.7,16.66,1.86,23.27C904.12,697,897.45,691.52,887.6,689.92Z"/><path class="cls-8" d="M420,537.78l-15.56-3.67s.67-34.58,9.4-40c3.4-2.1,15.57,3.66,15.57,3.66Z"/><path class="cls-8" d="M409.52,549.66l-1.91-15.88s52.21-10.95,65.3-7.84c3.89.92,1.9,15.88,1.9,15.88Z"/><circle class="cls-10" cx="409.94" cy="541.22" r="12.45" transform="translate(-210.78 816.32) rotate(-76.76)"/><ellipse class="cls-4" cx="412.63" cy="536.27" rx="3.65" ry="4.54" transform="translate(-203.88 815.12) rotate(-76.76)"/><path class="cls-8" d="M230.6,574.06,215,570.4s.68-34.59,9.41-40c3.4-2.11,15.57,3.66,15.57,3.66Z"/><path class="cls-8" d="M217.94,568.43l6.11-14.78s50.89,16,60.79,25.1c2.94,2.71-1.42,16.72-1.42,16.72Z"/><circle class="cls-10" cx="223.37" cy="562.83" r="12.45" transform="matrix(0.85, -0.53, 0.53, 0.85, -262.81, 201.86)"/><ellipse class="cls-4" cx="226.06" cy="557.88" rx="3.65" ry="4.54" transform="translate(-368.76 650.16) rotate(-76.76)"/><path class="cls-8" d="M651.23,647.51l-15.91-1.61S632,606.81,640,599.3c3.14-2.92,15.91,1.61,15.91,1.61Z"/><path class="cls-8" d="M643.26,659.43,639.05,644s50.05-18.45,63.46-17.29c4,.35,4.2,15.43,4.2,15.43Z"/><circle class="cls-10" cx="643.17" cy="649.53" r="12.45" transform="translate(-136.4 1126.85) rotate(-76.76)"/><ellipse class="cls-4" cx="645.86" cy="644.58" rx="3.65" ry="4.54" transform="translate(-129.5 1125.65) rotate(-76.76)"/></svg>