<svg id="Layer_1" data-name="Layer 1" xmlns="http://www.w3.org/2000/svg" viewBox="0 0 1200 1200"><defs><style>.cls-1{fill:#b48331;}.cls-2{fill:#974c2a;}.cls-3{fill:#584f58;}.cls-4{fill:#fff;}.cls-5{fill:#161630;}.cls-6{fill:#984c2a;}.cls-7{fill:#da848c;}.cls-8{fill:#802123;}.cls-9{fill:#c02026;}.cls-10{fill:#e5cc5d;}.cls-11{fill:#d2d0c6;}.cls-12{fill:#f0cb9c;}</style></defs><path class="cls-1" d="M670.33,647.28c-3.31-5.9,2.07-12.37,10.67-16.85s17.17-5.26,20.48.64-.25,15.6-8.85,20.08S673.64,653.18,670.33,647.28Z"/><path class="cls-2" d="M692.63,651.15a19.65,19.65,0,0,0,5.37-4.1,33.6,33.6,0,0,1-25.65-10.2,15.07,15.07,0,0,0-1.25,1.63L674,651C678.75,654,686.19,654.5,692.63,651.15Z"/><path class="cls-1" d="M687.24,702c-11-4.9-20.5,9.28-17.79-9.17C672,675.38,681.15,657.94,677,640c-12.21-57.59-69.35-11.2-94.6-39.2-5-4.29-1.39-19.81,1.06-26.66l-41.76-6c0,14.36-4.68,42.76-5,45.49-2.23,19.42-.5,40.73,20.4,49.81,18.08,7.85,38.64-.08,57.59,3.7,6.69,1.34,9.5,5.51,10.13,11.82,1.27,12.8,3.33,25.06,14,34,5.82,4.88,13,6.56,20.21,8.23s14.18,4,19.4,9.63c9.05,9.7,12,24.19,14.17,36.59.21,1.2.4,2.4.59,3.61l22.57-2.86S698.22,706.88,687.24,702Z"/><path class="cls-2" d="M614.52,646.89c-11.86-4.28-31.85,15.63-54.85,3.34-18.2-9.72-21.32-43.43-20.45-54.41-1.19,9-2.38,16.42-2.53,17.75-2.23,19.42-.5,40.73,20.4,49.81,18.08,7.85,38.64-.08,57.59,3.7,7.27,1.46,9.46,5.94,10.23,11.32C622.8,659.59,625.5,650.86,614.52,646.89Z"/><path class="cls-2" d="M579.82,590.4c0-3,1.36-10.31,4-17.27l-42.14-6a163.68,163.68,0,0,1-1.21,18.52C554.85,596.48,571.79,595,579.82,590.4Z"/><path class="cls-1" d="M502.45,633.77c-18,7.5-17.54,55.25-12.53,58.67,22.39,15.23,26.55,15.47,26.55,15.47l5.2-20.53s-14.41-2.27-17.1-10.41c-1.81-5.47-.29-12.06,2.91-16.7,7.06-10.24,25.66-2.17,35-.15,9.16,2,18.63,2.32,27.56-.48,56.15-17.64,11.56-24.09,5.82-25.28C555.56,630.14,532.57,628.11,502.45,633.77Z"/><path class="cls-1" d="M610.24,516.4a50.06,50.06,0,0,0-45.65-21.81,58.33,58.33,0,0,0-25.14,7.84c-7.85,4.7-13.61,12.87-23.19,14.55-4.28.75-25.76-6.62-27.71-1.56-5.92,15.39,10.36,36,22.93,44.74,26.93,18.77,75.77,33.25,97.84,1.93C620.27,546.55,618.85,529.5,610.24,516.4Z"/><path class="cls-3" d="M498.57,517.76c-2.52,4.66-7.75,4.8-12.71,2.2s-7.76-6.93-5.24-11.59,9.14-7.34,14.09-4.75S501.09,513.11,498.57,517.76Z"/><path class="cls-4" d="M490.64,507.8c-.49,1.5-2.24,1.84-4.12,1.37s-3.17-1.56-2.69-3.05a3.81,3.81,0,0,1,4.38-2.19A3.21,3.21,0,0,1,490.64,507.8Z"/><path class="cls-3" d="M718.06,492.73c17.72-28-37.19-86.87-33.88-58.67,11.1,11.7,26.66,23.88,26.32,42.91-5.73,14.5-17.45-8.14-17-16.06-.44-5.59-9.07-6.05-9.71-.42-4,21.86,25.32,31.8,16,38.63-10.44,6.87-25.07,6.32-37.86,4.5a4.76,4.76,0,0,1-3.15-7.68c12.18-15.73,15.82-53.53-1.73-54.07a5,5,0,0,0-2.42,6.79c7.22,14.75,3.83,48-16.74,50-18,1.75-61.93-14.58-68.69-33.51-4.39-13,7.09-17.43,7.51-24.13,0-4.09-6-6.74-8.88-3.4-26.58,30.79,4.42,52.84,38,63.66a4.69,4.69,0,0,1-.48,9.13c-3.12.7-6.61.86-9.82,1.7-3.89,1.64-3.25,7.11.72,8.68,10.45,4.13,35.36-7.42,42.48-10.33C679.59,518.18,709.81,516.12,718.06,492.73Z"/><path class="cls-5" d="M546.48,527c-2,3.92-5.91,7.17-10,7.71-6.37.84-6.86-5.44-4.08-9.59,2-2.94,5-6.69,8.45-8.21s6.46-.1,6.95,3.64A11.11,11.11,0,0,1,546.48,527Z"/><path class="cls-4" d="M546.19,519.13c.47,1.48-1.14,2.86-3.41,3.69s-4.34.78-4.82-.7.89-3.68,3.16-4.5S545.72,517.65,546.19,519.13Z"/><path class="cls-1" d="M603.06,539.74c-.34.65,29.29,30,56.49,3.77C659.85,543.22,626.57,495.71,603.06,539.74Z"/><path class="cls-6" d="M609,540.52c-.35,0,23.13-21.75,45.51,5.23C655.55,547,643.51,539.18,609,540.52Z"/><ellipse class="cls-7" cx="561.53" cy="548.56" rx="13.41" ry="13.84" transform="translate(-109.77 955.48) rotate(-75.55)"/><path class="cls-8" d="M510.45,547.57c-13.11-2.73-21.65-17.46-21.66-17.42,0,.27,0,.54,0,.8a54.27,54.27,0,0,0,10.08,17.36c6.9,5,16.14,6.44,23.75-1C522.41,547.53,517,548.92,510.45,547.57Z"/><path class="cls-1" d="M234.7,461.38c-3.31-5.9,2.06-12.37,10.66-16.85s17.17-5.26,20.48.64-.25,15.61-8.85,20.08S238,467.28,234.7,461.38Z"/><path class="cls-2" d="M257,465.25a19.62,19.62,0,0,0,5.37-4.09A33.6,33.6,0,0,1,236.71,451a18.16,18.16,0,0,0-1.25,1.63l2.93,12.53C243.11,468.07,250.55,468.6,257,465.25Z"/><path class="cls-1" d="M251.6,516.08c-11-4.9-20.5,9.27-17.79-9.18,2.56-17.41,11.7-34.86,7.53-52.81-12.21-57.58-69.34-11.2-94.6-39.19-5-4.3-1.39-19.82,1.06-26.66L106,382.19c0,14.35-4.68,42.76-5,45.49-2.23,19.42-.5,40.72,20.41,49.8,18.07,7.85,38.63-.08,57.58,3.71,6.69,1.33,9.51,5.5,10.13,11.81,1.27,12.8,3.33,25.06,14,34,5.82,4.87,13,6.55,20.21,8.22s14.18,4,19.4,9.63c9,9.7,12,24.19,14.17,36.59.21,1.2.4,2.4.59,3.61l22.57-2.86S262.58,521,251.6,516.08Z"/><path class="cls-2" d="M178.89,461C167,456.71,147,476.63,124,464.34c-18.2-9.73-21.32-43.43-20.45-54.42-1.18,9-2.38,16.42-2.53,17.76-2.23,19.42-.5,40.72,20.41,49.8,18.07,7.85,38.63-.08,57.58,3.71,7.27,1.45,9.46,5.93,10.23,11.32C187.16,473.69,189.86,465,178.89,461Z"/><path class="cls-2" d="M144.18,404.51c0-3,1.36-10.32,4-17.28l-42.14-6a163.68,163.68,0,0,1-1.21,18.52C119.21,410.58,136.15,409.07,144.18,404.51Z"/><path class="cls-1" d="M66.81,447.87c-18,7.5-17.54,55.26-12.53,58.67C76.67,521.77,80.83,522,80.83,522L86,501.49s-14.41-2.28-17.1-10.42c-1.81-5.46-.29-12.06,2.91-16.7,7.06-10.23,25.66-2.17,35-.14,9.16,2,18.63,2.31,27.56-.49,56.15-17.64,11.56-24.09,5.82-25.28C119.92,444.25,96.93,442.21,66.81,447.87Z"/><path class="cls-1" d="M174.6,330.5A50.08,50.08,0,0,0,129,308.69a58.38,58.38,0,0,0-25.13,7.84c-7.86,4.7-13.62,12.87-23.2,14.55-4.28.75-25.76-6.62-27.71-1.55-5.92,15.38,10.37,36,22.94,44.73,26.92,18.77,75.76,33.25,97.83,1.93C184.63,360.65,183.22,343.6,174.6,330.5Z"/><path class="cls-9" d="M62.93,331.86c-2.52,4.66-7.75,4.8-12.71,2.21s-7.76-6.94-5.24-11.59,9.14-7.35,14.09-4.76S65.45,327.21,62.93,331.86Z"/><path class="cls-4" d="M55,321.91c-.48,1.49-2.24,1.83-4.12,1.37s-3.17-1.56-2.69-3.06A3.81,3.81,0,0,1,52.57,318,3.21,3.21,0,0,1,55,321.91Z"/><path class="cls-3" d="M282.43,306.83c17.72-28-37.2-86.86-33.89-58.66,11.1,11.69,26.66,23.87,26.32,42.91-5.73,14.49-17.45-8.15-17-16.07-.43-5.59-9.07-6-9.71-.42-4,21.86,25.33,31.8,16,38.63-10.45,6.87-25.08,6.32-37.87,4.51a4.76,4.76,0,0,1-3.15-7.68c12.18-15.74,15.82-53.54-1.73-54.08a5,5,0,0,0-2.42,6.8c7.22,14.74,3.83,48-16.73,50-18,1.75-61.94-14.57-68.7-33.5-4.39-13,7.09-17.44,7.51-24.14,0-4.09-6-6.74-8.88-3.4-26.57,30.79,4.42,52.85,38,63.66a4.7,4.7,0,0,1-.48,9.14c-3.12.7-6.61.85-9.82,1.69-3.89,1.64-3.25,7.11.72,8.68C171,339,196,327.46,203.07,324.55,244,332.28,274.18,330.22,282.43,306.83Z"/><path class="cls-5" d="M110.85,341.14c-2,3.91-5.92,7.16-10,7.7-6.37.84-6.86-5.44-4.08-9.59,2-2.94,5-6.68,8.45-8.21s6.46-.1,6.95,3.64A11.21,11.21,0,0,1,110.85,341.14Z"/><path class="cls-4" d="M110.55,333.23c.48,1.48-1.14,2.87-3.41,3.69s-4.34.79-4.81-.7.88-3.67,3.15-4.5S110.08,331.75,110.55,333.23Z"/><path class="cls-1" d="M167.42,353.85c-.34.64,29.29,29.95,56.49,3.76C224.21,357.32,190.93,309.81,167.42,353.85Z"/><path class="cls-2" d="M173.33,354.62c-.35,0,23.13-21.75,45.51,5.24C219.91,361.15,207.88,353.28,173.33,354.62Z"/><ellipse class="cls-7" cx="125.89" cy="362.66" rx="13.41" ry="13.84" transform="translate(-256.71 394.09) rotate(-75.55)"/><path class="cls-8" d="M74.81,361.67c-13.11-2.73-21.65-17.46-21.66-17.41,0,.26,0,.53,0,.79a54.27,54.27,0,0,0,10.08,17.36c6.9,4.95,16.14,6.44,23.75-1C86.77,361.63,81.36,363,74.81,361.67Z"/><path class="cls-1" d="M449.28,476.14c-3.31-5.9,2.07-12.37,10.67-16.85s17.16-5.26,20.47.64-.25,15.61-8.85,20.08S452.59,482,449.28,476.14Z"/><path class="cls-2" d="M471.57,480a19.87,19.87,0,0,0,5.38-4.09,33.62,33.62,0,0,1-25.65-10.21,16.61,16.61,0,0,0-1.26,1.63L453,479.87C457.69,482.83,465.13,483.36,471.57,480Z"/><path class="cls-1" d="M466.18,530.84c-11-4.91-20.49,9.27-17.78-9.18,2.55-17.41,11.7-34.86,7.53-52.81-12.21-57.58-69.35-11.2-94.61-39.2-5-4.29-1.38-19.81,1.06-26.66l-41.76-6c0,14.35-4.67,42.76-5,45.49-2.22,19.41-.5,40.72,20.41,49.8,18.07,7.85,38.63-.08,57.58,3.71,6.69,1.33,9.51,5.5,10.14,11.81,1.27,12.8,3.32,25.06,14,34,5.82,4.88,13,6.56,20.21,8.23s14.17,4,19.4,9.63c9.05,9.7,12,24.19,14.17,36.59.2,1.2.4,2.4.58,3.61l22.58-2.86S477.16,535.74,466.18,530.84Z"/><path class="cls-2" d="M393.47,475.75c-11.86-4.28-31.86,15.64-54.86,3.34-18.2-9.72-21.32-43.42-20.45-54.41-1.18,9-2.37,16.42-2.53,17.76-2.22,19.41-.5,40.72,20.41,49.8,18.07,7.85,38.63-.08,57.58,3.71,7.28,1.45,9.47,5.93,10.23,11.32C401.74,488.45,404.45,479.72,393.47,475.75Z"/><path class="cls-2" d="M358.77,419.26c0-3,1.36-10.31,4-17.27l-42.14-6a159.13,159.13,0,0,1-1.21,18.52C333.79,425.34,350.73,423.83,358.77,419.26Z"/><path class="cls-1" d="M281.4,462.63c-18,7.5-17.55,55.26-12.53,58.67,22.38,15.23,26.54,15.47,26.54,15.47l5.2-20.52s-14.4-2.28-17.1-10.42c-1.81-5.47-.28-12.06,2.92-16.7,7.06-10.23,25.65-2.17,35-.15,9.16,2,18.64,2.32,27.57-.48,56.15-17.64,11.56-24.09,5.81-25.28C334.51,459,311.52,457,281.4,462.63Z"/><path class="cls-1" d="M389.18,345.26a50,50,0,0,0-45.64-21.81,58.38,58.38,0,0,0-25.14,7.84c-7.86,4.7-13.62,12.87-23.19,14.55-4.28.75-25.77-6.62-27.71-1.56-5.92,15.39,10.36,36,22.93,44.74,26.93,18.77,75.77,33.25,97.83,1.93C399.21,375.41,397.8,358.36,389.18,345.26Z"/><path class="cls-3" d="M277.51,346.62c-2.52,4.66-7.75,4.8-12.7,2.2s-7.76-6.93-5.24-11.58,9.13-7.35,14.09-4.76S280,342,277.51,346.62Z"/><path class="cls-4" d="M269.58,336.66c-.48,1.5-2.24,1.84-4.12,1.38s-3.17-1.56-2.69-3.06a3.83,3.83,0,0,1,4.39-2.19A3.2,3.2,0,0,1,269.58,336.66Z"/><path class="cls-3" d="M497,321.59c17.72-28-37.19-86.86-33.89-58.66,11.1,11.69,26.67,23.87,26.32,42.91-5.73,14.49-17.44-8.15-17-16.07-.44-5.59-9.07-6-9.72-.42-4,21.86,25.33,31.8,16,38.63-10.44,6.87-25.07,6.32-37.86,4.5a4.75,4.75,0,0,1-3.15-7.68c12.17-15.73,15.81-53.53-1.74-54.07a5,5,0,0,0-2.42,6.8c7.22,14.74,3.83,48-16.73,50-18,1.75-61.94-14.58-68.7-33.51-4.39-13,7.09-17.43,7.51-24.13,0-4.09-6-6.74-8.87-3.4-26.58,30.79,4.42,52.84,38,63.66a4.7,4.7,0,0,1-.47,9.14c-3.12.69-6.61.85-9.82,1.69-3.89,1.64-3.25,7.11.72,8.68,10.45,4.13,35.35-7.42,42.47-10.33C458.53,347,488.76,345,497,321.59Z"/><path class="cls-5" d="M325.43,355.9c-2,3.91-5.91,7.16-10,7.7-6.37.84-6.85-5.44-4.08-9.59,2-2.94,5.05-6.68,8.46-8.21s6.46-.1,7,3.64A11.22,11.22,0,0,1,325.43,355.9Z"/><path class="cls-4" d="M325.14,348c.47,1.48-1.14,2.86-3.42,3.69s-4.34.79-4.81-.7.88-3.67,3.16-4.5S324.67,346.51,325.14,348Z"/><path class="cls-1" d="M382,368.6c-.35.65,29.28,30,56.49,3.77C438.8,372.08,405.52,324.57,382,368.6Z"/><path class="cls-2" d="M387.92,369.38c-.35,0,23.13-21.75,45.51,5.24C434.5,375.9,422.46,368,387.92,369.38Z"/><ellipse class="cls-7" cx="340.47" cy="377.42" rx="13.41" ry="13.84" transform="translate(-109.95 612.97) rotate(-75.55)"/><path class="cls-8" d="M289.4,376.43C276.28,373.7,267.74,359,267.74,359c0,.26,0,.53-.05.79a54.45,54.45,0,0,0,10.08,17.36c6.91,4.95,16.15,6.44,23.75-1C301.35,376.39,295.94,377.79,289.4,376.43Z"/><path class="cls-8" d="M1026,804c-11.73,36.12-48.32,58.3-97.21,38.06-72.77-30.13-84.57-82.84-56.94-109.37,63.11-60.6,61.55-9.51,114.34-6.13C1030,729.32,1044.59,746.75,1026,804Z"/><path class="cls-10" d="M998,953.44c3.06-16.64,5.74-32.33,7.77-46.14L993,900.7l-8.33,45C937,918.91,860.41,882,807.39,856.08l34.19-33.52L828.81,816c-10.67,9.72-22.6,21.12-35.13,33.39C767,836.25,724.12,823.2,726.32,787.5c1.5-24.4,23.14-41.91,47.59-30.52,23.91,10.34,12.38,52-14.25,39.79-7.15-3.82-12.92,7.09-5.71,10.69,41,19.93,64.19-43.59,25.67-61.18-22-11.33-49-3.31-60.35,17.89-13.76,25.75-3.23,57.92,23.46,71.69L1022.3,980.13C1036.59,979.62,1024.1,969,998,953.44Z"/><path class="cls-1" d="M825.22,838.6l16.36-16L828.81,816c-4.25,3.87-8.71,8-13.32,12.38C817.9,831.06,821.13,834.53,825.22,838.6Z"/><path class="cls-1" d="M1005.78,907.3,993,900.7,985.74,940q6.71,2.81,13.7,5.55C1001.91,931.83,1004.08,918.9,1005.78,907.3Z"/><path class="cls-10" d="M828,722.68c28.78,11.92,51.37,20.3,55.09,53.64,2.46,22,2.16,42.48,26.44,52.67,28.56,12,58.44-16.1,77.7-32.53,31.38-26.77,69.62-34,109.78-21.78,25,7.61,74.58,28.76,57,62-8.2,9.93-24.44,3.72-35.66,5.46-37.28,9.21-69.89,41.17-81.29,76.55-18.17,31.2-284.31-102.06-216.93-126.21,31-9.93,25.3-21.23,3.91-23.16S806.47,713.75,828,722.68Z"/><path class="cls-8" d="M1128.79,821.05c-33.78-35.5-87.71-33.56-128.55-13.13-33.11,16.57-70.45,63.24-111.81,36.11-19.83-13-18.18-33.49-22.19-53.73-6.07-30.72-29.79-40.15-56-51-1.84,13.12,2.39,28.94,13.84,30,21.39,1.93,27.06,13.23-3.91,23.16-67.38,24.15,198.76,157.41,216.93,126.21,11.4-35.38,44-67.34,81.29-76.55,7.27-1.13,16.63,1.07,24.56.08A82.09,82.09,0,0,0,1128.79,821.05Z"/><path class="cls-9" d="M1100.68,833c-30.07,17.61-54.6,37.37-77.36,78.4,0,0-16.65-17.33,5.34-36.66,3.38-3,8.93-7.24,10.14-11.85,1.3-4.94-2.56-9.14-.26-14.36,6.2-14,20.3.31,30.34-6.3C1081.93,833.63,1095.05,814,1100.68,833Z"/><path class="cls-4" d="M1050.18,731.49c22.75-21.26,43-77.62,27.21-100.56-20.24-32.6-69.62-66.44-102.06-32.88a94.7,94.7,0,0,1-40.41,24.49C802.61,663.93,973.44,803.2,1050.18,731.49Z"/><path class="cls-11" d="M1077.39,630.93a107.94,107.94,0,0,0-13-16.74,457.71,457.71,0,0,1-19.78,48.53c-9.12,19.52-19,42.22-38.1,54.28-16.58,10.44-37,15.13-56.75,11.38-16.93-3.22-32.83-11.57-47.58-21,32.1,38.1,104.86,64.36,148,24.09C1072.93,710.23,1093.21,653.87,1077.39,630.93Z"/><path class="cls-11" d="M934.43,622.7a124.71,124.71,0,0,0-17.54,6.95C919,642.49,949,668.77,956.5,651.71,956.5,651.71,941,625.32,934.43,622.7Z"/><path class="cls-12" d="M1029.81,662.44c4-25.13,2.14-75-36.45-75.22-8.08-.06-15.76,3.37-21.65,8.55s-8.59,12.9-16.27,16c-2.62,1-6.8,1.24-8.3,3.94C929.21,647.63,1023.28,703.2,1029.81,662.44Z"/><path class="cls-5" d="M973.14,613.33c-2,1.44,1.07,4.07,2.12,5a82.45,82.45,0,0,1,14.12,16.21A17.24,17.24,0,0,0,986.77,620C982.43,614,976.19,611.14,973.14,613.33Z"/><path class="cls-4" d="M966.77,664.25c-11.91-11.77-3.76-44.16-28.28-47.39-1-.31-13.72,8.69-5.51,25.27C940,659.42,981.53,678,966.77,664.25Z"/><ellipse class="cls-7" cx="995.82" cy="652.73" rx="13.41" ry="13.84" transform="translate(115.28 1454.21) rotate(-75.55)"/><path class="cls-7" d="M961.71,623c-3,6.74-13.78,3.77-19.68,1-8.46-4-13.55-10.61-10.41-16.5s13.13-8.48,21.46-4.18c5.13,2.65,10.17,11.56,9.31,17.32A8.6,8.6,0,0,1,961.71,623Z"/><path class="cls-4" d="M950.1,608.3c-.54,1.91-3.05,2.19-5.82,1.4s-4.74-2.35-4.19-4.26,3.36-3.25,6.12-2.46S950.65,606.38,950.1,608.3Z"/><path class="cls-9" d="M1145.18,645.85s-45.13-120.5-163.94-69.49l100.65,126.15s19.18-26.26,25.11-40.64C1115.69,640.8,1128.29,656.62,1145.18,645.85Z"/><path class="cls-8" d="M1138.32,649c-8.26-8.22-40.72-39.83-47.9-36.07-8.24,4.31-1.6,20.69-5.56,40.82s-5.87,24.53-5.87,24.53l6.86,18.66c6-8.5,16.92-24.8,21.15-35.06C1114.47,643.75,1124.83,652.91,1138.32,649Z"/><path class="cls-4" d="M1158,679.23c-9.54,6.92-17.23,5.21-25.68-4.48s-4.9-19.55,4.64-26.47,15.55-6,24,3.69S1167.54,672.31,1158,679.23Z"/><path class="cls-11" d="M1166,668c-5.89,4.4-16.59,3.41-23.14-.64-3.95-2.45-9-8.53-11.22-14.17-5.18,6.29-5.89,14,.7,21.53,8.45,9.69,16.14,11.4,25.68,4.48C1162.3,676.11,1165,672.23,1166,668Z"/><path class="cls-4" d="M1074.29,716.73c-20.43,8.27-24.19-46.4-52.52-85.65s-62.29-39.36-44.42-59.2c14.69-16.33,51,2.65,79.63,48C1082.65,660.56,1099.36,706.58,1074.29,716.73Z"/><path class="cls-11" d="M1074.29,716.73c18.35-7.43,14.31-34.08.76-63.78-1.18,16.56-14,18.19-30.61-1.92a282,282,0,0,0-41.73-40.93,127,127,0,0,1,19.06,21C1050.1,670.33,1053.86,725,1074.29,716.73Z"/><path class="cls-8" d="M870.9,755.88c-140.08-23.4-271.7-91.07-370.62-190.53-36.74-35.19-74.74-71.58-123-92.83C289.92,434.41,194.11,446.28,102,440.91c-4.59-.4-5.22,7.07-.36,7.17,91.05,5.39,186.78-6.46,272.67,31,47,20.74,84.54,56.65,120.81,91.38,111.08,107.82,251.15,178.89,375.33,189Z"/><path class="cls-9" d="M997.66,750.61c-11.88-3.09-27.81,5.61-38.6,7.41-19.9,3.33-30.25-7.57-49.81-14.58-35.93-12.88-22.35,43.3-22.35,43.3,12.53,15.36,26.5,21.83,41,26.58,30.45,10,59.6-4.77,77.55-31.38,5-7.36,6.89-19.05.45-26.3A16.2,16.2,0,0,0,997.66,750.61Z"/><path class="cls-4" d="M912.56,774C908.55,790.33,901,796.49,883,787c-27.7-14.08-7.66-63.73,22.51-47.75C918.38,745.5,914.83,764.67,912.56,774Z"/><path class="cls-5" d="M864.69,766.87c-10.05-4.35-28.81-7.24-29.42-18.91s10.68-19.38,21.52-20.42c14.45-1.39,26.85,9,35.4,19.28,6.09,7.33,1.67,19.06-4.27,24.91C880.63,778.92,874.91,771.3,864.69,766.87Z"/><path class="cls-8" d="M400.05,477.09l-15.84-8.18s10.07-36.05,21-39.28c4.24-1.26,15.84,8.17,15.84,8.17Z"/><path class="cls-8" d="M385.55,486.63l2.23-17.17s59.41,3.08,72.73,10c4,2.06-2.23,17.17-2.23,17.17Z"/><ellipse class="cls-10" cx="388.29" cy="477.91" rx="13.47" ry="13.9" transform="translate(-171.39 734.67) rotate(-75.55)"/><ellipse class="cls-4" cx="392.54" cy="473.47" rx="3.95" ry="5.06" transform="translate(-205.18 618.35) rotate(-63.96)"/><path class="cls-8" d="M185.47,462.33l-15.85-8.17s10.08-36.06,21-39.29c4.25-1.26,15.84,8.17,15.84,8.17Z"/><path class="cls-8" d="M173.3,452.91l10.59-13.79s50.72,30.94,59,43.25c2.44,3.66-6.05,17.12-6.05,17.12Z"/><ellipse class="cls-10" cx="180.68" cy="448.55" rx="13.47" ry="13.9" transform="translate(-298.77 511.54) rotate(-75.54)"/><ellipse class="cls-4" cx="184.93" cy="444.11" rx="3.95" ry="5.06" transform="translate(-295.28 415.34) rotate(-63.96)"/><path class="cls-8" d="M620.52,656.55l-16.77-6.13s7-41.89,17.69-47.51c4.18-2.19,16.77,6.12,16.77,6.12Z"/><path class="cls-8" d="M608.67,666.81l-.37-17.34s59.11-5.38,73.29-.42c4.21,1.47.38,17.34.38,17.34Z"/><ellipse class="cls-10" cx="611.25" cy="656.42" rx="13.47" ry="13.9" transform="translate(-176.92 1084.56) rotate(-75.55)"/><ellipse class="cls-4" cx="615.5" cy="651.98" rx="3.95" ry="5.06" transform="translate(-240.48 918.85) rotate(-63.96)"/></svg>