<svg id="Layer_1" data-name="Layer 1" xmlns="http://www.w3.org/2000/svg" viewBox="0 0 1920 1080"><defs><style>.cls-1{fill:#fff;}</style></defs><path class="cls-1" d="M47.72,344.9c-7.53,0-7.54,11.7,0,11.7S55.26,344.9,47.72,344.9Z"/><path class="cls-1" d="M353.66,684.55c-7.53,0-7.54,11.7,0,11.7S361.2,684.55,353.66,684.55Z"/><path class="cls-1" d="M357.59,455.94c-5.23,0-5.24,8.14,0,8.14S362.84,455.94,357.59,455.94Z"/><path class="cls-1" d="M319,253.17c-10.3,0-10.32,16,0,16S329.34,253.17,319,253.17Z"/><path class="cls-1" d="M192,541.9a8,8,0,0,0-11.31,0,8.28,8.28,0,0,0-2.34,5.65v3a8.26,8.26,0,0,0,2.34,5.66,8.15,8.15,0,0,0,5.66,2.34,8.05,8.05,0,0,0,5.65-2.34,8.32,8.32,0,0,0,2.35-5.66v-3A8.25,8.25,0,0,0,192,541.9Z"/><path class="cls-1" d="M114.24,228.39a8.32,8.32,0,0,0-5.66-2.35h-3a8.27,8.27,0,0,0-5.66,2.35,8,8,0,0,0,0,11.31,8.31,8.31,0,0,0,5.66,2.34h3a8.26,8.26,0,0,0,5.66-2.34,8,8,0,0,0,0-11.31Z"/><path class="cls-1" d="M1804.76,243.47a3.74,3.74,0,0,0-2.59-1.07,3.67,3.67,0,0,0-2.58,1.07,3.8,3.8,0,0,0-1.07,2.59v1.37a3.79,3.79,0,0,0,1.07,2.59,3.72,3.72,0,0,0,2.58,1.07,3.68,3.68,0,0,0,2.59-1.07,3.8,3.8,0,0,0,1.07-2.59v-1.37A3.79,3.79,0,0,0,1804.76,243.47Z"/><path class="cls-1" d="M1675.55,228c-10.3,0-10.32,16,0,16S1685.86,228,1675.55,228Z"/><path class="cls-1" d="M1551.39,349.2c-10.29,0-10.31,16,0,16S1561.7,349.2,1551.39,349.2Z"/><path class="cls-1" d="M1845.31,501.65c-7.52,0-7.54,11.7,0,11.7S1852.86,501.65,1845.31,501.65Z"/><path class="cls-1" d="M1654.52,447a4.33,4.33,0,0,0-6.15,0,4.5,4.5,0,0,0-1.27,3.07v1.64a4.46,4.46,0,0,0,1.27,3.07,4.33,4.33,0,0,0,6.15,0,4.51,4.51,0,0,0,1.28-3.07v-1.64A4.47,4.47,0,0,0,1654.52,447Z"/><path class="cls-1" d="M388.88,582.41a4.33,4.33,0,0,0-6.15,0,4.5,4.5,0,0,0-1.27,3.07v1.64a4.34,4.34,0,0,0,4.35,4.35,4.4,4.4,0,0,0,3.07-1.27,4.55,4.55,0,0,0,1.27-3.08v-1.64A4.48,4.48,0,0,0,388.88,582.41Z"/><path class="cls-1" d="M1477.92,680.86c-7.53,0-7.54,11.69,0,11.69S1485.46,680.86,1477.92,680.86Z"/><path class="cls-1" d="M1227,870.58c-7.53,0-7.54,11.7,0,11.7S1234.55,870.58,1227,870.58Z"/><path class="cls-1" d="M549.71,801.71c-6.11,0-6.12,9.5,0,9.5S555.84,801.71,549.71,801.71Z"/><path class="cls-1" d="M1787.1,357.2c-16.08,0-16.11,25,0,25S1803.21,357.2,1787.1,357.2Z"/><path class="cls-1" d="M1877.55,105.05c-16.08,0-16.11,25,0,25S1893.67,105.05,1877.55,105.05Z"/><path class="cls-1" d="M42.07,70.24c-16.09,0-16.12,25,0,25S58.18,70.24,42.07,70.24Z"/><path class="cls-1" d="M1687.62,586.3c-16.08,0-16.11,25,0,25S1703.73,586.3,1687.62,586.3Z"/><path class="cls-1" d="M1347,809.38c-16.09,0-16.11,25,0,25S1363.09,809.38,1347,809.38Z"/><path class="cls-1" d="M216.53,393.37c-16.08,0-16.11,25,0,25S232.65,393.37,216.53,393.37Z"/><path class="cls-1" d="M64.3,558.1c-6.93,0-6.94,10.77,0,10.77S71.24,558.1,64.3,558.1Z"/><path class="cls-1" d="M512,320.51c-12.87,0-12.89,20,0,20S524.85,320.51,512,320.51Z"/><path class="cls-1" d="M1472.27,216c-12.87,0-12.89,20,0,20S1485.16,216,1472.27,216Z"/><path class="cls-1" d="M1190.25,990.36c-12.87,0-12.89,20,0,20S1203.14,990.36,1190.25,990.36Z"/><path class="cls-1" d="M649.61,940.62a7.26,7.26,0,0,0-5-2h-3a7.21,7.21,0,0,0-4.95,2,7,7,0,0,0,0,9.9,7.26,7.26,0,0,0,4.95,2.05h3a7.21,7.21,0,0,0,5-2.05,7,7,0,0,0,0-9.9Z"/></svg>